<svg width="213" height="108" fill="none" xmlns="http://www.w3.org/2000/svg"><path d="M51.923 18.376c.133 0 .133 0 0 0zm116.002-1.128c-.133.161-.133.161 0 0z" fill="#fff"/><path d="M206.902 52.066c-.398-.645-.265-1.29-.133-1.935 0-.16.265-.16.398-.16 0-.323-.133-.484-.398-.484-.398 0-.663.16-.663.483 0 .161-.132.322-.265.322l-.133-.16c0-.645-.132-1.29-.132-1.935 0-.161-.53-.322-.796-.161-.132 0-.132.161-.132.322l-.796-.483c-.795 0-.795-.484-.795-.968v-.483c0-.161-.133-.322-.265-.322-.133.16-.265.322-.265.483-.133.645-.398.322-.663.161h-.133c0 .161-.132.323-.132.484 0 .322.132.483.53.483.133 0 .663 0 .265.323-.663.645-1.193.806-1.591 0-.265-.645-.928-.806-1.193-1.29-.398-.645-1.193-.967-1.326-1.773 0-.161-.265-.161-.397 0-.265.161-.531.322-.531.645-.53-.161-.928-.484-1.06-.967-.133-.806-.928-3.224-1.326-4.03-.133-.161-.265-.484-.265-.645v-.483c.132-.323.265-.323.53-.162.133.161.265.161.398 0 0-.16.132-.322 0-.483a.93.93 0 00-.663-.323c-.398-.16-.265-.322-.133-.483.133-.161.133-.323 0-.323h-.53c-.398.162-.663.645-1.193.323-.398-.323-.795-.645-.795-1.129 0-.322.132-.805-.266-1.128-.265-.161-.265-.483-.795-.161-.53.322-1.061.483-1.591.645-.265 0-.398-.161-.53-.484-.53-.161-.663-.483-.398-.967.133-.161.133-.322.265-.484-.53-.16-.928-.644-1.325-.483-.929.483-1.857.16-2.917.322-.265 0-.398-.161-.398-.483 0-.484-.132-.806-.795-1.129-.531-.161-.796-.483-1.326-.161-.53.484-1.193.161-1.723.161-.133 0-.133-.161-.133-.161s0-.161.133-.161c.53-.323 1.06-.484 1.59-.645.266-.161.266-.161 0-.322-.265-.162-.662-.323-.928-.323-.397-.16-.53.323-.795.484-.265.161-.398.161-.663.322 0-.161-.132-.322-.132-.322-.133-.161-.266-.484-.266-.645 0-.322 0-.645-.265-.967-.398-.323-.663-.484-1.06-.161-.133-.162-.265-.162-.265-.323-.133-.16-.001-.645-.398-.322-.663.483-1.591.322-1.724 1.29-.132.644-.397.322-.663.16-.132 0-.132-.16-.265-.16-.53-.323-.53-.323-.132-.806l.132-.162c.531-.645.531-.806 0-1.29-.265-.16-.53-.483-.795-.644-.133-.161-.265-.161-.398.161v.161c.133.323.398.645.265.806a2.152 2.152 0 01-1.06.968c-.398.322-.796-.162-1.193-.323-.266-.161-.531 0-.796-.161-.398-.161-.795-.323-1.326 0-.53.322-1.193 0-1.591-.484-.132-.322-.397-.483-.53-.806-.398.323-.795.162-1.06 0-.266-.16-.663 0-1.061 0-.53 0-.795-.322-.795-.806l-.133-.16-.133.16c0 .162 0 .484-.132.645 0 .161 0 .645-.398.323-.265-.162-.53-.484-.795-.645-.265-.323-.663-.484-1.061-.645-.663-.161.265-.645-.132-.967-.398-.322-.796-.806-1.194-.967-.265-.162-.795.322-1.193.483-.132 0-.132.162-.265.162-.133.16-.265.16-.398 0-.53-.645-.53-1.29.133-1.613.663-.322.795-.322.398-.967-.266-.322.132-.644.397-.644.531 0 1.061.16 1.459-.162.663-.644 1.591-.967 2.386-1.29.265-.16.265-.16.133-.322-.133 0-.133 0-.266-.16-.132 0-.265-.162-.397-.162.132-.161.132-.322.265-.322.265-.323.663-.484 1.193-.162.795.484.928.323 1.458-.322.133-.161.133-.322.133-.322.398 0 .663-.484.928-.645.398-.323.795-.484 1.06-.806 0-.322 0-.645-.265-1.128-.265-.645-.928-1.129-.795-1.935-.663 0-1.193-.483-1.856-.645l-.133-.16c.133 0 .265-.162.398-.162s.265-.161.398-.322l-.133-.162c-.398-.16-.663-.483-1.06-.483-.398-.161-.663 0-.663.483h-.796c-.663-.16-.795-.16-1.325 0v.484h.795c.133 0 .133.161.265.161-.663.645-1.193 1.451-2.121 1.773h-.265c-.133 0-.133-.16-.133-.16-.265-1.13.265-2.419-.53-3.547.133 0 .265-.161.53-.161.265-.161.531-.161.133-.484-.265-.322 0-.806-.531-.967l-.132.161c-.133.161 0 .645-.53.484-.796-.323-1.459-.484-2.254 0-.398.322-.796.161-1.193 0-.133 0-.398-.323-.398-.161-.663.483-1.723.322-1.989 1.29-.397 0-.397-.484-.53-.646-.265-.322-.663-.322-1.06-.644-.266-.162-.266-.162-.398 0-.133.16-.133.483-.133.644-.132.645-.663.484-1.06.484-.663 0-.266-.322-.133-.645.133-.322-.265-.645-.53-.645-.265-.16-.265.162-.398.484 0 .484 0 .484-.928.484h-1.326c-.265 0-.265.322-.132.483.132.161.132.323 0 .323-.133 0-.398.16-.531 0-.662-.645-1.06.16-1.59.16l-.133.162c.133.161.265.161.398.322.265 0 .53.162.53.323 0 .16-.133.322-.133.483-.397-.16-.795-.16-1.193-.322-.132-.161-.132-.484-.265-.645 0-.161 0-.322-.132-.483-.133-.162-.266-.323-.398 0-.265.322-.398.644-.663.967-.265.322-.795.322-1.061-.162-.132-.16-.132-.483-.397-.483-.133 0-.266 0-.531.161v.161c.133.806 0 .967-.928.806a1.532 1.532 0 00-1.193 0c-.53.162-.928 0-1.193-.483v-.484c0-.161.133-.161.398 0 .53.322 1.193.484 1.723 0l.265-.322c-.132 0-.265-.161-.397-.161h-1.856c-.531-.162-1.061.806-1.724.16-.132 0-.265.323-.132.484.397.323.53.806.397 1.29-.663.161-1.06-.322-1.591-.484-.662-.16-.132-.322-.132-.644.132-.323-.265-.645-.53-.645-.266-.161-.398.16-.398.483 0 .323 0 .645-.265.967-.398.323-.796.645-.796 1.129 0 .322-.397.161-.397-.161-.133-.162-.133-.484-.398-.484-.796 0-.663-.645-.663-1.128v-.484c-.398.161-.663.322-1.061.484v1.45c0 .162-.132.323-.132.323s-.265 0-.398-.161c-.133-.162-.398-.323-.398-.645-.397-1.128-1.325-1.29-2.253-1.128 0 .322-.133.483-.531.483-.132 0-.265 0-.53-.161-.398-.161-.928-.484-1.326-.645l-.265.161v.323c.133.644.928.644 1.061 1.29v.16l-.133.162c-.53-.323-1.326-.323-1.458-1.129h-.133c-.132 0-.132.162-.132.162v.806c.265 1.128.265 1.128-.531 1.45-.132.161-.928.161-1.591 0-.397 0-.928 0-1.193.323-.265.322-.397 0-.663-.162-.265-.16-.397-.483-.265-.806.133-.16.133-.16.398 0 .133.162.53.323.53 0 0-.16-.132-.483-.397-.483-.398 0-.928-.161-1.194.161l-.397.484c.663.483.132 1.29.663 1.773.265.161.132.322-.133.322h-.53c-.133-.161-.265-.483-.265-.645-.133-.16-.266-.16-.398 0-.265.323-.663.323-.53-.16.132-.646-.398-1.13-.928-1.29-.266-.162-.663 0-1.061 0-.133 0-.133.16-.265.322-.265.161-.796.484-.796.322-.53-.322-.795 0-1.193.162-.398.16-.928 0-1.326.16-.397 0-.132.323-.132.484a.557.557 0 01.132.323c-.397 0-.795.161-1.06-.484-.133-.483-.928-1.128-.133-1.773l-.132-.322h-1.856c-.133-.323-.398-.162-.398 0-.133.806-.795.644-1.326.806-.132 0-.132.322-.265.322 0 .322.265.484.53.806.266.322.398-.161.663-.161.133 0 .398 0 .398.161 0 .322-.265.645-.398 1.128-.132.806 0 .806-.663 1.129-.132-.323-.265-.484-.662-.484-.796.161-1.459-.161-1.989-.484.133-.483.795-.967.53-1.611 0-.162-.132-.162-.265-.323l-.132.161c-.133.806-1.459.806-1.194 1.935 0 .16-.132.322-.265.16-.265-.322-.795-.483-.265-.966.133-.161.133-.323-.133-.323-.132 0-.397 0-.53.162-.132.16-.132.322-.265.483-.265 1.128-.663 1.128-1.723.645-.133 0-.266-.161-.398-.161 0 .16-.133.322-.133.322-.663.161-.928.484-.928 1.128-.132 0-.397 0-.397-.16-.133-.323-.133-.646-.133-.968 0-.161-.265-.322-.398-.322-.398-.162-1.06.483-.928.806 0 .16.133.322.265.483-.795.162-1.458.484-2.12.645-.398.161-.796-.645-1.327-.483-.662.16-1.06-.323-1.59-.484v.161c-.53.806-.53.806.265 1.29.265.16.265.16.132.322-.53.645-.795.645-1.325.322-.266-.16-.398-.16-.663-.322-.133 0-.133-.161-.265-.322.132 0 .265-.162.397-.162.133 0 .265-.16.398-.322-.133 0-.132-.161-.265-.161-.53 0-.796-.323-.796-.806 0-.161-.265-.323-.265-.161-.132.16-.132.483-.265.645-.265.483-.53.483-1.193.16h-.796c0 .323 0 .807-.397 1.129-.133.161-.265.484-.663.161-.398-.483-1.193-.806-1.193-1.612 0-.16 0-.483-.265-.645-.133.162-.133.484-.265.645v.806c0 .161-.133.323-.266.323-.265 0-.53 0-.663-.162-.132-.16-.132-.483-.397-.644-.398-.162-.663 0-.928.322-.398.322-.663 0-.928-.161-.663-.323-.663-.323-1.06.322-.133.161-.266.484-.531.323l-.796-.484c-.265-.322.133-.483.133-.645a.64.64 0 00-.265-.806c-.133-.16-.265-.16-.398-.322 0 0-.265.161-.265.322 0 .806-.398 1.29-.928 1.612-.398.323-.53.323-.663-.322-.795-.484-.928-.484-1.59-.484-.133 0-.266.162-.398.162.132.16.265.16.397.322.133 0 .265.161.398.161l-.265.323c-.133 0-.398 0-.53.16-.266.323-.53.323-.928 0-.133-.16-.398-.483-.53-.483-.398.161-.266.484-.266.806v.806c0 .161-.265.322-.398.161l-1.193-.967c-.398-.484-1.326-.161-1.193-1.128 0-.162-.133-.162-.398 0-.663.806-.663.806-1.856.806h-2.386c-.398 0-.663.16-.928.483-.133.161-.133.323-.133.323.133 0 .398.16.53.16.398-.16.796-.644 1.326 0 0 0 .53-.16.663-.16.265-.162.398-.162.53.16 0 .162 0 .323-.132.484-.265.323-.928.162-.928.645-.398 0-1.06.161-1.193-.161-.53-.484-.928 0-1.326 0a.928.928 0 01-.663-.322c-.265-.162-.398-.484-.53-.806-.133-.323-.663-.484-.928-.645-.265-.161-.398-.645-.398-.806 0 0 .133-.161.265-.161.133 0 .265 0 .53.16.398.162.929 0 .929-.322.132-.16-.265-.644-.53-.644a8.074 8.074 0 00-2.785 0c-.132 0-.265.483-.132.645.132.16.265.16.397 0 .133-.162.266-.162.398-.162.133 0 .265.484.133.645-.133.161-.398.322-.53.484a.708.708 0 01-.929-.162s0-.16-.132-.16l-.265-.323c-.133.161-.133.322-.265.483 0 .162 0 .484-.133.645-.398.323-.53-.161-.796-.322-.662-.484-1.458-.806-2.12-1.29-.796.645-.663 0-.796-.483 0-.323.133-.645-.265-.968-.133-.16-.265-.16-.53-.16-.133 0-.266.16-.266.322-.132.483.398.645.398 1.128 0 .161-.133.323-.133.484h-.265c-.53-.162-.663-.806-1.193-.806 0 .322 0 .645.133.806.265.483.663.967.795 1.45.133.323 0 .645-.53.645-.133-.645-.796-.806-1.193-1.29-.133-.16-.265-.16-.398 0l-.398.484c.265.323.53.645.398 1.129 0 .16-.133.322-.265.483-.398-.161-.928-.322-1.326-.645h-.133s.133 0 .266-.16c.132-.646-.133-.968-.663-.807-.663.161-1.193-.322-1.856-.322-.133 0-.265-.484-.53-.806-.133-.161-.266-.161-.398-.323-.133-.16-.265-.16-.398 0 .133-.16-.133.162-.133.645-.132.806-.265.806-1.06.645-.398 0-.796-.161-1.193-.322-.133 0-.398.16-.53.322-.266.161-.133.322 0 .484a.442.442 0 01.132.644c-.265.484-.398 0-.53 0-.53-.322-1.193 0-1.856-.16-.53 0-.796.322-.796.644-.132.322-.132.161-.398 0-.662-.806-.662-.806-1.193-.322-.132.16-.265.16-.397.322-.53.322-.53 0-.663-.322-.133-.323-.398-.323-.663-.323-.133 0-.265.161-.398.323-.132.16 0 .483-.132.806l-.133.16c-.133 0-.265-.16-.265-.16 0-.323.133-.968-.398-1.129-.53-.161-1.06 0-1.458.484l-.133.161v.161s.133.161.265.161c.266 0 .53-.16.663-.16.398-.162.398 0 .53.16 0 .162 0 .323-.132.484-.133.161-.265.161-.53.161-.796.161-1.06.484-.928 1.128 0 .162.132.323.265.484.132.161.132.323-.133.323-.132 0-.663 0-.663-.162 0 0-.132-.16 0-.16.133-.807-.53-.968-1.06-1.13-.53-.16-.53-.16-.53.323v1.934c0 .162-.266.162-.266.323l-.132-.161c0-.484-.265-.806-.663-.967-.133 0-.133-.162-.265-.162-.133.162-.133.323-.265.484-.133.322.663.645.132.967-.53.484-1.193.806-.398 1.612 0 0 0 .322-.132.322-.53.323-1.193.645-1.723.968-.796.322-1.194.644-1.061 1.45 0 .323-.265.484-.53.484s-.663 0-.796.161c-.53.484-.928.161-1.326-.161-.132-.161-.397-.484-.662-.161-.133.16-.663.322-.398.806.265.322.265.644.265.967 0 .322-.133.483-.398.483s-.53-.16-.53-.322c0-.161-.133-.484-.265-.484-.265 0-.398.162-.398.484v.967c0 .161-.265.161-.265.322l-.133-.16c0-.807-.132-1.613-.132-2.419l-.133-.16-.132.16c.132.806-.398 1.129-1.06 1.451-.133 0-.133.484.132.645.265.161.928 0 .397.645-.53.806-.928 1.773-.662 2.74v1.29c-.133.322-.398.16-.53 0-.133 0-.266-.162-.398-.162 0 .323.132.806-.266.806-1.06.161-1.988.323-3.049-.16-.265-.162-.53 0-.795.322-.133.16-.133.16 0 .322.132.161.663.483.795.322.398-.322 1.06-.322 1.458-.322.53 0 .663.161.663.806 0 .161 0 .322-.132.483-.133.162-.265.162-.398 0-.398-.483-.795-.806-1.458-.322-.398.323-1.06 0-1.459-.322-.662.483-.795.16-.795-.484v-.806c0-.161-.133-.161-.265-.322l-.133.161V43.2c-.397 0-.53-.322-.53-.645l-.265-.161c-.133.645-.796.806-1.193 1.128-.133.162 0 .484.265.645.265.161.53.161.663.323.132 0 0 .322 0 .483-.133.161-.265.161-.53 0-.133-.161-.266-.161-.398-.322-.265-.161-.663.16-.53.16.53.484.265 1.29.397 1.935 0 .161.265.323.398.161.397-.322.53-.16.663.323 0 .322.265.322.53.483 0 .323-.265.484-.663.484s-.795-.161-1.193-.322c-.796.483-1.856.483-2.386 1.29-.266 0-.53-.162-.53-.323 0-.323-.133-.484-.398-.484-.266 0-.53-.161-.796 0-.53.323 0 .484.133.806.397.645-.663 1.29 0 1.934-.53.323-.928.645-1.724.484 0 .161-.132.322-.397.322-.133 0-.133-.16-.133-.322-.265 0-.53.161-.53.322v1.612c0 .162-.265.484-.53.323H1.412c-.398 0-.53.322-.53.645 0 .16 0 .483.132.644.133.323.53.162.796.162-.133.483-.53.483-.928.483-.133 0-.398.161-.398.161 0 .323.265.323.53.323.265.16.398.16.133.483-.133.161-.265.484-.265.645.397.645.397.967.132 1.45-.398.484-.663 1.13.133 1.613.265.161.132.322 0 .645-.133.644-.663 1.128-1.06 1.611-.133 0-.133.162.132.162h.795c0-.161.133-.323.398-.323.132 0 .132.162.132.323.133 0 .398.16.398.16.133.646.53 1.13 1.326 1.29.398.162.132.323 0 .484a.19.19 0 00.132.322c.796 0 1.326.323 1.591.968.796.16 1.06.322 0 .644-.397.162-.397.645-.132.806.265.161.663.161.663.323.265.644.662.806 1.325.806 0 0 .133.16.265.322l-.132.161c-.133 0-.398 0-.53.161-.266.162-.133.484 0 .645.132.161.265.161.397.161h.265c.133-.16.266-.16.398-.322.663-.484.663-.484 1.193 0 .265.161.53.484.928.322.133 0 .266-.322.398-.483.133-.323.398-.161.53 0 .133.161.265.483.398.483h.53c.133 0 .133-.16 0-.322-.132-.161-.132-.322-.132-.322.132 0 .398-.162.53 0 .398.16.265.483.53.806.266.322.928.16.928.644.266 0 .398.162.53.484.531 0 1.061 0 1.061.806 0 .161.133.645.265.645.796.16.928.644.928 1.29l.133.16c.133 0 .265-.16.265-.16v-.162c0-.322.133-.806.133-1.128.663-.162.795.483 1.06.806.265.16.265.483.53.806.266.322.664.16.929.16.397-.644.662-.644 1.06 0 .663 0 .398 1.29 1.326.646.133.16.133.322.265.483l.265.323c.796-.484.663 0 .928.483.265.806.663 1.773.928 2.58l-.795.483a.952.952 0 01-.928 0c-.133 0-.265-.322-.398-.484-.398 0-.53-.322-.53-.645-.133-.644-.663-.322-1.06-.322-.133 0-.266.161-.266.322.133.323.398.484-.133.645-.265 0-.53 0-.795.162-.265 0-.265.16-.133.322.398.483.53.483 1.326.322.133 0 .398-.161.398-.161.663.967 1.989 1.29 2.386 2.58.133.322.53.322.928.16.133-.16.265-.16.398-.16 0 .16.133.483.133.644 0 .161 0 .484-.266.484-.132 0-.265-.162-.397-.162-.265 0-.398.968-.265.968.53.322 1.06.483 1.59.644.266 0 .398-.16.53-.483.133-.484-.132-.806-.397-1.129a.19.19 0 01.133-.322c.132 0 .397 0 .53.161.133 0 .133.161.133.161 0 1.29.928 2.257 1.855 3.063l.266.322c.132.323.132 0-.266.162-.53.16-.662.322-.662.806-.133.967.53 1.29 1.193 1.612.132 0 .265.16.53.16s.398-.16.53-.483c.133 0 .265-.161.398-.161.265-.322.53-.322.663.161.133.484.663.806.53 1.45.53 0 1.326-.16 1.724.162.663.322 1.458.161 1.856.645.265.322.132.967 0 1.45-.133.484.53.806.663 1.29 1.06 0 1.06 0 1.856.967.132.162.53.323.795.484 0 .322.265.483.53.483.398 0 .796 0 .928-.16.398-.162.663-.162.796.16.132.323.398.484.53.806.133.323.53.162.663.162.398-.162.795-.484.663.322 0 .645.265 1.45 0 1.934-.265.645-.663 1.129 0 1.612a.442.442 0 01-.133.645c-.53.322-.397.806-.132 1.29 0 .161.265.161.397.161.266 0 .398-.161.266-.484-.133-.161-.133-.322-.133-.322.265-.323.795-.645.928-1.129.265 0 .398.162.53.323v1.128c.796-.322 1.459-.806 2.387-.161.265.322.795.161 1.193 0 .398-.322.795-.484 1.193 0 .265.322.398 0 .663-.161.663-.323 1.193-.323 1.59.322.133.161.398.484.531.484s.398-.323.663-.323c.132-.161.53-.322.53-.322.265.322.133.645-.132.806-.133.161-.133.161 0 .322.397.484.795.645 1.325.323.265 0 .398-.323.663-.161.398.322.928.161 1.193.322.53.322.796.322 1.326 0 .133-.161.398.161.663.322.53.806.663.806 1.193 0 .133-.161.133-.322.265-.322.133.161.265.322.265.484 0 .322.133.483.398.483.398 0 .928 0 1.193.323.265.322.663.161.928 0 .266-.162.398-.323.53-.484.53-.322.53.161.53.322l.133.162c.133-.162.266-.162.266-.323v-.967c0-.322.132-.484.397-.484.133 0 .398 0 .53.162.266.322.663.483.796.967a.478.478 0 00.928 0c.133-.484.53-.645.928-.806.398-.161 1.06-.484.398-1.129.132 0 .265-.161.397-.161.53.161 1.061.323 1.591 0 .398-.161.796-.161 1.194.323l1.325-.484-.265-.322h-.53c-.265 0-.663 0-.398-.323.133-.161.398-.322.53-.483.398.483.928 0 1.326.161s.663.483.265.967c-.132.161-.132.322 0 .484.133.322.398.161.53 0 .133 0 .266-.162.53-.162.399 0 .929 0 1.062.484.928-.161.928-.161 1.06-.645v-.483l.133-.162c.132.162.265.162.265.323.265.483.398.483.53.161.265-.967 1.06-1.29 1.989-1.128.53 0 .928-.645 1.59-.162.53-.483.663-.322.796.323l.133.161c.132-.161.265-.161.265-.322v-.968c0-.16.132-.322.132-.483.133 0 .266.161.398.161.265.322.398.806.663.967.53.484.928-.322 1.458-.322h.265c.928-.161 1.061 0 1.326.967.133.322.265.484.398.484.53 0 1.06.161 1.458-.162.663-.644.928.323 1.591.323.133 0 .133.322-.133.322-.53.161-.795.323-.795.806 0 .484 0 .967.133 1.451l.132.161c.133-.161.265-.161.265-.322.133-.323-.132-.645.265-.967.266-.162.663-.162.928-.162.53 0 .796.162 1.194.323.265.161.53.161.795.161.398 0 .663-.322.795-.484.266-.322 0-.483-.132-.644a.19.19 0 01.132-.323h.53c.266.484.796.967.266 1.612-.133.161 0 .484 0 .645.398 0 .795-.645 1.326 0l.132.161c.265.161.53.484.796.645.53.161.662-.484.928-.645.397-.161.663-.483 1.06-.645 0-.161 0-.322.133-.483.132-.323.53-.645.795-.484.53.484 1.326.806 1.459 1.612 0 0 .265.161.397.161.265 0 .531-.161.531-.483v-.484c0-.322.265-.483.53-.322.132 0 .398.161.398.161.132.806.662 1.128 1.193 1.612.265.161.795.161.928-.161.265-.484.398-.967.663-1.29.132-.322.53-.483.928-.161.265.161.397.322.663.322.397 0 .795.162.928-.161.265-.322.132-.645-.133-.806-.133-.161-.265-.322 0-.322h.53c.133 0 .133.161.133.161 0 .806.265 1.451 1.326 1.29.397 0 .132.322 0 .483-.133.323.132.645.397.806.398.161.398-.161.398-.322 0-.484 0-.806.53-1.129.133 0 .265-.161.398-.161l.133.161v1.29l.132.161c.133 0 .265-.161.265-.161 0-.645 0-1.29.928-1.128.663.161 1.194.322 1.856 0 .266-.162.796-.162 1.061 0 .928.644 1.326.483 1.723-.484 0-.161.266-.161.398-.322.133-.162.265-.162.398.161v.483c0 .484.132.645.795.323.133-.161.531.161.796.322 0 .161-.133.323-.133.323-.265.161-.663.161-1.06.161-.133 0-.133.161-.133.161v.161c.795.161 1.458 1.128 2.386.484.265-.162.398-.162.663 0 .398.161.796.483 1.193.644.398.162.266-.161.398-.322l.265-.322c.265.161.531.483.796.644l.795.484c.133-.161.133-.484.265-.645.398-.483.928-.806 1.326-1.289.133-.161.133-.323.133-.484 0 0 0-.161-.133-.161s-.133-.161-.133-.161c-.132 0-.132.161-.265.161l-1.193.967s-.132.161-.265.161c-.133-.161-.265-.322-.265-.483 0-.645-.265-1.29.795-1.612.265 0 .265-.484.133-.806-.133-.161-.133-.323-.133-.323.133 0 .398-.161.531-.161.397.161.662.484 1.06.161.398-.322 1.061-.161 1.458.162.266.161.398.322.531.483l1.458-.161c0-.484.53-.484.928-.806.53-.484.663-.161.796.322l.132.162c.133-.162.265-.162.265-.323.398-1.289.398-1.289 1.459-.483.265.322.662.644.928.806.265.161.53.161.662 0 .266-.162.531-.484.928-.323.398.161.796.645 1.194.323.397-.484.795 0 1.06 0 .928-.162 1.193 0 1.724.806.132.161.132.161.53-.162.132-.161.265-.322.398-.161.397.484.795 0 1.193-.161h1.856c.132 0 .265-.161.398-.322.397-.484.397-.484 1.06-.162.133.162.133.323.265.484.133.161.398.322.531.484.132-.162.265-.484.265-.645 0-.323 0-.645.132-.967.265-.484.796-.323 1.193-.323.398 0 .663-.161.928-.322.266-.161.531-.484.796-.645.795-.161.663-.645.663-1.128 0-.161.132-.161.265-.161l.133.16v.323c.132.806.397.967 1.193.806.132 0 .265-.161.265-.322l-.133-.162c-.265-.16-.53-.16-.663-.322-.132 0 0-.322 0-.483.398-.484 1.194-.162 1.724-.484.265-.161.663.484.928.645.132 0 .265.16.398.16 0-.16.132-.483.397-.483.398 0 .531.323.663.645 0 .161.133.645.265.645.265 0 .265-.323.265-.484.133-.322.531-.322.796-.322s.795 0 .398-.484l-.133-.16c-.398-1.935 0-1.613 1.458-1.774.531 0 1.061.161 1.459.322.265.162.795-.16.662-.483 0-.323-.132-.645-.265-.967 0-.162-.132-.323-.132-.323.265-.16.398-.16.663 0 .132.162.265.484.663.161.397-.322 1.193-.322 1.325-1.128 0-.161.265-.161.265.161.133.162.133.484.398.645h.53c.266 0 .266-.161 0-.322-.132-.162-.265-.484 0-.484.796 0 1.326-.161 1.194-1.128l.265-.323c.53.645.795-.16 1.193-.16.132-.323.265-.484.663-.484.663.16 1.06.16 1.458 0v-.162c.133-.16.133-.483.265-.644.133.16.265.16.398.322.133.322.265.484.53.806l.133.161.132-.161c0-.322.133-.645.133-.967 0-.161.133-.161.398 0 1.06.322 1.06.322 1.193-.484v-.806c0-.483.398-.483.795-.483.398 0 .663 0 .796.483v.806c0 .161.265.323.397.161.796-.483.531.162.663.484v.161c.928 0 1.061 0 1.061-.645 0-.967.795-1.128 1.326-1.611 0 0 .265 0 .397.16.398.323.398-.16.398-.322.133-.483 0-.806-.398-1.128-.132-.161-.132-.322.133-.322h.53a2.846 2.846 0 001.856 1.29c0-.323.133-.807.398-1.13.398-.644.928-1.289.795-2.095l.133-.161s.133 0 .133.161c.265.323.397.645.662.967.133.162.266.162.398 0 .133-.16.133-.322.133-.483-.133-.323-.398-.484-.531-.806-.397-.484-.397-.806.133-1.45.53-.646.928-1.29 1.989-1.13h1.06c.133 0 .398-.16.398-.16.132-.645.928-.968 1.193-1.612 0-.162-.133-.323-.133-.484h-.132c-.53.484-.928-.161-1.326-.322-.398 0-.398-.484-.132-.806.132-.162.265-.323.397-.645.398 0 .663 0 .928.161.133.161.398.161.663.322h.265c.133 0 .265-.16 0-.322-.53-.322-1.193-.645-1.591-1.128-.397-.484-.662-1.129-.928-1.612l-.132-.161-.133.16c.133.645-.265 1.13-.53 1.774.398 0 .53.322.398.645-.133.16-.265.322-.663.322h-.796c-.397 0-.662-.161-.662-.483v-2.902h.397c1.061 0 1.061 0 1.061-.967-.265-.161-.663-.484-.796-.323-.53.162-.795.323-.795-.322s-.265-.967-.663-1.128h-.132l-.133.16c-.133.323.265.646.398.807a.442.442 0 01-.133.645c-.398.16-.795.322-1.06.644-.133.162-.398.162-.663.323 0-.323-.265-.645-.133-.967.133-.323.53-.645.796-.968.132-.16.132-.322-.133-.322h-.53c-.133 0-.265.161-.398.322-.133.162-.265.162-.265.323-.133.161 0 .806-.53.483-.531-.322-.663.484-1.194.162-.132 0-.397-.162-.397-.323 0-.322 0-.806-.133-1.29 0-.16-.265-.322-.53-.483 0-.484.795-.967-.133-1.29-.132 0-.265-.16-.398-.322a.64.64 0 01.266-.806c.53 0 1.06-.161 1.591-.161.265 0 .397-.322.662-.322.531 0 .531.322.663.644l.133.162c.132 0 .398.16.53 0 .265 0 .265-.162.133-.323-.133-.322-.265-.645-.265-.967 0-.161 0-.484.265-.484 0 0 .132.323.265.323l.265.322.133-.161c.132-.484.795-1.128-.133-1.612-.265-.161-.265-.322 0-.484.265-.322.398-.322.795.162.133.16.398.483.663.322.531-.322 1.459-.161 1.591-1.128 0 0 .133-.162.265-.162l.133.162v1.45c0 .645 0 .645 1.06.645 0-.16.133-.483 0-.645-.265-.322-.53-.644-.132-.967.265-.322.398-.645.53-1.128v-.484c-.132-.16-.265-.16-.398 0-.397.323-.795.323-1.193 0-.397-.322-.663-.806-1.193-.806-.265 0-.132-.16 0-.322.398-.484.663-.645 1.326-.322.265.16.398.16.663.322 0 0 .132 0 .265-.161l.132-.161c-.265-.162-.397-.484-.795-.645-.398-.161-.928 0-1.326-.161-.265 0-.265-.162-.132-.484.265-.645.265-.645-.398-.967-.265-.161-.265-.322 0-.484.53-.322.53-.322.265-.483-.398-.161-.795-.484-1.193-.484-.928-.161-.133-.483-.133-.806.133-.322-.132-.645-.53-.645h-1.06c.132-.806-.266-1.45-.531-2.095-.132-.161.265-.484.531-.322.265 0 .397.16.662.322.531.161.796.161.928-.322v-.484c.398 0 .531.322.796.483.265 0 .53 0 .663-.16.132-.162 0-.484.132-.645.133-.484.265-.484.663-.162.53.323 1.061.323 1.458 0 .398-.322.531 0 .796.162.265.16.53.16.663 0 .265-.323.265-.645.132-.968 0-.16-.265-.483-.53-.483h-1.061c0 .161-.132.322-.132.322s-.133.161-.133 0c-.132-.161-.265-.161-.132-.322.132 0 .265-.161.397-.161 0-.162.133-.323.133-.484l.398-.484h.53c.795.484 1.591.645 2.519.484.265 0 .53.161.663.161.53.323.53-.161.53-.483.265-.806.796-.967 1.458-.645.133 0 .133.161.133.161.398.645 1.193.645 1.856.645.398 0 1.591-.484.795.806 0 0 .266.322.398.161.928-.161 1.856.967 2.917.161 0 0 .265.161.265.323v.322c0 .161.133.645.265.645.265.16.265-.161.398-.484.265-.484.663-.806 0-1.29-.133 0 0-.322 0-.483.132-.161.265-.161.398 0 .132.161.265.161.397.322.663.162 1.061 0 1.193-.806 0-.322.133-.644.531-.644v-.968h1.591c0-.483.132-.967.53-1.29.132-.16.265-.16.398 0 .53.323.795.807.662 1.452 0 .16-.265.322-.53.322v.967c0 .161.133.323.265.484.133 0 .133 0 .265-.161l1.194-.967s.132-.162.265-.162c.132 0 .265.161.265.323.132.16 0 .483.398.322.928-.483 1.193-.806.928-1.128zm-40.303-35.624c0 .161 0 .322-.132.322 0-.161 0-.161-.133-.322h.265zm-1.458 1.934c.398 0 .53.161.663.484h.132-.662l-.133-.162c-.265-.16-.133-.322 0-.322zm-1.458-5.48c.132.16.265.16.397.16.133.162 0 .323-.265.162-.132 0-.132-.161-.132-.322zM3.269 56.9a.351.351 0 01-.53 0c-.133 0-.266-.16-.266-.322 0-.161.133-.483 0-.645-.132-.16-.265-.16-.53-.322v-.484c0-.322.133-.483.398-.483.398 0 .53.161.53.322.133.645-.132 1.29.398 1.773.132.161.132.161 0 .161zm4.242-7.414c0-.162-.132-.162-.132-.323.132 0 .397 0 .265.323H7.51zm2.121-.484l-.132-.161v-.161h.132c.266.16.266.322 0 .322zm3.447-7.415c.265 0 .53.161.53.322v.323h-.397c-.133-.161-.265-.161-.398-.323l-.132-.16c.132 0 .265 0 .397-.162zm-.928 1.45c0 .162 0 .162 0 0 .133.162.265.162.398.162v.161c-.398.161-.398 0-.398-.322 0 .161-.132.161 0 0zm.398 6.287c-.133.162-.265.162-.398 0-.132-.16-.265-.16-.397-.322-.133-.161-.133-.322.132-.322.398-.162.663.16.663.483v.161zm.398-2.74c-.265 0-.265.322-.133.484.265.322.398.483 0 .806a.708.708 0 01-.928-.162c-.132-.16-.265-.16-.398-.16v-.968c0-.322-.132-.645.266-.967.265-.161.53 0 .795-.161.265 0 .53-.162.663-.323.398-.322.398.161.398.323 0 .645.265 1.128-.663 1.128zm1.458 0c-.133-.161-.133-.322 0-.322h.133c.132 0 .132.16-.133.322zm1.193-3.385l.133.161-.133.161-.132-.16c-.133 0 0-.162.132-.162zm-.53-1.128l-.133-.162s0-.16.133-.16h.133a.189.189 0 01-.133.322zm.53 5.964c-.132 0-.132-.161-.265-.161l.133-.162.132.162c.133 0 0 0 0 .16zm1.06-4.997c-.264 0-.264-.161 0-.323 0 .162.133.162 0 .323.133-.161 0-.161 0 0zm.929 1.934l-.133-.161.133-.161.132.16c0 .162 0 .162-.132.162zm.265-3.224c0 .161-.133.161-.133.323l-.132.16c0-.16-.133-.16-.133-.322 0-.16-.132-.16-.132-.322 0 0 .132-.161.265-.161.265 0 .265.161.265.322zm1.06-1.29c-.132.162-.265.162-.397 0-.265-.322-.53 0-.796 0l-.265-.322c0-.322.133-.483.265-.645.265 0 .663 0 1.06.162.266.16.266.483.134.806zm1.459 1.613l-.133-.162.133-.16.132.16-.132.162zm-.133-3.547c0-.16 0-.16 0 0 .133-.16.133-.16.265-.16 0 .16 0 .16-.132.322l-.133-.162zm0-2.579c0-.16-.132-.322-.132-.483 0-.162.132-.162.265-.323 0 .161.132.323.132.484 0 .161-.132.322-.265.322zm.663 1.129l-.133-.162.133-.16.133.16-.133.162zm1.458-1.451c-.265 0-.397-.161-.662-.161.132 0 .265-.162.397-.162.133 0 .265.162.398.162l-.133.16zm.663 45.134l-.132-.161s0-.161.132-.161h.133c.132.161 0 .161-.133.322zm1.591-48.52l.133.162h-.133s-.132 0-.132-.161c0 .161.132.161.132 0zm-1.06 1.29c-.133 0-.133 0-.266-.16l.133-.162c.133.161.133.161.133.322zm.265 45.296c.132 0 .265.161.397.161v.161c-.397 0-.397-.16-.397-.322zm1.06.967c-.132.484-.397.484-.795.484l-.133-.162c0-.16.133-.322.133-.322h.795v-.645l.265-.16.133.16c.133.323 0 .645-.398.645zm4.243 9.027c-.133-.161-.398-.161-.53-.322-.133-.162-.398-.323-.266-.484 0 0 .133-.161.265-.161.398 0 .663.161.663.483-.132.162-.132.323-.132.484 0-.161 0-.161 0 0zm2.386-64.478l.133.162s0 .16-.133.16-.133-.16-.265-.16c.132 0 .265-.162.265-.162zm0 1.451l.133.161s0 .161-.133.161-.133-.16-.265-.16c.132 0 .132-.162.265-.162zm0 2.418c-.265-.161-.265-.161 0-.322l.133.16-.133.162zm1.06-.484l-.132-.16.133-.162.132.161s-.132 0-.132.161zm2.652-3.062c-.133 0-.133-.162-.265-.162l.133-.16a.19.19 0 01.132.322c.133 0 .133-.162 0 0zm2.386 70.442c0 .16 0 .16 0 0v-.645l.266-.161.132.16c.133.484 0 .645-.398.645zm1.326-.484l-.133-.161s0-.161.133-.161h.133c.132.16.132.322-.133.322zm2.121-.484l-.132-.16.132-.162.133.161-.133.161zm1.856 6.609c-.132-.161-.265-.161-.397-.161-.133-.161 0-.322.132-.161.133 0 .265.161.265.322 0-.161 0-.161 0 0zm.663-1.128c-.398.161-.53-.161-.53-.484-.265 0-.398-.16-.398-.322 0-.322.133-.645.133-.806h.132c.133 0 .133.161.133.161v1.129h.663l.132.16c-.132 0-.132.162-.265.162zm.265-5.158c-.132.16-.265.16-.265-.161l.133-.162c0 .162.132.162.132.323zm1.856-73.988c.133 0 .133 0 0 0h.133l.133.16-.133.162c0-.161-.133-.161-.133-.322zm.133 79.146c-.265-.161-.265-.161 0-.322l.133.16-.133.162zm.265-4.997c-.133 0-.265-.161-.398-.161.133-.161.266-.161.266-.161.132 0 .265.16.397.16 0 0-.132.162-.265.162zm3.05 6.448c-.133 0-.133-.162-.266-.162l.133-.161c.132 0 .132.161.132.323zm0-78.34c-.133-.162-.133-.162-.266-.162l.133-.161c.132 0 .132 0 .132.322 0-.16 0-.16 0 0zm3.048 1.934c-.265-.162-.265-.162 0-.323l.133.162s0 .16-.133.16zm.266-3.385c0 .322-.266.483-.663.483-.133 0-.133-.161-.133-.161 0-.161.133-.322.133-.322h.663zm6.76.806c-.132.16-.264.16-.264-.162l.132-.16c.133.16.133.16.133.322zm.266 80.274l.133-.161.132.161c0 .323-.132.323-.265 0zm.928-80.597l-.795-.483c-.266-.323.132-.323.265-.484.132-.161.265-.161.397-.161.266.322.398.806.663 1.128-.265-.161-.397 0-.53 0zm3.314 1.45c-.132 0-.265-.16-.397-.16l.265-.323c.132 0 .265.162.397.162 0 .16-.132.322-.265.322zm2.254 2.419l-.132-.161.132-.162.133.162c0 .16 0 .16-.133.16zm.53-2.418c-.132 0-.132-.161-.132-.322-.133 0-.265 0-.398-.162-.132 0-.132-.16-.132-.322.265 0 .53.161.53.484.132 0 .265 0 .398.16 0 0-.133.162-.266.162zm1.194 1.45c-.133 0-.133-.16-.266-.16l.133-.162c.133 0 .133.162.133.323zm.53-2.9c-.133.16-.398.322-.53.483l-.133-.161c-.133-.323 0-.645.398-.645.132 0 .265 0 .53.161-.265 0-.265.161-.265.161zm.397 79.79c0-.161-.132-.322-.132-.483 0-.162.133-.162.265-.323 0 .161.133.323.133.484 0 .161-.133.161-.266.322zm1.459-79.468s-.133.16-.265.16c-.398 0-.928-.805-.796-1.128l.133-.16s.132 0 .265-.162c.133 0 .53.161.795.322.133.162.266.162.266.323-.133.322-.266.483-.398.645zm.795 1.128c-.132 0-.132-.161-.265-.161l.133-.161c.132 0 .132 0 .132.322.133-.161 0-.161 0 0zm5.834-1.934l-.133-.162.133-.16.132.16s-.132 0-.132.162zm1.06 77.373h-.133l.133-.161.133.16c0-.16 0-.16-.133 0zm.53-76.406l-.132-.161.132-.162.133.162-.133.16zm4.11 76.245l.133-.162.132.162c-.132.16-.265.16-.265 0zm1.724-76.245s-.133 0-.133-.161l.133-.162.132.162-.132.16zm2.253 76.728c-.132.161-.265.161-.265-.161l.133-.161c0 .16.132.16.132.322zm7.822-78.662l.133.16-.133.162-.132-.161s.132 0 .132-.162zm-1.856.483c.133 0 .265.161.398.161-.133 0-.265.161-.398.161-.132 0-.265-.16-.398-.16.133 0 .266-.162.398-.162zm.53 76.567l-.132.161h-.133l.133-.16h.132zm-1.856-.161c0 .161.133.322.133.484-.133.16-.133.322-.265.322-.133-.161-.133-.322-.133-.322.133-.162.265-.323.265-.484zm-1.06-73.343l.132.16-.132.162-.133-.161v-.161c0 .16.133 0 .133 0zm-.265 73.827c0 .16-.133.16-.265.322-.133-.161-.133-.322-.266-.645 0 0 .133 0 .133-.161h.133l.132.161.133.323zm-.663-75.923c.132.161.265.323.398.645l.132.161c-.132 0-.265.161-.398.161-.397 0-.53-.16-.53-.644 0 0 .265-.162.398-.323zm-1.326.806l.133-.161.132.161c-.132.161-.265.161-.265 0zm1.724 78.018c0-.161-.133-.161-.133-.322h-.133v-.162c-.132 0-.265 0-.397-.16v-.162c.265 0 .265.161.265.322h.132c.133 0 .398 0 .266.323.132.161 0 .161 0 .161zm.662-1.128h-.397c-.133 0-.133-.161-.398-.323h-1.326c-.132 0-.132-.16-.132-.16 0-.162.132-.323.265-.323h1.856c.133 0 .265.16.398.322-.133.161-.133.323-.266.484zm1.591 2.579c-.265.322-.53.645-.928.645-.132 0-.397-.162-.397-.162 0-.322.795-.806 1.193-.806.132 0 .132.162.132.162v.161zm1.459-1.451s-.133.161-.266.161h-1.325c-.796 0-1.06-.161-.928-.967 0-.161.132-.322.265-.322.132.16.265.16.265.322.133.322.133.645.663.645.265 0 .398-.161.53-.484.133-.483.398-.483.663-.16.133.16.265.321.398.644 0-.161-.133 0-.265.161zm.795-78.179c-.132.161-.132.322-.265.322-.133-.16-.265-.322-.265-.644l.265-.162c.133.162.133.323.265.484zm.398 78.985l-.133.161-.265-.322c0-.161.133-.323.133-.323h.265c.265 0 .132.323 0 .484zm1.06-7.415l-.132.161-.133-.16c.133-.162.265-.162.265 0zm-.662 4.836c.132 0 .132.161.132.161-.132 0-.132.161-.265.161l-.133-.16c.133-.162.266-.162.266-.162zm0 3.707c-.266-.161-.266-.161 0-.322l.132.161c0 .161 0 .161-.132.161zm1.193-1.612h-.398c-.133 0-.265-.161-.265-.322l-.133-.161c.133 0 .265-.161.398-.161.265 0 .53.161.53.322s0 .322-.132.322zm1.723-81.564h1.724s.132.162.132.323l-.132.16c-.53 0-1.061 0-1.591-.16 0 0 0-.162-.133-.323zm.796 78.34l-.133.162c-.133 0-.265.161-.398.161-.132 0-.265-.484 0-.645 0 0 .133 0 .265-.161h.531c-.133.161-.133.322-.265.484zm.53 2.418c-.265-.16-.265-.322 0-.322l.132.161s0 .161-.132.161zm.663.968s-.133 0-.133-.162l.133-.161.132.161c-.132 0-.132.162-.132.162zm.265-79.791h-.796c-.132 0-.132-.162-.132-.162v-.16c.265-.162.928-.162 1.193 0-.133.16-.133.322-.265.322zm1.193-1.612c-.265 0-.398-.162-.663-.162.133 0 .265-.16.398-.16.132 0 .265.16.398.16-.133 0-.133.323-.133.162zm1.193 0c-.132.16-.265.16-.265-.162l.133-.16c.132 0 .132.16.132.322zm1.061 81.886c-.133.161-.265.161-.398-.161l.133-.161h.132c.133.161.265.161.133.322zm0-83.337h-.133c0-.323.133-.323.265-.323h-.132c.132 0 0 .162 0 .323zm1.06 84.788c-.132 0-.265-.161-.265-.161-.132-.161 0-.484.265-.484l.133.161s.133.323-.133.484zm1.591-83.337c-.265.16-.928.16-1.193 0l-.132-.162c.265-.16.397-.483.662-.644.133-.162.398 0 .663 0 .133.322.265.645 0 .806zm3.182 83.337c-.133.161-.265.161-.265-.161l.132-.161h.133c.133.161.133.322 0 .322zm-.133-86.239c-.265 0-.662 0-.928-.161-.132 0-.132-.322-.132-.645 0-.161.132-.161.398 0 .265.161.53.161.928.323.132 0 .132.16.132.16a1.706 1.706 0 00-.398.323zm2.254.806c-.132 0-.265 0-.265-.161v-.645c.398 0 .53.323.53.645-.132.161-.132.161-.265.161zm2.652.967h-.133c-.132-.322-.398-.806-.53-1.128h.265c.133 0 .265 0 .398.161.132.322.132.645.132.967h-.132zm.265-3.224c.265 0 .398.162.398.323h-.133c-.133 0-.265-.161-.265-.323zm0 1.29l.132-.161.133.161c0 .161-.133.161-.265 0zm1.988 86.884c-.132.161-.265.161-.265-.162l.133-.161s0 .161.132.323zm3.978 1.45c-.133 0-.133-.161-.133-.322h-.53.132c0-.161.133-.322.133-.322.265 0 .265.161.265.322.133 0 .265 0 .398.161 0 .161-.133.323-.265.161zm1.988 0l.133-.161.132.161c0 .162-.132.162-.265 0zm4.905-90.268c0-.162-.132-.162-.132-.323h-1.326c-.132 0-.132-.16-.132-.16v-.162c.265 0 .397-.161.662-.161.398 0 .531.16.663.483h.133c.132 0 .398 0 .265.323h-.133zm1.194 4.513c-.266-.161-.531-.322-.531-.645l.133-.16c.398 0 .663.16.663.483a129.1 129.1 0 00-.265.322zm5.833-4.513l-.265-.162c0-.16.132-.322.265-.644l.132.16c.133.323.133.485-.132.646zm2.254-.484c-.266 0-.266-.161-.398-.322.132 0 .265.16.398.16v.162zm1.193 87.367c-.265 0-.398-.161-.531-.322 0-.323.133-.484.398-.484.398 0 .53.161.53.323.133.322 0 .483-.397.483zm6.231 0h-.133l.133-.161.132.161c-.132-.161-.132 0-.132 0zm1.458-1.773c.265 0 .398-.161.663.161l-.133.323c-.265 0-.397-.162-.663-.162 0-.16.133-.322.133-.322zm.663 2.257c0 .161-.265.161-.398.161 0-.161.133-.322.133-.322.265-.162.397 0 .265.161zm1.06-1.612s-.132 0-.132.161c0 0 0-.161-.133-.161v-.161c0-.162.133-.162.265-.323 0 0 .133.161 0 .484zm1.061.161h-.133l.133-.161.133.161c-.133-.161-.133 0-.133 0zm2.652-3.546c-.133 0-.133-.161-.266-.161l.133-.162c.132.162.133.162.133.323zm0-81.887c-.266 0-.266-.161 0-.322v.322zm2.253-3.224c.133.162.265.162.398.162v.16c-.265 0-.265-.16-.398-.322zm.531 85.433l-.133.161c-.133 0-.265 0-.265-.16v-.646c-.133 0-.265 0-.265-.16-.133-.162 0-.323.132-.162.133 0 .133.161.133.322h.265c.133.162.133.323.133.645zm.397-1.29c-.132 0-.265-.16-.265-.16 0-.162.133-.323.265-.645.133.16.133.322.265.322-.132.161-.265.322-.265.484zm1.989-80.758l-.133-.16v-.162s.133 0 .133-.161l.132.161c0 .161 0 .161-.132.322zm.265-2.901v.161c-.133.161-.265.161-.398 0-.132-.161-.265-.161-.397-.322v-.161c.132 0 .265-.162.397-.162.265 0 .398.162.398.484zm.265 83.66l-.132-.162s0-.16.132-.16h.133c0 .16 0 .322-.133.322zm.53-73.344l-.132-.16.132-.162.133.161s0 .161-.133.161zm0-9.027l.266-.322c.132-.161.397 0 .397.161-.132 0-.132.162-.265.162-.132.16-.265 0-.398 0zm.663 80.92c-.132 0-.265-.161-.265-.161 0-.161.133-.484.265-.645.133.161.133.322.265.322-.132.162-.265.323-.265.484zm.398-73.021s0-.161-.133-.161v-.161c0-.162.133-.162.266-.323 0 .161.132.323.132.484-.132 0-.132.161-.265.161zm1.723 72.537c-.132 0-.132 0-.265-.16l.133-.162c.133 0 .132 0 .132.322 0-.16 0-.16 0 0zm8.485-63.51h-.132l.132-.161.133.16c0-.16-.133 0-.133 0zm2.387 0c-.133 0-.266-.161-.398-.161l.265-.323c.133 0 .265.162.398.162 0 .16-.133.322-.265.322zm2.518.161c-.132.161-.132.322-.265.322h-.265c-.132-.16-.265-.483 0-.644h.133c.397 0 .397.16.397.322zm.928 57.869c-.132 0-.132-.161-.265-.161l.133-.162a.19.19 0 01.132.323c.133-.161.133-.161 0 0zm1.061-34.98l.133.162-.133.161-.133-.161c0-.161 0-.161.133-.161zm0 35.947l-.133-.161.133-.161.133.16-.133.162zm-.265-20.472l.132-.16.133.16c0 .161-.133.161-.265 0zm10.871 9.833c0 .161.132.161.132.323h.133c-.133 0-.398 0-.265-.323zm-1.458 1.612l-.133.161-.133-.161c.133-.322.266-.322.266 0zm-1.856-5.158c.265 0 .265.161.397.322-.132 0-.265 0-.397-.322zm-.531 8.06h.133c0 .16.132.322.132.322l-.265.322-.132-.16c0-.162-.133-.323.132-.484zm-2.121 1.45c.133-.16.398-.16.53-.16.398 0 .663 0 .796.321 0 .162 0 .323-.133.484-.397-.161-.795-.322-1.193-.645zm.133 1.451c.132.161.265.322.265.484 0 0 0 .16-.133.16l-.132.162-.265-.322c0-.323.132-.323.265-.484zm-3.315-13.38c0-.16.265-.16.398-.16 0 .16-.133.322-.133.322-.265.161-.397 0-.265-.161zm5.834-7.414c.132 0 .265 0 .265.161l-.133.161s-.132 0-.132-.16v-.162zm-.398-2.58l.132.162s0 .161-.132.161c-.133 0-.133-.16-.265-.16.132 0 .265-.162.265-.162zm-.663 1.613h.133c0 .161 0 .161-.133.322v-.322zm-3.579 4.674c-.133 0-.133-.16-.266-.16l.133-.162c.132 0 .133.161.133.322zm.132-10.477c-.133.161-.398.161-.398-.161 0-.162.133-.484.266-.645.265-.161.662 0 .928 0 .132 0 .132.161.132.161l-.132.161c-.133.161-.531.323-.796.484zm.928 1.29h.133v.16c-.133.162-.265.162-.265-.16 0 .16-.001 0 .132 0zm0 1.289l-.132-.161.132-.161.133.16-.133.162zm.796-29.176c0 .483-.266.483-.663.483-.133 0-.265-.16-.398-.322-.133-.161.132-.484.53-.645h.398c.133.161.133.323.133.484zm1.193 29.337s.132.161.132.322c-.132 0-.265.162-.397.162-.133 0-.266-.162-.398-.323.265-.16.53-.16.663-.16zm-.663-2.579v.161c0 .161-.133.484-.133.645-.132 0-.265-.161-.265-.161-.132-.323 0-.645.398-.645zm1.591-2.901h-.531c-.265 0-.53-.162-.53-.484 0-.161.133-.322.133-.484.132.162.265.162.397.323.266.16.398.322.531.645 0-.162 0-.162 0 0zm4.242-3.063c-.398 0-.53-.323-.53-.645 0-.161.132-.161.265-.161l.132.161c.133.161.133.323.133.645zm11.136-7.415c.133.161.265.161.265.161v.161c-.132 0-.132-.16-.265-.322zm.531 6.931c-.133 0-.266 0-.398-.16-.265-.162-.398-.162-.531-.323h-.132c0 .16-.133.16-.133.322-.265-.322 0-.322.133-.322v-.162c0-.322.133-.483.398-.483.53 0 .795.322.928.645 0 .322-.133.483-.265.483zm3.712-.967c-.266 0-.531-.161-.531-.322s0-.484-.265-.484l-.132.322c0 .645-.398 1.129-1.061 1.451h-.133c0 .161 0 .323-.265.323v-.161c.133 0 .265-.162.265-.162v-.16c-.132-.807.663-1.452.663-2.258 0-.322.663-.16.928-.16s.398.16.398.483c.133.483.133.806.133 1.128zm.662-1.29l.133-.16.133.16c0 .323-.133.323-.266 0zm2.784-1.289c-.132 0-.132-.161-.132-.322h-.133c.133 0 .265 0 .398.16.133 0 0 .162-.133.162zm-43.351-36.106c.133 0 .133 0 0 0zm5.303 1.45c.132 0 .132 0 0 0zm18.693 54.484c0 .161 0 .161 0 0zm-18.03 23.857c-.133 0-.133 0 0 0z" fill="#fff"/><path d="M126.164 104.293c.133-.162 0-.162 0 0zm61.382-32.401c1.458.323 1.989 1.129 1.723 2.418v.645c0 .161.266.323.398.161.398-.322.796-.322 1.193-.322 0-.322-.265-.484-.663-.484-.265 0-.265-.322 0-.483.398-.161.663-.161.663-.645v-.967c0-.161.133-.323.265-.484.133.162.266.162.398.323.133 0 .265.16.398.16h.132c0-.16.133-.16.133-.322h.133c0 .323-.133.323-.266.323 0 .322.133.967 0 1.128-.53.484-.132.967 0 1.29.531.161.928.483 1.061.967.133.645.663.645 1.193.645h.398V75.6c-.133-.806-.265-.967-1.193-1.29-.928-.16-1.193-.967-.531-1.612.266-.16.531-.483.796-.644.132-.162.265-.162.398 0 0 .16.132.322 0 .483l-.398.484c.265.322.53.645.928.645s.928 0 1.06-.484h.796c.132.161.265.484.265.645.133.484 0 .806-.663.806-.132 0-.132.161-.265.322.133 0 .265.161.398.161.795 0 .795 0 1.06-.806.266-.967.266-.967 1.591-.806.133 0 .398 0 .398-.16.133-.162.133-.484 0-.645-.133-.162-.265-.162-.398-.162-.53-.322-.53-.645.133-.967.132 0 .265-.161.398-.322-.133 0-.266-.161-.398-.161-.133 0-.265-.162-.398-.162-.398-.322-.53-.16-.663.323 0 .161-.265.322-.265.322-.53-.483-1.326-.322-1.989-.322-.795-.161-.795-.161-.928-.967 0-.484.133-.968-.662-1.129-.398 0-.133-.322 0-.483.132-.323.265.16.132-.162 0-.16-.265-.16-.398-.16-.53 0-.662.483-1.06.644-.398.322-.398.161-.53-.322-.133-.645-.133-.645-.796-.484-.663.161-1.06.645-1.591.645-.397.161-.397.483-.265 1.128v.967c0 .323-.132.323-.398.162-.265-.323-.53-.162-.795 0-.133 0-.53-.162-.795-.323-.663.484-.796.967-.133 1.129zm6.098 3.547h.133v.161c-.133.161-.265.161-.398-.161.133.161.133 0 .265 0zm3.712-2.902l.133.161c-.133.162-.265.162-.265 0 0-.16.132-.16.132-.16zm-2.253 0c.132-.322.397-.16.662-.16.266 0 .266.16.133.322-.133.16-.265.322-.265.644-.53-.322-.796-.483-.53-.806zm-1.591-2.579c.132 0 .265.161.397.161v.484c0 .322 0 .484-.132.484h-.53c-.133 0-.398 0-.531-.162-.132 0-.265-.16-.265-.322 0-.161.663-.645 1.061-.645zm-2.519.645h.132v.161c-.132 0-.265 0-.265-.161h.133zm-1.061.967l.133.161c-.133.162-.265.162-.265 0 0-.16.132-.16.132-.16zm0 1.45l.133.162c-.133.161-.265.161-.398 0 .133-.161.265-.161.265-.161zM91.165 18.376c.663.161 1.193-.161 1.59-.645.266-.322.531-.16.929 0 .795-.644 1.59-.322 2.519-.483.132 0 .265-.161.265-.323-.133 0-.133-.16-.265-.16-.663-.162-1.459.16-1.989-.484-.53.644-1.326.16-1.856.644-.265.162-.398.162-.663 0-.928-.322-1.723-.806-1.59-1.934l-.133-.161c-.133.161-.265.161-.265.322v.806c0 .806-.265.967-1.193.484-.266-.161-.398-.161-.398 0v1.45l.132.162.266-.323v-.16l.132-.162c.133 0 .398.161.398.161 0 .322-.133.967.398 1.128.397.162.795 0 1.193 0 .132-.16.397-.322.53-.322zm7.557-1.612c-.265 0-.398-.161-.53-.483 0-.323.132-.484.397-.484s.53-.161.53-.484c0-.483-.265-.483-.662-.644-.398 0-.398-.162-.928.483l-.133.161c-.133 0-.133-.16-.133-.16-.132-.484-.132-.807.133-1.13.398-.483 0-.483-.398-.483-.265 0-.265-.16-.265-.322.53-.484 0-.645-.265-.967-.133-.161-.265-.161-.398.16-.132.485 0 1.13-.928 1.29-.397 0-.397.484-.265.806.133.323.398.645.53.968.398 0 .796.16 1.194.322.662.322.795.322.53 1.29 0 .16 0 .16.132.322.398.483.796.483 1.326.483 0-.16.133-.322.133-.322.53-.483.53-.645 0-.806zm86.703 57.708c.132-.645.53-.968 1.193-1.129.265 0 .265-.16.132-.322-.397-.323-.662-.967-1.325-1.129v.484c0 .322-.133.484-.398.484s-.53 0-.663-.323c-.132-.322-.265-.483-.53-.806-.133-.16-.265-.16-.398-.16 0 .16-.132.322-.132.483v1.612c0 .16.132.16.397 0 .398-.323.663-.162.663.322v.967c.398-.161.928 0 1.061-.483zM30.712 94.782c.265.645.662.967 1.325.967.663 0 1.06-.483 1.591-.644.398-.162.133-.806.133-1.129v-1.45c0-.323-.133-.645-.663-.645-.398 0-.928-.162-.928.483.132 0 .398.161.398.161.132.484.132 1.129.132 1.773 0 .323-.53.968-.663.968l-.795-.484c-.133 0-.133-.161-.265-.161-.133-.161-.265-.161-.398.161.133-.161.133-.161.133 0zm54.752 8.06c.796-.323.928-.161 1.061.483v.968c0 .161.265.322.53.322s.398-.161.398-.484v-1.289c0-.645-.265-.806-.928-.806-.53 0-1.06.161-1.458.161-.133 0-.133.322-.133.322 0 .162.133.162.265.323.133.161.133 0 .265 0zM18.25 75.761c-.398.323 0 .484.132.806.265.323.53.484.928.161.265-.16.663-.483.663-.967v-1.45h-1.06c.132.644-.266 1.128-.663 1.45zm101.551 31.917c.265-.162.132-.484-.133-.484-.663 0-.928-.806-1.458-.967-.53.483-.663.161-.795-.323l-.133-.161-.133.161c-.265.484-.132.968.133 1.129.663.322 1.326.645 2.121.967-.132 0 .133-.161.398-.322zM17.852 38.203c.133 0 .133 0 0 0zm-.662-.967c-1.194-.161-2.387-.323-3.448.322 0 .323.133.484.398.484.398.161.795 0 1.193-.323.265-.16.663-.322.928 0 .53.484 1.06.323 1.59.323 0-.323-.397-.645-.662-.806zm152.856-23.373c-.132 0-.132 0 0 0zm-.398-1.129c-.132-.16-.265-.16-.397-.322-.133.161-.265.322-.265.483 0 .484 0 .968-.796.968-.398 0-.265.645-.265 1.128 0 .161.265.161.265.161.663-.322.928-1.128 1.724-1.29 0-.322.132-.805-.266-1.128zm38.579 44.167c-.132-.806-.53-.967-1.325-.806-.133 0-.133.162-.133.162l.133.16c.663.162.928.323.397.807.266.161.531.484.796.645.265.16.663 0 .663-.484-.398 0-.398-.161-.531-.483zM134.649 4.03a.93.93 0 00-.663.322.641.641 0 00.265.806c.133.161.398.323.663.161.265-.322.663-.644.928-.967.133-.161.133-.322-.132-.322h-.531c-.265 0-.397-.161-.53 0zm-30.094 13.218c0 .483.133.644.928.644.133 0 .398 0 .53-.16.265-.323 0-.484-.132-.484-.531-.323-.796-.806-.663-1.451l-.133-.161c-.132 0-.265.161-.265.161-.265.484-.265.967-.265 1.45zM57.226 19.02c.398-.805 0-1.128-.928-1.128-.265 0-.53.162-.53.323-.133.483.53 1.128 1.06 1.128.133-.16.266-.16.398-.322zm143.842 51.422c-.132 0-.132.161-.132.161-.133.322 0 .806-.796.322-.265-.16-.397.162-.397.323v.483c.132.162.132.484.53.162.265-.162.53-.162.663-.323.398-.161.53-.645.265-1.29 0 .323-.133.162-.133.162zM79.631 16.28c-.132 0-.663 0-.398.484.133.161.53.484.796.323.265-.162.663-.162.928-.323.132 0 .132-.322.265-.322 0-.161-.265-.484-.398-.484-.397 0-.795.161-1.193.323zm38.977-7.253c-.398-.161-1.061 0-1.193.161-.133.322 0 .967.132 1.128h.265c.133 0 .133 0 .133.162v-.162c.265-.322.53-.806.663-1.29.132 0 .265 0 0 0zM85.2 6.931c-.133.162-.266.323-.133.484.265.806.53.806 1.458.484.132 0 .265-.162.398-.162v-.16c-.663-.323-1.326 0-1.724-.646zm6.363 98.973s.132.162.265.162c.265 0 .53-.162.53-.323.133-.644-.132-1.128-.663-1.45h-.132l-.133.161c-.132.483.53.645.265 1.128-.132.161-.132.322-.132.322zm13.125-93.331c.397.322.795.484 1.325.645l.133-.161v-.162c-.265-.644-.796-1.128-1.326-.967 0 .162-.265.645-.132.645zm92.138 54.484c-.133 0-.133.322-.265.322v.161c.265.161.398.484.795.645.133.161.265-.645.133-1.128l-.133-.162c-.132.162-.397 0-.53.162zM138.361 9.672l.265-.162c0-.483-.53-.967-.795-.967-.133.161-.398.323-.53.484-.133.322.265.322.397.322a.93.93 0 00.663.323zM13.212 70.925h-.796c-.265.162-.397.645-.132.806.265.162.398.162.663.162.397 0 .663-.162.663-.484-.266 0-.398-.161-.398-.484zm73.313-56.74c-.133.322 0 .806.53.967.133-.483.663-.806.53-1.45h-.265c-.265.16-.662.16-.795.483zM17.852 36.43c.265-.161.53-.322.53-.806v-.161c-.132-.162-.132-.162-.398-.162-.132.162-.397.162-.662.323-.133 0-.265.161-.398.161.133.161.398.323.53.484.133.322.265.322.398.16zm102.877-21.761c.265.322.53.644.928.644.133-.16.398-.16.398-.322 0-.161 0-.483-.133-.483-.265-.162-.663-.162-.928-.162-.133 0-.265.323-.265.323zm-.928-3.385c.265.16.663 0 .795-.323 0-.161.133-.483 0-.645-.132-.16-.265-.322-.53-.322-.133 0-.265.161-.265.161 0 .161.132.323.132.645 0 .161-.53.322-.132.484zm31.552 90.591v-.484c-.397-.322-.795-.484-1.193-.645l-.132.161c0 .162-.133.323 0 .484.397.161.795.322 1.06.645 0 0 .133 0 .265-.161zM4.595 49.97c0-.161-.133-.322-.266-.483l-.132.16c-.133.645-.796 1.13-.663 1.774h.53c.265-.322.796-.806.53-1.45zm82.062-32.883c-.397.483 0 1.29.663 1.611h.133l.132-.16c-.265-.484-.397-.968-.662-1.451-.133-.162-.266 0-.266 0zm14.716-8.383c0-.16-.265-.322-.265-.16-.398.16-.795.483-.663.966 0 .323.133.484.53.484.133 0 .398 0 .398-.161.133-.161.133-.323.133-.484-.133-.322 0-.483-.133-.645zm70.264 19.827c.133.162.265.162.398 0 .132-.322.398-.483.53-.644v-.323c0-.161-.132-.161-.398-.161-.132.161-.397.161-.662.322-.133 0-.266.162-.398.323.265.161.398.322.53.483zm-.663-2.256c-.53.16-.928.322-.928.967h1.193c.266 0 .398-.323.266-.484 0-.322-.266-.483-.531-.483zm30.36 26.758c.132.483.265.645.662.483.133 0 .266-.16.398-.322.133-.322-.132-.484-.53-.645h-.398c-.132.161-.132.323-.132.484zM78.04 15.797c.133 0 .265-.161.398-.322-.265-.162-.398-.323-.663-.484-.265-.161-.398.161-.53.322-.133.162-.133.323-.133.323.133 0 .265.161.398.161h.53zm120.112 48.681c0-.323-.265-.484-.663-.484-.265 0-.398.322-.398.484 0 .322-.132.806.531.806 0-.323-.133-.806.53-.806zm-4.905 1.289v-.161c-.266-.322-.398-.645-.928-.645h-.266c-.265 0-.265.161 0 .323.266.16.531.322.796.483 0 .161.265 0 .398 0zm-3.05 1.29c0-.323-.132-.484-.397-.484s-.531 0-.531.323c-.132.322.133.644.531.644.132-.16.397-.322.397-.483zm-3.049 2.74c-.132-.161-.265-.161-.398-.161 0 .161-.132.322-.132.483 0 .323-.133.806.53.806.133-.16.265-.322.398-.644 0-.323-.265-.323-.398-.484zm15.511 2.579l.133-.161c.398-.645.132-1.128-.53-1.29-.133 0-.266.162-.398.162l.132.16c.133.323.266.484.398.807.133.16.265.16.265.322zm-3.447 2.902l-.132-.162c-.133 0-.265.162-.265.162 0 .483 0 .967.132 1.45l.133.162.132-.162c0-.16.133-.483.133-.322-.133-.645-.133-.967-.133-1.128zm-8.087.644c-.132 0-.132.162-.132.162v.16c.398.162.795.323 1.06.484l.266-.322c.132-.322-.133-.484-.398-.484h-.796zm-51.968 27.726c0-.323 0-.484-.266-.484-.397-.161-.662.161-.662.484 0 .322.132.483.397.483s.398-.161.531-.483zM116.619 5.48c-.132 0-.265.162-.265.484 0 .323.133.484.398.484s.53-.161.53-.323c0-.483-.133-.644-.663-.644zm-17.897 99.619c.132 0 .265 0 .397-.162 0-.161 0-.322-.132-.322-.265-.484-.796-.484-1.326-.484.133.484.53.806 1.06.968zm7.424-.162c-.133-.161-.398-.322-.53-.161-.266 0-.398.161-.398.484 0 .322.265.322.53.483.265-.161.53-.483.398-.806zm7.026-97.522c-.265 0-.53.161-.53.322-.133.323.132.645.53.645.265 0 .398-.161.398-.483 0-.323-.133-.323-.398-.484zM49.14 19.343c.264 0 .662 0 .927-.16.133 0 .133-.323.133-.485 0-.16-.133-.16-.265-.322l-1.194.484v.16c.266.162.398.323.398.323zm87.365-9.833c0-.322-.398-.644-.663-.483-.132 0-.265.161-.265.322 0 .323 0 .645.53.645h.398V9.51zM15.73 36.43c.133-.161.133-.322.133-.484 0-.16-.265-.16-.397-.16-.265.16-.663.322-.928.322-.133 0-.133.16-.133.16.133 0 .265.162.398.162.265.161.663.322.928 0zm36.193-18.86c-.132-.322-.397-.322-.663-.322-.132 0-.265.161-.265.322.265.322.53.645.928.645v-.645zm0 .645c0 .161 0 .161 0 0zm74.772-6.125c-.133 0-.398-.162-.531-.162-.265 0-.397.323-.397.484.132.322.397.483.663.483.132-.16.265-.483.397-.644-.132 0 0-.161-.132-.161zm-30.36-6.448h.133c0-.161.132-.323.132-.484 0-.161-.132-.322-.132-.645h-.133c-.265.323-.265.968 0 1.129zM30.314 22.728c.132 0 .265-.16.132-.16a2.235 2.235 0 01-.397-.646c-.133-.16-.265-.16-.398 0v.162c.133.483.398.806.663.644zM95.54 7.415c-.265-.161-.398.161-.53.322 0 .162 0 .484.265.484s.53-.322.663-.645c-.133 0-.266-.161-.398-.161zm38.446.161s0 .323.133.323c.132.16.265.16.398.322h.132c.133-.161.133-.322.265-.322 0-.162-.132-.323-.265-.323-.132-.161-.398-.161-.663 0zm-25.984 1.29c.132 0 .265-.162.132-.162-.132-.322-.397-.483-.53-.805-.132.16-.265.322-.265.483 0 .322.265.484.663.484zM130.539 0c-.265 0-.397.161-.397.484 0 .16 0 .322.132.322.265 0 .796-.484.663-.645 0 0-.265-.161-.398-.161zM82.945 13.057c-.132 0-.265.483 0 .644.133.162.266.162.53.162.133 0 .266-.162.266-.323-.133-.16-.265-.322-.398-.322-.132-.161-.265-.161-.398-.161zm29.697-2.579l.132.16c.266-.16.531-.322.796-.483-.133-.161-.265-.322-.398-.322-.398.161-.663.322-.53.645zm23.2 0c-.265 0-.265.322-.265.644 0 .162.265.323.265.162.265-.162.663-.323.663-.806-.265 0-.53-.162-.663 0zm.663 0c0-.162 0-.162 0 0zm47.859 76.728v-.645c0-.161-.132-.161-.265-.161l-.133.161v.323c.133.16.133.483.266.644 0 0 0-.16.132-.322zM11.754 82.37c-.266-.161-.663 0-.796.484 0 .16.133.322.133.483.265-.16.53-.483.663-.645.132-.16.132-.322 0-.322zm96.248 22.89c.132-.161.132-.323.132-.323 0-.161-.53-.161-.662 0-.133 0-.133.162-.133.323s.133.161.265.322c.133-.161.265-.322.398-.322zm75.567-27.403c-.133.16-.133.322-.265.322 0 .322.132.484.397.484.398.16.663-.162.663-.484-.132-.161-.398-.161-.53-.322-.133.16-.265.16-.265 0zm-161.077.161c0-.161-.53-.161-.663 0-.133.322-.133.483-.133.806l.796-.484c.133 0 .133-.322 0-.322zm175.129-1.128c0 .16.133.322.266.483.132-.161.132-.322.265-.483v-.323c-.133-.161-.133-.322-.265-.645-.133.162-.133.484-.266.645v.323zm-16.836-4.836s.132.16.265.16c.398 0 .663-.16.53-.644l-.132-.161c-.266.161-.531.483-.663.645zm2.784-4.03c-.133.161-.265.161-.265.322v.645c0 .161.132.161.265.322l.132-.16c0-.162 0-.323.133-.484 0-.162 0-.323-.133-.484l-.132-.161zm2.916-.484l.133.161c.132 0 .265-.16.398-.16.132-.162.397-.323.265-.484a.352.352 0 00-.531 0c-.265 0-.265.322-.265.483zm20.814-17.409c-.132 0-.132 0 0 0zm.133 1.289c.133 0 .265-.16.265-.16 0-.484.265-.968-.53-1.129v1.129c.132 0 .265.16.265.16zM11.488 38.687v-.645c0-.161-.132-.161-.265-.161l-.132.16v.646c0 .16.132.322.265.322 0 0 .132-.161.132-.322zM120.199 13.54c.132.323.397.323.662.162l.133-.162-.133-.16c-.265 0-.53 0-.662.16zm40.567-.16c-.132 0-.133.16-.133.321l.133.162c.398 0 .53 0 .663-.484h-.663zm6.629.483c0-.162 0-.323-.133-.484-.398-.161-.398.161-.398.322v.484c.266.161.398 0 .531-.322zm-73.181 1.773c.133-.161.265-.161.265-.323 0-.16-.132-.322-.132-.483-.133.322-.265.322-.265.483 0 0 0 .162.132.323zm-10.871 1.289c0 .162.133.162.265.162.266-.162.266-.323.133-.645l-.133-.161c-.265.322-.265.483-.265.644zm2.387-.483c-.133.161-.133.322-.133.322 0 .161.133.323.133.323.132-.162.265-.162.265-.323s-.266-.322-.266-.322zm-6.099 2.095s.133.162.265.162c0-.162.133-.323.133-.323-.133-.161-.133-.322-.265-.322 0 0 0 .322-.133.483zm87.764 74.794s.132.162.265.162l.132-.162c0-.322-.132-.483-.397-.644v.644zM47.548 18.86l-.265.322c0 .161.133.323.133.323.132 0 .265-.162.265-.162s-.133-.16-.133-.483zm115.207 3.062c-.265.162-.133.323-.133.645l.133.161c.132-.16.132-.322.265-.322 0-.161-.133-.322-.133-.322 0-.162-.132-.162-.132-.162zM124.706 1.128l-.132-.16c-.133.16-.133.322-.266.644 0 0 .133.161.266.161.265-.161.265-.322.132-.645zm8.617 1.773c0-.16-.132-.16-.265-.322-.132.161-.265.161-.265.322 0 .162.133.323.133.323.132.161.397-.161.397-.323z" fill="#fff"/><path d="M31.374 92.525l.133.162c.398 0 .53-.162.663-.484h-.663c0 .161 0 .322-.133.322zm63.503 13.379c-.132 0-.265-.161-.398-.161-.132 0-.265.161-.397.161.132 0 .265.162.397.162.133 0 .266-.162.398-.162zM151.884 4.997c-.133 0-.265.161-.265.161.132 0 .265.161.397.161.133 0 .265-.16.265-.16-.132 0-.265-.162-.397-.162zM79.233 6.125l.266.323c.132 0 .265-.161.397-.161 0-.162-.132-.323-.132-.323-.133 0-.398.161-.53.161zM24.613 87.69c0-.162.133-.323.133-.323-.133-.161-.133-.322-.265-.322-.266.161-.266.322-.266.645.133-.162.398-.162.398 0zm163.198-1.774c-.133.162-.133.323-.133.323 0 .161.133.322.133.322.133-.161.133-.322.265-.322-.132 0-.132-.161-.265-.323zm-1.326-1.611c0-.162-.132-.162-.265-.323 0 .161-.132.323-.132.484 0 .16.132.16.265.322.132-.161.132-.322.132-.483zM125.236 7.737s-.132-.16-.265-.16l-.132.16c0 .323.132.645.397.645.133-.161.133-.483 0-.645zM20.106 80.92c0-.162-.133-.323-.133-.323h-.398c0 .161.133.322.265.645 0-.161.133-.161.266-.323zM122.187 8.382c-.132 0-.398 0-.398.322 0 0 .266.162.398.162.133 0 .265-.162.398-.162-.133-.16-.265-.16-.398-.322zm3.58.484c.132 0 .397 0 .397-.162.133-.322-.132-.322-.397-.322h-.398c0 .322.133.484.398.484zm65.358 66.412c.398 0 .663-.162.663-.484h-1.06c0 .322.132.484.397.484zM89.707 105.099c0-.162-.133-.162-.265-.323-.133.161-.266.161-.266.323 0 .161 0 .322.133.322.265.161.398 0 .398-.322zm117.592-33.368c.133 0 .265.162.398.162s.265-.162.398-.162c-.133 0-.265-.16-.531-.16 0-.162-.132 0-.265.16zM127.092 10.8c.133 0 .266-.161.266-.161 0-.161-.133-.323-.133-.484-.133.161-.265.161-.265.323 0 0 .132.16.132.322zm35.132 0l.266-.322c0-.162-.133-.323-.133-.484h-.133c-.265.161-.132.322-.132.645l.132.161zm36.856 59.964c0-.161.132-.322.132-.483-.132-.162-.132-.323-.265-.323-.132.161-.132.323-.265.645 0 0 .265.161.398.161zm-1.856-.322c.132 0 .132 0 .132-.161.133-.162.133-.162-.132-.323h-.663c.132.323.265.484.663.484zm-12.86-.645c0 .161 0 .322.133.484h.132c.133 0 .133-.162.133-.162 0-.16 0-.322-.133-.483 0-.161-.132-.161-.265.161zm-2.651 0c0 .161.132.322.265.645.132-.161.265-.161.265-.323 0-.16-.133-.322-.133-.322-.132-.161-.397-.161-.397 0zm-76.76-58.513c0-.162.132-.323.132-.484 0-.161-.132-.161-.265-.322 0 .16-.132.322-.132.483l.265.323zm64.828 81.725l.133-.161c0-.323-.133-.484-.531-.645v.645c.133.161.398.161.398.161zm22.14-25.791l.132.161c.266 0 .398-.161.663-.161-.132-.161-.265-.161-.397-.323-.133 0-.398.162-.398.323zm6.363-1.29c.133 0 .133-.16.133-.16 0-.162-.133-.323-.133-.323h-.663c.133.322.398.483.663.483zm1.591-.483s.133-.161.133-.323c-.133-.322-.398-.16-.663-.16-.133 0-.133.16-.133.16.266.162.531.323.663.323zm-4.64-.323c0 .162-.132.323-.132.484 0 .161.132.161.265.322 0-.16.132-.322.132-.483 0-.161-.265-.323-.265-.323zm-77.158-54.161c0 .161-.132.323-.132.484 0 .161.132.161.265.322 0-.161.133-.322.133-.483l-.266-.323zm64.696 48.681s.133.161.265.161c0-.161.133-.322.133-.322-.133-.162-.133-.323-.265-.323 0 .161 0 .323-.133.484zm-54.09-48.036l-.132.161c0 .323.132.484.397.645v-.645c0-.161-.132-.161-.265-.161zm2.387.161c0-.161-.133-.161-.266-.161l-.132.161v.645c.398-.161.53-.322.398-.645zm-9.546.483c.133 0 .265-.16.531-.16-.133-.162-.133-.323-.266-.323-.132 0-.265 0-.53.161 0 .323.133.323.265.323zm83.654 43.846c-.132 0-.265.16-.398.16v.162c.133.322.398.161.663 0 .133 0 .133-.161.133-.161-.133 0-.265-.161-.398-.161zm3.845-.323l-.133.161c0 .162.133.323.265.645l.266-.322c-.133-.323-.133-.484-.398-.484zM2.076 53.194l.132.161c.133 0 .265-.161.265-.322.133-.322-.132-.645-.53-.645 0 .323 0 .645.133.806zm152.459 47.713l-.265-.161c-.398.161-.133.323-.133.645l.133.161c.133-.161.265-.322.265-.645zm48.522-49.325c.133.645.53.484 1.061.484-.266-.645-.663-.484-1.061-.484zM73.798 103.325c0 .162.132.162.265.323l.133-.161v-.645c-.266-.161-.53 0-.398.483zm14.848-90.591l-.132-.16c-.133 0-.266 0-.266.16v.645c.266-.161.398-.322.398-.645zm-79.809 32.4c-.133-.16-.133-.16-.265-.322 0 .161-.133.322-.133.483 0 .162.133.162.265.323 0-.323.133-.484.133-.484zm187.724-1.128c0 .161 0 .484.265.484l.133-.162c0-.16 0-.483-.266-.483 0 0-.132 0-.132.161zM13.61 37.72c.132 0 .132 0 0 0zm-.53-.484c-.133 0-.133.161-.266.322l.133.161h.663c0-.483-.133-.644-.53-.483zm173.405-3.708c-.132-.16-.265-.322-.397-.322-.133 0-.266.161-.398.161 0 .161.132.323.132.323.133 0 .398-.162.663-.162zM124.441 2.58c.133 0 .133.16.265.16 0 0 0-.16.133-.16l-.133-.162-.265.161zm1.326.16l-.133-.16-.132.16c0 .161.132.161.265 0zm-29.299.484l-.133-.161-.132.16.132.162c.133 0 .133-.161.133-.161zm34.469.161c0-.161 0-.161.133-.322h-.133l-.133.16.133.162zm-24.791.322l-.133-.16-.132.16c0 .162.132.162.265 0zm15.246 1.29l-.133.161c.133 0 .133.161.265.161 0 0 0-.16.133-.16-.133-.162-.265-.162-.265-.162zm-16.307.645l-.132-.161-.133.16c0 .323.133.323.265 0zm35.53 0l-.133-.161-.132.16.132.162s.133 0 .133-.161zm-20.151 1.451l-.133-.162-.132.162c0 .16.132.16.265 0 0 .16-.133.16 0 0zm6.894.161c-.133-.161-.266-.161-.398 0l.132.16c.133-.16.266-.16.266-.16zm-1.061.483c0-.16-.133-.16-.133-.16l-.132.16c0 .162.132.162.265 0zm2.121.967l-.132-.16-.133.16c0 .162.133.162.265 0zm-6.231.968l.133.16.132-.16-.132-.162-.133.162zm1.724 0c0 .16.265.16.397.16 0-.16-.132-.322-.132-.322-.265 0-.398 0-.265.162zm34.204-.162s-.133-.16-.133 0l-.133.162c.133.16.133.16.266-.162 0 .162 0 .162 0 0zm-54.355.806c.265-.16.265-.16.132-.322h-.132l-.133.161.133.161zm11.931-.161l-.132-.161-.133.161s.133 0 .133.161l.132-.16zm8.75.161c.133.162.265 0 .133-.16 0-.162-.266-.162-.398-.162.132 0 .265.161.265.322zm12.064-.322c0-.161 0-.161 0 0zm.398.161c.132-.322-.133-.322-.265-.322v.483s.265 0 .265-.16zm9.015.484s-.133-.161-.133 0c-.132 0-.132.161-.132.161s.132 0 .265-.161zm-50.246.483l.133.162.133-.162-.133-.16-.133.16zm19.887.162l.132-.162-.132-.16-.133.16c-.133 0 0 .162.133.162zm27.045-.323l-.133.161c.133 0 .133.162.265.162 0 0 0-.162.133-.162-.133-.16-.133-.16-.265-.16zm-30.36.806l.133-.161-.133-.161-.132.161.132.161zm10.871-.161l-.132-.161-.133.161.133.161.132-.161zm21.212 0l-.133-.161-.132.161.132.161c.133 0 .133 0 .133-.161zm-49.98.967h-.133l-.132.161.132.162c0-.162.133-.323.133-.323zm34.734-.161c0 .322.133.483.53.483 0-.322-.265-.483-.53-.483zm32.083.322l.265.162c0-.162 0-.323-.133-.323-.132-.161-.265 0-.132.161zm-44.015.484l.133-.161-.133-.162c-.265.162-.265.323 0 .323zm.796-.161c.132 0 .132.16.265.16 0 0 0-.16.133-.16l-.133-.162c-.133 0-.133.162-.265.162zm-36.855.644l-.133-.16-.133.16.133.162c0-.162.133-.162.133-.162zm7.026-.321c-.265 0-.398.16-.53.483.397 0 .53-.162.53-.484zm11.931.966l.133-.16-.133-.162c-.132 0-.132.161 0 .322zm70.264-.161c0-.322-.132-.322-.265-.322 0 .16.133.16.133.322h.132zm-90.812.484l-.133-.162s-.133 0-.133.162h.266zm1.591 0l-.133-.162h-.133c0 .323.133.323.266.162zm35.529.161v-.322h-.132l-.133.16c.133 0 .133 0 .265.162zm-29.166.806c0-.323-.133-.323-.265-.323 0 .162.132.162.132.323h.133zm7.689 0h.133c0-.161.132-.161.132-.323-.132.162-.265.162-.265.323zm4.905-.161l-.132.16.132.162.133-.161c0-.161 0-.161-.133-.161zm1.061 0l-.133.16c.133.323.266.323.398 0 0 0-.132-.16-.265-.16zm-1.193 1.612c.132.16.265.322.265 0l-.133-.162-.132.162zm68.275.644l-.265-.322c0 .161 0 .322.265.322zm-86.04.323l-.133-.162-.132.162c0 .322.132.322.265 0zm-6.894.483h-.132l-.133.162.133.16c.132-.16.265-.322.132-.322zm9.546.483l-.133-.16-.133.16c0 .323.133.323.266 0zm82.195.162l.133-.161v-.161h-.133v.322zm-81.4.484c0 .16.265.16.398.16 0-.16-.133-.322-.133-.322-.265-.16-.398 0-.265.162zm-22.803.322v.323c0-.162 0-.162.133-.323h-.133zM32.17 22.567l-.133-.161-.132.161h.265zm136.948 4.353c-.132 0-.132.16-.132.322h.397c0-.161 0-.323-.265-.323zm.265.322c.133 0 .133 0 0 0zm-.795.322h.132c0-.161.133-.161.133-.322-.133 0-.265 0-.265.322zm1.061 0c.265 0 .265-.161.265-.322h-.531c.133.161.133.322.266.322zm-142.782.967l-.133-.16-.132.16c0 .162.132.162.265 0zm154.581-.161l-.133.161s.133 0 .133.162l.132-.162c0-.16 0-.16-.132-.16zm-.928.967h-.133c0 .162-.133.162-.133.323.133 0 .266 0 .266-.323zm-.531.483c-.132 0-.397 0-.265.323h.133c.132-.16.132-.322.132-.322zm.133-.16c0 .16 0 .16 0 0zM43.306 102.519c.133 0 .133-.161.133-.322-.133 0-.266 0-.398.161 0 .161.132.161.265.161zm109.506-1.128c0-.161-.265-.161-.398-.161 0 .161 0 .322.133.322.265 0 .397-.161.265-.161zm-.265-.161c-.133 0-.133 0 0 0zm-.398-.484v.161c.132 0 .265.162.398.162-.133-.162-.133-.323-.398-.323zm1.723-.966h-.132l-.133.16.133.161c.265 0 .265-.16.132-.322zm.796-.646c-.133 0-.133 0 0 0zm.265.162s-.265-.162-.398-.162c0 .162.133.323.133.323.265.16.397 0 .265-.161zm3.314-1.29l-.132-.161-.133.161.133.161s0-.161.132-.161zM39.064 96.394l-.133-.161-.133.161.133.161s.133 0 .133-.161zm-9.148-1.612l-.133.161c.133 0 .133.162.266.162 0 0 0-.162.132-.162-.132 0-.265-.16-.265-.16zm85.51 11.445c0 .161-.133.161 0 0v.322c0-.161 0-.161.133-.322h-.133zm-80.87-12.09c.265 0 .265-.16.265-.322-.132 0-.265.161-.397.161.132 0 .132.161.132.161zm-3.712-.644c.133 0 .133 0 .265-.162-.132 0-.132 0-.265.162zm144.373-1.773c.132 0 .132 0 0 0zm-.133.322c.133 0 .133-.161.133-.323-.133 0-.266 0-.266.162-.132.16 0 .322.133.16zm-61.514 14.346l-.133-.161-.132.161.132.161s0-.161.133-.161zM30.977 91.397l-.133.161.133.161.132-.16c0-.162-.132-.162-.132-.162zm-.663-.806c.265 0 .265-.161.265-.322 0 0-.133.16-.265.322zm150.736-1.128l-.265-.161c0 .16.132.322.132.322s.133 0 .133-.161zm-155.774-.806c0-.161 0-.161 0 0 0-.161-.133-.161-.133-.161l-.132.16h.265zm1.061-1.129l-.133-.16-.133.16c0 .162.133.162.266 0zm-2.784-.322l.132-.161-.132-.161-.133.16s0 .162.133.162zm-2.519-1.773l-.133-.161-.133.16c0 .162.133.162.266 0 0 .162 0 .162 0 0zM10.825 83.82l-.132.162.133.161.132-.16s-.133 0-.133-.162zm5.171-4.835c.132 0 .132.161.265.161 0 0 0-.16.133-.16l-.133-.162-.265.161zm77.025 25.952c.265 0 .265-.161.398-.322-.133 0-.265.161-.398.161v.161zm101.816-28.37s-.132-.161-.265-.161c0 .161 0 .322.133.322.132 0 .265 0 .132-.16zm-10.738.161l.133-.16-.133-.162c-.265.161-.265.161 0 .322zm-162.535 0c0-.16-.133-.16-.133-.16-.132 0-.132.16-.132.16s.132.162.265 0zm-4.508-2.095h.133l.133-.161-.133-.162c0 .162-.133.323-.133.323zm171.153-1.129c-.133.162-.133.162.132.323l.133-.161s0-.162-.133-.162h-.132zm17.499-.484c.133 0 .133.162.266.162 0 0 0-.161.132-.161l-.132-.161c-.133.16-.133.16-.266.16zm-192.496.162l.132.161.133-.16-.133-.162s-.132 0-.132.161zm195.148-.484c.132.162.265.162.265.162v-.162s-.132-.16-.132 0c0-.16-.133-.16-.133 0zm-3.049-1.289l-.133.161c.133 0 .133.161.265.161 0 0 0-.16.133-.16-.133 0-.133-.162-.265-.162zm-20.284.161l.265.323c0-.162 0-.323-.265-.323zm11.269-1.934c-.133.161-.133 0 0 0 .132.161.265.161.265.322 0-.322 0-.483-.265-.322zm.265.161c0 .161 0 .161 0 0zm-10.739-.645c0-.16-.265-.16-.397-.16 0 .16 0 .321.132.321.133 0 .265-.16.265-.16zm1.989-.806l.133-.16-.133-.162c-.265 0-.265.161 0 .322zm7.424-.966l.133-.162-.133-.161c-.265 0-.265.16 0 .322zm-104.6 36.913h-.133l-.132.161.132.161c.265-.161.265-.322.133-.322zm108.312-37.72l-.132.161.132.162.133-.162c0-.16 0-.16-.133-.16zM82.15 104.454l-.133-.161-.132.161.132.161c0-.161.133-.161.133-.161zm105.794-39.332l-.133-.16-.133.16c0 .162.133.162.266 0 0 .162 0 .162 0 0zm10.606-.483c0-.161-.266-.161-.398-.161 0 .16 0 .322.132.322.266.161.398 0 .266-.161zM1.28 63.35c.133 0 .133-.162.133-.323h-.53c.132.161.132.322.397.322zm184.808-2.58l.132.161.133-.16-.133-.162s-.132 0-.132.161zm.662-2.418c.266 0 .266-.16.133-.322h-.133l-.132.161c0 .161.132.161.132.161zm-4.772.161l.132-.16v-.162h-.132c-.133 0 0 .161 0 .322zM72.075 103.487l-.133-.162c-.265 0-.265.162 0 .323 0-.161.133-.161.133-.161zm140.792-45.941l-.132.162c.132.16.265.16.265 0 0 0-.133 0-.133-.162zM70.351 103.164l-.133.161.133.162c.133 0 .133-.162.265-.162-.265 0-.265-.161-.265-.161zM208.89 57.385c.133 0 .265-.161.398-.161v-.161c-.398 0-.398.16-.398.322zm-9.147-1.128l-.133-.161-.132.16.132.162s0-.161.133-.161zM1.943 52.55c0-.162-.132-.323-.132-.323s-.133-.161-.133 0c-.133.161-.265.161-.133.322h.398zM149.1 102.358h-.133l-.133.161.133.162c.265-.162.265-.323.133-.323zm58.597-54.483l-.133-.162-.132.162.132.16s0-.16.133-.16zm-9.81-5.803l.132-.162v-.16h-.132v.322zm-.531-.967l.133-.162-.133-.16-.132.16.132.162zm-1.591-.323l-.132.161c.132 0 .132.162.265.162 0 0 0-.162.133-.162-.133-.16-.133-.16-.266-.16zM9.898 38.848l-.133-.161-.133.16s0 .162.266 0c-.133.162-.133.162 0 0zm179.371-3.547c-.132 0-.132.162-.132.323.132 0 .265 0 .265-.161.133-.162 0-.162-.133-.162z" fill="#fff"/></svg>