<svg width="2678" height="382" fill="none" xmlns="http://www.w3.org/2000/svg"><path d="M2678 85.266c-9.37 13.735-15.18 30.056-15.98 47.805h-.09c-14.46 0-28.12 3.746-39.9 10.435-6.34-1.516-12.77-2.675-19.37-3.567-22.14-2.676-43.83-.981-64.18 4.459-24.37-40.313-66.42-69.478-116.94-75.722-79.81-9.81-153.01 41.206-173.18 116.66-3.66-.891-7.32-1.605-11.16-2.051-4.02-.446-7.94-.713-11.87-.713-14.55-10.525-31.96-17.571-51.06-19.89-60.52-7.403-115.69 35.587-123.1 96.147 0 .357-.09.713-.09 1.07-19.64-16.946-44.19-28.541-71.15-32.376-34.18-40.938-85.69-67.071-143.27-67.071-56.15 0-106.4 24.795-140.59 63.95-25.36-18.73-56.69-29.79-90.61-29.79-55.17 0-103.37 29.254-130.15 73.047a103.353 103.353 0 00-18.3-1.606c-22.49 0-43.38 6.957-60.52 18.819-30.62-33.803-74.9-55.03-124.08-55.03-4.64 0-9.2.179-13.66.535-20.18-27.738-52.94-45.665-89.8-45.665-24.37 0-46.87 7.849-65.17 21.138-16.33-52.622-65.43-90.795-123.364-90.795-42.045 0-79.448 20.157-103.014 51.195-5.981-3.122-12.676-4.906-19.906-4.906-7.856 0-15.176 2.141-21.514 5.798-18.032-19.622-43.83-31.841-72.573-31.841-33.654 0-63.469 16.857-81.233 42.633-5.445-1.427-10.98-2.676-16.693-3.657-50.436-8.384-99.354 6.422-135.953 36.568-28.298-52.176-80.786-89.368-142.47-96.593-10.533-45.397-51.328-79.29-99.978-79.29-22.674 0-43.652 7.403-60.612 19.8C201.296 21.496 161.483 0 116.582 0 67.486 0 24.37 25.776 0 64.484V382h2678V85.265z" fill="#fff"/></svg>