<svg width="1920" height="323" fill="none" xmlns="http://www.w3.org/2000/svg"><path d="M2823 72.096c-10.5 11.614-17 25.415-17.9 40.422h-.1c-16.2 0-31.5 3.168-44.7 8.824-7.1-1.282-14.3-2.263-21.7-3.017-24.8-2.262-49.1-.829-71.9 3.771-27.3-34.087-74.4-58.748-131-64.027-89.4-8.296-171.4 34.842-194 98.642-4.1-.754-8.2-1.357-12.5-1.734-4.5-.377-8.9-.604-13.3-.604-16.3-8.899-35.8-14.856-57.2-16.817-67.8-6.259-129.6 30.09-137.9 81.297 0 .301-.1.603-.1.905-22-14.329-49.5-24.133-79.7-27.376-38.3-34.615-96-56.711-160.5-56.711-62.9 0-119.2 20.965-157.5 54.072-28.4-15.837-63.5-25.189-101.5-25.189-61.8 0-115.8 24.736-145.8 61.765-6.7-.905-13.5-1.358-20.5-1.358-25.2 0-48.6 5.883-67.8 15.913-34.3-28.582-83.9-46.531-139-46.531-5.2 0-10.3.151-15.3.452-22.6-23.453-59.3-38.612-100.6-38.612-27.3 0-52.5 6.637-73 17.874-18.3-44.495-73.3-76.772-138.2-76.772-47.1 0-89 17.043-115.4 43.287-6.7-2.639-14.2-4.147-22.3-4.147-8.8 0-17 1.81-24.1 4.902-20.2-16.592-49.1-26.923-81.3-26.923-37.7 0-71.1 14.253-91 36.048-6.1-1.207-12.3-2.263-18.7-3.092-56.5-7.089-111.3 5.43-152.3 30.92-31.7-44.118-90.5-75.566-159.6-81.674-11.8-38.386-57.5-67.043-112-67.043-25.4 0-48.9 6.259-67.9 16.741C48.5 18.174 3.9 0-46.4 0c-55 0-103.3 21.795-130.6 54.525V323h3000V72.096z" fill="#fff"/></svg>