<svg width="125" height="140" fill="none" xmlns="http://www.w3.org/2000/svg"><path d="M100.71 110.928c-.179-.27-.255-.536-.227-.799a1.29 1.29 0 01.306-.678c.177-.19.391-.324.64-.403.25-.079.498-.085.744-.018.253.078.472.256.658.537.5.777 1.441 2.176 2.823 4.197 1.375 2.011 2.367 3.498 2.977 4.462.222.357.28.685.176.984a1.32 1.32 0 01-.576.727c-.287.175-.59.239-.909.192-.329-.041-.607-.232-.832-.572a105.707 105.707 0 00-1.893-2.891 208.293 208.293 0 01-4.608 3.181c.729 1.101 1.35 2.049 1.864 2.846.215.347.274.675.176.984a1.321 1.321 0 01-.576.728c-.28.185-.58.254-.899.207-.323-.031-.597-.217-.822-.557-.42-.657-2.33-3.552-5.73-8.684-.186-.28-.265-.552-.237-.814a1.29 1.29 0 01.306-.678c.177-.19.387-.329.63-.418.25-.079.498-.085.744-.018.253.078.472.256.658.537l2.495 3.766c1.047-.679 2.572-1.733 4.577-3.161a407.678 407.678 0 01-2.465-3.657z" fill="#80BDC4"/><path d="M88.282 116.369a4.46 4.46 0 011.403-.258 4.006 4.006 0 011.84.444c.55.306.969.707 1.257 1.201a5.657 5.657 0 01.84 3.261c-.055 1.084-.34 2.05-.856 2.897a4.2 4.2 0 01-2.171 1.795 5.258 5.258 0 01-1.146.277 2.611 2.611 0 01-.891-.07l-.085.032-.162.08a1.12 1.12 0 01-.855-.025 1.226 1.226 0 01-.666-.596l-.554-1.119c-.208-.486-.553-1.318-1.033-2.496l-.375-.897a54.63 54.63 0 00-.462-1.077 3.834 3.834 0 01-.156-.518c-.077-.343-.06-.67.055-.982.106-.296.315-.509.625-.638a1.28 1.28 0 01.778-.081c.257.071.5.274.729.611.14-.411.368-.76.684-1.045a4.24 4.24 0 011.2-.796zm.875 2.382c-.337.127-.646.364-.925.712a1.94 1.94 0 00-.209.367l-.164.331-.135.512a.615.615 0 01-.172.257c.354.944.681 1.731.982 2.361l.213.055.305.097.19.044c.196-.022.345-.053.446-.091.405-.151.739-.456 1.003-.914.253-.454.386-1.004.4-1.65.015-.505-.042-.932-.173-1.281-.228-.606-.647-.904-1.258-.893-.19.007-.357.038-.503.093z" fill="#E51D82"/><path d="M79.266 116.606c-.052-.404.036-.728.264-.971.217-.241.492-.382.826-.423.32-.051.622.01.904.184.27.164.436.447.5.85.291 2.056.828 5.543 1.61 10.461.055.343-.017.653-.216.927a1.23 1.23 0 01-.83.515c-.45.072-.83-.068-1.142-.42-1.166.915-2.372 1.204-3.616.868-1.095-.312-1.975-1.035-2.642-2.168a5.557 5.557 0 01-.715-3.349c.053-.58.226-1.136.518-1.668.282-.519.695-.974 1.24-1.364.939-.672 1.83-.954 2.673-.845a3.52 3.52 0 011.052.307l-.426-2.904zm-.972 5.003c-.187-.031-.483.095-.887.379-.425.31-.669.762-.732 1.355-.062.606.066 1.217.383 1.835.353.539.746.872 1.18.997.444.124.85.077 1.217-.139.366-.216.71-.684 1.034-1.404l-.326-2.044c-.306-.401-.624-.679-.952-.833-.327-.142-.632-.191-.917-.146zm-8.688-4.08c.03-.407.183-.707.456-.898.261-.192.56-.275.894-.247.324.015.607.136.848.364.23.214.336.526.317.933-.131 2.072-.313 5.596-.543 10.57a1.2 1.2 0 01-.4.865 1.23 1.23 0 01-.917.336c-.456-.021-.8-.236-1.034-.643-1.328.659-2.567.698-3.717.116-1.009-.527-1.725-1.413-2.147-2.658a5.557 5.557 0 01-.022-3.425c.17-.556.452-1.066.846-1.528.381-.451.878-.812 1.492-1.084 1.054-.468 1.984-.563 2.788-.286.331.112.654.283.967.514.054-.911.112-1.887.172-2.929zm-1.966 4.702c-.177-.069-.492-.005-.946.19-.478.218-.809.611-.991 1.179-.183.581-.182 1.205.003 1.875.236.599.554 1.004.953 1.215.41.211.817.248 1.22.111.403-.138.835-.526 1.297-1.166l.096-2.067c-.22-.455-.474-.791-.764-1.009-.291-.206-.58-.315-.868-.328z" fill="#1B2AF0"/><path d="M61.322 115.855c.341-.207.66-.259.957-.156.285.1.508.285.67.555.16.269.22.559.175.869-.044.309-.231.569-.56.779-.313.188-.637.374-.973.558a4.22 4.22 0 00-.834.515c-.282.22-.559.465-.828.737a.399.399 0 01.035.174l.983 7.263c.038.328-.01.6-.144.816-.137.228-.32.39-.551.486a1.397 1.397 0 01-.744.111 1.062 1.062 0 01-.671-.297c-.197-.166-.32-.415-.37-.746l-.644-5.14c-.428.654-1.232 2.11-2.41 4.368-.175.343-.416.541-.723.595a1.31 1.31 0 01-.873-.138 1.188 1.188 0 01-.571-.662c-.121-.286-.087-.604.101-.955a19.08 19.08 0 001.061-2.032c.325-.739.713-1.434 1.165-2.083l.613-.933c.258-.385.488-.703.691-.953l.703-.839c.269-.321.542-.611.82-.868.282-.27.565-.52.85-.752a4.56 4.56 0 01.696-.472l.843-.476c.281-.159.46-.267.533-.324z" fill="#E51D82"/><path d="M41.596 111.214a3.843 3.843 0 011.482.687c.42.324.786.699 1.098 1.126.326.449.56.953.701 1.513.132.553.174 1.113.126 1.68a4.334 4.334 0 01-.475 1.618 5.094 5.094 0 01-1.448 1.638 5.563 5.563 0 01-2.041.963 4.784 4.784 0 01-1.566.113 4.486 4.486 0 01-1.553-.476c-.528-.265-.975-.67-1.34-1.215-.202-.285-.374-.651-.517-1.097a10.98 10.98 0 00-.082-.308l-.128-.402c-.113-.314-.122-.59-.028-.828.095-.239.25-.425.463-.559.203-.141.433-.223.689-.245.256-.022.498.033.727.165.213.135.376.359.489.673.014.023.103.308.268.853.057.179.106.303.148.372.405.57.998.756 1.78.556a3.376 3.376 0 001.146-.529c.351-.26.608-.552.77-.875.16-.297.236-.661.227-1.094a2.046 2.046 0 00-.4-1.15c-.27-.357-.536-.597-.798-.722-.28-.12-.543-.153-.792-.098-.082.019-.21.087-.385.203-.509.331-.775.503-.798.517-.286.159-.556.215-.81.167a1.074 1.074 0 01-.646-.326 1.535 1.535 0 01-.378-.646 1.178 1.178 0 01.019-.734c.078-.235.255-.435.531-.601.076-.051.186-.124.33-.217.135-.099.245-.171.33-.216.407-.282.793-.463 1.157-.544a3.315 3.315 0 011.704.038z" fill="#D46269"/><path d="M37.887 108.264c.246.228.39.507.428.836.039.33-.076.64-.345.931-.757.82-1.9 2.093-3.427 3.819a278.33 278.33 0 01-3.72 4.135c-.268.291-.568.431-.9.419a1.318 1.318 0 01-.868-.361 1.312 1.312 0 01-.428-.836c-.039-.33.076-.64.345-.931.96-1.04 1.644-1.789 2.05-2.247a4.994 4.994 0 01-.873-.169c-.412-.12-.8-.346-1.16-.68a3.44 3.44 0 01-1.023-1.679c-.18-.655-.144-1.268.104-1.838.188-.415.505-.882.95-1.401.13-.158.382-.44.757-.846l.476-.515 2.118-2.136c.253-.256.529-.378.826-.364.298.013.562.126.79.338.248.228.386.502.416.824.03.321-.09.619-.36.893l-2.069 2.083-.672.702-.488.554c-.267.325-.42.535-.458.63-.156.346-.05.69.321 1.032.274.252.59.439.952.56.396.12.746.166 1.05.137a270.6 270.6 0 013.44-3.832c.268-.291.568-.43.9-.418.331.012.62.132.868.36z" fill="#756BD8"/><path d="M31.342 103.623a153.66 153.66 0 01-5.541 4.512c-.267.205-.528.304-.783.297a1.177 1.177 0 01-.69-.27 1.354 1.354 0 01-.454-.606 1.145 1.145 0 01-.071-.735c.05-.26.209-.492.475-.697a149.296 149.296 0 005.43-4.42c.315-.26.636-.362.963-.305.31.055.577.208.8.459.207.25.316.542.327.875.003.324-.149.621-.456.89zm-10.173 5.633c.022-.331.132-.593.33-.787.188-.187.417-.306.686-.357.26-.044.521-.019.785.074.247.092.45.252.607.48.15.218.208.497.176.835-.032.338-.146.604-.344.798a1.262 1.262 0 01-.686.357 1.6 1.6 0 01-.771-.086 1.15 1.15 0 01-.61-.454c-.157-.228-.215-.515-.173-.86z" fill="#D22A8A"/><path d="M27.124 97.719c.343-.22.674-.28.991-.176.31.093.556.281.736.565.183.268.26.563.235.886-.043.32-.233.595-.57.826-.013-.02-1.443.95-4.29 2.91l-4.537 3.124c-.277.189-.542.269-.796.239a1.143 1.143 0 01-.682-.297 1.346 1.346 0 01-.427-.624 1.14 1.14 0 01-.028-.744c.063-.247.234-.465.511-.655.793-.541 1.775-1.22 2.947-2.036l1.486-1.016 1.635-1.117c.545-.373 1.063-.72 1.555-1.042l1.234-.843z" fill="#756BD8"/><path d="M25.343 92.193c.3.615.426 1.288.38 2.017-.046.73-.287 1.427-.724 2.093-.442.655-1.079 1.184-1.91 1.588a6.019 6.019 0 01-2.615.63c-.892.007-1.697-.196-2.417-.607a3.998 3.998 0 01-1.662-1.773 4.891 4.891 0 01-.48-1.729c-1.257.625-1.964.981-2.12 1.071-.357.173-.687.193-.992.061a1.274 1.274 0 01-.693-.644 1.29 1.29 0 01-.086-.918c.084-.322.296-.571.636-.75 5.274-2.629 8.396-4.18 9.368-4.651.388-.189.735-.244 1.04-.165.289.073.512.271.67.595.141.291.173.576.094.854-.094.273-.317.515-.668.725.46.07.878.228 1.25.473.368.235.678.612.93 1.13zm-2.35.641a1.293 1.293 0 00-.756-.693c-.289-.1-.686-.12-1.191-.061-.231.019-.387.014-.467-.014-.918.473-1.592.814-2.024 1.024l-.092.264c-.034.15-.07.335-.11.555-.048.37.03.765.235 1.186.179.367.441.633.788.798.342.154.728.22 1.157.198a3.555 3.555 0 001.284-.364c.605-.293 1.023-.71 1.255-1.25.22-.534.194-1.081-.078-1.643z" fill="#0AB625"/><path d="M22.18 86.267c-.161.309-.403.51-.726.602-1.138.34-2.036.604-2.694.793a1.2 1.2 0 01-.398.114c-1.276.38-2.434.719-3.472 1.017-.45.129-.823.111-1.12-.053a1.229 1.229 0 01-.612-.76 1.158 1.158 0 01.019-.718c.067-.244.255-.46.563-.648-.387-.389-.874-.998-1.462-1.828-.23-.32-.3-.631-.212-.931.077-.297.247-.533.509-.708a1.19 1.19 0 01.83-.239c.303.013.57.18.8.5a28.076 28.076 0 001.87 2.404c.382-.06.909-.205 1.58-.435.722-.22 1.745-.527 3.069-.92a1.21 1.21 0 01.986.11c.286.168.48.411.585.73.104.32.066.644-.115.97z" fill="#E51D82"/><path d="M20.337 75.156c.1.955-.015 1.812-.346 2.57a4.262 4.262 0 01-1.457 1.817 4.67 4.67 0 01-2.198.791c-1.038.108-1.96.012-2.763-.29a4.436 4.436 0 01-1.963-1.46c-.516-.67-.822-1.459-.916-2.366-.098-.93.01-1.75.322-2.459a3.754 3.754 0 011.402-1.648c.61-.402 1.314-.645 2.114-.728.406-.042.736.056.99.295s.422.577.504 1.015c.177.886.302 1.676.374 2.368.069.656.125 1.362.167 2.118l.048.628c.577-.132 1.013-.407 1.307-.824.281-.428.369-1.034.263-1.82-.05-.356-.121-.638-.215-.845a1.795 1.795 0 00-.418-.536 5.278 5.278 0 01-.5-.454c-.148-.142-.236-.35-.264-.624a1.02 1.02 0 01.241-.804.96.96 0 01.683-.397c.382-.04.766.113 1.152.46.386.345.712.811.978 1.399.266.576.43 1.174.495 1.794zm-5.552 2.806c.022-.714-.024-1.5-.138-2.356-.098-.822-.214-1.42-.35-1.791-.51.077-.906.275-1.186.594-.282.307-.379.824-.29 1.55.075.608.264 1.089.566 1.444.303.354.769.54 1.398.56z" fill="#002AFF"/><path d="M19.344 61.366c.381.049.655.208.822.477.168.257.23.547.187.868a1.25 1.25 0 01-.4.775c-.225.208-.528.287-.91.238-.31-.03-.715-.081-1.214-.154a33.473 33.473 0 00-1.48-.215 16.371 16.371 0 00-1.242-.066c-.48-.01-.87.018-1.165.086-.234.05-.433.175-.597.376-.177.2-.292.46-.347.78-.068.332-.056.646.035.944.081.285.217.504.407.655.15.062.255.103.314.12l.233.023c.418.04 1.165.106 2.241.199 1.088.093 1.913.166 2.474.22.335.033.595.143.782.33.175.185.286.407.334.665a1.61 1.61 0 01-.073.752 1.29 1.29 0 01-.455.59c-.219.147-.496.204-.83.172-.203-.02-.508-.05-.914-.088-.406-.04-.866-.078-1.381-.116-.514-.05-1.04-.088-1.58-.116a55.013 55.013 0 00-1.546-.096 15.968 15.968 0 00-1.243-.048c-.436.019-.769-.098-.997-.35a1.112 1.112 0 01-.31-.915c.098-.642.445-.988 1.041-1.039-.64-.616-.93-1.41-.873-2.38.094-.848.394-1.518.9-2.012.494-.494 1.123-.825 1.886-.993a5.996 5.996 0 011.005-.102c.376-.023.756-.029 1.14-.016.385.013.715.033.99.06a35.1 35.1 0 011.623.229c.511.074.892.123 1.143.147z" fill="#F91717"/><path d="M25.095 47.926a6.084 6.084 0 01-.864 1.3 3.84 3.84 0 01-1.05.865 3.09 3.09 0 01-1.03.253l-.25.017-.33.018a1.21 1.21 0 01-.572-.102c-.28-.139-.465-.372-.558-.699a1.28 1.28 0 01.069-.95c.18-.365.486-.576.915-.631l.418-.034.242-.001c.16 0 .324-.074.49-.22.224-.236.387-.457.489-.661.074-.151.151-.347.23-.589.165-.628.133-1.012-.093-1.15l-.064-.033c-.129-.064-.282-.066-.459-.006-.198.076-.524.316-.98.72l-.625.574a9.14 9.14 0 01-.762.688c-.733.614-1.405.918-2.017.91a2.363 2.363 0 01-1.071-.23 1.86 1.86 0 01-.646-.52c-.42-.477-.598-1.187-.532-2.132a4.8 4.8 0 01.484-1.748c.053-.108.144-.264.272-.468a4.74 4.74 0 012.343-1.934c.305-.13.609-.12.91.029.28.138.482.366.606.682.13.305.123.603-.02.893a1.355 1.355 0 01-.562.566l-.482.244c-.22.118-.366.213-.441.283-.268.27-.473.55-.617.84a2.92 2.92 0 00-.263.733c-.015.167.026.274.122.322.065.032.137.02.218-.033.075-.044.19-.127.345-.251.182-.151.422-.38.721-.687.198-.21.42-.415.666-.615.16-.135.337-.288.53-.46.198-.157.433-.308.706-.454a2.947 2.947 0 011.303-.4 2.49 2.49 0 011.313.269c.14.069.245.127.315.175.619.427.983.99 1.093 1.687.116.686.051 1.41-.193 2.174a6.134 6.134 0 01-.319.766z" fill="#80BDC4"/><path d="M29.295 40.73a1.23 1.23 0 01-.593.444c-.114.081-.235.15-.363.208l-.489.23c-.5.237-.917.386-1.251.446-.334.017-.617-.027-.852-.131a7.976 7.976 0 01-.997-.583l-.296-.206a96.13 96.13 0 01-2.006-1.37 29.312 29.312 0 01-.951-.683l-.195.28a1.152 1.152 0 01-.703.477 1.1 1.1 0 01-.85-.196 1.09 1.09 0 01-.485-.753c-.058-.318 0-.6.17-.846l.185-.266-.625-.456-.459-.318c-.308-.23-.478-.5-.508-.814a1.29 1.29 0 01.226-.895c.192-.276.453-.452.784-.529.338-.087.67-.017.995.209l.985.727.38-.547c.246-.354.525-.556.835-.603.31-.047.609.028.894.227.276.191.448.45.515.774.057.317-.04.658-.294 1.023l-.38.547c.404.28.702.494.892.64.2.154.492.364.877.631.63.438 1.191.799 1.682 1.08.067-.011.103-.022.11-.032l.206-.076.142-.077.166-.082.141-.077c.202-.123.397-.214.585-.274.419-.162.8-.123 1.146.117.276.192.459.465.549.82.08.347.024.659-.168.935z" fill="#F80"/><path d="M35.752 33.516c-.666.307-1.218.247-1.657-.18.212 1.16-.194 2.12-1.218 2.883-.623.365-1.227.556-1.812.573a3.836 3.836 0 01-1.685-.332 6.505 6.505 0 01-1.529-.958c-.18-.124-.408-.337-.684-.639-.276-.301-.56-.62-.854-.955-.294-.352-.561-.68-.803-.981l-.558-.692c-.242-.32-.332-.632-.268-.938a1.29 1.29 0 01.46-.758c.243-.199.522-.296.836-.292.314.004.596.161.847.471l.583.743c.156.201.36.457.61.767.25.294.5.579.75.855.25.277.461.473.633.59.455.374.857.606 1.207.695.349.07.695-.002 1.04-.22.236-.138.428-.362.576-.67.14-.316.137-.77-.007-1.361a1.432 1.432 0 01.021-.28 198.464 198.464 0 00-3.408-3.286c-.241-.234-.376-.483-.405-.745-.03-.263.013-.506.129-.728.124-.23.3-.412.527-.542.218-.14.46-.198.723-.176.263.005.52.12.768.345a350.733 350.733 0 015.178 5.03c.241.233.364.529.37.885a1.26 1.26 0 01-.37.896z" fill="#019D4F"/><path d="M41 29.27a3.968 3.968 0 01-1.937.679c-.728.064-1.454-.07-2.178-.401-.714-.339-1.333-.889-1.857-1.65a6.02 6.02 0 01-1.017-2.49c-.14-.88-.061-1.707.237-2.48.3-.79.802-1.427 1.503-1.91a4.89 4.89 0 011.637-.735c-.807-1.15-1.266-1.795-1.378-1.936-.225-.326-.295-.65-.21-.97.079-.331.256-.592.533-.782a1.29 1.29 0 01.895-.224c.33.035.609.207.837.517 3.392 4.817 5.395 7.671 6.007 8.56.245.356.352.69.32 1.004-.029.297-.191.547-.488.751a1.175 1.175 0 01-.83.223c-.284-.052-.556-.236-.817-.552 0 .466-.093.902-.28 1.308-.177.398-.502.761-.977 1.088zm-.988-2.227c.317-.217.507-.502.572-.852.055-.3.015-.696-.118-1.187-.054-.225-.073-.38-.058-.463a108.73 108.73 0 01-1.316-1.847l-.275-.051a12.95 12.95 0 00-.565-.026c-.373.009-.752.146-1.137.412a1.64 1.64 0 00-.67.898 2.47 2.47 0 00-.022 1.174c.096.415.28.82.553 1.215.38.553.856.904 1.424 1.052.561.138 1.099.03 1.612-.325z" fill="#002AFF"/><path d="M45.88 24.579a154.18 154.18 0 01-3.098-6.44c-.137-.307-.173-.584-.106-.83.077-.252.218-.454.423-.608.2-.165.431-.265.695-.301.258-.046.502-.012.731.102.241.11.43.317.567.624a149.04 149.04 0 003.035 6.31c.18.367.204.703.073 1.008a1.37 1.37 0 01-.633.67c-.291.144-.6.181-.927.115-.316-.073-.57-.29-.76-.65zm-3.11-11.206c.316.1.546.268.689.505.137.226.2.476.187.75a1.555 1.555 0 01-.255.746c-.147.22-.35.379-.608.479-.247.095-.532.087-.853-.023-.32-.11-.553-.283-.696-.52a1.256 1.256 0 01-.188-.75 1.6 1.6 0 01.264-.73c.141-.23.335-.393.583-.488.258-.1.55-.09.877.031z" fill="#B843E8"/><path d="M53.386 22.77c-1.057.124-1.98-.084-2.77-.625a5.093 5.093 0 01-1.82-2.139 6.172 6.172 0 01-.503-1.748 6.177 6.177 0 01.055-1.832 5.014 5.014 0 01.669-1.688c.19-.313.47-.598.841-.856.012-.003.12-.076.327-.218.084-.052.145-.097.184-.134.28-.229.603-.32.97-.274 1.13-.172 1.907-.226 2.33-.16a3.17 3.17 0 011.62.747c.493.397.893.88 1.201 1.449a4.57 4.57 0 01.584 1.703c.122.578.169 1.156.139 1.732a5.17 5.17 0 01-.413 1.777 3.482 3.482 0 01-1.088 1.445c-.578.437-1.353.71-2.326.82zm-.301-2.474c.52-.066.892-.186 1.114-.357.21-.169.352-.416.424-.741.084-.33.107-.69.07-1.081a4.369 4.369 0 00-.237-1.153 3.077 3.077 0 00-.473-.944c-.194-.253-.41-.398-.65-.435a2.402 2.402 0 00-.814.053c-.274.05-.59.088-.947.114a4.7 4.7 0 01-.28.185l-.15.123c-.232.377-.357.833-.375 1.368-.017.535.09 1.048.324 1.54.44.981 1.105 1.423 1.994 1.328z" fill="#E51D82"/></svg>