<svg width="1920" height="428" fill="none" xmlns="http://www.w3.org/2000/svg"><path d="M1920 95.533c-6.72 15.389-10.88 33.676-11.46 53.562h-.06c-10.37 0-20.16 4.198-28.61 11.692-4.54-1.699-9.15-2.998-13.89-3.997-15.87-2.998-31.42-1.099-46.01 4.997-17.47-45.169-47.62-77.846-83.84-84.84-57.22-10.993-109.7 46.167-124.16 130.707-2.63-.999-5.25-1.798-8-2.298-2.88-.5-5.7-.799-8.51-.799-10.44-11.792-22.92-19.687-36.61-22.285-43.39-8.294-82.95 39.872-88.26 107.725 0 .399-.06.799-.06 1.199-14.08-18.987-31.68-31.978-51.01-36.275-24.51-45.868-61.44-75.147-102.72-75.147-40.26 0-76.29 27.781-100.8 71.65-18.18-20.986-40.64-33.377-64.96-33.377-39.55 0-74.11 32.777-93.31 81.843a48.392 48.392 0 00-13.12-1.799c-16.13 0-31.11 7.795-43.39 21.085-21.956-37.873-53.7-61.656-88.964-61.656a78.88 78.88 0 00-9.792.599c-14.464-31.078-37.952-51.164-64.384-51.164-17.472 0-33.6 8.794-46.72 23.683-11.712-58.958-46.912-101.728-88.448-101.728-30.144 0-56.96 22.584-73.856 57.359-4.288-3.497-9.088-5.496-14.272-5.496-5.632 0-10.88 2.399-15.424 6.496-12.928-21.985-31.424-35.675-52.032-35.675-24.128 0-45.504 18.887-58.24 47.766-3.904-1.599-7.872-2.998-11.968-4.097-36.16-9.393-71.232 7.195-97.472 40.971-20.288-58.459-57.92-100.129-102.144-108.224-7.552-50.864-36.8-88.837-71.68-88.837-16.256 0-31.296 8.294-43.456 22.184C144.32 24.083 115.776 0 83.584 0 48.384 0 17.472 28.88 0 72.25V428h1920V95.533z" fill="#fff"/></svg>