<svg width="1920" height="429" fill="none" xmlns="http://www.w3.org/2000/svg"><path d="M2823 95.6c-10.5 15.4-17 33.7-17.9 53.6h-.1c-16.2 0-31.5 4.2-44.7 11.7-7.1-1.7-14.3-3-21.7-4-24.8-3-49.1-1.1-71.9 5-27.3-45.2-74.4-77.9-131-84.9-89.4-11-171.4 46.2-194 130.8-4.1-1-8.2-1.8-12.5-2.3-4.5-.5-8.9-.8-13.3-.8-16.3-11.8-35.8-19.7-57.2-22.3-67.8-8.3-129.6 39.9-137.9 107.8 0 .4-.1.8-.1 1.2-22-19-49.5-32-79.7-36.3-38.3-45.9-96-75.2-160.5-75.2-62.9 0-119.2 27.8-157.5 71.7-28.4-21-63.5-33.4-101.5-33.4-61.8 0-115.8 32.8-145.8 81.9-6.7-1.2-13.5-1.8-20.5-1.8-25.2 0-48.6 7.8-67.8 21.1-34.3-37.9-83.9-61.7-139-61.7-5.2 0-10.3.2-15.3.6-22.6-31.1-59.3-51.2-100.6-51.2-27.3 0-52.5 8.8-73 23.7-18.3-59-73.3-101.8-138.2-101.8-47.1 0-89 22.6-115.4 57.4-6.7-3.5-14.2-5.5-22.3-5.5-8.8 0-17 2.4-24.1 6.5-20.2-22-49.1-35.7-81.3-35.7-37.7 0-71.1 18.9-91 47.8-6.1-1.6-12.3-3-18.7-4.1-56.5-9.4-111.3 7.2-152.3 41-31.7-58.5-90.5-100.2-159.6-108.3-11.8-50.9-57.5-88.9-112-88.9-25.4 0-48.9 8.3-67.9 22.2C48.5 24.1 3.9 0-46.4 0c-55 0-103.3 28.9-130.6 72.3v356h3000V95.6z" fill="#fff"/></svg>