<svg width="65" height="65" fill="none" xmlns="http://www.w3.org/2000/svg"><path d="M60.557 0H36.943A4.448 4.448 0 0032.5 4.443v27.214a25.303 25.303 0 0110.844 6.426 25.303 25.303 0 017.33 15.627 5.086 5.086 0 013.916 4.942v1.27A8.835 8.835 0 0152.99 65h7.567A4.448 4.448 0 0065 60.557V4.443A4.448 4.448 0 0060.557 0zm-4.634 20.82a1.904 1.904 0 010 3.809H41.577a1.904 1.904 0 010-3.809h14.346zM44.497 11.3c0-1.052.853-1.904 1.904-1.904H51.1a1.904 1.904 0 110 3.808h-4.7a1.904 1.904 0 01-1.904-1.904zm-2.92 20.947a1.904 1.904 0 010-3.809h14.346a1.904 1.904 0 010 3.81H41.577z" fill="#FF4CA6"/><path d="M23.486 34.54c-10.213.892-18.385 8.898-19.537 19.034h42.883C45.68 43.438 37.508 35.432 27.295 34.54v-4.094h1.421a1.904 1.904 0 000-3.808h-6.651a1.904 1.904 0 000 3.808h1.421v4.094zm-5.86 10.157a11.456 11.456 0 00-3.488 3.937 1.904 1.904 0 11-3.357-1.798 15.283 15.283 0 014.654-5.254 1.904 1.904 0 112.191 3.115zm6.495-2.055c-.414 0-.83.023-1.239.068a1.905 1.905 0 01-.414-3.786 15.19 15.19 0 011.653-.09 1.904 1.904 0 010 3.808zm26.66 17.28v-1.27a1.27 1.27 0 00-1.27-1.27H1.27A1.27 1.27 0 000 58.653v1.27A5.078 5.078 0 005.078 65h40.625a5.078 5.078 0 005.078-5.078z" fill="#FF4CA6"/></svg>