<svg width="116" height="126" fill="none" xmlns="http://www.w3.org/2000/svg"><path d="M106.046 105.984c1.986 2.839 12.228 14.448 8.334 18.673-1.938 2.063-6.355-.34-8.357-1.042-4.985-1.598-9.93-3.392-14.818-5.481-9.795-4.079-19.415-9.041-28.174-15.259-.156.275-.725.06-.648-.332 3.174-11.401 8.893-24.847 21.871-27.07.235-.157.568-.295.843-.139.196.039.275.157.354.274a3153.764 3153.764 0 0020.595 30.376zm6.506 17.088c3.016-2.36-3.943-10.465-5.694-12.952-2.537-3.662-5.055-7.422-7.69-11.104-5.056-7.422-10.13-14.747-15.186-22.17-12.31 2.457-16.796 14.822-20.736 25.459 7.677 4.476 15.374 8.853 23.422 12.485a139.768 139.768 0 0011.894 4.8c2.748 1.053 11.464 5.429 13.99 3.482z" fill="#fff"/><path d="M106.878 110.022c1.75 2.487 8.611 10.573 5.694 12.952-2.546 2.045-11.262-2.331-13.912-3.365-3.984-1.502-8.047-3.121-11.894-4.8-8.146-3.651-15.745-8.009-23.422-12.484C67.186 91.668 71.67 79.303 84.1 76.768c5.055 7.422 10.11 14.845 15.185 22.17 2.537 3.662 5.055 7.422 7.593 11.084z" fill="#D46269"/><path d="M103.556 9.872a.468.468 0 01-.156.785c-1.744.572-3.882.557-5.55-.283.078.118.059.216-.078.393-.84 1.668-1.797 3.416-2.637 5.084-.176.373-.784.355-1-.096-.69-1.665-1.145-3.488-1.208-5.234-1.626.494-3.49.125-5.002-.48-.373-.175-.295-.568-.06-.725 1.351-1.16 2.8-2.3 4.249-3.44a11.976 11.976 0 01-.756-5.451c-.02-.412.606-.492.862-.238 1.572 1.33 3.006 2.838 4.578 4.168 1.352-.65 2.802-1.28 4.252-1.91.235-.158.588.116.53.41.082 1.647-.346 3.296-1.422 4.612 1.276.762 2.337 1.584 3.398 2.405zm-1.353.14L99.257 7.9a.48.48 0 01-.08-.627c.02-.098.02-.098.137-.177.92-1.041 1.368-2.278 1.424-3.592-1.215.473-2.528.927-3.743 1.4-.137.177-.352.236-.627.08a67.37 67.37 0 00-4.027-3.345c.022 1.431.26 2.803.695 4.215.138.333-.215.569-.51.51-1.135 1.101-2.348 2.084-3.582 3.165.668.234 1.374.272 2.08.31.823-.041 1.588-.298 2.313-.358.294.058.53.41.374.686a26.403 26.403 0 001.028 4.077 73.183 73.183 0 012.13-4.064c.156-.275.47-.315.764-.257.02-.098.156-.274.255-.255 1.432.487 2.825.661 4.315.344z" fill="#fff"/><path d="M99.257 7.9l2.946 2.112c-1.49.317-2.785.163-4.335-.246-.196-.039-.216.06-.254.256-.275-.157-.589-.117-.765.256-.762 1.276-1.446 2.67-2.13 4.064a26.392 26.392 0 01-1.027-4.077.545.545 0 00-.355-.784c-.823.041-1.47.219-2.294.26-.706-.038-1.412-.076-2.08-.31a54.39 54.39 0 003.583-3.165c.294.059.549-.197.509-.51-.434-1.412-.672-2.784-.695-4.216 1.297 1.174 2.711 2.27 4.027 3.346.177.137.49.097.53-.1a98.564 98.564 0 003.743-1.4c.022 1.432-.426 2.669-1.346 3.71-.02.098-.02.098-.137.177a.48.48 0 00.08.627z" fill="#F9CB5F"/><path d="M80.72 44.396c5.69 1.636 11.297 10.39 5.463 15.149-6.187 4.994-12.732-1.602-15.233-6.99-.06-.216-.04-.314.078-.393-1.585 1.827-2.58 4.28-2.654 6.713-.204 5.668 3.766 9.818 8.34 12.456.374.176.16.745-.155.785.177.137.236.352.178.647-.234.667-.683 1.393-1.29 1.885-.235.157-.372.334-.588.393.04.314-.214.57-.587.394l-.099-.02c-.215.06-.43.119-.666.276-.215.06-.275-.156-.157-.235.117-.079.137-.177.254-.255-6.969-3.418-11.201-11.391-9.668-19.141.621-3.14 2.321-6.065 4.592-8.266-4.97-14.032 2.803-29.62 16.52-35.06-.138-.333.313-.55.568-.295l.079.117c.45-.216.746.352.57.725.649.842 1.298 1.683 1.927 2.624.08.117.04.313.02.411.491.098.65.842.101 1.04-12.956 3.654-17.777 15.137-16.005 27.822 2.488-1.24 5.41-1.58 8.411-.782zm-4.523 13.58c4.871 3.717 12.985.837 10.617-6.258-2.506-7.427-12.293-7.937-17.343-3.024-8.182 7.861-3.665 20.58 4.995 25.76.547-.707 1.115-1.513 1.466-2.259.137-.176.254-.255.352-.236-6.398-2.693-10.904-9.803-8.408-16.75 1.891-5.437 8.531-9.628 13.658-5.657.177.137.02.412-.078.392 1.317 1.076 2.359 2.506 2.108 4.291-.252 1.785-2.013 3.476-3.917 2.793-.098-.02-.098-.02-.177-.137-3.197-.327-6.439-3.007-6.485-6.38l.04-.196c-.706.472-1.332 1.061-1.978 1.75.235-.158.549-.198.706.037 1.2 2.174 2.5 4.368 4.444 5.874zm3.82-1.792c1.904.173 3.096-1.732 2.622-3.457-.435-1.411-1.535-2.546-2.596-3.368-2.296-.76-4.511-.383-6.353.68.099.02.295.058.354.274.83 3.018 2.717 5.328 5.758 5.93.02-.098.118-.078.216-.059zm7.705-39.965c-.727-.96-1.259-1.88-1.79-2.8-13.618 5.97-19.612 19.259-16.425 33.55.724-.57 1.43-1.043 2.233-1.496-4.909-12.286 4.066-25.7 15.982-29.254z" fill="#fff"/><path d="M86.814 51.718c2.466 7.114-5.647 9.994-10.617 6.258-1.944-1.506-3.243-3.7-4.346-5.855-.157-.235-.57-.214-.706-.037.548-.708 1.272-1.278 1.977-1.75l-.039.196c.046 3.373 3.269 6.152 6.485 6.38.098.02.079.118.177.137 1.806.664 3.567-1.027 3.917-2.792.251-1.786-.791-3.215-2.108-4.291.216-.06.255-.255.078-.392-5.146-3.873-11.766.22-13.658 5.656-2.496 6.947 2.127 13.979 8.409 16.75-.197-.038-.314.04-.353.237-.351.746-.918 1.551-1.466 2.258-8.66-5.18-13.078-17.879-4.995-25.76 4.971-5.03 14.66-4.54 17.245 3.005zm.81-35.518C75.786 19.872 66.831 33.187 71.74 45.473a17.01 17.01 0 00-2.233 1.495c-3.187-14.29 2.807-27.58 16.327-33.569.63.94 1.16 1.86 1.79 2.8z" fill="#80BDC4"/><path d="M63.121 79.752c.236.353-.351.746-.587.394a1.392 1.392 0 00-.334-.372C51.994 66.439 39.247 57.189 23.429 51.612c-.096 1-.31 2.08-.406 3.08 14.17 5.148 26.741 14.772 36.512 26.185.685-.373 1.45-.63 2.135-1.004a.756.756 0 01.412-.02c.256.254.257.764-.175.882-.783.355-1.665.69-2.449 1.045-.117.079-.215.06-.333.138-.216.059-.431.118-.549.197-.45.217-.726-.45-.276-.666-9.849-11.531-21.79-19.705-35.53-25.992-.274.354-1.04.1-.825-.469.253-1.275.584-2.433.934-3.689-.452-.293-.08-1.137.508-1.02 16.012 4.595 30.684 15.45 39.734 29.473z" fill="#fff"/><path d="M62.2 79.774l-.137.177c-.079-.118-.275-.157-.412.02-.686.374-1.45.63-2.136 1.005-9.75-11.512-22.322-21.136-36.492-26.284.195-.981.31-2.08.406-3.08 15.818 5.577 28.565 14.827 38.77 28.162z" fill="#EB5C55"/><path d="M58.89 91.861c.177.137.02.412-.175.373l-.04.197c-1.076.806-1.8 1.886-2.425 2.985-.313.55-1.059.199-.962-.292-5.457-2.813-10.697-4.665-16.7-5.241 5.556 2.832 11.942 8.683 7.248 14.89-4.558 6.03-13.272 2.674-16.187-3.203-1.457-2.939-1.542-6.116-.665-9-.216.059-.51 0-.726.06-6.093 2.973-10.203 7.257-12.68 13.597.353.274-.057.804-.43.628a37.715 37.715 0 01-3.104-2.347s-.098-.019-.079-.117c-.254.255-.921.021-.745-.352 2.1-9.065 10.89-15.888 20.167-15.887 1.057-1.218 2.29-2.3 3.858-3.009 7.562-3.702 17.83 1.592 23.645 6.718zm-3.25 2.517c.625-1.1 1.604-1.925 2.72-2.418-7.677-4.985-21.989-11.996-27.633-.473-3.086 6.321 1.25 16.354 9.406 15.317 7.725-.917 7.001-9.624 2.444-13.38-1.828-1.585-3.987-2.522-6.146-3.459-.391.433-.704.983-.997 1.434 3.455 1.601 7.56 4.554 8.195 8.554.437 2.431-1.44 5.219-3.893 4.734-.098-.019-.117.079-.215.059-6.672-1.83-8.612-10.572-3.738-15.113-.078-.117-.177-.136-.157-.235-.158-.235-.06-.725.351-.746 6.845-.072 14.026 1.757 19.663 5.726zm-15.63 9.956c2.334.054 3.23-2.929 2.579-4.79-.395-1.098-1.103-2.156-1.948-3.037a16.894 16.894 0 00-5.715-4.087c-1.893 4.416-.197 9.237 4.848 11.561l.236.353zM29.062 92.177c.41-1.04.917-2.061 1.602-2.945-8.784 1.116-15.401 6.739-18.562 14.982l.197.039 2.71 1.759c1.752-6.28 6.82-11.8 12.954-13.95.216-.06.49.097.452.293.235-.158.45-.217.647-.178z" fill="#fff"/><path d="M58.342 92.059c-1.117.492-2.096 1.318-2.722 2.417-5.617-4.067-12.798-5.896-19.662-5.725-.412.02-.509.51-.352.745-.019.099.08.118.158.236-4.953 4.422-2.935 13.283 3.737 15.112.098.02.098.02.216-.059 2.452.486 4.33-2.303 3.893-4.734-.636-4-4.839-6.972-8.196-8.554.294-.451.606-1.001.998-1.433 2.159.937 4.318 1.874 6.145 3.458 4.538 3.855 5.281 12.463-2.444 13.38-8.156 1.037-12.491-8.996-9.405-15.317 5.546-11.543 19.857-4.531 27.634.474zm-27.659-2.925c-.684.884-1.192 1.905-1.602 2.945l-.647.178c-.06-.216-.236-.353-.451-.294-6.135 2.15-11.222 7.77-12.955 13.951l-2.71-1.759-.196-.039c3.062-8.263 9.777-13.866 18.561-14.982z" fill="#DD8488"/><path d="M19.427 118.712c.256.254-.057.804-.37.844-2.177.181-4.51.126-6.67-.301l-.038.197c-.702 2.001-2.052 3.671-3.638 4.988a.605.605 0 01-.98-.194c-.651-1.862-.871-3.842-.6-5.725-1.862.651-3.823.772-5.805.482-.392-.077-.687-.645-.315-.98 1.526-1.532 3.072-3.163 4.776-4.559.117-.079.117-.079.215-.059-.67-1.764-.83-3.529-.658-5.432-.02-.411.607-.491.882-.335 1.512 1.115 2.77 2.485 3.891 4.032 1.645-1.101 3.35-1.987 5.192-2.54.431-.119.785.155.688.646-.33 1.667-.582 3.452-.912 5.12 1.63 1.036 3.006 2.328 4.342 3.816zm-1.589-.213c-1.198-1.155-2.416-2.211-3.85-3.208-.275-.157-.295-.569-.06-.726.193-1.491.563-2.845.756-4.336-1.43.533-2.861 1.065-4.233 1.813.296.568-.508 1.021-.92.532-.964-1.312-2.065-2.448-3.263-3.602-.056 1.314.182 2.686.518 4.078.04.314-.215.569-.509.511l-.039.196c-1.095 1.414-2.367 2.692-3.64 3.969a14.836 14.836 0 004.256-.381c.313-.04.588.116.628.43.196.039.275.156.334.372a19.054 19.054 0 00.579 4.804c1.154-1.199 2.034-2.554 2.757-4.144.156-.275.47-.315.666-.276.117-.079.235-.157.333-.138 2.099.211 3.923.267 5.687.106z" fill="#fff"/><path d="M14.067 115.408a37.492 37.492 0 013.85 3.209c-1.765.16-3.57.007-5.374-.146-.196-.039-.313.039-.333.138-.275-.157-.49-.097-.666.275-.723 1.59-1.602 2.945-2.757 4.144a16.567 16.567 0 01-.578-4.804c.038-.196-.138-.333-.335-.371-.059-.216-.314-.471-.628-.431a14.837 14.837 0 01-4.255.382 70.55 70.55 0 003.64-3.969c.02-.098.02-.098.038-.197.197.039.55-.197.51-.51a17.88 17.88 0 01-.519-4.079c1.218 1.057 2.201 2.271 3.263 3.602.393.588 1.216.037.92-.531 1.372-.748 2.822-1.379 4.233-1.813-.291 1.471-.563 2.845-.756 4.336-.549.197-.509.511-.253.765z" fill="#F9CB5F"/><path d="M21.54 48.792c.472.195.355.783-.076.902-1.999.828-4.115 1.734-6.094 2.464l.078.117c.24 2.392.5 4.687.74 7.079.001.51-.547.707-.9.433a11.1 11.1 0 01-3.757-5.229c-1.998 1.338-4.428 2.284-6.76 2.74-.432.119-.864-.273-.67-.744.997-1.943 2.19-3.848 3.54-5.518 0 0 .019-.098.117-.079-1.317-1.585-2.498-3.348-3.776-5.13-.236-.353.077-.902.567-.805 1.668.33 3.257.542 4.924.872l.393.078c1.015-2.042 2.306-3.927 3.793-5.774.254-.255.745-.158.784.155.573 1.745 1.126 3.587 1.07 5.411-.019.098-.058.294-.175.373l.294.058c2.002.702 3.946 1.699 5.909 2.597zm-6.466 2.798c1.685-.788 3.253-1.497 4.938-2.285-1.59-.723-3.298-1.366-4.77-2.167-.373-.176-.296-.569-.06-.726-.216.06-.491-.097-.53-.41-.22-1.471-.34-2.922-.775-4.333-1.31 1.473-2.347 3.103-3.383 4.733a.215.215 0 01-.235.157c.04.314-.234.668-.626.59-1.374-.272-2.766-.446-4.14-.717l2.775 4.524a.304.304 0 01-.078.393c.079.117.157.235.02.412a42.435 42.435 0 00-2.736 4.555c1.94-.533 3.626-1.321 5.35-2.305.333-.138.607.018.765.253.117-.079.294.058.373.176.71 1.567 1.673 2.88 2.871 4.034-.239-1.882-.459-3.863-.698-5.745-.02-.412.215-.57.51-.51.194-.472.214-.57.43-.63z" fill="#fff"/><path d="M20.012 49.305c-1.666.69-3.253 1.497-4.938 2.285-.117.078-.235.157-.274.353-.294-.058-.548.198-.508.511.22 1.98.459 3.863.698 5.745-1.199-1.155-2.163-2.467-2.872-4.034-.06-.216-.255-.255-.373-.176-.157-.235-.432-.391-.765-.253a25.616 25.616 0 01-5.35 2.305c.821-1.57 1.72-3.023 2.737-4.555.137-.177.058-.295-.02-.412a.304.304 0 00.077-.392L5.65 46.157c1.373.272 2.746.543 4.14.717.392.078.567-.295.626-.59.098.02.117-.078.235-.157a27.892 27.892 0 013.383-4.733c.434 1.41.555 2.862.773 4.332.04.314.315.47.53.411-.39.432-.449.727-.076.902 1.453.9 3.16 1.543 4.75 2.266z" fill="#F09C26"/></svg>