<svg width="67" height="86" fill="none" xmlns="http://www.w3.org/2000/svg"><path d="M18.621 4.633a34.288 34.288 0 01-4.397-3.85c-.346-.36-.938-.253-1.18.097-.973 1.396-1.888 2.853-2.803 4.31.013-.589-.035-1.12-.022-1.71-.038-1.002.057-2.709-.994-3.199-.992-.43-1.9.673-2.561 1.31C5.28 2.92 3.779 4.25 2.395 5.58c-.36.347-.316.996.15 1.24 1.457.792 2.911 1.702 4.368 2.494-2.06-.096-4.074.34-6.09.893-.355.111-.718.576-.608.932.61 1.838 1.336 3.677 2.006 5.457.223.593 1.1.904 1.469.203 1.05-2.28 2.504-4.14 4.366-5.815 2.802 12.425 5.782 24.794 9.117 37.052 3.273 12.433 6.366 25.04 11.067 36.791l.116.12c-.13.587.564 1.189 1.105.668 9.989-9.722 21.451-16.706 35.24-19.466 1.244-.272.813-2.166-.488-1.953-4.913 1.032-9.719 2.537-14.359 4.576-7.788.45-15.717 1.959-23.19 4.183-.827-2.667-1.594-5.391-2.422-8.058 11.87-1.143 24.102-2.752 35.653-5.551.118.002.178-.056.238-.114l4.671 4.857c.865.899 2.309-.49 1.444-1.389-9.916-10.43-20.072-20.63-30.467-30.714-5.081-4.923-10.223-9.788-15.366-14.653-2.657-2.522-5.698-6.407-9.376-8.063.118.002.178-.056.296-.054 2.381-1.136 4.587-2.334 7.196-3.113.594-.225.73-1.048.09-1.471zM3.086 14.727L1.912 11.7c1.424-.446 2.785-.717 4.264-.985a17.402 17.402 0 00-3.09 4.01zm42.898 55.922c-6.199 3.307-11.828 7.567-16.418 12.789a285.363 285.363 0 00-2.628-9.476c6.337-1.478 12.606-2.544 19.046-3.313zM6.072 4.468c.301-.29 2.234-2.494 2.527-2.43.118.002-.002 2.887-.007 3.123-.023 1.06-.223 2.176-.306 3.294-.002.118-.002.118.056.178-.118-.002-.178.056-.239.114C6.827 7.78 5.49 6.99 4.21 6.143c.541-.52 1.203-1.157 1.862-1.675zm3.812 6.49c2.687 1.11 5.272 4.279 7.177 6.14l.52.54c-1.958.612-4.1 1.517-5.658 2.786-.582-3.134-1.34-6.33-2.04-9.465zm2.432 10.357c1.07-.453 2.028-1.143 3.159-1.653 1.07-.452 2.138-.787 3.324-1.12 1.85 1.684 3.64 3.425 5.49 5.108.346.36.692.719 1.04.961a99.307 99.307 0 00-11.169 4.28c-.597-2.427-1.191-4.972-1.844-7.576zm2.057 8.64c3.803-1.464 7.66-2.751 11.576-3.978.178-.055.238-.113.358-.229 3.12 3.002 6.296 6.064 9.415 9.066-6.227 1.834-12.511 3.607-18.628 5.796-.928-3.493-1.795-7.044-2.72-10.655zm4.412 17.109l-1.475-5.507c6.515-1.534 12.98-3.48 19.387-5.488.06-.058.178-.056.178-.056l.807.84c3.465 3.361 6.927 6.84 10.332 10.26-9.22 1.25-18.643 3.734-27.534 6.168-.486-2.07-1.09-4.144-1.695-6.217zm5.008 16.766l-2.98-9.6c9.469-1.834 19.167-3.43 28.53-5.855 3.174 3.18 6.288 6.417 9.462 9.597-11.707 1.795-23.363 4.003-35.012 5.858zM10.48 7.846c-.479.345-.431.877-.203 1.234l-.527-.186c.06-.058.06-.058.063-.176.063-.175.068-.411.13-.587 1.16-1.924 2.439-3.845 3.832-5.647.865.899 1.79 1.74 2.716 2.582-2.076.611-4.217 1.516-6.011 2.78z" fill="#fff"/></svg>