<svg width="331" height="141" fill="none" xmlns="http://www.w3.org/2000/svg"><path d="M160.137 76.018c.279-2.939.559-5.598 1.258-8.258 1.258-4.758 2.656-9.517 3.635-14.276.28-1.26.559-2.379.699-3.639.14-.42.14-.98.42-1.4.279-.56.699-.84 1.398-.7.839.28 1.538.7 2.237 1.12 3.774 2.66 7.549 5.32 11.324 7.838 1.958 1.4 3.775 2.66 6.012 3.64 1.678.7 1.818 1.54.559 2.799-1.817 1.82-3.914 3.359-5.872 4.898a293.537 293.537 0 01-10.625 7.698c-1.958 1.4-4.055 2.66-6.152 3.78-.699.42-1.398.7-2.097.84-1.258.14-1.957-.28-2.237-1.54-.419-.84-.419-1.96-.559-2.8zM71.777 67.9c1.398 0 1.957.7 1.817 1.82-1.258 6.998-2.236 14.136-3.634 21.134-.14.98-.42 1.82-.84 2.66-.559.98-1.537 1.12-2.376.56-.56-.42-.979-.84-1.258-1.26-3.496-4.619-7.27-9.238-10.486-13.996-.7-.98-1.398-2.1-1.818-3.22-.839-1.82-.559-2.379 1.258-2.939 1.538-.42 3.216-.84 4.754-1.26 3.775-.84 7.41-1.68 11.045-2.939.42-.28 1.119-.42 1.538-.56z" fill="#FA96A0"/><path d="M114.837 32.63c-.279-1.26 0-2.8-1.258-3.92-.28-.279-.14-.559 0-.839.28-.28.419-.7.559-.98.28-.42.699-.42.979 0 .419.7 1.118.84 1.817.7.42 0 .56-.28.56-.7 0-.7 0-1.4-.979-1.68-.28 0-.42-.14-.559-.28-.28-.279-.42-.559-.28-.839.979-.7.839-1.68.699-2.8a.77.77 0 01.42-.699c.419-.14.559.14.838.42.14.14.14.28.14.42.14.56 0 1.12.559 1.54.7.42 1.399.14 2.098.14.419 0 .699-.28.699-.7-.14-.56-.28-1.12-.42-1.54-.279-1.12-.279-1.12-1.538-1.12-.419 0-.839 0-1.118-.14-.14 0-.42-.28-.42-.56 0-.14.14-.42.28-.56 0 0 .14 0 .14-.14.559-.28 1.398 0 1.538-.7.14-.559-.14-1.259-.14-1.819v-.7c0-.28.28-.56.699-.56.14 0 .559.14.559.28.28.56.42.98.559 1.54.14.56.14 1.12.7 1.4.699.28 1.537.28 2.236 0 .28-.14.28-.42.28-.56-.14-.7-.419-1.54-.559-2.24-.14-.28 0-.7.279-.84.42-.14.839 0 .979.42.28.56.559 1.12.699 1.68.28.84.559 1.4 1.538 1.4.28 0 .559.14.839.28.14 0 .28.28.28.28 0 .28-.14.42-.14.56l-.14.14c-.419.14-.979.14-1.258.56-.28.56.139 1.12.279 1.539.14.28.14.56.28.98.14.42.419.84.979.84h1.118c.699 0 1.119-.14 1.398-.98.28-.7.699-.7 1.119-.14.279.42.559.98.978 1.26.28.14.28.56.14.84-.559 1.259.14 2.239.559 3.358.28.7.979.42 1.398.56.14.14.42.28.42.42 0 .14-.14.56-.28.56-.839.42-1.538 1.12-2.796.56-.839-.28-1.957 0-3.076 0-.279.84.28 1.68.14 2.52 0 .279-.28.559-.559.559-.14 0-.559-.14-.559-.28-.28-.7-.56-1.4-.839-2.24-.14-.42-.42-.7-.839-.7-.699 0-1.538 0-2.377.14.28 1.12.559 1.96.699 2.8.42 1.54 0 1.96-1.538 2.1h-1.118c-.699 0-1.398.14-1.538.98-.14.559-.839.559-1.119.14-.139-.14-.279-.42-.419-.56-.419-.42-1.678-.7-2.097-.42-.42.28-.28.84-.28 1.26 0 1.119 0 1.119-1.258 1.539-1.538.56-3.216.28-4.893.28-.28 0-.56-.28-.56-.7 0-.28.28-.56.56-.56 1.118 0 2.376 0 3.495-.14.419 0 .839.14.839-.42.139-.7-.28-1.4-.839-1.4h-2.097c-.56 0-1.119.14-1.398-.56-.14-.42.419-.84 1.258-.98 1.118.28 1.957.42 2.656 0zm7.41.28c1.538 0 1.678-.14 1.258-1.68l-.419-1.26c-.14-.42-.419-.56-.839-.7-2.656-.14-2.516-.28-1.957 2.24.419 1.4.559 1.4 1.957 1.4zm1.818-13.577c-1.958 0-1.958 0-1.398 1.96.139.28.139.56.279.84.14.42.42.7.839.7 2.237 0 2.796.28 1.957-2.38-.559-1.12-.559-1.12-1.677-1.12zm8.248 8.258c-.279-.84-.419-1.68-.699-2.52-.139-.559-.559-.979-1.118-.839s-1.119.14-1.538.14c-.28 0-.559.28-.559.56.14 2.24.559 2.66 2.656 2.66.42.14.839 0 1.258 0zm-6.571.14h.979c.559 0 .699-.28.559-.84-.14-.42-.279-.7-.279-1.12-.14-1.259-.699-1.399-1.818-1.259h-.699c-.699.14-.979.28-.839 1.12 0 .28.14.42.14.7.419 1.26.419 1.4 1.957 1.4zm-4.753-.14h.699c.699 0 .839-.14.699-.84-.14-.42-.14-.98-.28-1.4-.139-.56-.559-.979-1.258-.839-.419 0-.979.14-1.398.28-.28.14-.559.28-.559.7 0 .42.14.98.279 1.4.14.56.42.84.979.7h.839zm-2.936 5.319c.699 0 .979-.28.839-.98-.14-.56-.28-1.12-.42-1.54-.279-1.12-.419-1.26-1.677-1.12-.7 0-.839.14-.839.84 0 .56.139 1.12.279 1.68.28.98.56 1.12 1.818 1.12z" fill="#fff"/><path d="M99.04 69.02c-.7 0-1.399-.14-2.238-.42-.839-.28-1.538 0-1.957.84l-1.258 1.68c-.42.42-1.119.42-1.398-.14-.42-.7-.7-1.54-1.399-1.96-.28-.28-.14-.7 0-1.12.98-2.099 2.936-3.359 5.173-3.079.7 0 1.538.28 2.237.42.84.14 1.678 0 2.377-.7.699-.7 1.398-1.26 2.097-1.96 1.398-1.259 2.796-1.539 4.474-.699.979.56 1.958.56 2.936.42.839 0 1.119.28.979 1.12 0 .28-.14.42-.14.7-.28 1.959-.699 2.239-2.517 2.099l-2.097-.42c-1.118-.28-1.957 0-2.656.84l-.839.84c-.979 1.12-2.237 1.54-3.775 1.54zm2.237 8.818c-.699-.14-1.678.14-2.656 1.12-.7.7-1.398.56-1.958-.28-.978-1.54-.978-2.1.28-3.36 1.398-1.4 2.936-2.239 5.033-1.679 1.398.42 2.796 0 3.915-.98.699-.56 1.538-1.12 2.237-1.68.559-.28.978-.14 1.538.14.419.28.559.84.279 1.26l-1.258 2.94c-.28.56-.699.84-1.258.84-.839 0-1.538.42-2.237.84-.979.979-2.097 1.119-3.915.839z" fill="#FA96A0"/><path d="M210.608 84.976c-.14.28-.28.56-.42.7-.279.42-.839.84-1.258.84-1.258.14-1.957.7-1.957 2.099 0 .42-.42.84-.979.98-.559.14-.979-.14-1.398-.7-.14-.14-.28-.42-.28-.56-.279-.56-.559-.84-1.258-.7-.559.14-1.119.14-1.678 0-.839-.14-1.258-.98-.839-1.82 0 0 0-.14.14-.14.979-.979 1.258-1.819.699-3.218-.559-1.12.42-1.96 1.678-1.68.28.14.559.14.839.28.559.42 1.118.42 1.678-.14.139-.14.279-.28.419-.28 1.258-.84 2.097-.42 2.237 1.12 0 .7.14 1.12.839 1.4.419.28.978.56 1.258.98.14.28.28.56.28.839z" fill="#fff"/><path d="M33.748 85.116a25.723 25.723 0 01-2.097 6.018c-.42.84-1.258 1.12-2.237.7-2.097-.84-4.474-4.199-4.334-6.438 0-2.1 1.398-3.08 3.216-2.24.839.28 1.258.42 1.817-.28l.14-.14c.839-.56 1.678-.98 2.517-.42.978.56.978 1.54.978 2.8zm-6.43-.56c-.42.14-.56.42-.56.7-.14.84 0 1.54.42 2.24.419.839.978 1.539 1.677 2.239 1.119 1.12 1.398.98 2.097-.56.56-1.26.979-2.66 1.398-3.92.28-.839 0-1.399-.28-1.399-.559 0-.838.42-1.118.7-.14.14-.14.42-.28.56-.559.98-.838 1.12-1.677.28-.28-.28-.56-.56-.84-.7-.419-.14-.698-.14-.838-.14z" fill="#373330"/><path d="M302.881 117.447c0-.979.28-1.819.839-2.659.28-.56.699-1.12 1.259-1.26.559-.28.978.14 1.538.42.559.28 1.398.42 1.957.84 1.538.98 1.817 2.799.559 4.199-.559.56-1.118.98-1.817 1.4-2.377.979-4.474-1.12-4.335-2.94zm-3.774 8.958c0-1.959 1.119-3.499 3.076-3.919 1.398-.28 3.356.7 4.055 2.1.279.419.279.979-.14 1.259-.699.42-.979 1.12-1.538 1.68l-.839.84c-.839.699-1.678 1.259-2.796.699-1.119-.42-1.818-1.259-1.818-2.659zm-.281 7.978c0 .14 0 .56-.14.7-.699.839-1.398 1.679-2.237 2.239-.978.7-2.237.7-3.215 0-.979-.56-1.119-1.54-1.119-2.659.14-1.26.699-2.24 1.538-2.939.979-.84 2.097-.98 3.216-.42 1.118.56 1.957 1.679 1.957 3.079zm-1.257-21.414c1.538 0 2.656 1.119 2.656 2.659 0 .84-.28 1.539-.559 2.239-.699 1.26-1.958 1.96-3.076 1.68-1.398-.28-2.517-1.68-2.377-3.079 0-1.68 1.398-3.639 3.356-3.499zm-6.991 12.876c0-1.12.28-1.959.14-2.799-.14-.56.28-.84.699-.98 1.678-.56 3.355.28 4.194 1.96.56 1.399-.279 3.779-1.957 4.478-1.258.42-2.517-.14-2.936-1.539-.14-.42-.14-.84-.14-1.12zm-59.839-16.936c0-.699.28-1.539.56-2.239.559-1.26.419-2.379-.14-3.639-.14-.42-.419-.84-.559-1.26-.979-1.96-1.119-4.058-.42-6.158.14-.42.14-.7.28-1.12.559-1.54.28-3.079-.699-4.338-.699-.98-.839-1.68-.42-1.82.839-.28 1.259.42 1.678.98 1.119 1.4 1.538 2.939 1.119 4.758-.14.7-.42 1.54-.56 2.24-.419 1.54-.419 3.079.42 4.479.279.42.419.979.699 1.539.699 1.54.979 3.079.279 4.759-.699 1.4-.699 2.799.28 4.199.28.42.42.84.559 1.26.14.279-.139.559-.419.699-.28.14-.699.14-.839-.14-.979-1.259-1.957-2.519-1.818-4.199zm7.132-16.095c0 .7-.419 1.26-.839 1.96-.978 1.259-.839 2.519.14 3.638.14.14.14.28.28.42 1.538 1.96 2.097 3.919.839 6.298-.28.7-.28 1.26-.14 2.1.14.56.14 1.26.14 1.819 0 .28-.14.56-.56.7-.279 0-.699-.14-.699-.42-.279-1.679-.978-3.359 0-5.038.839-1.54.56-2.8-.559-4.059-.419-.42-.699-.98-.979-1.54-.838-1.26-.838-2.66 0-3.919 0 0 0-.14.14-.14.839-1.12 1.119-2.24.28-3.359-.28-.28-.14-.56.14-.84a.89.89 0 01.838 0c.7.42.979 1.26.979 2.38zm5.172 7.978c0-.7-.14-1.26-.419-1.68-.28-.42-.559-.84-.979-1.4-.559-.84-.699-1.68-.419-2.659.14-.56.14-1.26.419-1.82 0-.14.28-.28.42-.42.279-.14.559.14.838.28.28.42.28.98.14 1.4-.699 1.4-.14 2.38.699 3.36 1.259 1.819 1.119 4.478-.279 6.298-.14.14-.42.28-.56.28-.279 0-.559-.42-.559-.7.14-.56.28-.98.42-1.54 0-.56.139-.979.279-1.399zm-15.518 11.197c.279-1.26 0-2.66-.979-3.779-.14-.14-.14-.28-.14-.42 0-.28.14-.42.28-.56.14-.14.559-.14.699 0 1.118.7 1.678 1.819 1.817 3.079 0 1.68-.139 3.359.28 5.039v.28c0 .28-.28.56-.559.7-.28.14-.699-.14-.699-.42-.14-.84-.42-1.68-.559-2.52-.14-.42-.14-.839-.14-1.399zM181.528 30.67c-.14 2.66-.419 6.439-.699 10.358 0 .42 0 .84-.14 1.12 0 .42-.279.7-.699.839-.419.14-.699-.42-.699-.98 0-.84.14-1.68.14-2.519.28-3.919.559-7.978.699-11.897.14-2.52 0-5.039-.28-7.418 0-.56-.139-1.12.14-1.54.14-.14.28-.42.559-.42.14 0 .56.14.56.28.139.42.279.84.279 1.4.42 3.08.28 6.299.14 10.777zm-5.593.42c-.14-4.059-.28-7.698-.699-11.337 0-.42-.14-.98-.14-1.4 0-.42.14-.84.559-.84.42-.14.699.28.839.7.14 1.12.28 2.1.419 3.22.42 5.318.56 10.777.42 16.096 0 1.12 0 2.239-.28 3.219 0 .14-.279.42-.419.42-.42.14-.559-.14-.699-.42-.28-.7-.14-1.4-.14-2.1 0-2.52.14-5.179.14-7.558zm-4.195-2.1v-7.278c0-.28.14-.56.56-.7.419 0 .559.14.699.42.14.42.14.98.14 1.4.139 4.34.279 8.678.419 13.157 0 .84 0 1.54-.14 2.38 0 .28-.279.56-.699.56-.419 0-.559-.28-.559-.56-.14-.42-.14-.98-.14-1.4 0-2.38 0-4.759-.28-7.978zm-3.775.56v-5.178c0-.28 0-.56.14-.98 0-.14.279-.42.559-.42.14 0 .28 0 .419.14.14.14.28.42.42.56.14.28.14.56.14.98.139 3.499.279 7.138.419 10.637 0 1.26-.28 1.82-.839 1.68-.978-.28-.839-1.12-.839-1.68v-5.878c-.279.14-.279.14-.419.14zm-2.097-1.12a791.38 791.38 0 01-.419 5.32c0 .28-.28.56-.559.56-.14 0-.42-.14-.559-.42-.14-.28-.28-.7-.28-1.12.14-2.24.28-4.34.419-6.579 0-.14 0-.28.14-.42.14-.28.42-.56.699-.56.28 0 .559.14.699.56-.279.84-.279 1.68-.14 2.66-.139 0-.139 0 0 0z" fill="#FA96A0"/><path d="M280.793 110.029c-2.236-.28-4.473-.84-6.431-1.399-4.334-1.26-8.528-2.94-12.583-4.899-.559-.28-1.118-.56-1.538-.98-.139-.14-.139-.42-.139-.56 0-.14.279-.28.559-.42.559-.14.978.28 1.538.42 2.936 1.4 5.872 2.52 8.808 3.639a49.8 49.8 0 009.227 2.52c.42.14.839.28 1.398.419.28.14.42.42.42.7-.14.28-.42.42-.699.56h-.56zm-3.496 3.779a42.484 42.484 0 01-6.012-1.679c-3.635-1.4-7.13-3.08-10.486-4.899-.419-.28-.838-.56-1.118-.84a.426.426 0 010-.56c.14-.14.419-.28.559-.28.699 0 1.119.42 1.678.7 2.656 1.26 5.173 2.519 7.829 3.639 2.237.98 4.474 1.82 6.851 2.24.28 0 .559.14.839.279.559.14.839.56.699.98-.14.28-.559.42-.839.42zm-17.616-4.059c.28.14.56.14.839.28 4.195 2.38 8.808 3.919 13.282 5.599.56.14 1.119.28 1.398.7.14.139.14.419 0 .699 0 .14-.279.28-.279.28-.42 0-.979 0-1.398-.14-4.334-1.679-8.808-3.219-12.863-5.318-.559-.28-1.118-.56-1.538-1.12-.14-.14-.14-.42-.14-.7.14-.14.42-.14.699-.28zm-.558 4.479c.28-.14.56 0 .839.14.699.42 1.538.84 2.237 1.26 2.517 1.259 5.173 2.519 7.969 3.219.56.14 1.259.14 1.678.7.14.14.14.42.14.56 0 .279-.14.419-.42.419h-.978a41.051 41.051 0 01-11.185-4.618c-.28-.14-.559-.42-.839-.7-.14-.14 0-.42 0-.7.14-.14.42-.28.559-.28zm.28 4.479c.14 0 .42 0 .559.14 2.517 1.679 5.313 2.799 8.249 3.779.14 0 .28.14.42.14a.77.77 0 01.419.7c-.14.419-.419.559-.699.559-.28 0-.42 0-.699-.14-2.657-.839-5.313-1.819-7.69-3.359a3.272 3.272 0 01-.978-.979c-.28-.14 0-.7.419-.84zm6.99 7.698c-.14.14-.14.42-.42.42-.279.14-.559.14-.839.14a24.651 24.651 0 01-6.291-2.52c-.14-.14-.419-.28-.559-.42-.28-.279-.42-.559-.28-.839.14-.28.42-.42.839-.28.14 0 .28 0 .419.14 1.958 1.119 4.055 1.819 6.292 2.519.419.14.839.28.839.84zM135.389 56.983c.279-.56 0-.84-.42-1.12-.279-.28-.419-.7-.279-.98.139-.279.559-.419.838-.279.42.14.839.14 1.259-.14.419-.28.839 0 .839.42 0 .7.419 1.12.838 1.54.42.42.14.98-.419.98-.699 0-1.398 0-1.817.699-.14.14-.42.14-.7.14a.77.77 0 01-.419-.7c.28-.28.28-.42.28-.56zm-.698-7.838s-.28-.28-.28-.42c0-.42 0-.98-.139-1.4-.14-.559-1.259-.979-.56-1.539.56-.56 1.398-.7 2.237-.98.28-.14.699.28.699.56 0 .7.42 1.12.839 1.54.42.42.28.98-.419.98-.839 0-1.258.56-1.678 1.12-.14.14-.28.28-.699.14zm7.409 2.24c-.28-.28-.559-.42-.559-.56-.14-.28-.14-.56-.28-.84-.14-.42-.699-.7-.559-1.26.14-.56.699-.42 1.118-.42.7-.14.7-1.399 1.678-.979.699.42 0 1.4.559 1.96.14.14.28.42.28.56 0 .14 0 .28-.14.42-.559.56-1.538.42-2.097 1.119zm1.538 11.057c-.28 0-.56-.28-.56-.42 0-.56-.279-.98-.559-1.4-.419-.56-.279-.98.28-.98.699 0 1.118-.56 1.538-.84.419-.28 1.118-.14.978.42-.139.7.28 1.12.839 1.54.42.28.28.84-.139.98-.839 0-1.538.42-2.237.98 0-.28-.14-.28-.14-.28zm-13.841-8.678c-.28-.14-.559 0-.839 0-.979.28-.979.14-1.258-.56-.56-1.68-.56-1.68 1.118-2.379.839-.42 1.119-.42 1.119.56 0 .7.419.84.839 1.26.279.28.279.56.139.84-.139.14-.419.28-.559.28-.28.14-.419 0-.559 0z" fill="#373330"/><path d="M149.371 36.549c.839.7 1.538 1.26 2.377 1.96 15.239 12.456 31.737 23.233 48.933 32.75 15.659 8.678 32.017 16.236 48.654 22.814 3.495 1.4 6.851 2.8 10.346 4.06 3.495 1.12 6.851 2.519 10.346 3.638 3.495 1.26 7.13 2.38 10.626 3.499 3.495 1.12 6.99 2.1 10.485 3.22 3.635.979 7.131 2.099 10.766 3.079 3.495.98 7.13 1.819 10.625 2.659l10.905 2.519c1.958.42 3.775.84 5.733 1.26 1.398.28 1.817.7 1.538 1.26-.42.84-1.259.56-1.818.42-3.076-.7-6.152-1.26-9.088-1.96-1.538-.28-3.075-.7-4.613-1.12-1.119-.279-1.678 0-2.377.98-3.356 5.179-7.27 10.217-11.185 14.976-1.817 2.24-3.775 4.339-6.152 6.159a13.892 13.892 0 01-2.376 1.539c-1.259.56-2.237.14-2.517-1.12-.419-1.119-.419-2.239-.559-3.499-.14-4.758 0-9.517.14-14.276.139-3.499.419-6.998.559-10.497a.77.77 0 00-.42-.7c-2.097-.56-4.194-1.259-6.291-1.819-.419-.14-.699 0-.979.42-.139.279-.419.419-.559.699-4.054 5.179-8.249 10.218-12.723 14.976a66.79 66.79 0 01-6.291 6.299c-.839.7-1.678 1.399-2.656 1.819-1.119.42-2.098 0-2.377-1.119-.42-1.12-.559-2.24-.559-3.5 0-4.478-.14-9.097.279-13.576.28-3.499.42-6.998.699-10.497.14-1.12.28-2.1.42-3.219 0-.42-.14-.7-.56-.84-1.957-.7-3.914-1.54-5.872-2.24-.419-.14-.838-.14-1.258.28-1.258 1.26-2.656 2.52-3.915 3.779-4.474 4.339-9.087 8.678-13.981 12.457-.978.84-2.097 1.54-3.215 2.379-.56.42-1.259.84-1.818.98-1.957.7-3.076 0-3.076-1.959 0-1.82 0-3.639.14-5.319a424.015 424.015 0 012.517-18.615c.14-1.12.279-2.24.419-3.219 0-.56-.14-.84-.699-1.12-1.817-.84-3.495-1.54-5.313-2.519-.699-.28-1.258-.28-1.677.14-1.958 1.54-3.915 3.08-5.872 4.759-4.754 3.919-9.647 7.698-14.96 10.917-1.119.7-2.237 1.259-3.495 1.819-.56.28-1.259.56-1.958.56-1.118.14-1.817-.42-1.957-1.539-.14-1.54 0-3.08.28-4.62 1.258-6.857 2.516-13.716 3.775-20.434.279-1.26.419-2.52.559-3.639.14-.56-.14-.98-.699-1.4-2.097-1.12-4.055-2.379-6.012-3.499-.559-.28-.979-.28-1.538.14a90.075 90.075 0 01-5.732 4.48c-3.915 3.078-7.83 5.878-11.884 8.677-1.818 1.26-3.775 2.38-5.872 3.499-1.119.56-2.377 1.12-3.635 1.4-1.818.42-3.076-.56-3.356-2.38-.139-.84 0-1.68.14-2.52 1.119-8.397 2.936-16.795 5.173-24.912.42-1.4.699-2.66 1.119-4.06.139-.56 0-.98-.42-1.259-.279-.28-.699-.42-.979-.7-5.172-3.779-10.066-7.558-14.959-11.617-.42-.28-.839-.98-1.398-.84-.699.14-1.398.56-1.958 1.12-.279.28-.139.56-.139.84.978 3.779 1.398 7.698 1.957 11.477.559 3.919 1.118 7.698 1.118 11.617 0 1.4-.139 2.66-.419 3.919-.419 1.26-1.258 1.82-2.517 1.4-.838-.28-1.677-.56-2.376-.98l-3.356-2.1c-6.151-4.339-12.303-8.538-18.175-13.156-.559-.42-1.119-.7-1.957-.28-2.098.98-4.335 1.82-6.432 2.799-.559.28-.839.56-.839 1.26l-.838 8.817c-.7 5.599-1.538 11.337-2.797 16.796a54.931 54.931 0 01-1.398 4.479c-.14.42-.279.84-.559 1.26-1.119 2.239-2.097 2.379-3.915.7-.699-.7-1.258-1.4-1.817-2.1A132.924 132.924 0 0190.651 70.7c-1.119-1.96-2.377-3.78-3.496-5.739-.42-.56-.699-.7-1.398-.42l-9.647 2.94c-1.118.28-1.537.98-1.677 1.959-.28 2.52-.7 4.899-.979 7.418-.7 4.899-1.538 9.657-2.796 14.416-.42 1.4-.84 2.8-1.398 4.2-.7 1.399-1.678 1.539-2.797.699-.559-.42-1.118-.98-1.537-1.4a45.522 45.522 0 01-3.216-4.059c-3.355-4.758-6.85-9.517-9.927-14.416-.28-.56-.699-.98-1.118-1.54-.42-.56-.839-.56-1.398-.56-1.958.42-3.915.84-6.012 1.12-1.119.14-1.398.7-1.538 1.68-1.398 6.578-3.215 13.156-5.173 19.735-.699 2.1-1.398 4.339-2.237 6.438-.14.56-.42.98-.699 1.54-.979 1.679-2.097 1.819-3.355.559-.84-.699-1.538-1.679-2.098-2.519-.978-1.26-1.817-2.519-2.656-3.779-4.054-6.018-7.83-12.037-10.625-18.755-.28-.7-.84-.7-1.538-.7-4.754.42-9.507.7-14.261.84h-2.377c-.42 0-.839-.14-.839-.7 0-.42.42-.84.979-.84h.979c7.55-.14 14.96-.7 22.37-1.54 22.649-2.518 44.878-7.557 66.549-14.695 19.853-6.578 38.867-14.696 57.182-24.913.699-.42 1.398-.56 1.958-1.26-.42-.7-1.259-1.26-1.818-1.82-1.817-1.68-3.635-3.219-5.453-4.898-1.118-.98-1.118-1.12-2.656-.28a176.127 176.127 0 01-7.27 3.639c-3.495 1.54-7.27 2.939-10.905 4.339-1.538.56-3.216 1.12-4.894 1.4-.419 0-.838.14-1.118.14-1.119-.14-1.818-.84-1.818-1.96 0-.7.28-1.54.42-2.24.699-2.1 1.538-4.059 2.377-6.018 2.376-5.319 4.753-10.637 7.549-15.816.14-.14.14-.42.28-.7.28-.42.28-.84-.14-1.26-.419-.42-.699-.84-1.118-1.26-3.356-3.778-6.432-7.837-9.507-11.896-.42-.56-.699-.98-1.119-1.54-.279-.42-.14-.84.28-.98.419-.28.839-.14 1.118.14.28.28.559.7.839 1.12 6.152 8.398 13.002 16.236 20.273 23.654 4.753 4.899 9.786 9.378 14.959 13.856.42.42.839.7 1.259.98.279.28.559.28.838 0 .28-.14.699-.42.979-.56 13.562-7.838 26.284-16.795 38.028-27.152 4.195-3.64 8.249-7.418 11.884-11.617.42-.56.979-.98 1.538-1.4a.89.89 0 01.839 0c.28.28.419.56.14.84-.28.56-.699.98-1.119 1.4-4.893 5.318-10.206 10.217-15.658 14.835-.979.84-1.958 1.68-3.076 2.52-.699.42-.839 1.12-.699 1.82.279 1.399.419 2.799.699 4.198a156.902 156.902 0 012.516 16.236c.28 2.24.28 4.339.14 6.578 0 .42 0 .98-.14 1.4-.279 1.12-.978 1.54-2.097 1.4-.978-.14-1.957-.7-2.796-1.12a178.813 178.813 0 01-15.519-9.658c-1.538-1.12-3.216-2.24-4.753-3.359-.56-.42-.979-.42-1.538 0-2.657 1.68-5.313 3.22-7.97 4.899 0-.28 0 0-.279.28zm10.905 45.628v.42c0 1.12.559 1.54 1.678 1.4.839-.14 1.677-.42 2.377-.84 2.237-1.12 4.334-2.38 6.431-3.78 5.592-3.779 11.045-7.977 16.218-12.176l.839-.84a.428.428 0 000-.56c-.28-.28-.699-.42-.979-.7-6.431-3.919-12.863-7.978-19.014-12.456-.14-.14-.42-.28-.559-.42-.42-.28-.699-.14-.979.28-.14.14-.14.42-.14.7a244.604 244.604 0 00-4.614 20.014c-.419 3.08-.978 6.018-1.258 8.958zm-49.772-24.074c0-.56.139-1.12.139-1.68 0-.84-.279-1.12-1.118-.84-3.076 1.26-6.291 2.38-9.367 3.64-3.635 1.26-7.13 2.52-10.766 3.779-.838.28-.978.56-.559 1.4 1.119 1.959 2.377 3.918 3.495 5.738 3.076 4.898 6.432 9.797 10.067 14.416.559.7 1.118 1.26 1.677 1.96.42.42.839.28 1.119-.28.559-1.26.979-2.66 1.398-3.92 1.118-3.499 1.678-7.138 2.097-10.776.839-4.48 1.538-8.958 1.818-13.437zm148.897 60.744v6.998c0 1.12 0 2.239.14 3.219.28 1.96.559 2.1 2.237.84 1.958-1.54 3.635-3.359 5.313-5.179 4.334-4.758 8.528-9.797 12.583-14.696.559-.7.979-1.399 1.538-2.099.279-.28.14-.56-.28-.7-.559-.28-1.118-.42-1.817-.56-5.453-1.819-10.766-3.639-16.218-5.458-2.377-.84-2.517-.7-2.797 1.819-.139.84-.139 1.54-.139 2.379 0 .84-.14 1.68-.14 2.52.14 3.499-.14 6.998-.42 10.917zM40.179 76.298c0-.42-.28-.56-.56-.56-.139 0-.279 0-.419.14-6.57 1.12-13.002 2.1-19.573 2.66-.839.14-1.538.14-2.377.28-.699.14-.838.42-.699.98.14.56.42.979.7 1.539 3.495 7.278 7.829 13.996 12.442 20.574.56.7 1.119 1.26 1.678 1.96.28.42.7.28.979-.14a38.81 38.81 0 001.398-3.639c2.517-7.558 4.474-15.256 6.291-22.954.14-.42.14-.7.14-.84zm159.104-3.919c-.559.56-.559 1.26-.699 1.82l-.839 4.618a4595.68 4595.68 0 01-3.355 18.336c-.28 1.26-.42 2.519 0 3.639 1.258.14 2.376-.7 3.495-1.12.559-.28 1.118-.56 1.538-.98 4.893-3.079 9.507-6.578 13.981-10.217 1.817-1.54 3.635-2.94 5.313-4.479.279-.28.839-.42.839-1.12-6.711-3.219-13.562-6.858-20.273-10.497zm-52.429-10.077c0-.84-.14-1.54-.14-2.38-.419-5.598-1.398-11.197-2.237-16.655l-.419-2.52c-.28-1.259-.419-1.259-1.538-.7-.14.14-.279.14-.419.28-6.012 3.22-12.024 6.3-18.176 9.098-.419.14-.699.28-1.118.56-.419.14-.28.56-.14.7.14.14.28.28.559.42A497.071 497.071 0 00142.94 64.96c.699.42 1.537.84 2.237 1.26.838.42 1.118.28 1.398-.56.279-1.12.279-2.24.279-3.36zm80.111 50.387h.14v2.519c0 .42.42.7.839.42 1.119-.42 2.237-1.26 3.216-1.96 3.215-2.519 6.291-5.038 9.367-7.838 3.076-2.939 6.292-5.878 9.367-8.817.56-.56.56-.7-.139-.98l-.839-.42c-5.453-2.24-10.906-4.619-16.358-6.858a6.81 6.81 0 00-1.538-.56c-.419-.14-.699 0-.839.56v.42c-.559 4.339-1.258 8.817-1.817 13.156-.56 3.499-.979 6.858-1.399 10.358zm64.872 11.197c-.139 1.959-.139 3.918-.139 5.878 0 2.239 0 4.479.279 6.718.14 2.38.559 2.519 2.377 1.12a28.85 28.85 0 004.334-3.919c4.334-4.899 8.109-10.217 12.024-15.536.279-.42.559-.84.839-1.4.419-.839.419-1.119-.42-1.399-.279 0-.419-.14-.699-.14-5.452-1.4-11.045-2.939-16.497-4.339-.28-.14-.56-.14-.979-.14-.42 0-.559.14-.699.56-.14.42-.14.98-.14 1.4 0 3.639-.14 7.418-.28 11.197zM183.065 40.048c0-1.26-.14-2.38-.14-3.5-.699-6.298-1.817-12.456-2.936-18.754-.14-.42-.14-.7-.279-1.12-.14-.56-.42-.7-.839-.42-.28.28-.699.42-.979.7-5.313 4.059-10.625 7.838-16.218 11.477-.279.28-.699.42-.979.7-.559.42-.559.7 0 1.12 2.657 1.819 5.313 3.778 8.109 5.598 3.636 2.52 7.41 4.759 11.465 6.858.559.28 1.258.56 1.957.84.28.14.699-.14.699-.42.14-1.12.14-2.24.14-3.08zM135.949 27.03c-.14-.14-.28-.42-.419-.56-4.334-4.058-8.529-8.397-12.583-12.876l-.699-.7c-.14-.14-.42-.14-.56.14-.279.42-.559.98-.838 1.4a816.903 816.903 0 00-7.41 16.095c-.56 1.4-1.119 2.8-1.538 4.2-.14.56-.28.979-.42 1.539-.139.56.28.84.839.84 1.538 0 3.076-.56 4.474-1.12 6.431-2.38 12.583-5.319 18.595-8.538.279 0 .419-.28.559-.42zM52.203 73.36c.14.98.699 1.54 1.118 2.1 3.076 4.898 6.571 9.657 9.927 14.416.839 1.12 1.678 2.239 2.656 3.219.28.42.7.84 1.119 1.12.42.42.699.28.978-.14.42-1.12.84-2.38 1.259-3.5 1.258-4.898 2.097-9.797 2.796-14.696.28-2.38.699-4.618.978-6.998.14-.7-.14-.84-.838-.7C68 69.3 63.807 70.42 59.473 71.4c-2.377.84-4.754 1.4-7.27 1.959z" fill="#fff"/><path d="M70.239 74.479c-.14 1.68-.28 3.779-.42 6.018 0 .28-.14.56-.28.84-.14.14-.419.28-.559.28-.14 0-.42-.14-.559-.42-.14-.42-.14-.7-.14-1.12.14-2.52.42-5.178.56-7.698 0-.28 0-.42.14-.7.14-.28.419-.42.698-.42.28 0 .42.28.42.42.14.84.14 1.54.14 2.8zm-2.937 13.576c.14-.98.14-2.1.56-3.08.139-.42.419-.56.838-.42.28.14.56.42.42.7-.14 1.12-.42 2.24-.56 3.36-.14.42-.28.7-.839.56-.42-.14-.559-.56-.559-.84 0-.14 0-.14.14-.28z" fill="#fff"/></svg>