<svg width="173" height="85" fill="none" xmlns="http://www.w3.org/2000/svg"><path d="M8.185 36.605c5.1 0 10.814-2.858 12.854-6.534 3.265-5.717 1.428-11.639 1.224-12.047-.816-1.634-7.549-14.498-14.078-14.498-1.836 0-3.469 1.02-4.693 3.063-3.672 5.717-1.02 12.251 3.469 16.54-2.04.816-4.285 2.246-5.305 4.288-.816 1.429-1.02 3.063-.612 4.492.816 3.063 3.468 4.697 7.141 4.697zm12.446-17.56s1.632 5.104-1.224 10.21c-1.632 2.858-6.937 5.513-11.222 5.513-2.04 0-4.489-.613-5.305-3.063-.204-1.021-.204-2.042.408-2.859 1.02-1.838 3.469-3.267 5.305-3.88 1.02.613 2.652 1.634 3.877 1.634 1.02 0 1.836-.613 1.836-1.634 0-.612-.204-1.225-.612-1.633-.816-1.021-2.653-1.225-4.693-.613-3.06-2.859-7.549-8.984-3.876-14.702.816-1.43 1.836-2.042 3.06-2.042 4.489-.204 10.406 9.189 12.446 13.069zm16.527 22.053c2.244 0 4.08-1.021 5.305-2.859.816-1.43 1.02-2.859.816-4.492-.612-2.246-2.245-4.288-3.877-5.718 5.305-2.858 9.794-8.576 7.957-14.906-1.02-3.676-3.468-4.492-5.304-4.492-6.325 0-15.507 9.597-15.915 10.005-.204.409-3.877 5.514-2.244 11.844 1.02 5.309 7.957 10.618 13.262 10.618zm0-12.048c1.632 1.021 3.468 3.063 4.08 5.105.205 1.021 0 2.042-.408 2.859-.816 1.225-2.04 1.838-3.672 1.838-4.489 0-10.406-4.697-11.426-8.78-1.428-5.514 1.836-10.21 1.836-10.21 2.449-2.451 9.794-9.394 14.487-9.394 1.02 0 2.448.409 3.264 3.063 1.836 6.535-4.08 11.231-7.753 13.069-2.857-1.634-5.51-1.225-5.713.817-.204.816.204 1.225.408 1.429.612 1.225 2.448 1.225 4.897.204zM24.1 17.003c.612 0 1.02-.409 1.02-1.021.816-9.802 9.385-13.069 9.59-13.273.611-.204.816-.817.611-1.225-.204-.613-.816-.817-1.224-.613-.408.204-6.733 2.655-9.59 9.393-.815-4.084-2.652-9.189-6.324-10.21-.612-.204-1.02.205-1.224.613-.205.408 0 1.225.612 1.43 4.08 1.224 5.508 10.413 5.712 13.885 0 .408.409 1.02.817 1.02zM51.44 85v-2.042c-2.04 0-4.08-.408-5.917-.612l-.408 2.041c2.244.205 4.285.409 6.325.613zm6.325 0c.816 0 1.632 0 2.449-.204 1.428-.204 2.652-.204 3.876-.409l-.204-2.041c-1.224.204-2.448.204-3.672.408-.817 0-1.633.204-2.245.204L57.765 85zm113.443-.613l1.632-1.225-.408-.408-1.632 1.225.408.408zm-101.2-1.225c2.04-.612 4.08-1.225 5.916-1.838l-.816-1.837c-1.632.612-3.673 1.225-5.713 1.838l.612 1.837zm-30.81-.612l.612-1.838c-1.836-.613-3.672-1.43-5.305-2.45l-1.02 1.837c1.836.817 3.673 1.838 5.713 2.45zm127.521-2.86l1.428-1.428c-1.428-1.43-3.264-2.655-4.897-3.88l-1.224 1.633c1.836 1.021 3.265 2.246 4.693 3.676zm-85.082-1.428c1.836-1.226 3.469-2.86 4.693-4.493l-1.632-1.225c-1.02 1.43-2.449 2.859-4.081 4.084l1.02 1.633zm-53.049-2.247l1.429-1.429c-1.429-1.43-2.653-2.859-3.673-4.492l-1.632 1.02c1.02 1.838 2.244 3.472 3.876 4.901zm128.337-3.063l1.02-1.837c-1.836-1.021-3.672-1.838-5.713-2.655l-.816 1.838c1.837.817 3.877 1.633 5.509 2.654zm-62.638-2.246c1.02 0 2.244 0 3.469-.204l-.204-2.042c-2.245.204-4.081.204-5.917 0l-.204 2.042c1.02 0 2.04.204 2.856.204zm9.59-1.02c1.836-.41 4.08-.613 6.121-1.226l-.408-2.042c-2.041.408-4.081.817-5.917 1.225l.204 2.042zM85.31 69.48l.612-2.042c-2.04-.612-3.877-1.43-5.101-2.45l-1.224 1.633c1.428 1.225 3.264 2.246 5.713 2.86zm60.393-1.02l.613-2.043c-2.041-.613-4.081-1.02-6.121-1.43l-.409 2.043c2.041.408 4.081.816 5.917 1.43zm-56.72-.41c.407-1.429.611-2.654.611-4.083 0-.817 0-1.634-.204-2.246l-2.04.204c0 .612.204 1.43.204 2.042 0 1.225-.204 2.45-.408 3.675l1.836.409zm26.932-.816c2.04-.409 4.08-.613 5.917-.817l-.204-2.042c-2.041.204-4.081.409-6.121.817l.408 2.042zm17.954-1.021l.205-2.042c-1.837-.204-3.673-.204-5.509-.204h-.612v2.042h.612c1.836 0 3.672.204 5.304.204zm-112.014-.817l1.837-.817c-.613-1.837-1.225-3.675-1.633-5.717l-2.04.408c.408 2.246 1.02 4.288 1.836 6.126zM75.72 61.11l2.04-.408c-.204-.409-.204-1.021-.204-1.43 0-1.225.204-2.45.817-3.675l-1.837-.817c-.816 1.633-1.02 3.063-1.02 4.696 0 .409 0 1.021.204 1.634zm9.794-4.697l1.836-1.02c-1.428-2.45-3.265-4.084-4.897-4.493l-.612 2.042c1.224.204 2.653 1.43 3.673 3.471zm-66.107-3.267h2.04v-2.042c0-2.45.204-3.88.204-3.88l-2.04-.203s-.204 1.633-.204 4.288c-.204.408 0 1.02 0 1.837z" fill="#F09044"/></svg>