<svg width="82" height="110" fill="none" xmlns="http://www.w3.org/2000/svg"><path d="M61.935 82.88c.264-.088.351-.352.527-.616l.527.264c1.316.704 2.545-1.32 1.14-2.024-1.053-.528-2.106-1.056-3.159-1.672-.614-.351-1.229-.087-1.492.352l-.526-.263c-.966-.44-2.37.527-1.58 1.583.087.176.263.352.35.44-.965-.704-2.018-1.408-2.983-2.112-1.141-.791-2.282.88-1.404 1.848 1.228 1.32 2.37 2.728 3.51 4.224-2.545-1.848-5.178-3.608-7.723-5.456-.965-.703-2.282.616-1.58 1.584 1.58 2.2 3.248 4.4 4.915 6.423a435.82 435.82 0 00-7.723-5.719c-1.053-.792-2.37.968-1.404 1.848 2.194 2.2 4.3 4.487 6.319 6.863-4.74-4.135-9.479-8.359-14.13-12.494-1.14-.968-2.72.528-1.667 1.671.965 1.056 2.018 2.112 2.983 3.256-1.58-1.144-3.159-2.288-4.739-3.256-1.053-.704-2.194.792-1.492 1.672-.263-.176-.526-.352-.702-.528-1.14-.792-2.194.88-1.404 1.848 2.106 2.64 4.3 5.103 6.582 7.655a96.236 96.236 0 00-9.303-6.335c-1.053-.616-2.106.616-1.58 1.584-1.579-1.32-3.246-2.728-4.826-4.048-.966-.792-2.633.176-1.843 1.408-.176-.088-.263-.176-.439-.264-1.229-.704-2.194.88-1.404 1.848.526.704 1.14 1.32 1.667 2.024-.614.263-.877 1.143-.35 1.847a94.793 94.793 0 003.773 4.576c-.263-.176-.614-.352-.878-.528-.877-.528-2.106.528-1.492 1.496 1.141 1.671 2.282 3.255 3.599 4.751-.088.264-.088.528.175.704l2.37 2.112a39.027 39.027 0 004.914 4.399l.176.176c.878.616 2.018-.792 1.14-1.496a66.287 66.287 0 01-7.02-7.039c1.843 1.32 3.686 2.64 5.441 4.048 1.404 1.232 2.808 2.463 4.3 3.607.703.616 1.668.088 1.931-.528.878.704 1.668 1.408 2.545 2.112.702.528 1.58.176 1.843-.44.44.352.878.704 1.317.968 1.053.792 2.37-.968 1.404-1.848l-13.69-12.67c-.527-.528-1.054-1.056-1.668-1.496 6.933 5.895 13.69 12.055 20.273 18.39 1.053 1.056 2.72-.616 1.667-1.672-5.002-5.103-10.005-10.207-14.92-15.398 5.442 4.047 10.532 8.535 15.622 13.022 1.141.968 2.72-.616 1.668-1.672-4.652-4.399-9.127-9.062-13.516-13.814 5.09 4.312 9.83 9.063 14.569 13.726 1.053 1.056 2.72-.615 1.667-1.671-2.808-2.904-5.704-5.808-8.513-8.711 2.984 2.727 5.88 5.631 8.777 8.271 1.14 1.056 2.72-.528 1.667-1.672l-3.95-4.224c1.58 1.408 3.16 2.816 4.74 4.136.965.792 2.633-.264 1.843-1.408-1.843-2.64-3.686-5.28-5.705-7.743a716.08 716.08 0 008.513 6.335c1.053.792 2.37-.968 1.405-1.847-3.16-2.992-6.056-6.16-8.777-9.415l6.846 4.751c.965.704 2.194-.616 1.58-1.584-.703-1.232-1.492-2.376-2.282-3.52.965.617 1.843 1.32 2.808 1.936 1.141.792 2.194-.88 1.404-1.847a12.8 12.8 0 01-2.633-2.728z" fill="#80BDC4"/><path d="M43.856 14.072a18.43 18.43 0 00-.965-2.64c.263-.264.439-.615.263-1.143 0-.088-.087-.176-.087-.264a31.215 31.215 0 00-1.405-2.992c.703-.352 1.141-1.232.44-1.848-.878-.704-1.58-1.144-2.721-1.32-.878-.176-1.756.616-1.405 1.496-.614.352-.877 1.232-.35 1.848.263.352.614.704.877 1.056l-1.229-1.232c-.877-.88-2.545.264-1.755 1.408.702 1.056 1.316 2.2 1.93 3.255l-1.316-1.583c-.526-.704-1.667-.088-1.228.704 1.228 2.023 2.896 3.52 4.827 4.927.702.44 1.667-.352 1.404-1.056-.088-.176-.176-.352-.176-.528.351.44.79.792 1.141 1.232.614.616 2.107-.264 1.755-1.32z" fill="#EDCA66"/><path d="M73.52 62.29c.79-9.766-.351-20.501-6.494-28.508-5.178-6.863-13.779-11.087-22.292-8.447.439-1.408.965-2.728 1.58-4.136.35-.792-.176-1.496-.79-1.76-.088-.263-.263-.527-.702-.615-2.458-.44-5.003-.528-7.548-.44.088-.968.351-1.936.527-2.904 2.37.616 5.002 0 6.494-2.112.878-1.232 1.053-2.815.439-4.135-1.053-2.2-5.09-5.016-2.106-7.391 1.14-.88-.44-2.464-1.58-1.584-.351.264-.614.528-.79.88-2.72-.352-5.704 2.551-6.67 4.84-1.228 2.99-.35 6.862 2.37 8.71.088 0 .088.088.175.088-.263 1.232-.35 2.464-.175 3.696-2.194.176-4.388.44-6.495.967-.526.088-.526.792-.263 1.056-.526-.088-1.229.264-1.229.88a45.51 45.51 0 00.79 4.576.748.748 0 00-.614 0C11.647 29.822.239 50.06 7.962 65.898c-5.53-.352-10.62 6.775-6.407 11.439 2.72 2.991 7.372 2.991 11.058 1.231-.702 4.224.176 8.448 1.317 12.583 1.14 3.96 2.37 8.447 5.002 11.791 4.827 6.159 13.252 6.247 20.448 6.511 6.67.264 16.324 2.288 21.327-3.608 2.72-3.255 3.861-8.007 5.178-11.966a122.841 122.841 0 003.949-15.838c.263-1.232-.79-2.024-1.755-2.024l.263-.528c2.457 3.52 9.654 2.552 12.199-.616 4.213-5.367-1.492-11.615-7.021-12.583zM35.431 9.85c-.614-2.816 1.404-6.336 4.213-7.215a3.624 3.624 0 000 1.935c.439 2.288 4.651 5.632 2.72 7.831-1.053 1.232-2.457 1.32-3.686.88.088-.352.264-.704.352-1.056.35-.88-1.054-1.495-1.58-.616-.176.264-.264.528-.351.704-.878-.615-1.492-1.495-1.668-2.463zm8.6 10.998a51.965 51.965 0 00-1.842 5.192c-1.667-1.584-3.862-2.728-5.792-3.872-.703-.44-1.492-1.056-2.37-1.496 3.247 0 6.582.088 10.005.176zm-14.304-.176h.526v.176c.088 2.024 2.458 3.08 3.862 4.224 2.018 1.496 4.125 3.255 6.494 4.135.264.088.439.088.615.088-.264 1.056-.351 2.112-.527 3.256h-.088c-2.282-.792-4.476-2.024-6.758-2.992-.614-.264-1.053.176-1.228.704-.79-3.255-1.668-6.511-2.896-9.415.087 0 0-.088 0-.176zm10.707 17.774c-2.019 0-4.037.176-6.056.44-.439-2.463-.877-5.103-1.404-7.655.088.088.088.176.175.176 1.931 1.32 4.125 2.376 5.968 3.784.527.352.966.44 1.405.44-.088.967-.088 1.847-.088 2.815zm20.096 60.8c-1.667 4.312-4.125 6.951-8.951 7.303-3.511.264-7.11-.088-10.62-.264-7.108-.264-16.06.352-20.36-6.599-3.774-6.071-5.179-14.518-6.144-21.47 0-.263-.175-.44-.35-.527.613-.44 1.14-.88 1.579-1.32.965 3.08 3.95 5.367 7.372 5.807 4.563.616 9.654-2.288 11.672-6.423 1.317 3.96 5.441 6.599 9.742 6.775 5.09.088 10.005-3.432 11.935-8.183.79 2.64 3.16 4.84 5.88 5.015 1.405.088 2.984-.528 4.125-1.495-1.316 7.303-3.247 14.518-5.88 21.381zm17.553-26.22c-1.931 2.55-7.46 2.815-9.04-.177-.263-.44-.79-.528-1.228-.264-.703-.352-1.668-.176-1.844.704-.438 2.024-1.58 3.784-3.949 3.432-2.282-.352-3.423-2.64-4.212-4.576a.837.837 0 00-.966-.528c-.526-.704-1.755-.968-2.194.088-1.843 3.872-4.388 7.655-9.127 8.095-4.564.44-7.986-2.463-9.917-6.423-.264-.528-1.053-.352-1.229.176-.439-.176-.877-.176-1.316.264-2.282 2.552-4.388 5.28-8.074 5.72a7.403 7.403 0 01-7.811-5.104c.526-1.144-.966-2.552-1.931-1.496-2.545 2.816-5.88 5.016-9.83 3.696-2.808-.968-3.422-4.136-1.491-6.335 1.316-1.584 3.247-1.848 5.002-2.728l.263-.264c.351-.176.527-.44.44-.88-1.493-8.447-2.107-16.63 2.105-24.461 3.687-6.775 9.918-11.263 17.202-13.463.175-.087.35-.175.439-.264.965 3.696 2.194 7.48 3.422 10.911-1.755.264-3.422.704-5.09 1.232-.526.176-.439 1.056.176 1.056 6.494-.616 12.725-1.144 19.307-.528 1.317.088 1.317-1.936 0-2.024-1.755-.176-3.51-.264-5.265-.352.438-3.871 1.053-7.567 2.194-11.174.088.088.263.088.439.088 8.951-.704 16.499 2.551 21.326 10.294 4.651 7.48 5.09 16.19 5.002 24.725-1.14.792-.877 2.992.878 2.992 3.335-.088 9.303 3.608 6.319 7.567z" fill="#fff"/></svg>