<svg width="29" height="26" fill="none" xmlns="http://www.w3.org/2000/svg"><path d="M14.532 22.331c-.982.238-2.21.325-3.288.164-.883-.209-1.227.086-1.916.675-1.134 1.331-2.609 2.111-4.377 2.54-1.375.333-2.602.419-3.974-.094-.245-.151-.538-.503-.783-.655l-.145-.598c-.049-.2.344-.295.344-.295.197-.048.442.104.638.057 1.91 1.015 3.63.387 5.301-.44.59-.143 1.082-.685 1.427-.98.886-.637.886-.637.055-1.491-.538-.504-.928-1.254-1.122-2.052a1.581 1.581 0 01.151-1.093c.396-.941 1.182-1.131 1.917-.676.93.408 1.32 1.159 1.759 2.109l.29 1.197c.097.399.341.55.586.703 3.285.682 7.17-1.315 8.505-4.385.396-.94.348-1.14-.731-1.301a7.13 7.13 0 01-4.555-2.488c-.783-.655-1.369-1.358-1.61-2.355-.34-1.397.598-2.68 1.973-3.013.59-.143 1.227-.087 1.913.17 2.058.768 3.428 2.126 4.156 4.273l.29 1.197c.097.4.342.552.735.456.785-.19 1.523-.58 2.212-1.17 2.215-2.015 3.107-4.344 3.02-7.28-.094-1.244-.532-2.194-1.215-3.296-.097-.4-.39-.75-.487-1.15-.048-.2-.048-.2.1-.446.148-.248.345-.295.59-.143.244.152.489.304.782.655 1.221 1.605 1.853 3.353 1.698 5.292-.26 4.076-2.185 7.289-6.214 8.688-.59.143-.934.437-1.182 1.131-1.043 3.421-3.503 5.285-6.843 6.094zm5.432-9.343c-.632-1.748-1.756-2.954-3.373-3.618-.93-.409-1.52-.266-2.013.276-.493.542-.3 1.34.287 2.043 1.173 1.406 2.593 2.118 4.31 2.335.197-.047.393-.095.638.057.196-.048.344-.295.492-.542-.196.048-.244-.152-.341-.55zm-11.945 5.64c.048.2-.148.248-.1.448.194.798.487 1.15.928 1.253l.197-.047c.248-.694-.242-.998-.535-1.35-.049-.199-.049-.199-.49-.303.197-.048.245.152 0 0z" fill="#FFAD12"/></svg>