<svg width="41" height="71" fill="none" xmlns="http://www.w3.org/2000/svg"><path d="M40.375 15.405c.7-4.7-1.5-9-5-11.9l.2-.2c.7-.9.1-2.5-1.2-2.1-.5.2-.9.4-1.3.7-1.8-1-3.8-1.7-5.8-1.9-1-.1-1.1 1.4-.2 1.7 1.4.4 2.8 1 4 1.6-.6.4-1.3.8-2 1.1-.9-.3-1.9.9-1.1 1.8 2.3 2.6 2.7 5.9 1.3 8.5-4.1-4.2-11-5.4-15-.2-4.5 5.9.8 13.6 7.5 14.2 2.3.2 5-.3 7.6-1.4-.1 4 .7 8.4-1.6 11.9-.2.3-.5.6-.8.9-1.7-7.8-12.9-10.4-19.2-6.7-6.7 3.9-6.4 12.8-.1 17 4.1 2.7 9.2 3 13.8 1.6-3.6 8-12.2 10.3-20.2 10.4-.8 0-1.2.7-1.1 1.5.2 1.5.4 2.9.7 4.4 0 .1 0 .1.1.2-.2.7.1 1.5.9 1.6 12.9 2.3 30.5-6.8 27.4-21.9.4-.3.7-.6 1.1-.9 6.4-5.8 8.5-15.5 4.8-23.3 2.7-2.5 4.8-5.5 5.2-8.6zm-37.2 52.1c0-.7-.2-1.3-.3-2-.1-.3-.1-.5-.2-.8 8.9-.3 17.8-3.5 21.4-12.4.2-.5.1-.9-.2-1.1 1.4-.6 2.8-1.3 4-2.1-2.3 12.6-12.1 19.2-24.7 18.4zm16.7-17.7c-5.3 1.2-15.7-.9-14.7-8.5 1.3-10.3 16.9-8.7 20.1-.6.1.2.2.4.4.5-1.4 1-3.3 1.9-5.1 2.4.2-.2.3-.6.3-1-.6-3.9-5.3-5.5-8.1-3.4-.4-.4-1.1-.4-1.4.1-1.2 2.3-.2 4.7 1.9 6.2 3.3 2.2 7.4.7 10.6-.8 7.4-3.2 8.9-10.5 6.7-17.9v-.1c1.1-.5 2.1-1.2 3.1-1.9 2.5 11-2 22.4-13.8 25zm-.6-5.9c-3.3.7-6.2.1-6.4-3.3 2.3-.9 4.8 0 5.8 2.6.1.4.3.6.6.7zm11.3-20.1c-4.6 2.9-13.5 4.1-15.3-2.8-.9-3.4 1.3-6.6 4.5-7.5 3.3-.9 6 .6 8.2 2.7-.6.6-1.2 1.2-2 1.6-.8-1.4-2.6-1.8-4.1-1.4-.4.1-.8.6-.8 1.1v2.4c0 .6.5 1.1 1.1 1.1 1.6.1 3.1-.4 4.3-1.4.1 0 .3 0 .4-.1 5.2-2.6 6.8-9 3.6-13.6.6-.2 1.3-.5 1.9-.7.3-.1.6-.3.9-.4 1.5 1.2 2.8 2.8 3.7 4.7 2.7 6-1.5 11.1-6.4 14.3z" fill="#fff"/><path d="M31.975 28.005c-.4-1-2.1-.3-1.8.8 2.5 8.8-2.7 17.4-11.9 18.9-2.4.4-4.8.5-7-.9-3.7-2.4-3.7-7.3.5-9 4.6-1.8 9.1.5 12.3 3.7 1.2 1.2 2.8-.6 1.8-1.8-4-4.8-11.4-7.1-16.9-3.5-4.9 3.1-4.6 9.6.3 12.7 5.4 3.5 13.5 1.3 18.2-2.4 5.4-4.5 7.4-12 4.5-18.5zm3.3-18.6c-.5-1.1-2.1-.7-1.9.5 1.2 5.2-.9 10.7-6.4 12.2-2.4.7-6.2.5-7.5-2.1-1.3-2.5 1-4.7 3.3-4.9.5-.1 2.3 0 3.2.4.1.5.4.8.9 1 .5.2 1 .2 1.5-.2.4-.3.8-.9.6-1.5-1.4-3.5-8-2.8-10.4-.9-3.1 2.4-2.8 6.9.1 9.3 3.7 3.1 9.4 2.1 13-.7 4-3.1 5.5-8.5 3.6-13.1z" fill="#80BDC4"/></svg>