<svg width="43" height="36" fill="none" xmlns="http://www.w3.org/2000/svg"><path d="M31.684 33.056c2.91-.325 5.82-1.297 8.73-3.241.323-.648.97-.972 1.616-1.297.323-.324.647 0 .647.325 0 .324.323.648.323.972 0 .324-.323.648-.323.648-4.203 3.24-8.73 5.51-13.903 4.213-3.88-.648-6.466-3.24-8.406-6.806-.646-.648-.646-1.296-.97-1.944-.323-.648-.646-.972-1.293-.972-6.466-.324-10.346-6.482-10.669-12.64v-.323c.323-1.945-.323-3.241-2.263-4.213S1.617 5.185.647 2.917C.323 2.269 0 1.62 0 .648 0 .324.323 0 .647 0c.323 0 .646 0 .97.324l.97 1.945c.97 1.944 2.586 3.24 4.526 4.537.323 0 .97 0 1.293-.325.647-.648.97-1.296 1.617-1.944.646-.648 1.293-.972 2.263-1.296 1.293 0 2.263.972 2.263 2.268 0 1.297-.647 2.593-1.617 3.241-.323.324-.97.648-1.616.648-1.94.972-1.94.972-1.94 3.24.323 4.862 3.233 9.075 7.436 10.047h.647c.97.324 1.293 0 1.616-.972 0-.648.323-1.296.323-2.269.324-2.268 1.294-4.537 2.91-6.481.647 0 .97-.648 1.617-.972 2.586-1.62 5.173-.324 5.496 2.592 0 .973 0 1.945-.323 2.593-1.293 2.917-2.91 4.861-5.496 6.157-.324.324-.97.649-1.617.973-.647.324-.647.972-.647 1.62 1.294 3.889 5.497 7.13 10.346 7.13zm-10.346-12.64c0 1.297 0 1.621.324 1.945.323 0 .646 0 .97-.324 2.263-1.296 3.556-2.917 4.526-5.185.323-.648.323-1.296.323-1.945-.323-1.62-1.293-1.944-2.586-1.296-2.263 1.945-3.233 4.537-3.557 6.806z" fill="#DD8088"/></svg>