<svg width="13" height="19" fill="none" xmlns="http://www.w3.org/2000/svg"><path d="M12.75 2.525c-.1-.4-.4-.6-.7-.7l-4.8-1.8h-.3c-.4-.1-.9.1-.8.6.5 5.2-1.3 10.1-5.7 13.1-.6.4-.6 1.1 0 1.5 1.2.9 2.5 1.8 3.8 2.7.2.2.5.4.9.2 5.4-3 8.5-9.5 7.6-15.6zm-2.8 6.4c-1 2.9-2.7 5.3-4.9 7.4l-2.7-1.8c3.9-3.1 6.1-8.1 5.3-13.1 1.2.6 2.7 1.3 3.1 2.4.4 1.3-.4 3.9-.8 5.1z" fill="#fff"/><path d="M9.85 4.225c-.3-.3-.9-.5-1.3-.3-2 .7-1 2.7-1.4 4.3-.3 1-.7 1.9-1.4 2.7-.3.4-.7.7-1.1 1-.3.1-.5.2-.7.3h-.2c-.4.1-.6.3-.7.7-.1.2 0 .5.2.7 1.3 1.4 3.7-.8 4.6-1.9.6-.8 1.2-1.7 1.5-2.7.2-.5.3-1.1.4-1.6v-.8c.8-.6.7-1.7.1-2.4z" fill="#80BDC4"/></svg>