<svg width="72" height="65" fill="none" xmlns="http://www.w3.org/2000/svg"><path d="M36.199 55.667c-2.449.594-5.508.808-8.197.407-2.2-.52-3.06.215-4.777 1.684-2.826 3.318-6.502 5.262-10.91 6.33-3.428.831-6.487 1.046-9.907-.232-.61-.378-1.342-1.254-1.952-1.633l-.361-1.492c-.12-.497.859-.735.859-.735.49-.118 1.1.26 1.59.142 4.76 2.532 9.048.966 13.214-1.097 1.47-.356 2.698-1.707 3.557-2.441 2.207-1.589 2.207-1.589.135-3.72-1.34-1.254-2.313-3.125-2.795-5.114-.24-.995.008-2.108.377-2.724.987-2.346 2.946-2.82 4.777-1.684 2.32 1.017 3.292 2.888 4.385 5.256.24.995.482 1.99.723 2.984.24.995.851 1.373 1.461 1.752 8.19 1.701 17.872-3.278 21.202-10.93.987-2.346.867-2.843-1.823-3.245-4.28-.542-8.43-2.695-11.354-6.2-1.951-1.633-3.413-3.385-4.015-5.872-.844-3.481 1.492-6.68 4.92-7.51 1.469-.357 3.059-.215 4.769.423 5.13 1.916 8.543 5.302 10.359 10.654l.723 2.984c.241.994.852 1.373 1.831 1.136 1.959-.475 3.797-1.447 5.515-2.916 5.523-5.025 7.746-10.83 7.527-18.148-.233-3.103-1.325-5.471-3.028-8.218-.241-.994-.972-1.87-1.213-2.865-.12-.498-.12-.498.249-1.114.369-.616.859-.734 1.469-.356.61.379 1.22.758 1.951 1.634 3.044 4.001 4.618 8.359 4.234 13.19-.648 10.163-5.448 18.171-15.491 21.658-1.47.356-2.328 1.091-2.946 2.82-2.6 8.529-8.733 13.175-17.058 15.192zm13.54-23.29c-1.575-4.358-4.377-7.365-8.408-9.02-2.32-1.018-3.79-.662-5.018.689-1.228 1.35-.746 3.34.715 5.092 2.924 3.504 6.465 5.279 10.744 5.821.49-.118.98-.237 1.59.142.49-.12.859-.735 1.228-1.351-.49.118-.61-.379-.851-1.373zm-29.776 14.06c.12.498-.37.617-.249 1.114.482 1.99 1.213 2.866 2.313 3.126l.49-.119c.618-1.73-.603-2.487-1.334-3.363-.12-.497-.12-.497-1.22-.757.49-.119.61.378 0 0z" fill="#FFAD12"/></svg>