<svg width="51" height="54" fill="none" xmlns="http://www.w3.org/2000/svg"><path d="M49.913 44.451c-1.7-1.7-3-3.7-4.5-5.6-.3-.4-.8-.3-1.1-.1-.3-.3-.7-.5-1.2-.1-7.1 5.2-13.9 5-19.7-1.2.2-.1.4-.1.7-.2 7.5-2.2 18.6-11.9 12.9-20.5-6.5-9.8-20-.8-23.5 7-3.5-5.1 3.7-15.2 7.7-17.7.1-.1.2-.2.2-.3.5-.3.7-.9.3-1.6-.6-.7-1.4-1.4-2.1-2-.5-.5-1.1-1.2-1.8-1.2h-.1c-.5-.3-1 .3-.8.8v.1c0 .7.7 1.3 1.2 1.8.5.6 1.1 1.2 1.6 1.7-6.7 2.8-15.2 19.3-5.7 22h.4c5 3.5 13.6 1.3 14.8-5.5.1-.8-.6-1.4-1.3-1.3-3.8-2.1-9.5 2.2-9.2 6.4-1.5-.2-2.9-.8-4.1-1.8.1-.1.2-.2.2-.3 1.9-3.7 4.6-6.8 8.4-8.5 6.9-3.2 15.3 1.2 10.9 9.7-3.1 5.9-9.8 9.5-16.4 9.4-7.7-.1-15.6-5.9-15.3-14.2.3-8.4 7.1-16 14-20.1.6-.3.2-1.4-.5-1.1-9.2 3.6-18.4 15.4-15.3 26 1.7 5.8 6.4 9.6 11.8 11.2 3.4 15.5 26.5 21.2 37.4 10.1.3-.3.3-.7.1-1.1.4-.6.6-1.3 0-1.8zm-26.3-21.5c1.1-.7 2.2-1 3.4-1.1-1.3 2.3-2.8 4.2-5.6 4.8-.1 0-.3 0-.4.1.6-1.6 1.1-2.8 2.6-3.8zm4.3 26.8c-6.4-2-10.5-6.7-13.9-12.2 2.5.5 5.1.6 7.6.2 4.6 7.7 16.5 10 22.6 2.7.8 2.1 2.2 4 3.7 5.7-6.3 3.7-12.5 5.9-20 3.6z" fill="#fff"/><path d="M31.313 17.151c-4.8-5.2-13 3-14.6 7.3-.6 1.6 2 2.3 2.6.7 1.1-2.9 3.2-5.3 6.3-6.2 4-1.2 4.2 2.5 3.2 5.3-2.2 6-7.9 7.2-13.6 5.5-6.4-1.9-9.1-6.2-6.9-12.7 1.6-4.7 5.2-7.5 7.4-11.7.3-.5-.2-1.4-.9-1.1-6.3 2.6-12.1 14.4-9.7 21 2.5 6.7 13.5 9.6 19.6 7.3 4.5-1.8 10.8-10.9 6.6-15.4zm10.8 28.1c-8.4 1.6-15.5-.7-22.2-5.7-1-.7-2 .8-1.2 1.6 6 6.4 15.8 8.7 24.2 6.6 1.6-.4.9-2.8-.8-2.5z" fill="#D46269"/></svg>