<svg width="14" height="17" fill="none" xmlns="http://www.w3.org/2000/svg"><path d="M9.354.93c-.1-.6-.8-1.2-1.6-.8-5.2 2.5-8.2 9-7.7 14.6 0 .3.2.5.3.6-.1.4.1.9.6 1 1.7.4 3.3.5 5.1.3.6-.1.9-.4 1-1 .2-2.1 1-4.1 2.1-5.9 1-1.5 2.9-2.5 3.7-4 1.4-2.4-1.5-3.8-3.5-4.8zm1.1 4.3c-.4 1-2.1 2.1-2.8 3-1.4 2-2 4.1-2.3 6.4-1.2.1-2.4 0-3.7-.2.4-5.1 2.7-8.8 6.8-12 1 .7 2.4 1.7 2 2.8z" fill="#fff"/><path d="M7.254 3.63c-2.7 2.6-4.8 6.9-4.8 10.6 0 .9 1.4 1.4 1.8.5.7-1.6 1.2-3.4 2-5s2-3 3-4.5c.9-1.3-1-2.7-2-1.6z" fill="#D46269"/></svg>