<svg width="55" height="57" fill="none" xmlns="http://www.w3.org/2000/svg"><path d="M54.139 3.48a1.586 1.586 0 00-.235-.27C53.301 1.957 52.328.874 50.953.265c-1.677-.744-3.857.237-5.332.982a49.23 49.23 0 00-2.28 1.252c-.672-4.095-6.105-1.692-8.117-.203-1.878 1.387-3.487 3.282-4.93 5.143-1.442 1.929-2.112 4.026-3.118 6.158-.57-.338-1.308-.474-2.013-.44-1.274.068-2.146.778-2.75 1.794.067-.271.168-.542.235-.813.034-.236.1-.54.034-.744 0-1.353-.637-2.808-1.073-3.993-1.107-2.876-3.958-5.244-6.305-7.004-1.342-1.015-3.455-2.774-5.232-1.962-1.174.541-1.308 2.267-.738 3.451a10.107 10.107 0 00-3.018-.135C2.996 4.089.38 6.458.044 9.875c-.368 3.756 1.577 5.685 5.132 6.158 2.481.339 4.963.643 7.411.914 1.442.17 2.884.17 4.293.508.402.101.805.203 1.207.338H4.17a2.113 2.113 0 00-2.112 2.132v33.972c0 1.184.939 2.132 2.112 2.132h42.827a2.114 2.114 0 002.112-2.132V19.959a2.114 2.114 0 00-2.112-2.132H29.59c.67-.17 1.375-.27 2.08-.339 1.576-.101 3.152.034 4.728.102 2.717.17 5.6-.203 8.25-.677 4.092-.744 8.015-2.233 9.491-6.53.168-.474.302-1.015.402-1.523.705-1.726.638-3.993-.402-5.38z" fill="#fff"/><path d="M24.426 14.003c1.106-.338 2.582.102 3.052 1.218.268.61.033 1.658-.403 2.233-.034 0-.034.034-.034.068s-.033.034-.033.068c-1.174 0-2.348.034-3.488.237h-1.375v-.034c0-.372-.067-.744-.1-1.083.1-.338.301-.677.435-.947.436-.914.973-1.455 1.946-1.76zM22.044 30.55c1.342 1.353 2.449 2.74 2.985 4.601.57 1.929-.167 4.23-.972 5.99-1.476 3.214-5.131 5.48-8.317 6.902.57-1.083 1.341-2.064 1.676-3.248.604-1.997.503-3.824.302-5.888-.033-.27-.302-.304-.47-.101-1.072 1.218-2.313 2.03-3.688 2.842a5.918 5.918 0 01-1.04.507c.268-.203.537-.372.805-.575.537-.406 1.04-.846 1.51-1.353 1.24-1.354 2.145-4.162.737-5.719-.905-1.015-2.213-1.015-3.287-1.76-2.18-1.623-.134-5.075.906-6.699a20.004 20.004 0 014.293-4.77c.939-.745 1.844-1.151 2.817-1.49-1.14 1.015-2.046 2.335-2.717 3.62-.436.847-1.475 4.637.436 4.704.034 0 .034-.034.034-.067-1.241-.271-.671-2.978-.503-3.384.402-1.05 1.14-1.997 1.81-2.876 1.107-1.388 2.415-2.166 3.89-2.944l.202-.102h.369c-1.744 1.32-3.119 2.674-3.924 4.907-.771 2.368.436 5.244 2.146 6.902zm-5.5-13.84c-1.911-.372-3.89-.406-5.801-.677-1.644-.203-3.287-.44-4.93-.676-1.677-.203-3.387-.61-4.393-2.098a1.322 1.322 0 01-.168-.305c-.94-3.654 4.36-3.451 7.076-2.402 2.582.981 4.863 2.808 6.976 4.534.737.609 1.509 1.218 2.247 1.827-.302-.067-.638-.169-1.006-.203z" fill="#FFD200"/><path d="M15.807 14.477c-2.348-1.963-4.897-3.722-7.78-4.805-1.98-.71-4.662-.88-6.406.508-.637.507-.839 1.116-.805 1.76-.839-3.08 1.744-6.633 4.628-7.276a10.363 10.363 0 014.762.136c.067.033.134.067.168.067.067.034.1.034.167.034 1.443.44 2.75 1.184 3.589 2.335.067.101.201-.034.134-.102-.704-1.32-1.878-2.2-3.22-2.774v-.136c-.067-.237-1.106-2.707.168-2.402.57.135 1.107.507 1.61.812 1.375.846 2.65 1.827 3.89 2.842 1.912 1.557 5.4 4.974 5.6 8.053-.033.17-.033.406-.033.542-.067.474-.268.914-.235 1.387 0 .034.034.068.068.102-.067.135-.134.304-.202.473-.369-1.455-1.14-2.774-2.213-3.925-.034-.034-.134.034-.1.102 1.173 1.353 1.777 2.842 2.112 4.5-.067.372-.1.744.034 1.083h-1.476c-.201-.068-.436-.135-.637-.237-1.576-.981-3.32-2.673-3.823-3.08zM45.42 18.74c1.073 0 1.945.914 1.945 2.03v32.484c0 1.117-.872 2.03-1.946 2.03H5.78c-1.073 0-1.945-.913-1.945-2.03V20.77c0-1.117.872-2.03 1.945-2.03h14.354c.268.135.537.27.805.338a7.155 7.155 0 00-2.08.507c-1.374.61-2.649 1.59-3.756 2.606-2.045 1.928-4.024 4.568-4.762 7.342-.57 2.2.37 4.128 2.381 5.008.638.27 1.241.305 1.811.71.772.542.738 1.794.637 2.606-.2 1.963-1.777 3.316-3.286 4.365-.1.068-.134.305.034.305 1.81-.034 3.89-1.59 5.265-2.944.134 1.556.167 3.011-.201 4.602-.403 1.658-1.61 2.876-2.214 4.398-.1.271.067.576.402.44 5.433-2.165 11.135-6.53 10.866-13.027-.134-3.214-3.119-4.703-4.795-7.004-1.375-1.895-1.51-4.23-.57-6.361.804-1.794 2.213-2.809 3.722-3.892h1.71c3.824.373 4.36 5.211 4.528 8.493.201 3.824-2.113 7.106-3.052 10.693-1.24 4.636-.47 13.027 5.131 14.584.235.067.436-.237.268-.407-1.341-1.455-1.207-4.432-1.14-6.293.067-2.233.906-3.824 1.778-5.617 1.509 2.132 4.393 2.098 6.841 2.775.335.101.637-.44.302-.61-3.622-1.793-.872-6.09-.1-8.865.67-2.368.77-5.414-.37-7.647-1.743-3.519-4.762-5.887-8.283-7.106H45.42z" fill="#FFD200"/><path d="M33.816 24.899c.302-1.59-.537-3.52-1.677-4.636a15.559 15.559 0 00-1.71-1.489h.369c4.93 1.726 9.122 5.38 9.457 11.031.201 3.215-1.442 5.99-2.08 9.034-.268 1.32.068 2.403.873 3.215-1.98-.372-3.958-.745-5.199-2.369.101-.203.202-.406.302-.643a.291.291 0 000-.236 14.366 14.366 0 00-1.81 1.691c-.806 1.455-1.107 3.215-1.208 4.873-.1 1.861-.034 4.67.973 6.463-3.388-1.489-4.36-5.888-4.494-9.271-.168-4.23 2.012-7.512 3.286-11.336 1.207-3.62.704-11.234-3.521-12.452h1.945c2.28 1.354 4.527 3.688 4.26 6.159-.034.135.2.101.234-.034zm-5.299-7.512c.335-.948 1.006-1.726 1.677-2.47 1.174-1.286 1.878-2.944 3.588-3.655.034-.033.034-.101 0-.101-1.878.44-2.783 2.3-4.058 3.553-.301.304-.872.812-1.341 1.42.034-.134.034-.236.034-.304.067-.98-.37-1.691-1.074-2.131.705-1.219 1.208-2.504 1.979-3.689.939-1.455 2.113-2.774 3.287-4.026 2.213-2.335 7.11-6.598 9.926-2.978 0 0 .034 0 .034.034a15.237 15.237 0 00-3.052 2.673c-.033.034 0 .102.067.068 1.61-1.286 3.287-2.335 5.198-3.147 1.878-.778 4.26-1.793 6.104-.508.033.034.067.034.1.068-1.34.068-2.682.677-3.52 1.523-1.309 1.32-2.315 2.876-3.422 4.365-1.34 1.827-2.95 3.282-4.795 4.568-2.012 1.42-4.192 2.571-6.54 3.35-1.408.473-2.817.778-4.192 1.387z" fill="#FFD200"/><path d="M51.523 13.191c-1.274 1.624-3.42 2.267-5.299 2.74-2.28.542-4.527.915-6.875 1.05-2.75.169-5.466-.17-8.115.067 1.542-.44 3.118-.845 4.628-1.522 2.515-1.117 4.997-2.707 6.908-4.67 2.214-2.3 3.69-5.853 6.506-7.478.872-.507 2.012-.44 2.951-.033 2.046 2.842 1.275 7.308-.704 9.846z" fill="#FFD200"/></svg>