<svg width="87" height="49" fill="none" xmlns="http://www.w3.org/2000/svg"><path d="M63.681 12.653c-.1-.505-.708-.505-1.011-.252-3.54 2.826-7.08 5.702-10.621 8.528-4.3-5.854-8.548-11.708-12.847-17.562-.303-.403-.91-.353-1.062.152-2.023 6.409-3.995 12.868-6.019 19.277-4.4-1.614-8.8-3.28-13.2-4.895-.557-.202-.86.454-.658.858 2.428 5.097 5.058 10.093 8.143 14.837.152.252.405.303.607.202.05 0 .101.05.202.05 10.571-.403 21.091-.706 31.712-.454a.64.64 0 00.456-.202c.202-.1.303-.252.353-.504.253-6.914 5.058-12.92 3.946-20.035zm-5.209 19.53c-10.368-.404-20.939-.353-31.307.656-2.529-4.39-5.007-8.73-7.233-13.272 4.148 1.514 8.244 3.078 12.392 4.592.303.1.657-.151.758-.404 1.973-6.257 3.895-12.515 5.867-18.773 4.148 5.703 8.346 11.405 12.493 17.108.253.353.607.404.96.1 3.44-2.724 6.829-5.5 10.268-8.225.455 6.308-3.692 12.01-4.198 18.218zm-43.243-.707c-2.58-.252-5.21-.403-7.84-.605-1.315-.101-2.63-.202-3.894-.303-.658-.05-1.77-.353-2.428-.151-.607.201-.961.403-1.062 1.16-.05.505.303.909.506 1.363.708 1.615 1.264 2.624 1.315 4.44 0 .152.05.253.151.354 0 .202.253.454.506.303 4.3-1.867 8.497-3.785 12.897-5.4.607-.303.455-1.11-.151-1.16zm-13.707.455c.203-.707 1.72-.253 2.428-.152 2.933.202 5.867.454 8.8.656-3.338 1.363-6.625 2.826-9.812 4.542 0-1.16-.202-2.17-.607-3.23-.252-.555-.96-1.261-.809-1.816zM22.613 8.616c-.81-2.725-1.568-5.501-2.377-8.226-.101-.404-.607-.505-.91-.252-1.67 1.463-3.44 2.422-5.362 3.38-.506.253-.152 1.161.405.96 2.529 1.514 5.058 3.027 7.435 4.743.455.253.96-.202.809-.605zM19.376 1.5c.607 2.019 1.214 4.088 1.82 6.106-2.022-1.16-3.995-2.321-6.018-3.431 1.517-.656 2.933-1.615 4.198-2.675z" fill="#fff"/><path d="M58.068 2.964c-1.467-.757-2.934-1.565-4.502-2.17-.354-.152-.556.151-.607.403-.152-.05-.405 0-.405.202-.556 2.322-.708 4.794-.809 7.217 0 .454.557.656.86.353 1.872-1.716 3.692-3.482 5.614-5.147.203-.202.152-.707-.151-.858zM53.11 1.652l.05.05c1.164.707 2.428 1.262 3.693 1.867-1.366 1.312-2.732 2.574-4.097 3.886.05-1.918.202-3.835.354-5.803zm30.701 13.019c-.404-1.261-.708-2.523-.86-3.835-.05-.505-.657-.656-.96-.404-.102-.1-.203-.15-.355-.1-3.085 1.665-5.968 3.683-8.901 5.55-.506.354-.203 1.161.404 1.01a67.934 67.934 0 0110.116-1.514c.354-.05.657-.353.556-.707zm-1.972-3.885c.151 1.21.354 2.372.708 3.482a81.397 81.397 0 00-6.93.908c2.125-1.362 4.25-2.775 6.222-4.39zm4.551 20.539c-1.163-.757-4.096-.303-5.462-.353-2.63-.05-5.26 0-7.84.151-.404 0-.707.555-.353.858 3.641 2.826 7.283 5.652 11.177 8.075.203.1.405-.051.405-.253.202-.05.354-.151.405-.353.404-1.262.86-2.523 1.264-3.835.303-.858 1.062-2.271 1.012-3.18 0-.605-.102-.807-.607-1.11zm-.91 2.574c-.607 1.766-1.163 3.482-1.77 5.248v.05c-3.034-2.472-6.17-4.743-9.205-7.115 2.832-.1 5.614-.151 8.446 0 .658.05 1.315 0 1.973.1 1.517.304.91.657.556 1.717zM11.537 15.378c-2.732-1.665-5.463-3.23-8.245-4.794-.252-.152-.607-.101-.758.202a15.615 15.615 0 00-1.821 4.693c-.101.404.202.656.506.656v.1c0 .051.05.102.05.203.101.252.557.252.557-.05 0 0 8.598-.051 9.356 0 .607-.051.76-.758.354-1.01zm-6.778.05c-.81 0-2.074-.201-2.883.152a14.224 14.224 0 011.416-3.785c2.074 1.16 4.097 2.372 6.17 3.533-1.618.05-3.186.1-4.703.1zm77.838 32.954c-2.58-.858-5.057-1.816-7.536-3.028-.253-.1-.455.253-.202.404a40.333 40.333 0 007.587 3.23c.404.1.556-.454.151-.606zM6.934 48.13c-1.366.05-2.63 0-3.945-.252-.405-.05-.556.504-.152.605 1.366.253 2.782.353 4.148.152.252 0 .303-.505-.051-.505zm3.338-24.577a36.163 36.163 0 01-3.692-1.867c-.304-.202-.607.303-.304.505a22.023 22.023 0 003.844 1.766c.304.101.405-.303.152-.404zM26.356 10.23c-.506-.807-.76-1.715-.658-2.674.05-.353-.506-.353-.556 0-.101 1.06.202 2.12.86 2.927.151.202.455-.05.354-.252zM64.39 3.771c-.607.555-1.164 1.16-1.77 1.766-.253.253.151.606.404.404.607-.606 1.214-1.16 1.77-1.766.203-.253-.151-.606-.404-.404zm13.25 15.594c-1.01.353-2.022.656-3.034 1.01-.354.1-.202.706.152.605l3.035-1.01c.404-.151.252-.757-.152-.605zm-47.896 4.592c-1.82-.706-3.742-1.312-5.614-1.867-.202-.05-.253.252-.101.303a56.07 56.07 0 005.564 1.968c.303.151.404-.303.151-.404zm-.758.858c-1.265-.454-2.53-.858-3.794-1.262-.253-.1-.354.303-.1.354 1.264.454 2.528.908 3.792 1.312.253.1.354-.303.102-.404z" fill="#fff"/><path d="M84.368 33.445c-1.922-.303-3.945-.354-5.918-.253-.152 0-.152.202 0 .202 1.922.151 3.894.454 5.816.505.304 0 .405-.404.102-.454zm-.304.605c-.91-.05-1.871.05-2.782.05-.252 0-.252.404 0 .404.91.05 1.872.101 2.782.05.304 0 .304-.504 0-.504zM58.37 18.456c-1.061 1.01-2.022 1.918-3.236 2.776-.253.151 0 .555.202.404 1.214-.757 2.428-1.666 3.338-2.776.203-.303-.1-.605-.303-.404zm1.215.757c-.86.757-1.67 1.514-2.53 2.271-.201.152.102.404.254.253.86-.707 1.72-1.464 2.58-2.22.303-.152-.051-.505-.304-.304z" fill="#fff"/></svg>