<svg width="70" height="41" fill="none" xmlns="http://www.w3.org/2000/svg"><mask id="a" fill="#fff"><path d="M69.729 26.982c-.162-2.066-.486-4.132-.778-6.197a6.857 6.857 0 00.389-1.902c.097-1.18.162-2.296 0-3.41v-.033c-.162-1.312-.162-2.558-.746-3.771a3.59 3.59 0 00-.973-1.28c-.519-1.934-6.097-2.983-7.232-3.213-8.433-1.77-16.995-1.705-25.556-1.508-4.152.098-8.303.262-12.454.689-2.011.23-4.054.36-6.033.787-1.232.262-2.464.59-3.73.655C9.05 8.422 5.19 9.177 2.11 11.013c-.487.295-.81.754-.843 1.246-.13.393-.195.852-.227 1.246-.227 2.099-1.07 4-1.038 6.132 0 .984.324 2 1.07 2.59-.486 3.247-1.005 6.755-.519 9.969.552 3.738 4.67 4.558 7.687 5.41 8.918 2.46 17.772 3.542 27.015 3.378 9.081-.164 18.227-.689 27.016-3.28 2.821-.819 6.55-1.606 7.459-4.852.519-1.804.162-4.034 0-5.87z"/><path d="M68.724 21.276c.097.623.162 1.28.259 1.902a.366.366 0 00-.26.099c-.875.885-2.14 1.311-3.243 1.869-1.264.656-2.53 1.279-3.859 1.836-2.595 1.115-5.319 1.705-8.075 2.328-5.935 1.378-12.195 2.132-18.292 2.394-6.065.262-12.227-.033-18.226-.918-2.887-.426-5.773-1.05-8.627-1.705-1.362-.328-2.66-.82-3.925-1.378-1.297-.557-2.789-1.147-3.34-2.492.065-.95.097-1.901.162-2.852.13.065.227.13.357.163 1.07.394 2.594-.688 3.276-1.41 1.75-1.967 1.491 1.706 2.789 1.902 1.362.197 2.756-1.311 3.697-2.131.843-.721 1.719-1.443 2.821-1.77 1.33-.394 2.368.819 3.081 1.704 1.038 1.28 1.946 2.624 3.081 3.837 2.498 2.656 5.838 2.46 8.725.492.908-.623 3.956-4.165 5.059-3.115.649.623 1.102 1.377 2.108.95 1.362-.59 3.405-3.115 4.67-1.246 1.038 1.575 1.719 3.345 3.049 4.722 2.205 2.329 5.902 3.903 8.497 1.148.94-1.016 1.654-2.295 1.978-3.672.357-1.41.778-3.083 2.919-2.361.616.196 1.265.59 1.913.491 1.492-.196 2.011-1.213 3.017-2.197 1.459-1.442 2.01 1.804 2.789 2.558.778.754 1.913.36 2.692-.098.389-.263.68-.623.908-1.05z"/><path d="M.844 17.899c.13-1.279.487-2.525.649-3.804.032-.328.032-.688.032-1.05 0 .034.033.034.033.066.551.853 1.946 1.083 2.854 1.247 4.605.885 9.21 1.475 13.88 1.836 2.044.164 4.12.262 6.162.36-4.313-.327-8.626-.72-12.875-1.508-1.816-.328-3.665-.688-5.48-1.213a17.473 17.473 0 01-2.985-.82c-2.108-.82.94-2.033 1.752-2.328 1.492-.525 3.048-.918 4.605-1.312 2.919-.688 5.902-1.18 8.886-1.64 2.465-.36 4.93-.72 7.427-1.016a64.726 64.726 0 012.53-.065c4.767-.131 9.535-.263 14.334-.263 6.94 0 14.368.46 21.016 2.624.94.295 1.946.655 2.724 1.311.909.755-.389 1.476-1.621 1.935-1.395.787-2.919 1.344-4.443 1.869-.681.23-1.395.46-2.076.689.487-.099.973-.197 1.427-.296 2.368-.491 6.097-.918 7.654-3.05a.72.72 0 01.097-.163c.811 1.443 1.103 3.443 1.103 4.951 0 1.017-.065 2.066-.162 3.083-.195 1.672-1.752 3.738-3.34 1.902-.65-.755-.552-2-1.622-2.361-.94-.328-1.914 1.18-2.368 1.738-1.135 1.442-2.465.918-3.924.426-.39-.131-.973-.328-1.395-.164-1.297.525-1.589 1.967-2.043 3.18-.843 2.296-3.243 4.132-5.675 3.575-2.173-.492-3.827-2.46-5.027-4.23-.584-.853-1.33-2.951-2.497-3.148-1.33-.23-2.335.721-3.308 1.508-.908.755-1.752 1.05-2.595.066-.227-.262-.454-.492-.778-.656-1.006-.459-2.627 1.377-3.244 1.902-1.816 1.476-4.053 2.689-6.42 2.033-1.817-.492-3.114-2.033-4.217-3.476-1.719-2.197-4.281-5.082-7.2-2.918-1.038.787-4.735 5.443-5.74 2.853-.422-1.082-.487-2.296-1.881-1.607-.649.328-1.233.918-1.881 1.311C.779 22.916.682 19.31.844 17.9zM69.34 32c-.292 2.426-2.076 3.18-4.151 3.868-1.817.59-3.633 1.05-5.481 1.542-7.979 2.098-16.605 2.262-24.81 2.393-8.336.164-16.346-.82-24.454-2.885-3.21-.82-8.108-1.345-9.049-5.181-.097-.46-.162-.918-.194-1.377.68.721 1.913 1.311 2.497 1.606 2.724 1.443 6.032 1.968 9.048 2.59 6.746 1.378 13.524 1.903 20.4 2.1 6.876.196 13.654-.164 20.432-1.115a61.873 61.873 0 009.762-2.197c1.394-.427 2.789-.886 4.119-1.542.584-.295 1.394-.557 1.978-.983 0 .393-.032.787-.097 1.18z"/><path d="M69.502 30.196c-.032 0-.032 0 0 0-.551.623-1.913.95-2.627 1.311-1.46.722-3.049 1.148-4.573 1.574-2.854.853-5.773 1.41-8.692 1.87-6.162.917-12.324 1.213-18.518 1.147-5.935-.066-11.805-.393-17.675-1.279a114.163 114.163 0 01-8.854-1.738 30.283 30.283 0 01-4.151-1.246c-.584-.23-2.433-.95-3.211-1.869-.033-.82 0-1.607-.033-2.394a17.339 17.339 0 010-1.836c.584 1.476 2.725 2.164 4.12 2.787 2.788 1.246 5.967 1.673 8.918 2.263 6.68 1.311 13.524 1.705 20.335 1.508 6.518-.197 13.2-1.05 19.556-2.492 2.822-.656 5.513-1.344 8.173-2.492 1.46-.623 2.821-1.377 4.216-2.066.908-.459 1.783-.852 2.497-1.574.357 2.164.584 4.361.519 6.526zM61.037 9.21c-.065-.296-.292-.525-.551-.69.519-1.573.876-3.246.778-4.885C61.2 2.29 60.843.389 59.318.06c-1.394-.328-3.34.754-4.572 1.311-1.784.82-3.276 2.132-4.736 3.443-.875-.459-1.913-.23-2.335.689-.097.197-.13.426-.13.689-1.232 1.803-.55 4.262 1.07 5.705 1.558 1.312 4.639 1.87 6.585.853 1.297.197 2.562.23 3.859-.23.454-.164 2.335-.852 1.784-1.705-.065-.066-.098-.131-.195-.197.39-.393.519-.852.39-1.41z"/><path d="M57.924 1.11c1.946-.492 2.173 1.377 2.497 2.82.324 1.508.227 3.017-.13 4.492-.583-.262-1.33-.36-1.751-.393-1.524-.197-3.081-.328-4.605-.525a14.022 14.022 0 00-.811-.098c.032-.066.032-.131 0-.23-.649-.983-1.913-1.77-2.951-2.328 1.135-.688 2.205-1.443 3.373-2.098 1.33-.755 2.886-1.28 4.378-1.64z"/><path d="M60.13 10.947c-.13.46-1.104.82-1.428.918-1.686.46-3.6.427-5.319.099-.583-.131-1.589-.328-2.27-.754.616.59 1.362.918 2.206 1.114a7.805 7.805 0 01-3.373-.59c-2.043-.852-3.438-3.377-2.433-5.377.033.557.26 1.147.487 1.606.162.295.486.984.875 1.28-.065-.132-.162-.296-.194-.394-.227-.492-.487-1.05-.551-1.607-.13-.525-.163-1.115 0-1.574.486-1.279 2.918.787 4.086 1.607-1.07-.197-2.238-.558-2.335-1.312 0-.033-.065-.033-.065 0 0 1.279 2.075 1.574 2.951 1.902 1.233.459 2.562.59 3.827.82.876.13 3.892.196 3.308 1.574a3.165 3.165 0 00-.778-.099c.292.066.584.197.746.328.13.131.194.263.194.36.033 0 .098-.032.13-.032.065.033 0 .066-.065.131zM55.07 3.11c-.227-.033-.39.099-.584.197-.194.098-.454.164-.551.393a.235.235 0 00.097.328c.13.066.26-.032.324-.164.065-.098.13-.196.227-.295.13-.164.26-.328.454-.393.033-.033.065-.066.033-.066zm-1.816 1.574c-.162.033-.292.131-.422.197s-.422.262-.292.426c.065.099.195.033.227-.033.033-.032.033-.065.033-.13a.576.576 0 01.13-.165c.097-.098.194-.196.324-.262.032 0 .032-.033 0-.033zm2.173.426c-.13.197-.292.361-.454.492-.163.132-.357.197-.39.427-.032.164.13.262.26.164.162-.132.26-.296.357-.46.13-.196.259-.36.324-.59.065-.098-.032-.13-.097-.033z"/><path d="M54 6.816c.032-.066-.065-.066-.065-.033-.065.098-.13.197-.195.262 0 0 0 .033-.032.033-.065.098.065.197.162.131.065-.033.097-.098.065-.164a.61.61 0 01.065-.23zm4.216-2.853c-.195.36-.584.688-.681 1.115-.033.13.097.164.162.098.194-.131.227-.328.324-.525.097-.196.195-.426.26-.655.032-.066-.033-.066-.065-.033zm-1.297 2.754c-.098.131-.13.295-.195.427-.065.196.195.23.227.032.032-.164.032-.328.097-.459 0-.065-.097-.065-.13 0zm2.399-.721a1.172 1.172 0 01-.13.295c-.032.098-.13.197-.097.295.033.066.13.098.195.033.097-.066.097-.23.13-.328 0-.098.032-.23.032-.328-.032-.033-.13-.033-.13.033zm-.227-3.836c-.032-.132-.097-.23-.097-.361 0-.099-.13-.066-.13 0-.032.164-.064.36.098.491.064.066.162-.032.13-.13zm-1.946 7.804c-1.167-.132-2.302-.164-3.47-.328-.908-.132-2.237-.164-2.854-.951 0 0-.032 0-.032.032.454.722 1.362.886 2.108 1.115 1.362.394 2.724.46 4.151.394.162-.033.26-.262.097-.262zM39.794 9.21c-.064-.296-.291-.525-.55-.69.518-1.573.875-3.246.778-4.885C39.957 2.29 39.6.389 38.076.06c-1.395-.328-3.34.754-4.573 1.311-1.784.82-3.276 2.132-4.735 3.443-.876-.459-1.914-.23-2.335.689-.098.197-.13.426-.13.689-1.232 1.803-.551 4.262 1.07 5.705 1.557 1.312 4.638 1.87 6.584.853 1.297.197 2.562.23 3.86-.23.453-.164 2.334-.852 1.783-1.705-.065-.066-.097-.131-.195-.197.39-.393.52-.852.39-1.41z"/><path d="M36.714 1.11c1.945-.492 2.172 1.377 2.497 2.82.324 1.508.227 3.017-.13 4.492-.584-.262-1.33-.36-1.751-.393-1.524-.197-3.081-.328-4.606-.525a14.022 14.022 0 00-.81-.098c.032-.066.032-.131 0-.23-.649-.983-1.914-1.77-2.952-2.328 1.136-.688 2.206-1.443 3.373-2.098 1.297-.755 2.854-1.28 4.379-1.64z"/><path d="M38.886 10.947c-.13.46-1.102.82-1.427.918-1.686.46-3.6.427-5.318.099-.584-.131-1.59-.328-2.27-.754.616.59 1.362.918 2.205 1.114a7.805 7.805 0 01-3.373-.59c-2.043-.852-3.438-3.377-2.433-5.377.033.557.26 1.147.487 1.606.162.295.486.984.876 1.28-.065-.132-.162-.296-.195-.394-.227-.492-.486-1.05-.551-1.607-.13-.525-.162-1.115 0-1.574.486-1.279 2.919.787 4.086 1.607-1.07-.197-2.238-.558-2.335-1.312 0-.033-.065-.033-.065 0 0 1.279 2.076 1.574 2.951 1.902 1.233.459 2.563.59 3.827.82.876.13 3.892.196 3.308 1.574a3.164 3.164 0 00-.778-.099c.292.066.584.197.746.328.13.131.195.263.195.36.032 0 .097-.032.13-.032.064.033.032.066-.066.131zM33.827 3.11c-.227-.033-.39.099-.584.197-.194.098-.454.164-.551.393-.065.099-.032.263.097.328.13.066.26-.032.325-.164.065-.098.13-.196.227-.295.13-.164.26-.328.454-.393.065-.033.065-.066.032-.066zM32.01 4.684c-.161.033-.29.131-.42.197s-.422.262-.293.426c.065.099.195.033.227-.033.033-.032.033-.065.033-.13a.556.556 0 01.13-.165c.097-.098.194-.196.324-.262.032 0 .065-.033 0-.033zm2.206.426c-.13.197-.292.361-.454.492-.162.132-.356.197-.389.427-.032.164.13.262.26.164.162-.132.259-.296.356-.46.13-.196.26-.36.325-.59.032-.098-.065-.13-.098-.033z"/><path d="M32.757 6.816c.032-.066-.065-.066-.065-.033-.065.098-.13.197-.195.262 0 0 0 .033-.032.033-.065.098.065.197.162.131.065-.033.097-.098.065-.164a.61.61 0 01.065-.23zm4.216-2.853c-.195.36-.584.688-.681 1.115-.032.13.097.164.162.098.195-.131.227-.328.324-.525a3.87 3.87 0 00.26-.655c.065-.066-.033-.066-.065-.033zm-1.297 2.754c-.098.131-.13.295-.195.427-.065.196.195.23.227.032.033-.164.033-.328.098-.459.032-.065-.098-.065-.13 0zm2.4-.721c-.033.098-.065.197-.13.295-.032.098-.13.197-.097.295.032.066.13.098.194.033.098-.066.098-.23.13-.328 0-.098.032-.23.032-.328-.032-.033-.097-.033-.13.033zm-.195-3.836c-.032-.132-.097-.23-.097-.361 0-.099-.13-.066-.13 0-.032.164-.065.36.065.491.065.066.162-.032.162-.13zm-1.978 7.804c-1.168-.132-2.303-.164-3.47-.328-.909-.132-2.238-.164-2.854-.951 0 0-.033 0-.033.032.454.722 1.362.886 2.108 1.115 1.362.394 2.725.46 4.152.394.162-.033.259-.262.097-.262zM18.844 9.21c-.065-.296-.292-.525-.552-.69.52-1.573.876-3.246.779-4.885C19.006 2.29 18.649.389 17.125.06c-1.395-.328-3.34.754-4.573 1.311-1.784.82-3.276 2.132-4.735 3.443-.876-.459-1.914-.23-2.335.689-.097.197-.13.426-.13.689-1.232 1.803-.551 4.262 1.07 5.705 1.557 1.312 4.638 1.87 6.584.853 1.297.197 2.562.23 3.86-.23.453-.164 2.334-.852 1.783-1.705-.065-.066-.097-.131-.195-.197.39-.393.52-.852.39-1.41z"/><path d="M15.73 1.11c1.946-.492 2.173 1.377 2.497 2.82.325 1.508.227 3.017-.13 4.492-.583-.262-1.329-.36-1.75-.393-1.525-.197-3.082-.328-4.606-.525a14.038 14.038 0 00-.81-.098c.032-.066.032-.131 0-.23-.65-.983-1.914-1.77-2.952-2.328 1.135-.688 2.205-1.443 3.373-2.098 1.33-.755 2.886-1.28 4.378-1.64z"/><path d="M17.936 10.947c-.13.46-1.103.82-1.427.918-1.687.46-3.6.427-5.32.099-.583-.131-1.588-.328-2.27-.754.617.59 1.363.918 2.206 1.114a7.805 7.805 0 01-3.373-.59C5.71 10.882 4.314 8.357 5.32 6.357c.032.557.26 1.147.486 1.606.162.295.487.984.876 1.28-.065-.132-.162-.296-.195-.394-.227-.492-.486-1.05-.551-1.607-.13-.525-.162-1.115 0-1.574.486-1.279 2.919.787 4.086 1.607-1.07-.197-2.237-.558-2.335-1.312 0-.033-.065-.033-.065 0 0 1.279 2.076 1.574 2.952 1.902 1.232.459 2.562.59 3.827.82.875.13 3.891.196 3.308 1.574a3.165 3.165 0 00-.779-.099c.292.066.584.197.746.328.13.131.195.263.195.36.032 0 .097-.032.13-.032.064.033 0 .066-.065.131zM12.844 3.11c-.227-.033-.39.099-.584.197-.194.098-.454.164-.551.393a.235.235 0 00.097.328c.13.066.26-.032.324-.164.065-.098.13-.196.227-.295.13-.164.26-.328.454-.393.065-.033.065-.066.033-.066zM11.06 4.684c-.162.033-.292.131-.421.197-.13.066-.422.262-.292.426.065.099.194.033.227-.033.032-.032.032-.065.032-.13a.574.574 0 01.13-.165c.097-.098.194-.196.324-.262.032 0 .032-.033 0-.033zm2.173.426c-.13.197-.292.361-.454.492-.162.132-.357.197-.39.427-.032.164.13.262.26.164.162-.132.26-.296.357-.46.13-.196.26-.36.324-.59.065-.098-.065-.13-.097-.033z"/><path d="M11.774 6.816c.032-.066-.065-.066-.065-.033a1.81 1.81 0 01-.195.262s0 .033-.032.033c-.065.098.065.197.162.131.065-.033.097-.098.065-.164.032-.065.032-.164.065-.23zm4.248-2.853c-.194.36-.584.688-.68 1.115-.033.13.096.164.161.098.195-.131.227-.328.325-.525.097-.196.194-.426.259-.655.032-.066-.065-.066-.065-.033zm-1.297 2.754c-.097.131-.13.295-.195.427-.065.196.195.23.227.032.033-.164.033-.328.098-.459 0-.065-.098-.065-.13 0zm2.4-.721a1.169 1.169 0 01-.13.295c-.032.098-.13.197-.097.295.032.066.13.098.194.033.098-.066.098-.23.13-.328 0-.098.032-.23.032-.328-.032-.033-.13-.033-.13.033zm-.227-3.836c-.033-.132-.098-.23-.098-.361 0-.099-.13-.066-.13 0-.032.164-.064.36.066.491.064.066.194-.032.162-.13zm-1.946 7.804c-1.168-.132-2.303-.164-3.47-.328-.908-.132-2.238-.164-2.854-.951 0 0-.033 0-.033.032.454.722 1.362.886 2.108 1.115 1.363.394 2.725.46 4.152.394.162-.033.227-.262.097-.262zm24.842 6.558c3.244-.164 6.39-.689 9.568-1.213.843-.132 1.719-.263 2.562-.427-.81.099-1.59.197-2.4.263-7.427.688-14.919.82-22.378.59 4.184.721 8.465.983 12.648.787z"/></mask><path d="M69.729 26.982c-.162-2.066-.486-4.132-.778-6.197a6.857 6.857 0 00.389-1.902c.097-1.18.162-2.296 0-3.41v-.033c-.162-1.312-.162-2.558-.746-3.771a3.59 3.59 0 00-.973-1.28c-.519-1.934-6.097-2.983-7.232-3.213-8.433-1.77-16.995-1.705-25.556-1.508-4.152.098-8.303.262-12.454.689-2.011.23-4.054.36-6.033.787-1.232.262-2.464.59-3.73.655C9.05 8.422 5.19 9.177 2.11 11.013c-.487.295-.81.754-.843 1.246-.13.393-.195.852-.227 1.246-.227 2.099-1.07 4-1.038 6.132 0 .984.324 2 1.07 2.59-.486 3.247-1.005 6.755-.519 9.969.552 3.738 4.67 4.558 7.687 5.41 8.918 2.46 17.772 3.542 27.015 3.378 9.081-.164 18.227-.689 27.016-3.28 2.821-.819 6.55-1.606 7.459-4.852.519-1.804.162-4.034 0-5.87z" fill="#fff"/><path d="M68.724 21.276c.097.623.162 1.28.259 1.902a.366.366 0 00-.26.099c-.875.885-2.14 1.311-3.243 1.869-1.264.656-2.53 1.279-3.859 1.836-2.595 1.115-5.319 1.705-8.075 2.328-5.935 1.378-12.195 2.132-18.292 2.394-6.065.262-12.227-.033-18.226-.918-2.887-.426-5.773-1.05-8.627-1.705-1.362-.328-2.66-.82-3.925-1.378-1.297-.557-2.789-1.147-3.34-2.492.065-.95.097-1.901.162-2.852.13.065.227.13.357.163 1.07.394 2.594-.688 3.276-1.41 1.75-1.967 1.491 1.706 2.789 1.902 1.362.197 2.756-1.311 3.697-2.131.843-.721 1.719-1.443 2.821-1.77 1.33-.394 2.368.819 3.081 1.704 1.038 1.28 1.946 2.624 3.081 3.837 2.498 2.656 5.838 2.46 8.725.492.908-.623 3.956-4.165 5.059-3.115.649.623 1.102 1.377 2.108.95 1.362-.59 3.405-3.115 4.67-1.246 1.038 1.575 1.719 3.345 3.049 4.722 2.205 2.329 5.902 3.903 8.497 1.148.94-1.016 1.654-2.295 1.978-3.672.357-1.41.778-3.083 2.919-2.361.616.196 1.265.59 1.913.491 1.492-.196 2.011-1.213 3.017-2.197 1.459-1.442 2.01 1.804 2.789 2.558.778.754 1.913.36 2.692-.098.389-.263.68-.623.908-1.05z" fill="#FFD200"/><path d="M.844 17.899c.13-1.279.487-2.525.649-3.804.032-.328.032-.688.032-1.05 0 .034.033.034.033.066.551.853 1.946 1.083 2.854 1.247 4.605.885 9.21 1.475 13.88 1.836 2.044.164 4.12.262 6.162.36-4.313-.327-8.626-.72-12.875-1.508-1.816-.328-3.665-.688-5.48-1.213a17.473 17.473 0 01-2.985-.82c-2.108-.82.94-2.033 1.752-2.328 1.492-.525 3.048-.918 4.605-1.312 2.919-.688 5.902-1.18 8.886-1.64 2.465-.36 4.93-.72 7.427-1.016a64.726 64.726 0 012.53-.065c4.767-.131 9.535-.263 14.334-.263 6.94 0 14.368.46 21.016 2.624.94.295 1.946.655 2.724 1.311.909.755-.389 1.476-1.621 1.935-1.395.787-2.919 1.344-4.443 1.869-.681.23-1.395.46-2.076.689.487-.099.973-.197 1.427-.296 2.368-.491 6.097-.918 7.654-3.05a.72.72 0 01.097-.163c.811 1.443 1.103 3.443 1.103 4.951 0 1.017-.065 2.066-.162 3.083-.195 1.672-1.752 3.738-3.34 1.902-.65-.755-.552-2-1.622-2.361-.94-.328-1.914 1.18-2.368 1.738-1.135 1.442-2.465.918-3.924.426-.39-.131-.973-.328-1.395-.164-1.297.525-1.589 1.967-2.043 3.18-.843 2.296-3.243 4.132-5.675 3.575-2.173-.492-3.827-2.46-5.027-4.23-.584-.853-1.33-2.951-2.497-3.148-1.33-.23-2.335.721-3.308 1.508-.908.755-1.752 1.05-2.595.066-.227-.262-.454-.492-.778-.656-1.006-.459-2.627 1.377-3.244 1.902-1.816 1.476-4.053 2.689-6.42 2.033-1.817-.492-3.114-2.033-4.217-3.476-1.719-2.197-4.281-5.082-7.2-2.918-1.038.787-4.735 5.443-5.74 2.853-.422-1.082-.487-2.296-1.881-1.607-.649.328-1.233.918-1.881 1.311C.779 22.916.682 19.31.844 17.9zM69.34 32c-.292 2.426-2.076 3.18-4.151 3.868-1.817.59-3.633 1.05-5.481 1.542-7.979 2.098-16.605 2.262-24.81 2.393-8.336.164-16.346-.82-24.454-2.885-3.21-.82-8.108-1.345-9.049-5.181-.097-.46-.162-.918-.194-1.377.68.721 1.913 1.311 2.497 1.606 2.724 1.443 6.032 1.968 9.048 2.59 6.746 1.378 13.524 1.903 20.4 2.1 6.876.196 13.654-.164 20.432-1.115a61.873 61.873 0 009.762-2.197c1.394-.427 2.789-.886 4.119-1.542.584-.295 1.394-.557 1.978-.983 0 .393-.032.787-.097 1.18z" fill="#FFD200"/><path d="M69.502 30.196c-.032 0-.032 0 0 0-.551.623-1.913.95-2.627 1.311-1.46.722-3.049 1.148-4.573 1.574-2.854.853-5.773 1.41-8.692 1.87-6.162.917-12.324 1.213-18.518 1.147-5.935-.066-11.805-.393-17.675-1.279a114.163 114.163 0 01-8.854-1.738 30.283 30.283 0 01-4.151-1.246c-.584-.23-2.433-.95-3.211-1.869-.033-.82 0-1.607-.033-2.394a17.339 17.339 0 010-1.836c.584 1.476 2.725 2.164 4.12 2.787 2.788 1.246 5.967 1.673 8.918 2.263 6.68 1.311 13.524 1.705 20.335 1.508 6.518-.197 13.2-1.05 19.556-2.492 2.822-.656 5.513-1.344 8.173-2.492 1.46-.623 2.821-1.377 4.216-2.066.908-.459 1.783-.852 2.497-1.574.357 2.164.584 4.361.519 6.526z" fill="#FFD200"/><path d="M61.037 9.21c-.065-.296-.292-.525-.551-.69.519-1.573.876-3.246.778-4.885C61.2 2.29 60.843.389 59.318.06c-1.394-.328-3.34.754-4.572 1.311-1.784.82-3.276 2.132-4.736 3.443-.875-.459-1.913-.23-2.335.689-.097.197-.13.426-.13.689-1.232 1.803-.55 4.262 1.07 5.705 1.558 1.312 4.639 1.87 6.585.853 1.297.197 2.562.23 3.859-.23.454-.164 2.335-.852 1.784-1.705-.065-.066-.098-.131-.195-.197.39-.393.519-.852.39-1.41z" fill="#fff"/><path d="M57.924 1.11c1.946-.492 2.173 1.377 2.497 2.82.324 1.508.227 3.017-.13 4.492-.583-.262-1.33-.36-1.751-.393-1.524-.197-3.081-.328-4.605-.525a14.022 14.022 0 00-.811-.098c.032-.066.032-.131 0-.23-.649-.983-1.913-1.77-2.951-2.328 1.135-.688 2.205-1.443 3.373-2.098 1.33-.755 2.886-1.28 4.378-1.64z" fill="#FFD200"/><path d="M60.13 10.947c-.13.46-1.104.82-1.428.918-1.686.46-3.6.427-5.319.099-.583-.131-1.589-.328-2.27-.754.616.59 1.362.918 2.206 1.114a7.805 7.805 0 01-3.373-.59c-2.043-.852-3.438-3.377-2.433-5.377.033.557.26 1.147.487 1.606.162.295.486.984.875 1.28-.065-.132-.162-.296-.194-.394-.227-.492-.487-1.05-.551-1.607-.13-.525-.163-1.115 0-1.574.486-1.279 2.918.787 4.086 1.607-1.07-.197-2.238-.558-2.335-1.312 0-.033-.065-.033-.065 0 0 1.279 2.075 1.574 2.951 1.902 1.233.459 2.562.59 3.827.82.876.13 3.892.196 3.308 1.574a3.165 3.165 0 00-.778-.099c.292.066.584.197.746.328.13.131.194.263.194.36.033 0 .098-.032.13-.032.065.033 0 .066-.065.131z" fill="#FFD200"/><path d="M55.07 3.11c-.227-.033-.39.099-.584.197-.194.098-.454.164-.551.393a.235.235 0 00.097.328c.13.066.26-.032.324-.164.065-.098.13-.196.227-.295.13-.164.26-.328.454-.393.033-.033.065-.066.033-.066zm-1.816 1.574c-.162.033-.292.131-.422.197s-.422.262-.292.426c.065.099.195.033.227-.033.033-.032.033-.065.033-.13a.576.576 0 01.13-.165c.097-.098.194-.196.324-.262.032 0 .032-.033 0-.033zm2.173.426c-.13.197-.292.361-.454.492-.163.132-.357.197-.39.427-.032.164.13.262.26.164.162-.132.26-.296.357-.46.13-.196.259-.36.324-.59.065-.098-.032-.13-.097-.033zM54 6.816c.032-.066-.065-.066-.065-.033-.065.098-.13.197-.195.262 0 0 0 .033-.032.033-.065.098.065.197.162.131.065-.033.097-.098.065-.164a.61.61 0 01.065-.23zm4.216-2.853c-.195.36-.584.688-.681 1.115-.033.13.097.164.162.098.194-.131.227-.328.324-.525.097-.196.195-.426.26-.655.032-.066-.033-.066-.065-.033zm-1.297 2.754c-.098.131-.13.295-.195.427-.065.196.195.23.227.032.032-.164.032-.328.097-.459 0-.065-.097-.065-.13 0zm2.399-.721a1.172 1.172 0 01-.13.295c-.032.098-.13.197-.097.295.033.066.13.098.195.033.097-.066.097-.23.13-.328 0-.098.032-.23.032-.328-.032-.033-.13-.033-.13.033zm-.227-3.836c-.032-.132-.097-.23-.097-.361 0-.099-.13-.066-.13 0-.032.164-.064.36.098.491.064.066.162-.032.13-.13zm-1.946 7.804c-1.167-.132-2.302-.164-3.47-.328-.908-.132-2.237-.164-2.854-.951 0 0-.032 0-.032.032.454.722 1.362.886 2.108 1.115 1.362.394 2.724.46 4.151.394.162-.033.26-.262.097-.262zM39.794 9.21c-.064-.296-.291-.525-.55-.69.518-1.573.875-3.246.778-4.885C39.957 2.29 39.6.389 38.076.06c-1.395-.328-3.34.754-4.573 1.311-1.784.82-3.276 2.132-4.735 3.443-.876-.459-1.914-.23-2.335.689-.098.197-.13.426-.13.689-1.232 1.803-.551 4.262 1.07 5.705 1.557 1.312 4.638 1.87 6.584.853 1.297.197 2.562.23 3.86-.23.453-.164 2.334-.852 1.783-1.705-.065-.066-.097-.131-.195-.197.39-.393.52-.852.39-1.41z" fill="#fff"/><path d="M36.714 1.11c1.945-.492 2.172 1.377 2.497 2.82.324 1.508.227 3.017-.13 4.492-.584-.262-1.33-.36-1.751-.393-1.524-.197-3.081-.328-4.606-.525a14.022 14.022 0 00-.81-.098c.032-.066.032-.131 0-.23-.649-.983-1.914-1.77-2.952-2.328 1.136-.688 2.206-1.443 3.373-2.098 1.297-.755 2.854-1.28 4.379-1.64z" fill="#FFD200"/><path d="M38.886 10.947c-.13.46-1.102.82-1.427.918-1.686.46-3.6.427-5.318.099-.584-.131-1.59-.328-2.27-.754.616.59 1.362.918 2.205 1.114a7.805 7.805 0 01-3.373-.59c-2.043-.852-3.438-3.377-2.433-5.377.033.557.26 1.147.487 1.606.162.295.486.984.876 1.28-.065-.132-.162-.296-.195-.394-.227-.492-.486-1.05-.551-1.607-.13-.525-.162-1.115 0-1.574.486-1.279 2.919.787 4.086 1.607-1.07-.197-2.238-.558-2.335-1.312 0-.033-.065-.033-.065 0 0 1.279 2.076 1.574 2.951 1.902 1.233.459 2.563.59 3.827.82.876.13 3.892.196 3.308 1.574a3.164 3.164 0 00-.778-.099c.292.066.584.197.746.328.13.131.195.263.195.36.032 0 .097-.032.13-.032.064.033.032.066-.066.131z" fill="#FFD200"/><path d="M33.827 3.11c-.227-.033-.39.099-.584.197-.194.098-.454.164-.551.393-.065.099-.032.263.097.328.13.066.26-.032.325-.164.065-.098.13-.196.227-.295.13-.164.26-.328.454-.393.065-.033.065-.066.032-.066zM32.01 4.684c-.161.033-.29.131-.42.197s-.422.262-.293.426c.065.099.195.033.227-.033.033-.032.033-.065.033-.13a.556.556 0 01.13-.165c.097-.098.194-.196.324-.262.032 0 .065-.033 0-.033zm2.206.426c-.13.197-.292.361-.454.492-.162.132-.356.197-.389.427-.032.164.13.262.26.164.162-.132.259-.296.356-.46.13-.196.26-.36.325-.59.032-.098-.065-.13-.098-.033zm-1.459 1.706c.032-.066-.065-.066-.065-.033-.065.098-.13.197-.195.262 0 0 0 .033-.032.033-.065.098.065.197.162.131.065-.033.097-.098.065-.164a.61.61 0 01.065-.23zm4.216-2.853c-.195.36-.584.688-.681 1.115-.032.13.097.164.162.098.195-.131.227-.328.324-.525a3.87 3.87 0 00.26-.655c.065-.066-.033-.066-.065-.033zm-1.297 2.754c-.098.131-.13.295-.195.427-.065.196.195.23.227.032.033-.164.033-.328.098-.459.032-.065-.098-.065-.13 0zm2.4-.721c-.033.098-.065.197-.13.295-.032.098-.13.197-.097.295.032.066.13.098.194.033.098-.066.098-.23.13-.328 0-.098.032-.23.032-.328-.032-.033-.097-.033-.13.033zm-.195-3.836c-.032-.132-.097-.23-.097-.361 0-.099-.13-.066-.13 0-.032.164-.065.36.065.491.065.066.162-.032.162-.13zm-1.978 7.804c-1.168-.132-2.303-.164-3.47-.328-.909-.132-2.238-.164-2.854-.951 0 0-.033 0-.033.032.454.722 1.362.886 2.108 1.115 1.362.394 2.725.46 4.152.394.162-.033.259-.262.097-.262zM18.844 9.21c-.065-.296-.292-.525-.552-.69.52-1.573.876-3.246.779-4.885C19.006 2.29 18.649.389 17.125.06c-1.395-.328-3.34.754-4.573 1.311-1.784.82-3.276 2.132-4.735 3.443-.876-.459-1.914-.23-2.335.689-.097.197-.13.426-.13.689-1.232 1.803-.551 4.262 1.07 5.705 1.557 1.312 4.638 1.87 6.584.853 1.297.197 2.562.23 3.86-.23.453-.164 2.334-.852 1.783-1.705-.065-.066-.097-.131-.195-.197.39-.393.52-.852.39-1.41z" fill="#fff"/><path d="M15.73 1.11c1.946-.492 2.173 1.377 2.497 2.82.325 1.508.227 3.017-.13 4.492-.583-.262-1.329-.36-1.75-.393-1.525-.197-3.082-.328-4.606-.525a14.038 14.038 0 00-.81-.098c.032-.066.032-.131 0-.23-.65-.983-1.914-1.77-2.952-2.328 1.135-.688 2.205-1.443 3.373-2.098 1.33-.755 2.886-1.28 4.378-1.64z" fill="#FFD200"/><path d="M17.936 10.947c-.13.46-1.103.82-1.427.918-1.687.46-3.6.427-5.32.099-.583-.131-1.588-.328-2.27-.754.617.59 1.363.918 2.206 1.114a7.805 7.805 0 01-3.373-.59C5.71 10.882 4.314 8.357 5.32 6.357c.032.557.26 1.147.486 1.606.162.295.487.984.876 1.28-.065-.132-.162-.296-.195-.394-.227-.492-.486-1.05-.551-1.607-.13-.525-.162-1.115 0-1.574.486-1.279 2.919.787 4.086 1.607-1.07-.197-2.237-.558-2.335-1.312 0-.033-.065-.033-.065 0 0 1.279 2.076 1.574 2.952 1.902 1.232.459 2.562.59 3.827.82.875.13 3.891.196 3.308 1.574a3.165 3.165 0 00-.779-.099c.292.066.584.197.746.328.13.131.195.263.195.36.032 0 .097-.032.13-.032.064.033 0 .066-.065.131z" fill="#FFD200"/><path d="M12.844 3.11c-.227-.033-.39.099-.584.197-.194.098-.454.164-.551.393a.235.235 0 00.097.328c.13.066.26-.032.324-.164.065-.098.13-.196.227-.295.13-.164.26-.328.454-.393.065-.033.065-.066.033-.066zM11.06 4.684c-.162.033-.292.131-.421.197-.13.066-.422.262-.292.426.065.099.194.033.227-.033.032-.032.032-.065.032-.13a.574.574 0 01.13-.165c.097-.098.194-.196.324-.262.032 0 .032-.033 0-.033zm2.173.426c-.13.197-.292.361-.454.492-.162.132-.357.197-.39.427-.032.164.13.262.26.164.162-.132.26-.296.357-.46.13-.196.26-.36.324-.59.065-.098-.065-.13-.097-.033zm-1.459 1.706c.032-.066-.065-.066-.065-.033a1.81 1.81 0 01-.195.262s0 .033-.032.033c-.065.098.065.197.162.131.065-.033.097-.098.065-.164.032-.065.032-.164.065-.23zm4.248-2.853c-.194.36-.584.688-.68 1.115-.033.13.096.164.161.098.195-.131.227-.328.325-.525.097-.196.194-.426.259-.655.032-.066-.065-.066-.065-.033zm-1.297 2.754c-.097.131-.13.295-.195.427-.065.196.195.23.227.032.033-.164.033-.328.098-.459 0-.065-.098-.065-.13 0zm2.4-.721a1.169 1.169 0 01-.13.295c-.032.098-.13.197-.097.295.032.066.13.098.194.033.098-.066.098-.23.13-.328 0-.098.032-.23.032-.328-.032-.033-.13-.033-.13.033zm-.227-3.836c-.033-.132-.098-.23-.098-.361 0-.099-.13-.066-.13 0-.032.164-.064.36.066.491.064.066.194-.032.162-.13zm-1.946 7.804c-1.168-.132-2.303-.164-3.47-.328-.908-.132-2.238-.164-2.854-.951 0 0-.033 0-.033.032.454.722 1.362.886 2.108 1.115 1.363.394 2.725.46 4.152.394.162-.033.227-.262.097-.262zm24.842 6.558c3.244-.164 6.39-.689 9.568-1.213.843-.132 1.719-.263 2.562-.427-.81.099-1.59.197-2.4.263-7.427.688-14.919.82-22.378.59 4.184.721 8.465.983 12.648.787z" fill="#fff"/><path d="M69.729 26.982l-.3.024.001.003.299-.027zm-.778-6.197l-.282-.103-.026.07.01.075.298-.042zm.389-1.902l-.3-.025v.008l.3.017zm0-3.41h-.3v.021l.003.022.297-.044zm0-.033h.3v-.019l-.002-.018-.298.037zm-.746-3.771l-.272.126.001.004.27-.13zm-.973-1.28l-.29.079.025.09.072.061.193-.23zm-7.232-3.213l-.062.294h.002l.06-.294zM34.833 5.668l-.007-.3.007.3zm-12.454.689l-.03-.299h-.004l.034.299zm-6.033.787l.063.293-.063-.293zm-3.73.655l-.015-.3-.018.002-.018.003.052.295zM2.11 11.013l-.154-.258-.002.001.156.257zm-.843 1.246l.285.094.012-.036.002-.038-.3-.02zm-.227 1.246l.298.032v-.007l-.298-.025zM0 19.637h.3v-.005l-.3.005zm1.07 2.59l.297.045.026-.172-.137-.108-.186.235zm-.519 9.969l.297-.044v-.001l-.297.045zm7.687 5.41l-.082.29h.002l.08-.29zm27.015 3.378l.005.3-.005-.3zm27.016-3.28l-.084-.287h-.001l.085.288zm7.459-4.852l-.288-.083-.001.002.289.08zm-1.005-11.575l.296-.047-.139-.888-.422.793.265.141zm.259 1.901v.3h.35l-.054-.346-.296.046zm-.26.099l.214.21-.213-.21zm-3.243 1.869l-.135-.268-.003.002.138.266zm-3.859 1.836l-.116-.277-.002.002.118.275zm-8.075 2.328l-.067-.292h-.001l.068.292zm-18.292 2.394l-.013-.3.013.3zm-18.226-.918l-.044.297.043-.297zM8.4 29.08l-.07.291.003.001.067-.292zm-3.925-1.378l.121-.274-.002-.001-.119.275zm-3.34-2.492l-.3-.02-.004.07.026.064.278-.114zm.162-2.852l.136-.268-.404-.204-.031.451.3.02zm.357.163l.103-.281-.014-.006-.016-.003-.073.29zm3.276-1.41l.218.207.006-.007-.224-.2zm2.789 1.902l-.045.297h.002l.043-.297zm3.697-2.131l-.195-.228-.002.002.197.226zm2.821-1.77l-.085-.288.085.287zm3.081 1.704l-.233.189.233-.189zm3.081 3.837l-.219.205.22-.205zm8.725.492l.169.248-.17-.248zm5.059-3.115l.208-.217h-.001l-.207.217zm2.108.95l.117.277.002-.001-.12-.275zm4.67-1.246l.25-.165-.002-.003-.248.168zm3.049 4.722l.217-.206-.002-.002-.215.208zm8.497 1.148l.218.206.002-.002-.22-.204zm1.978-3.672l-.29-.074-.002.005.292.069zm2.919-2.361l-.096.284.005.001.09-.285zm1.913.491l-.039-.297h-.006l.045.297zm3.017-2.197l.21.215v-.001l-.21-.214zm5.48 2.46l.153.258.008-.004.007-.005-.168-.25zM.846 17.899l.297.034v-.004l-.298-.03zm.648-3.804l.297.038.001-.008-.298-.03zm.065-.984h-.3v.089l.048.074.252-.162zm2.854 1.247l.056-.295h-.003l-.053.295zm13.88 1.836l.024-.3-.024.3zm6.162.36l-.014.3.037-.599-.023.3zM11.58 15.047l.055-.295h-.002l-.053.295zM6.1 13.834l.082-.288-.013-.004-.014-.003-.056.295zm-2.985-.82l-.108.28.108-.28zm1.752-2.328l-.1-.283-.003.001.103.282zM9.47 9.373l-.069-.292-.005.001.074.291zm8.886-1.64l-.043-.296h-.002l.045.297zm7.427-1.016l-.012-.3h-.011l-.012.002.035.298zm2.53-.065v.3h.008l-.008-.3zm35.35 2.36l-.093.286h.003l.09-.285zm2.724 1.312l-.193.23.002.001.191-.23zm-1.621 1.935l-.105-.281-.022.008-.02.012.147.26zm-4.443 1.869l.096.284h.001l-.097-.284zm-2.076.689l-.096-.285.156.579-.06-.294zm1.427-.296l-.06-.293h-.003l.063.293zm7.654-3.05l.242.178.016-.02.01-.024-.268-.133zm.097-.163l.262-.147-.195-.347-.28.283.213.211zm.94 8.034l.299.035v-.007l-.298-.028zm-3.34 1.902l-.227.195v.001l.227-.196zm-1.621-2.361l-.099.283.003.001.096-.284zm-2.368 1.738l-.232-.19-.004.004.236.186zm-3.924.426l.096-.284-.096.284zm-1.395-.164l-.108-.28-.004.002.112.278zm-2.043 3.18l-.28-.104-.001.001.281.104zM48 27.639l.067-.293h-.001l-.066.293zm-5.027-4.23l.248-.168v-.002l-.248.17zm-2.497-3.148l-.051.296.05-.296zm-3.308 1.508l-.19-.233-.002.003.192.23zm-2.595.066l.228-.195-.001-.001-.227.196zm-.778-.656l.135-.268-.01-.005-.125.273zM30.55 23.08l.19.233.005-.005-.194-.228zm-6.42 2.033l.08-.29h-.002l-.079.29zm-4.217-3.476l.238-.182-.002-.003-.236.185zm-7.2-2.918l-.179-.241-.002.002.181.239zm-5.74 2.853l.28-.109-.28.109zm-1.881-1.607l-.133-.27-.003.002.136.268zm-1.881 1.311l-.156-.256-.006.004-.006.004.168.248zM69.34 32l-.297-.049-.001.013.298.036zm-4.151 3.87l.092.285h.002l-.094-.286zm-5.481 1.54l.076.29-.076-.29zm-24.81 2.394l-.005-.3h-.002l.006.3zm-24.454-2.885l-.074.29.074-.29zm-9.049-5.181l-.293.062.002.01.291-.072zm-.194-1.377l.218-.206-.577-.611.06.838.299-.021zm2.497 1.606l.14-.265-.005-.002-.135.267zm9.048 2.59l-.06.295.06-.294zm40.832.985l-.041-.298.041.298zm9.762-2.197l-.088-.287.088.287zm4.119-1.542l.132.27.003-.002-.135-.268zm1.978-.983h.3v-.59l-.477.347.177.243zm.065-.623l.225.198.072-.08.003-.11-.3-.008zm-2.627 1.311l.133.27.002-.002-.135-.268zm-4.573 1.574l-.08-.289-.006.002.086.287zm-8.692 1.87l.045.296h.002l-.047-.297zm-18.518 1.147l-.003.3.003-.3zM17.417 34.82l-.046.297h.001l.045-.297zm-8.854-1.738l.069-.292H8.63l-.067.292zm-4.151-1.246l-.11.28h.002l.108-.28zM1.2 29.966l-.3.012.004.103.067.08.229-.195zm-.033-2.394l.3-.012v-.003l-.3.015zm0-1.836l.28-.11-.58.094.3.016zm13.038 5.05l-.059.294h.001l.058-.294zm20.335 1.508l.008.3-.008-.3zm19.556-2.492l.066.293h.002l-.068-.293zm8.173-2.492l-.118-.276h-.001l.119.276zm4.216-2.066l.133.27.002-.002-.135-.268zm2.497-1.574l.296-.049-.096-.58-.413.418.213.211zM61.037 9.21l-.293.064.001.003.292-.068zm-.551-.69l-.285-.093-.073.222.198.125.16-.253zm.778-4.885l-.3.014v.004l.3-.018zM59.318.06l-.068.292.005.001.063-.293zm-4.572 1.311l-.124-.273h-.002l.126.273zM50.01 4.815l-.139.266.185.097.155-.14-.2-.223zm-2.335.689l.27.133.003-.008-.273-.125zm-.13.689l.248.169.053-.077v-.092h-.3zm1.07 5.705l-.199.224.007.006.193-.23zm6.585.853l.045-.297-.097-.014-.087.045.139.266zm3.859-.23l.1.283h.002l-.102-.283zm1.784-1.705l.252-.163-.017-.026-.022-.022-.213.211zm-.195-.197l-.213-.21-.255.257.3.202.168-.249zM57.924 1.11l.07.292.003-.001-.073-.291zm2.497 2.82l.293-.063v-.003l-.293.066zm-.13 4.492l-.123.274.33.148.085-.351-.292-.07zM58.54 8.03l-.038.297.007.001.008.001.023-.3zm-4.605-.525l-.05.296.011.002.039-.298zm-.811-.098l-.269-.133-.192.388.43.043.031-.298zm0-.23l.285-.094-.013-.038-.022-.033-.25.165zm-2.951-2.328l-.156-.256-.449.272.463.248.142-.264zm3.373-2.098l.147.261-.147-.261zm6.583 8.197l-.213-.21-.054.054-.022.075.29.081zm-1.427.918l.079.29.008-.002-.087-.288zm-5.319.099l-.065.293.01.002.055-.295zm-2.27-.754l.16-.255-.367.471.207-.216zm2.206 1.114l.016.3.052-.592-.069.293zm-3.373-.59l-.116.277h.002l.114-.277zm-2.433-5.377l.3-.018-.065-1.117-.503 1 .268.135zM48 7.963l-.27.133.007.012.263-.145zm.875 1.28l-.18.238.45-.372-.27.133zm-.194-.394l.285-.094-.006-.017-.007-.015-.272.126zm-.551-1.607l.297-.035-.002-.019-.004-.018-.291.072zm0-1.574l-.281-.107-.002.007.282.1zm4.086 1.607l-.054.295.226-.54-.172.245zM49.88 5.963h-.3v.02l.002.018.298-.038zm2.886 1.902l-.105.28v.001l.105-.281zm3.827.82l-.053.295.009.001.044-.296zm3.308 1.574l-.073.29.249.064.1-.237-.276-.117zm-.778-.099v-.3l-.066.593.066-.293zm.746.328l.213-.21-.012-.013-.013-.01-.188.233zm.194.36h-.3v.3h.3v-.3zm.13-.032l.135-.268-.063-.032h-.072v.3zM55.07 3.11l-.043.297.021.003h.022v-.3zm-1.135.59l.25.166.015-.023.011-.025-.276-.118zm.097.328l.135-.267-.135.267zm.324-.164l-.25-.165-.01.016-.009.016.27.133zm.227-.295l.214.211.011-.012.01-.013-.235-.186zm.454-.393l.096.284.068-.023.05-.05-.214-.211zm-1.783 1.508v-.3h-.03l-.03.006.06.294zm-.714.623l.25-.165-.007-.01-.008-.01-.235.185zm.227-.033l-.213-.21-.034.034-.022.043.27.133zm.033-.13l-.27-.134-.03.063v.07h.3zm.13-.165l-.214-.21.213.21zm.324-.262v-.3h-.072l-.064.032.136.268zm1.33 1.312l.294.058.001-.008.001-.008-.297-.042zm.259.164l.181.239.008-.006-.19-.233zm.357-.46l-.25-.165-.005.006-.003.006.258.154zm.324-.59l-.25-.165-.026.039-.013.045.289.081zm-1.59 1.64l.251.165.05-.075v-.09h-.3zm-.194.262l-.213-.21-.087.087v.123h.3zm-.032.033v-.3h-.162l-.089.135.25.165zm.162.131l-.136-.268-.016.009-.016.01.168.25zm.065-.164h-.3v.07l.03.063.27-.133zm4.28-3.082l-.213-.211-.03.03-.02.038.264.143zm-.68 1.115l.29.072.002-.006-.292-.066zm.162.098l-.168-.249-.025.017-.02.021.213.211zm.584-1.18l-.27-.133-.012.024-.007.027.289.082zm-1.362 2.721l.24.179.016-.022.012-.024-.268-.133zm-.195.427l-.27-.133-.008.019-.007.02.285.094zm.227.032l-.295-.058-.001.01.296.048zm.097-.459l.27.133.03-.063v-.07h-.3zm2.27-.721l.285.094.015-.046v-.048h-.3zm-.13.295l-.25-.165-.022.033-.012.038.285.094zm-.097.295l-.285.094.007.02.01.02.268-.134zm.195.033l-.168-.249-.024.017-.021.02.213.212zm.13-.328l.285.094.015-.046v-.048h-.3zm.032-.328h.3V5.84l-.087-.088-.213.211zm-.357-3.804l-.29.072.002.011.004.011.284-.094zm-.227-.36l.295.058.005-.029v-.03h-.3zm.098.491l.213-.21-.012-.012-.013-.01-.188.232zm-1.817 7.674l-.033.298.017.002h.017v-.3zm-3.47-.328l-.043.297h.002l.041-.297zm-2.854-.951l.236-.185-.09-.115h-.146v.3zm-.032.032h-.3v.087l.046.073.254-.16zm2.108 1.115l-.088.287.005.002.083-.289zm4.151.394l.014.3.023-.002.023-.004-.06-.294zM39.794 9.209l-.292.065v.003l.292-.068zm-.55-.688l-.286-.094-.073.222.198.125.16-.253zm.778-4.886l-.3.014v.004l.3-.018zM38.076.06l-.069.292.006.001.063-.293zm-4.573 1.311l-.124-.273h-.002l.126.273zm-4.735 3.443l-.14.266.185.097.155-.14-.2-.223zm-2.335.689l.269.133.003-.008-.272-.125zm-.13.689l.248.169.052-.077v-.092h-.3zm1.07 5.705l-.2.224.007.006.193-.23zm6.584.853l.045-.297-.097-.014-.087.045.139.266zm3.86-.23l.1.283h.001l-.102-.283zm1.783-1.705l.252-.163-.017-.026-.022-.022-.213.211zm-.195-.197l-.213-.21-.255.257.3.202.168-.249zM36.714 1.11l.069.292.004-.001-.073-.291zm2.497 2.82l.293-.063v-.003l-.293.066zm-.13 4.492l-.123.274.33.148.085-.351-.292-.07zM37.33 8.03l-.039.297.008.001.008.001.023-.3zm-4.606-.525l-.05.296.012.002.038-.298zm-.81-.098l-.27-.133-.191.388.43.043.03-.298zm0-.23l.285-.094-.013-.038-.022-.033-.25.165zm-2.952-2.328l-.155-.256-.45.272.463.248.142-.264zm3.373-2.098l.147.261.004-.002-.15-.26zm6.551 8.197l-.167-.248-.091.061-.03.106.288.081zm-1.427.918l.08.29.008-.002-.087-.288zm-5.318.099l-.066.293.01.002.056-.295zm-2.27-.754l.159-.255-.367.471.207-.216zm2.205 1.114l.017.3.051-.592-.068.293zm-3.373-.59l-.116.277h.002l.114-.277zM26.27 6.357l.3-.018-.065-1.117-.502 1 .267.135zm.487 1.606l-.27.133.007.012.263-.145zm.876 1.28l-.182.238.45-.372-.268.133zm-.195-.394l.285-.094-.005-.017-.008-.015-.272.126zm-.551-1.607l.298-.035-.002-.019-.005-.018-.291.072zm0-1.574l-.28-.107-.003.007.283.1zm4.086 1.607l-.054.295.226-.54-.172.245zm-2.335-1.312h-.3v.02L28.34 6l.298-.038zm2.886 1.902l-.105.28v.001l.105-.281zm3.827.82l-.053.295.009.001.044-.296zm3.308 1.574l-.073.29.25.064.1-.237-.277-.117zm-.778-.099v-.3l-.066.593.066-.293zm.746.328l.213-.21-.011-.013-.013-.01-.189.233zm.195.36h-.3v.3h.3v-.3zm.13-.032l.135-.268-.064-.032h-.072v.3zM33.826 3.11l-.043.297.022.003h.021v-.3zm-1.135.59l.25.166.016-.023.01-.025-.276-.118zm.097.328l.136-.267-.136.267zm.325-.164l-.25-.165-.011.016-.008.016.269.133zm.227-.295l.213.211.012-.012.01-.013-.235-.186zm.454-.393l.096.284.02-.007.019-.01-.135-.267zM32.01 4.684v-.3h-.03l-.03.006.06.294zm-.714.623l.25-.165-.006-.01-.008-.01-.236.185zm.227-.033l-.213-.21-.034.034-.021.043.268.133zm.033-.13l-.269-.134-.031.063v.07h.3zm.13-.165l-.214-.21.214.21zm.324-.262v-.3h-.072l-.063.032.135.268zm2.205.393l.25.166.023-.034.012-.038-.285-.094zm-.843.919l.294.058.002-.008.001-.008-.297-.042zm.26.164l.18.239.008-.006-.188-.233zm.356-.46l-.25-.165-.004.006-.004.006.258.154zm.325-.59l-.286-.094-.003.013.289.081zm-1.622 1.64l.25.165.05-.075v-.09h-.3zm-.195.262l-.213-.21-.087.087v.123h.3zm-.032.033v-.3h-.162l-.088.135.25.165zm.162.131l-.135-.268-.017.009-.016.01.168.25zm.065-.164h-.3v.07l.031.063.269-.133zm4.281-3.082l-.213-.211-.03.03-.021.038.264.143zm-.681 1.115l.291.072.001-.006-.292-.066zm.162.098l-.168-.249-.024.017-.021.021.213.211zm.584-1.18l-.213-.211-.055.055-.02.074.288.082zm-1.362 2.721l.24.179.017-.022.012-.024-.27-.133zm-.195.427l-.269-.133-.01.019-.006.02.285.094zm.227.032l-.294-.058-.002.01.296.048zm.098-.459l.268.133-.268-.133zm2.27-.721l-.27-.133-.009.019-.006.02.285.094zm-.13.295l-.25-.165-.023.033-.012.038.285.094zm-.097.295l-.285.094.006.02.01.02.269-.134zm.194.033l-.167-.249-.025.017-.021.02.213.212zm.13-.328l.285.094.015-.046v-.048h-.3zm.032-.328h.3V5.84l-.086-.088-.214.211zm-.324-3.804h.3v-.036l-.009-.036-.29.072zm-.227-.36l.294.058.006-.029v-.03h-.3zm-1.751 8.165l-.034.298.017.002h.017v-.3zm-3.47-.328l-.043.297.043-.297zm-2.854-.951l.236-.185-.09-.115h-.146v.3zm-.033.032h-.3v.087l.046.073.254-.16zm2.108 1.115l-.088.287.005.002.083-.289zm4.152.394l.013.3.023-.002.023-.004-.06-.294zM18.844 9.209l-.293.065v.003l.293-.068zm-.552-.688l-.285-.094-.073.222.198.125.16-.253zm.779-4.886l-.3.014v.004l.3-.018zM17.125.06l-.069.292.006.001.063-.293zm-4.573 1.311l-.124-.273h-.001l.125.273zM7.817 4.815l-.14.266.185.097.155-.14-.2-.223zm-2.335.689l.269.133.003-.008-.272-.125zm-.13.689l.248.169.052-.077v-.092h-.3zm1.07 5.705l-.2.224.007.006.193-.23zm6.584.853l.045-.297-.097-.014-.087.045.139.266zm3.86-.23l.1.283h.001l-.102-.283zm1.783-1.705l.252-.163-.017-.026-.022-.022-.213.211zm-.195-.197l-.213-.21-.254.257.3.202.168-.249zM15.73 1.11l.07.292.004-.001-.074-.291zm2.497 2.82l.294-.063v-.003l-.294.066zm-.13 4.492l-.122.274.33.148.084-.351-.291-.07zm-1.75-.393l-.039.297.008.001.007.001.023-.3zm-4.606-.525l-.05.296.012.002.038-.298zm-.81-.098l-.27-.133-.191.388.43.043.03-.298zm0-.23l.284-.094-.012-.038-.022-.033-.25.165zM7.978 4.848l-.156-.256-.448.272.462.248.142-.264zm3.373-2.098l.147.261h.001l-.148-.261zm6.584 8.197l-.214-.21-.054.054-.021.075.289.081zm-1.427.918l.078.29.009-.002-.087-.288zm-5.32.099l-.065.293.01.002.056-.295zm-2.27-.754l.16-.255-.367.471.208-.216zm2.206 1.114l.017.3.051-.592-.068.293zm-3.373-.59l-.115.277h.001l.114-.277zM5.32 6.357l.3-.018-.066-1.117-.502 1 .268.135zm.486 1.606l-.269.133.006.012.263-.145zm.876 1.28L6.5 9.48l.45-.372-.27.133zm-.195-.394l.285-.094-.005-.017-.007-.015-.273.126zm-.551-1.607l.298-.035-.002-.019-.005-.018-.291.072zm0-1.574l-.28-.107-.003.007.283.1zm4.086 1.607l-.054.295.227-.54-.173.245zM7.687 5.963h-.3v.02L7.39 6l.297-.038zm2.887 1.902l-.106.28v.001l.106-.281zm3.827.82l-.054.295.01.001.044-.296zm3.308 1.574l-.074.29.25.064.1-.237-.276-.117zm-.779-.099v-.3l-.066.593.066-.293zm.746.328l.214-.21-.012-.013-.013-.01-.189.233zm.195.36h-.3v.3h.3v-.3zm.13-.032l.135-.268-.064-.032H18v.3zM12.843 3.11l-.043.297.021.003h.022v-.3zm-1.135.59l.25.166.015-.023.01-.025-.275-.118zm.097.328l.135-.267-.135.267zm.324-.164l-.25-.165-.01.016-.009.016.27.133zm.227-.295l.214.211.011-.012.01-.013-.235-.186zm.454-.393l.096.284.02-.007.02-.01-.136-.267zm-1.75 1.508v-.3h-.03L11 4.39l.06.294zm-.714.623l.25-.165-.007-.01-.008-.01-.235.185zm.227-.033l-.214-.21-.034.034-.021.043.269.133zm.032-.13l-.269-.134-.03.063v.07h.3zm.454-.427v-.3h-.071l-.064.032.135.268zm2.173.393l.25.166.022-.034.013-.038-.285-.094zm-.843.919l.294.058.002-.008V6.07l-.296-.042zm.26.164l.18.239.008-.006-.189-.233zm.356-.46l-.25-.165-.004.006-.004.006.258.154zm.324-.59l-.25-.165-.026.039-.012.045.288.081zm-1.621 1.64l.25.165.05-.075v-.09h-.3zm-.195.262l-.213-.21-.087.087v.123h.3zm-.032.033v-.3h-.162l-.089.135.25.165zm.162.131l-.136-.268-.016.009-.016.01.168.25zm.065-.164l-.27-.133-.065.133.066.133.269-.133zm4.313-3.082l.264.142.036-.066v-.076h-.3zm-.68 1.115l.29.072.002-.006-.293-.066zm.161.098l-.167-.249-.025.017-.021.021.213.211zm.584-1.18l-.269-.133-.012.024-.008.027.289.082zm-1.362 2.721l.24.179.017-.022.012-.024-.27-.133zm-.195.427l-.269-.133-.009.019-.007.02.285.094zm.227.032l-.294-.058-.002.01.296.048zm.098-.459l.268.133.032-.063v-.07h-.3zm2.27-.721l.285.094.015-.046v-.048h-.3zm-.13.295l-.25-.165-.022.033-.013.038.285.094zm-.097.295l-.285.094.006.02.01.02.269-.134zm.194.033l-.167-.249-.025.017-.02.02.212.212zm.13-.328l.285.094.015-.046v-.048h-.3zm.032-.328h.3V5.84l-.086-.088-.213.211zm-.356-3.804l-.291.072.002.011.004.011.285-.094zm-.227-.36l.294.058.006-.029v-.03h-.3zm.065.491l.213-.21-.213.21zm-1.784 7.674l-.034.298.017.002h.017v-.3zm-3.47-.328l-.043.297h.001l.042-.297zm-2.854-.951l.236-.185-.09-.115h-.146v.3zm-.033.032h-.3v.087l.046.073.254-.16zm2.108 1.115l-.088.287.005.002.083-.289zm4.152.394l.013.3.023-.002.023-.004-.06-.294zm24.94 6.296l.014.3-.014-.3zm9.567-1.213l-.046-.297h-.003l.049.296zm2.562-.427l.057.295-.093-.593.036.298zm-2.4.263l-.024-.3h-.004l.028.3zm-22.378.59l.01-.3-.06.595.05-.295zm42.882 11.224c-.163-2.078-.49-4.157-.78-6.216l-.595.084c.293 2.072.616 4.125.777 6.179l.598-.047zm-.796-6.072c.238-.652.373-1.37.407-1.988l-.599-.033a6.554 6.554 0 01-.371 1.816l.564.205zm.407-1.98c.097-1.18.165-2.326-.002-3.478l-.594.087c.157 1.078.095 2.162-.002 3.342l.598.05zm-.3-3.435h.3v-.032h-.6v.033h.3zm.299-.07c-.157-1.264-.162-2.592-.774-3.863l-.54.26c.555 1.155.55 2.32.718 3.678l.596-.074zm-.772-3.86a3.89 3.89 0 00-1.052-1.382l-.386.46c.358.3.654.66.894 1.175l.544-.253zm-.955-1.23c-.161-.6-.694-1.08-1.323-1.464-.642-.391-1.447-.72-2.257-.989-1.622-.54-3.319-.863-3.883-.977l-.119.588c.571.116 2.231.432 3.812.958.791.264 1.549.575 2.134.932.599.365.958.74 1.056 1.108l.58-.156zm-7.46-3.43c-8.47-1.778-17.065-1.71-25.625-1.514l.013.6c8.564-.197 17.094-.26 25.488 1.502l.123-.587zM34.824 5.369c-4.153.098-8.314.263-12.477.69l.061.597c4.14-.425 8.282-.589 12.43-.687l-.014-.6zm-12.48.69c-1.991.228-4.064.362-6.062.792l.127.587c1.959-.422 3.972-.55 6.003-.782l-.068-.597zm-6.061.792c-1.253.267-2.449.586-3.683.65l.031.599c1.296-.067 2.565-.404 3.777-.662l-.125-.587zm-3.719.654c-3.561.622-7.474 1.382-10.61 3.251l.308.516C5.288 9.468 9.094 8.72 12.667 8.096l-.103-.591zM1.953 10.756c-.548.333-.946.87-.987 1.483l.6.04c.024-.371.274-.752.699-1.01l-.312-.513zm-.972 1.409c-.14.426-.208.912-.241 1.315l.598.05c.031-.384.094-.816.213-1.177l-.57-.188zm-.24 1.308c-.111 1.025-.372 2-.61 3.017-.237 1.008-.447 2.047-.43 3.152l.6-.01c-.016-1.026.18-2.004.414-3.005.232-.992.506-2.017.622-3.09l-.597-.064zM-.3 19.637c0 1.036.34 2.158 1.184 2.826l.372-.47C.608 21.479.3 20.568.3 19.637h-.6zm1.073 2.546C.29 25.42-.239 28.975.256 32.24l.593-.09c-.479-3.16.031-6.623.519-9.88l-.594-.088zM.255 32.24c.295 1.995 1.548 3.202 3.076 4.008 1.512.798 3.34 1.227 4.826 1.647l.163-.577c-1.53-.433-3.27-.84-4.709-1.6-1.424-.752-2.505-1.823-2.762-3.566l-.594.088zm7.904 5.656c8.947 2.467 17.83 3.552 27.1 3.388l-.01-.6c-9.215.163-18.04-.915-26.93-3.367l-.16.579zm27.1 3.388c9.086-.164 18.266-.689 27.096-3.291l-.17-.576c-8.748 2.578-17.86 3.103-26.936 3.267l.01.6zm27.094-3.291c1.392-.404 3.068-.816 4.499-1.537 1.441-.727 2.68-1.79 3.166-3.524l-.578-.161c-.423 1.512-1.502 2.466-2.858 3.15-1.367.688-2.966 1.08-4.396 1.496l.167.576zm7.664-5.058c.273-.948.312-1.994.267-3.019-.045-1.02-.177-2.059-.256-2.96l-.598.053c.083.934.21 1.93.255 2.933.044 1 .002 1.97-.244 2.827l.576.166zm-1.59-11.612c.048.306.088.622.129.942.04.32.081.643.13.96l.593-.093c-.047-.306-.087-.622-.128-.942-.04-.32-.082-.643-.131-.96l-.593.093zm.556 1.555a.665.665 0 00-.473.188l.427.422.008-.003a.114.114 0 01.038-.007v-.6zm-.473.188c-.405.41-.907.72-1.459 1-.276.141-.56.272-.847.405-.286.131-.577.265-.859.407l.27.535c.27-.136.551-.265.84-.397.286-.132.58-.268.868-.414.575-.293 1.143-.638 1.614-1.114l-.427-.422zm-3.168 1.814c-1.261.654-2.518 1.273-3.837 1.825l.232.554c1.34-.562 2.613-1.19 3.881-1.847l-.276-.532zm-3.84 1.826c-2.564 1.102-5.259 1.687-8.023 2.312l.133.585c2.75-.622 5.503-1.217 8.127-2.345l-.236-.552zm-8.024 2.312c-5.914 1.372-12.155 2.125-18.237 2.386l.026.6c6.112-.263 12.39-1.02 18.346-2.401l-.135-.585zM35.24 31.404c-6.046.262-12.19-.032-18.17-.915l-.087.594c6.02.888 12.2 1.184 18.283.92l-.026-.599zm-18.17-.915c-2.874-.424-5.75-1.045-8.603-1.7l-.134.584c2.855.656 5.751 1.281 8.65 1.71l.087-.594zm-8.6-1.7c-1.338-.322-2.618-.807-3.874-1.36l-.242.549c1.274.561 2.59 1.06 3.975 1.394l.14-.583zm-3.876-1.361c-.658-.283-1.328-.56-1.907-.928-.574-.367-1.03-.808-1.274-1.402l-.556.227c.308.75.873 1.276 1.507 1.68.63.402 1.353.7 1.993.974l.237-.551zm-3.16-2.196c.033-.479.057-.957.082-1.432.024-.476.048-.948.08-1.421L1 22.339c-.033.478-.057.956-.082 1.43-.024.477-.048.95-.08 1.422l.598.04zm-.272-2.606c.09.046.246.144.418.187l.147-.581c-.086-.022-.125-.056-.294-.141l-.271.535zm.388.178c.658.242 1.405.02 2.026-.302a6.252 6.252 0 001.572-1.184l-.437-.411c-.32.339-.845.768-1.412 1.062-.58.301-1.129.424-1.542.272l-.207.563zm3.604-1.492c.207-.234.368-.363.487-.426.113-.061.17-.054.197-.046.035.01.09.043.163.14.072.095.144.228.22.396.077.168.148.35.23.546.08.192.167.394.267.579.193.355.482.738.956.81l.09-.593c-.175-.027-.34-.176-.519-.504a5.625 5.625 0 01-.24-.522c-.076-.183-.156-.384-.237-.564a2.699 2.699 0 00-.29-.512.935.935 0 00-.472-.352c-.216-.063-.436-.021-.649.093-.207.111-.422.298-.652.556l.449.399zm2.522 2c.801.115 1.573-.273 2.224-.738.652-.466 1.265-1.074 1.713-1.465l-.394-.452c-.492.429-1.047.985-1.668 1.429-.622.445-1.229.713-1.79.632l-.085.593zm3.935-2.201c.847-.725 1.678-1.404 2.712-1.711l-.171-.575c-1.172.348-2.092 1.112-2.931 1.83l.39.456zm2.711-1.711c.547-.162 1.044-.002 1.513.33.477.338.891.831 1.25 1.276l.467-.377c-.355-.44-.816-.997-1.37-1.389-.56-.397-1.247-.647-2.03-.415l.17.575zm2.764 1.606c1.013 1.25 1.952 2.632 3.094 3.853l.438-.41c-1.128-1.206-2.005-2.512-3.067-3.82l-.465.377zm3.095 3.853c1.3 1.384 2.835 2.036 4.427 2.075 1.585.038 3.203-.53 4.684-1.54l-.337-.496c-1.405.957-2.901 1.47-4.332 1.436-1.424-.035-2.809-.613-4.005-1.886l-.437.411zm9.112.534c.251-.172.633-.532 1.054-.925.432-.405.926-.866 1.424-1.275.502-.412.987-.753 1.402-.93.427-.182.664-.147.803-.015l.414-.435c-.413-.392-.97-.308-1.453-.102-.496.212-1.036.598-1.547 1.018-.516.424-1.023.898-1.453 1.3-.44.413-.78.73-.983.87l.34.494zm4.682-3.146c.16.153.294.302.456.466.153.155.32.312.506.436.19.127.407.223.66.25.254.027.522-.019.811-.141l-.234-.553a1.03 1.03 0 01-.514.097.86.86 0 01-.39-.152 2.713 2.713 0 01-.412-.359c-.137-.14-.303-.319-.467-.477l-.416.433zm2.435 1.01c.376-.163.786-.452 1.183-.739.409-.295.815-.595 1.216-.82.405-.227.761-.353 1.067-.34.281.013.565.144.837.546l.497-.337c-.36-.532-.807-.786-1.308-.808-.475-.02-.952.172-1.386.416-.438.246-.877.57-1.274.857-.409.294-.765.542-1.07.674l.238.55zm4.3-1.356c.513.777.93 1.59 1.406 2.419.47.818.987 1.63 1.678 2.346l.431-.417c-.638-.662-1.126-1.423-1.589-2.228-.457-.795-.899-1.654-1.425-2.45l-.5.33zm3.082 4.763c1.132 1.195 2.658 2.21 4.255 2.566 1.613.36 3.299.045 4.678-1.42l-.437-.41c-1.215 1.29-2.675 1.565-4.11 1.245-1.452-.324-2.877-1.26-3.95-2.394l-.436.413zm8.935 1.145c.973-1.052 1.713-2.377 2.05-3.808l-.584-.137c-.312 1.323-.999 2.556-1.907 3.537l.441.408zm2.049-3.803c.184-.726.365-1.42.73-1.862.174-.209.383-.353.654-.413.277-.062.647-.044 1.148.125l.192-.569c-.57-.192-1.055-.235-1.47-.142a1.75 1.75 0 00-.985.616c-.47.567-.678 1.413-.85 2.098l.58.147zm2.537-2.149c.142.046.29.104.447.167.155.062.322.13.49.188.336.116.716.208 1.112.148l-.09-.593c-.252.038-.52-.017-.826-.122-.151-.053-.303-.114-.463-.178a7.319 7.319 0 00-.488-.181l-.182.571zm2.044.504c.82-.108 1.376-.446 1.853-.879.233-.212.448-.448.66-.684.216-.239.43-.48.673-.717l-.42-.429c-.259.254-.486.51-.698.744-.214.238-.41.453-.619.642-.407.37-.855.64-1.528.728l.079.595zm3.187-2.281c.162-.16.29-.233.384-.262a.32.32 0 01.231.01c.17.071.357.283.565.643.2.35.378.76.569 1.161.179.377.38.774.62 1.008l.418-.431c-.148-.144-.307-.436-.496-.834-.178-.375-.375-.827-.591-1.203-.21-.366-.483-.742-.852-.897a.92.92 0 00-.64-.03c-.217.066-.426.207-.63.408l.422.427zm2.37 2.56c.471.456 1.05.557 1.593.488.535-.07 1.053-.304 1.46-.544l-.305-.517c-.371.22-.81.411-1.232.465-.413.053-.792-.026-1.099-.323l-.417.43zm3.068-.066c.44-.295.761-.698 1.005-1.157l-.53-.282c-.209.394-.47.713-.81.942l.335.497zM1.143 17.93c.063-.623.182-1.241.308-1.873.124-.628.257-1.27.34-1.923l-.596-.075c-.08.626-.207 1.246-.333 1.88-.125.631-.25 1.275-.316 1.93l.597.061zm.648-3.804c.034-.346.034-.722.034-1.08h-.6c0 .365 0 .71-.03 1.02l.596.06zm-.566-1.08a.34.34 0 00.084.225l.02.02-.008-.008a.252.252 0 01-.054-.101.26.26 0 01-.01-.07h.6a.341.341 0 00-.084-.223l-.018-.02.006.007a.252.252 0 01.055.102.26.26 0 01.01.069h-.6zm.08.23c.33.51.894.81 1.447 1.001.558.194 1.159.296 1.606.377l.107-.59c-.46-.084-1.011-.178-1.516-.354-.509-.176-.918-.418-1.14-.76l-.503.325zm3.05 1.377c4.617.888 9.234 1.48 13.914 1.841l.047-.598c-4.66-.36-9.255-.949-13.848-1.832l-.113.59zm13.913 1.84c2.05.165 4.13.264 6.172.362l.029-.6c-2.045-.098-4.115-.196-6.153-.36l-.048.599zm6.21-.237c-4.313-.327-8.613-.72-12.844-1.504l-.11.59c4.266.79 8.593 1.185 12.908 1.513l.045-.599zm-12.846-1.504c-1.814-.328-3.65-.686-5.45-1.206l-.167.576c1.832.53 3.693.892 5.51 1.22l.107-.59zm-5.478-1.213c-1.025-.194-2.013-.452-2.932-.805l-.215.56c.961.369 1.985.636 3.035.835l.112-.59zm-2.93-.805c-.246-.095-.388-.186-.465-.26-.071-.068-.075-.109-.074-.125 0-.028.013-.083.08-.17.067-.087.17-.183.309-.284.56-.414 1.487-.779 1.894-.927l-.205-.564c-.403.147-1.407.536-2.046 1.008-.162.12-.313.253-.426.4a.89.89 0 00-.206.531.767.767 0 00.258.564c.157.15.38.277.663.387l.217-.56zm1.741-1.765c1.477-.52 3.02-.91 4.58-1.304l-.148-.582c-1.554.393-3.124.79-4.63 1.32l.198.566zM9.54 9.665c2.906-.685 5.88-1.176 8.863-1.635l-.091-.593c-2.985.46-5.979.953-8.91 1.644l.138.584zm8.86-1.634c2.466-.361 4.927-.721 7.42-1.016l-.071-.596c-2.502.296-4.971.657-7.435 1.018l.087.594zm7.396-1.014a64.846 64.846 0 012.518-.065v-.6c-.85 0-1.7.033-2.542.065l.024.6zm2.526-.065c4.768-.132 9.531-.263 14.326-.263v-.6c-4.804 0-9.576.132-14.343.263l.017.6zm14.326-.263c6.932 0 14.32.46 20.923 2.609l.186-.57c-6.694-2.18-14.16-2.639-21.108-2.639v.6zM63.575 9.3c.94.295 1.893.641 2.621 1.255l.387-.46c-.829-.697-1.887-1.072-2.828-1.368l-.18.573zm2.623 1.256c.183.153.199.254.195.303-.005.068-.054.177-.213.322-.32.29-.903.57-1.517.798l.21.562c.618-.23 1.3-.542 1.71-.916.205-.186.387-.428.409-.722.022-.312-.14-.584-.41-.808l-.384.461zm-1.578 1.443c-1.368.772-2.87 1.322-4.393 1.846l.195.568c1.525-.525 3.073-1.09 4.493-1.892l-.294-.522zm-4.391 1.846c-.34.114-.687.229-1.036.343-.348.115-.698.23-1.04.345l.192.569c.34-.115.687-.229 1.036-.344.348-.114.698-.23 1.04-.345l-.192-.568zm-1.92 1.267c.486-.099.974-.197 1.43-.296l-.126-.587c-.452.098-.936.196-1.423.295l.119.588zm1.428-.296c1.161-.241 2.717-.477 4.158-.916 1.44-.44 2.84-1.104 3.677-2.25l-.484-.354c-.72.985-1.963 1.6-3.369 2.03-1.405.429-2.897.652-4.104.903l.122.587zm7.862-3.21a1.788 1.788 0 01.051-.097l-.01.01-.426-.421a.633.633 0 00-.096.133 1.47 1.47 0 00-.057.109l.538.266zm-.433-.15c.775 1.38 1.064 3.32 1.064 4.804h.6c0-1.533-.295-3.592-1.141-5.098l-.523.294zm1.064 4.804c0 1.005-.064 2.044-.16 3.054l.596.057c.098-1.023.164-2.082.164-3.11h-.6zm-.16 3.048c-.09.778-.5 1.633-1.038 2.068-.263.213-.536.311-.809.283-.274-.028-.604-.19-.969-.61l-.454.392c.43.497.89.766 1.362.815.471.048.897-.13 1.247-.413.687-.557 1.153-1.571 1.257-2.465l-.596-.07zm-2.815 1.741a2.155 2.155 0 01-.329-.56 9.022 9.022 0 01-.135-.336c-.044-.114-.09-.235-.14-.353-.2-.475-.49-.978-1.15-1.2l-.191.568c.41.138.608.438.788.865.046.108.088.219.134.336.044.116.091.238.144.358.104.241.233.492.424.713l.455-.39zm-1.75-2.449c-.327-.113-.645-.061-.925.065-.276.124-.529.326-.75.54-.433.422-.82.976-1.024 1.227l.465.38c.25-.307.576-.786.978-1.176a2.14 2.14 0 01.577-.424c.181-.082.337-.095.481-.045l.198-.567zM60.8 20.435c-.51.648-1.036.835-1.599.824-.599-.01-1.244-.244-1.993-.496l-.192.568c.71.24 1.46.515 2.174.528.751.014 1.457-.258 2.082-1.053l-.472-.37zm-3.592.328a5.25 5.25 0 00-.727-.204c-.268-.049-.585-.067-.872.044l.217.56c.134-.053.32-.055.547-.014.223.041.446.116.643.182l.192-.568zm-1.603-.158c-.74.3-1.182.86-1.493 1.475-.301.596-.505 1.306-.719 1.879l.562.21c.24-.641.41-1.26.692-1.819.274-.54.626-.964 1.183-1.189l-.225-.556zm-2.212 3.355c-.81 2.203-3.088 3.899-5.327 3.386l-.134.584c2.625.602 5.147-1.375 6.024-3.763l-.563-.207zm-5.328 3.385c-2.048-.463-3.645-2.335-4.845-4.105l-.496.336c1.2 1.771 2.91 3.834 5.209 4.354l.132-.585zm-4.846-4.107a9.11 9.11 0 01-.455-.795c-.169-.318-.358-.675-.567-1.013a4.926 4.926 0 00-.712-.93c-.268-.261-.586-.473-.96-.536l-.1.592c.21.035.422.16.64.373.219.214.425.498.622.817.197.318.376.657.548.979.168.315.332.623.49.852l.494-.339zm-2.693-3.274c-.755-.13-1.41.079-1.988.408-.566.323-1.088.781-1.56 1.163l.377.467c.501-.406.969-.817 1.48-1.108.501-.286 1.014-.438 1.589-.338l.102-.592zm-3.551 1.574c-.444.368-.824.581-1.161.616-.307.033-.639-.077-1.014-.515l-.456.39c.468.546.98.78 1.532.722.522-.055 1.018-.366 1.482-.752l-.383-.461zm-2.176.1c-.234-.271-.492-.537-.87-.728l-.27.536c.27.137.467.33.686.584l.454-.392zm-.88-.733c-.355-.161-.736-.108-1.077.023-.342.13-.685.353-.999.594-.316.243-.616.516-.873.756-.263.248-.467.449-.614.574l.389.456c.161-.137.391-.362.636-.592.252-.237.536-.494.828-.718.294-.226.584-.41.847-.51.265-.101.464-.105.613-.037l.25-.546zm-3.558 1.942c-1.801 1.464-3.934 2.591-6.152 1.977l-.16.578c2.517.697 4.86-.602 6.69-2.09l-.378-.465zm-6.153 1.976c-1.706-.462-2.948-1.918-4.057-3.368l-.476.364c1.097 1.436 2.45 3.062 4.376 3.584l.157-.58zm-4.059-3.37c-.858-1.097-1.958-2.41-3.233-3.168-.642-.382-1.342-.632-2.088-.632-.75 0-1.519.25-2.294.825l.358.482c.684-.508 1.33-.708 1.935-.707.61 0 1.205.204 1.783.547 1.166.694 2.206 1.921 3.067 3.022l.472-.37zm-7.617-2.973c-.28.213-.73.675-1.224 1.168-.508.507-1.089 1.071-1.664 1.529-.586.466-1.123.786-1.546.857-.2.033-.355.007-.479-.066-.125-.076-.257-.223-.367-.505l-.559.217c.142.366.346.64.619.803.275.164.582.193.885.142.586-.098 1.227-.506 1.82-.979.605-.48 1.206-1.066 1.714-1.573.522-.52.925-.935 1.163-1.115l-.362-.478zm-5.28 2.983c-.102-.264-.178-.522-.271-.793-.088-.256-.19-.523-.337-.736-.154-.223-.37-.407-.681-.457-.297-.048-.63.034-1.004.219l.266.538c.322-.16.521-.184.642-.165.106.018.193.076.283.206.096.139.176.335.263.59.082.239.172.538.28.816l.56-.218zm-2.296-1.766c-.352.178-.68.424-.988.662-.315.242-.607.475-.913.661l.311.513c.343-.208.667-.467.968-.7.31-.238.597-.45.893-.6l-.27-.536zm-1.913 1.33c-.575.388-.931.41-1.147.33-.223-.083-.416-.32-.56-.726-.284-.808-.274-2.008-.195-2.698l-.596-.068c-.083.72-.105 2.029.226 2.966.165.467.442.913.916 1.089.482.179 1.05.038 1.691-.395l-.335-.497zm65.998 10.936c-.136 1.133-.613 1.856-1.293 2.386-.697.542-1.615.89-2.655 1.235l.189.57c1.036-.344 2.047-.718 2.834-1.332.804-.626 1.365-1.493 1.52-2.787l-.595-.072zm-3.946 3.62c-1.807.587-3.612 1.044-5.466 1.537l.155.58c1.843-.491 3.67-.953 5.496-1.546l-.185-.57zM59.63 37.12c-7.937 2.087-16.527 2.252-24.738 2.383l.01.6c8.198-.13 16.862-.294 24.88-2.403l-.152-.58zm-24.74 2.383c-8.306.164-16.29-.816-24.373-2.876l-.148.581c8.132 2.073 16.17 3.06 24.533 2.895l-.011-.6zm-24.373-2.876c-1.642-.42-3.618-.743-5.336-1.446-1.703-.697-3.058-1.732-3.495-3.516l-.583.143c.503 2.053 2.067 3.199 3.85 3.928 1.77.724 3.847 1.072 5.416 1.472l.148-.58zm-8.83-4.952a9.752 9.752 0 01-.188-1.337l-.598.043c.033.473.1.946.2 1.418l.587-.124zm-.705-1.11c.37.392.877.737 1.35 1.016.477.281.942.508 1.23.653l.27-.535c-.296-.15-.739-.366-1.195-.635-.458-.27-.908-.58-1.219-.91l-.436.412zm2.575 1.666c2.772 1.469 6.136 2.002 9.128 2.62l.121-.588c-3.04-.628-6.292-1.144-8.968-2.562l-.281.53zm9.129 2.62c6.769 1.382 13.566 1.907 20.45 2.104l.018-.6c-6.867-.196-13.626-.72-20.348-2.092l-.12.588zm20.45 2.104a121.74 121.74 0 0020.483-1.117l-.084-.595a121.157 121.157 0 01-20.381 1.113l-.017.6zm20.482-1.117a62.166 62.166 0 009.81-2.208l-.178-.573a61.58 61.58 0 01-9.714 2.186l.082.595zm9.809-2.208c1.396-.427 2.81-.891 4.163-1.559l-.265-.538c-1.306.645-2.681 1.098-4.074 1.524l.176.573zm4.166-1.56c.284-.143.611-.273.976-.436.353-.158.726-.34 1.044-.573l-.354-.485c-.265.194-.59.356-.934.51-.332.148-.703.297-1.003.449l.271.535zm1.543-1.251c0 .377-.031.754-.093 1.131l.592.098c.067-.41.101-.82.101-1.23h-.6zm.365-.923h-.023v.6h.024v-.6h-.024v.6h.024v-.6zm-.225.1c-.224.254-.64.47-1.142.676-.245.101-.492.193-.734.286a7.513 7.513 0 00-.661.282l.27.535c.164-.083.37-.166.607-.257.231-.09.493-.187.746-.29.496-.205 1.037-.464 1.364-.834l-.45-.397zm-2.535 1.242c-1.43.707-2.989 1.126-4.52 1.554l.16.578c1.517-.424 3.136-.857 4.626-1.594l-.266-.538zm-4.526 1.556c-2.835.847-5.739 1.402-8.652 1.86l.093.593c2.925-.46 5.858-1.02 8.731-1.878l-.172-.575zm-8.65 1.86c-6.142.915-12.288 1.21-18.47 1.144l-.007.6c6.206.066 12.384-.23 18.566-1.151l-.089-.593zm-18.47 1.144c-5.927-.066-11.783-.393-17.635-1.276l-.089.594c5.888.888 11.773 1.216 17.717 1.282l.006-.6zm-17.634-1.275a113.853 113.853 0 01-8.83-1.734l-.138.584c2.925.69 5.885 1.282 8.877 1.743l.091-.593zM8.63 32.789a29.97 29.97 0 01-4.11-1.234l-.216.56c1.378.53 2.754.928 4.192 1.259l.134-.585zm-4.109-1.233c-.291-.115-.887-.348-1.505-.664-.627-.321-1.238-.709-1.586-1.12l-.458.388c.43.507 1.132.939 1.77 1.266.647.331 1.268.574 1.56.688l.22-.558zm-3.02-1.602a30.083 30.083 0 01-.016-1.197c0-.397 0-.796-.017-1.197l-.6.025c.017.386.017.773.017 1.172 0 .397 0 .804.016 1.22l.6-.023zm-.033-2.397a17.037 17.037 0 010-1.804l-.6-.033a17.636 17.636 0 000 1.868l.6-.031zm-.579-1.71c.332.837 1.09 1.421 1.89 1.865.796.442 1.714.785 2.386 1.085l.245-.548c-.723-.323-1.573-.636-2.34-1.062-.766-.425-1.37-.923-1.623-1.561l-.558.22zm4.276 2.95c2.83 1.264 6.059 1.698 8.982 2.283l.118-.588c-2.98-.596-6.106-1.015-8.855-2.243l-.245.548zm8.983 2.283c6.708 1.317 13.574 1.711 20.401 1.514l-.017-.6c-6.794.197-13.614-.196-20.268-1.503l-.116.59zm20.402 1.514a103.632 103.632 0 0019.613-2.5l-.132-.584c-6.338 1.438-13 2.288-19.5 2.484l.019.6zm19.615-2.5c2.824-.656 5.538-1.35 8.224-2.509l-.238-.55c-2.633 1.136-5.303 1.82-8.122 2.475l.136.584zm8.223-2.508c1.468-.627 2.853-1.393 4.23-2.073l-.265-.538c-1.412.697-2.751 1.44-4.201 2.06l.236.55zm4.233-2.074c.89-.45 1.82-.866 2.575-1.63l-.426-.423c-.671.679-1.492 1.049-2.42 1.517l.271.536zm2.066-1.793c.355 2.153.58 4.33.515 6.468l.6.018c.065-2.19-.164-4.408-.523-6.584l-.592.098zM61.33 9.145c-.09-.408-.394-.695-.684-.878l-.32.507c.228.145.378.317.418.5l.586-.129zm-.56-.53c.526-1.592.894-3.305.794-4.998l-.6.036c.095 1.586-.25 3.218-.763 4.774l.57.188zm.794-4.995c-.033-.685-.141-1.538-.449-2.27-.31-.736-.84-1.39-1.733-1.583l-.127.587c.632.136 1.04.596 1.307 1.229.268.637.37 1.408.403 2.066l.599-.029zM59.387-.23c-.788-.186-1.694.031-2.52.334-.827.304-1.649.726-2.245.996l.247.547c.636-.288 1.404-.686 2.206-.98.804-.295 1.568-.456 2.175-.313l.137-.584zM54.62 1.1c-1.83.842-3.354 2.185-4.81 3.493l.401.447c1.463-1.316 2.923-2.596 4.66-3.394l-.25-.545zm-4.47 3.45c-.995-.52-2.24-.277-2.747.83l.545.25c.335-.73 1.166-.945 1.923-.548l.279-.531zm-2.743.822c-.127.256-.161.538-.161.822h.6c0-.242.03-.418.098-.556l-.538-.266zm-.109.652c-1.343 1.966-.579 4.59 1.118 6.1l.4-.449c-1.547-1.375-2.144-3.67-1.023-5.312l-.495-.339zm1.125 6.105c.83.7 2.047 1.184 3.295 1.366 1.249.183 2.575.069 3.62-.477l-.277-.532c-.9.47-2.088.586-3.256.416-1.167-.17-2.27-.62-2.996-1.232l-.386.459zm6.732.92c1.32.2 2.64.239 4.004-.244l-.2-.566c-1.232.436-2.44.41-3.714.216l-.09.593zm4.006-.245c.225-.08.84-.304 1.33-.625.243-.158.49-.361.63-.611a.884.884 0 00.122-.44.872.872 0 00-.148-.474l-.504.326a.276.276 0 01.052.15c0 .038-.01.085-.044.142-.07.125-.22.264-.435.405-.425.277-.978.48-1.207.563l.204.564zm1.895-2.198c-.024-.024-.024-.028-.072-.084a.834.834 0 00-.168-.15l-.336.497c.02.014.034.026.05.046l.038.045c.016.02.037.043.061.068l.427-.422zm-.195.225a1.77 1.77 0 00.465-.774c.08-.29.078-.596.004-.915l-.585.136c.056.239.052.441.003.619a1.176 1.176 0 01-.313.512l.426.422zM57.997 1.4c.442-.11.75-.08.974.016.224.096.402.274.55.53.15.258.262.58.356.942.096.364.167.735.251 1.108l.586-.132c-.078-.348-.157-.752-.256-1.129-.1-.38-.228-.764-.418-1.091-.192-.33-.456-.618-.832-.78-.377-.16-.826-.18-1.358-.045l.147.582zm2.13 2.593c.314 1.455.221 2.917-.127 4.359l.583.14c.365-1.508.467-3.063.131-4.625l-.586.126zm.287 4.156c-.632-.285-1.42-.386-1.85-.42l-.047.599c.413.032 1.116.128 1.651.368l.246-.547zm-1.836-.418c-.766-.099-1.54-.18-2.309-.263-.77-.082-1.538-.163-2.296-.261l-.077.595c.766.099 1.54.181 2.31.263.77.082 1.537.164 2.296.261l.076-.595zm-4.593-.523a14.28 14.28 0 00-.83-.1l-.061.596c.325.033.608.065.79.096l.1-.592zm-.592.33a.577.577 0 00.016-.456l-.57.188a.263.263 0 01.009.031v.002a.075.075 0 01.007-.03l.538.266zm-.019-.527c-.694-1.053-2.023-1.87-3.06-2.427l-.283.528c1.04.559 2.24 1.316 2.843 2.23l.5-.33zm-3.046-1.906c1.165-.707 2.196-1.438 3.364-2.094l-.293-.523c-1.167.655-2.277 1.433-3.382 2.104l.311.513zm3.366-2.095c1.296-.735 2.824-1.251 4.3-1.608l-.14-.584c-1.508.365-3.094.898-4.456 1.67l.296.522zm6.146 7.856c-.01.034-.045.096-.14.178-.091.08-.214.159-.352.233a4.449 4.449 0 01-.733.301l.174.575c.175-.053.518-.175.84-.347.162-.085.327-.189.465-.31a1 1 0 00.324-.467l-.578-.163zm-1.217.71c-1.631.444-3.497.415-5.183.093l-.113.59c1.751.333 3.713.37 5.454-.104l-.158-.579zm-5.174.095c-.606-.136-1.55-.323-2.177-.716l-.318.509c.735.46 1.803.666 2.364.793l.131-.586zm-2.543-.245c.666.639 1.467.986 2.344 1.19l.137-.584c-.81-.188-1.5-.497-2.066-1.039l-.415.433zm2.396.599a7.506 7.506 0 01-3.242-.568l-.228.555a8.104 8.104 0 003.503.612l-.033-.599zm-3.24-.568c-.951-.396-1.758-1.186-2.206-2.112-.447-.924-.526-1.955-.075-2.854l-.536-.27c-.553 1.102-.438 2.334.071 3.386.509 1.05 1.421 1.948 2.514 2.404l.231-.554zm-2.848-5.083c.036.617.283 1.25.517 1.722l.538-.266c-.22-.446-.427-.993-.456-1.49l-.6.034zm.523 1.734c.072.131.205.398.36.65.153.253.355.54.597.723l.363-.478c-.148-.112-.302-.316-.448-.556-.146-.24-.256-.464-.346-.628l-.526.289zm1.407 1.001c-.034-.07-.08-.154-.112-.215a1.194 1.194 0 01-.066-.14l-.57.189c.025.076.07.162.104.23.041.077.076.14.106.202l.538-.266zm-.19-.386c-.233-.502-.468-1.015-.526-1.516l-.596.07c.07.613.354 1.216.576 1.697l.545-.251zM48.42 7.17c-.123-.496-.143-1.02-.009-1.402l-.565-.2c-.19.537-.145 1.193-.009 1.746l.583-.144zm-.011-1.395c.04-.106.09-.153.133-.177a.418.418 0 01.24-.035c.248.021.586.157.987.383.798.45 1.664 1.146 2.273 1.574l.345-.49c-.558-.393-1.492-1.139-2.323-1.607-.415-.233-.848-.425-1.23-.458a1.007 1.007 0 00-.584.11.905.905 0 00-.402.486l.56.214zm3.86 1.205c-.528-.097-1.056-.231-1.457-.423-.415-.198-.607-.414-.635-.632L49.583 6c.07.536.51.878.971 1.098.474.226 1.065.371 1.608.47l.108-.59zm-2.09-1.017a.321.321 0 00-.142-.267.34.34 0 00-.38 0 .321.321 0 00-.142.267h.6a.278.278 0 01-.122.23.26.26 0 01-.291 0 .278.278 0 01-.122-.23h.6zm-.664 0c0 .838.687 1.303 1.327 1.582.332.146.69.258 1.009.352.329.097.604.172.81.249l.21-.562c-.232-.087-.544-.172-.85-.262a8.09 8.09 0 01-.939-.326c-.617-.27-.967-.592-.967-1.033h-.6zm3.147 2.183c1.265.472 2.645.61 3.878.834l.107-.59c-1.298-.236-2.577-.36-3.776-.806l-.21.562zm3.887.835c.223.034.6.065.978.11a8.99 8.99 0 011.192.204c.385.1.672.226.829.374a.375.375 0 01.121.194c.013.062.01.15-.044.279l.552.234a1.05 1.05 0 00.079-.637.97.97 0 00-.297-.507c-.272-.256-.684-.413-1.09-.518a9.647 9.647 0 00-1.273-.22c-.415-.048-.744-.074-.958-.106l-.09.593zm3.426.987a3.466 3.466 0 00-.852-.108v.6c.234 0 .468.03.705.09l.147-.582zm-.918.485c.262.059.507.175.623.269l.377-.467c-.208-.168-.546-.315-.868-.387l-.132.585zm.598.246c.049.049.078.09.094.122.018.033.014.042.014.028h.6c0-.214-.128-.417-.281-.572l-.427.422zm.408.45a.381.381 0 00.11-.016.878.878 0 00.07-.022h-.002a.223.223 0 01-.048.005v-.6a.372.372 0 00-.11.016l-.05.016a.577.577 0 01-.015.005l-.005.002.003-.001.007-.002a.232.232 0 01.04-.003v.6zm-.005-.065a.256.256 0 01-.13-.175c-.032-.132.042-.221.046-.226.01-.013.018-.018 0-.002l-.06.055.428.422c.008-.009.017-.016.034-.032.01-.009.042-.037.069-.07a.333.333 0 00.067-.283.34.34 0 00-.184-.225l-.27.536zm-4.946-8.27a.837.837 0 00-.468.07c-.06.027-.116.058-.163.084-.05.028-.09.05-.131.071l.27.536c.056-.028.11-.06.152-.083.045-.025.08-.043.113-.058a.243.243 0 01.141-.027l.086-.594zm-.762.225c-.04.02-.082.038-.141.064-.054.024-.12.054-.184.09a.817.817 0 00-.368.39l.553.235c.012-.03.038-.061.11-.102.038-.021.08-.04.132-.064.048-.021.11-.048.168-.077l-.27-.536zm-.667.496a.535.535 0 00.213.761l.27-.535c.02.01.03.027.033.04.003.007.007.032-.015.065l-.5-.33zm.213.761c.17.086.342.059.472-.016a.667.667 0 00.256-.283l-.538-.266a.12.12 0 01-.016.026l-.003.003a.116.116 0 01.099 0l-.27.536zm.71-.266c.066-.1.116-.175.19-.25l-.427-.422c-.12.122-.2.244-.264.341l.5.33zm.212-.275c.142-.179.219-.263.314-.295l-.191-.568c-.294.098-.476.343-.594.491l.47.372zm.432-.368c.006-.006.049-.048.077-.091a.31.31 0 00.043-.262.307.307 0 00-.301-.224v.6a.294.294 0 01-.27-.388.264.264 0 01.028-.056c.012-.02.022-.028-.004-.001l.427.422zM53.194 4.39a1.11 1.11 0 00-.305.116c-.04.021-.078.043-.109.061a1.13 1.13 0 01-.083.046l.27.536c.04-.02.08-.043.113-.062.034-.02.063-.037.092-.052a.523.523 0 01.141-.057l-.119-.588zm-.497.223a1.22 1.22 0 00-.327.24.599.599 0 00-.147.252.438.438 0 00.082.388l.47-.372a.16.16 0 01.028.136c-.007.026-.016.027.005.005a.733.733 0 01.16-.114l-.271-.535zm-.407.86a.407.407 0 00.456.169.467.467 0 00.29-.235l-.538-.266a.16.16 0 01.045-.056.12.12 0 01.043-.022.194.194 0 01.204.079l-.5.33zm.69.012c.133-.134.12-.3.12-.342h-.6v.032l.001-.012a.195.195 0 01.053-.1l.426.422zm.089-.209a.11.11 0 01.015-.024.965.965 0 01.059-.062l-.427-.422c-.063.064-.129.128-.185.242l.538.266zm.074-.086a.999.999 0 01.246-.205l-.27-.536c-.18.091-.31.226-.403.32l.427.421zm.11-.173c.1 0 .325-.07.325-.316s-.225-.317-.324-.317v.6c-.067 0-.276-.054-.276-.283 0-.23.209-.284.276-.284v.6zm1.923-.072a1.896 1.896 0 01-.392.424l.377.467a2.5 2.5 0 00.516-.56l-.5-.33zm-.392.424c-.029.023-.06.045-.105.075-.04.027-.093.063-.143.105a.68.68 0 00-.25.438l.594.084c.003-.02.007-.033.043-.063.022-.02.05-.038.093-.068.04-.026.093-.062.145-.104l-.377-.467zm-.495.601a.466.466 0 00.205.494.465.465 0 00.53-.032l-.362-.478a.136.136 0 01.149 0c.06.038.073.101.067.133l-.589-.117zm.742.456c.21-.17.332-.38.427-.54l-.516-.306c-.1.17-.174.287-.288.38l.377.466zm.419-.527c.112-.171.281-.387.363-.674l-.578-.163c-.048.172-.139.283-.286.506l.501.33zm.324-.59a.4.4 0 00.07-.246.331.331 0 00-.224-.294.358.358 0 00-.283.027.448.448 0 00-.16.15l.5.33a.156.156 0 01-.057.049.243.243 0 01-.192.012.269.269 0 01-.182-.234c-.005-.076.025-.12.027-.125l.501.33zm-1.505 1.64a.339.339 0 000-.31.333.333 0 00-.23-.17.353.353 0 00-.205.019.32.32 0 00-.2.295h.6a.28.28 0 01-.17.259.247.247 0 01-.144.014.267.267 0 01-.183-.139.261.261 0 01-.006-.234l.538.266zm-.585-.331c-.07.107-.118.176-.157.216l.426.422c.09-.091.173-.218.232-.308l-.5-.33zm.056.427h-.3v-.019l.004-.024a.271.271 0 01.264-.224v.6a.333.333 0 00.332-.323v-.009h-.3zm-.283-.132a.393.393 0 00.085.528.42.42 0 00.496.017l-.336-.498a.18.18 0 01.211.01.207.207 0 01.045.274l-.5-.331zm.548.564a.442.442 0 00.21-.22.41.41 0 00-.011-.345l-.538.266a.19.19 0 01-.003-.156.159.159 0 01.072-.08l.27.535zm.23-.432c0 .007 0 .007 0 0a.458.458 0 01.033-.096l-.537-.266a.9.9 0 00-.096.362h.6zm3.717-3.225c-.084.155-.203.293-.354.497-.138.185-.292.416-.356.694l.585.133c.034-.148.123-.294.253-.47.116-.157.289-.363.4-.569l-.528-.285zm-.709 1.186a.425.425 0 00.018.268.38.38 0 00.195.2c.156.07.337.031.454-.087l-.426-.422a.193.193 0 01.218-.038c.047.021.09.06.112.114a.178.178 0 01.012.109l-.583-.144zm.621.419a.878.878 0 00.3-.354c.028-.056.051-.113.07-.16a2.36 2.36 0 01.056-.127l-.538-.266c-.03.06-.053.119-.073.166-.02.05-.036.087-.053.121a.282.282 0 01-.097.122l.335.498zm.426-.64a4.23 4.23 0 00.28-.708l-.578-.163a3.635 3.635 0 01-.24.604l.538.266zm.26-.656a.356.356 0 00.03-.239.32.32 0 00-.234-.239.35.35 0 00-.202.011.376.376 0 00-.142.09l.427.422a.223.223 0 01-.085.054.25.25 0 01-.145.005.28.28 0 01-.203-.207.246.246 0 01.016-.163l.538.266zm-1.872 2.41a1.169 1.169 0 00-.149.284c-.036.093-.05.138-.074.188l.538.266c.04-.083.075-.184.096-.239a.597.597 0 01.07-.142l-.481-.357zm-.24.51a.44.44 0 00.029.358.398.398 0 00.294.198.439.439 0 00.486-.38l-.592-.097a.14.14 0 01.054-.084.176.176 0 01.132-.034.202.202 0 01.147.101.166.166 0 01.02.126l-.57-.187zm.807.186c.017-.087.03-.202.039-.254a.467.467 0 01.033-.13l-.538-.267a1.035 1.035 0 00-.088.304c-.016.104-.02.153-.034.23l.588.117zm.103-.518a.346.346 0 00-.352-.349.388.388 0 00-.346.216l.537.266a.213.213 0 01-.191.118.254.254 0 01-.247-.25h.6zm1.685-.815a.892.892 0 01-.095.224l.501.33c.09-.136.133-.27.164-.366l-.57-.188zm-.13.295c.001-.001 0 .005-.012.026-.007.013-.03.053-.044.083a.488.488 0 00-.04.374l.57-.188a.162.162 0 01.005.08c-.002.013-.005.015.003 0a.787.787 0 01.013-.027l.022-.039a.775.775 0 00.054-.121l-.57-.188zm-.08.522a.426.426 0 00.288.225.415.415 0 00.388-.114l-.426-.422a.185.185 0 01.17-.049c.046.01.091.041.117.094l-.538.266zm.63.149a.544.544 0 00.212-.324c.011-.042.02-.085.025-.11a.502.502 0 01.01-.05l-.57-.187c-.014.044-.023.09-.029.118-.007.035-.01.056-.016.076-.005.019-.008.023-.006.02a.122.122 0 01.04-.04l.335.497zm.263-.577c0-.024.004-.059.013-.122.007-.051.02-.131.02-.206h-.6c0 .024-.005.059-.014.122-.007.051-.02.131-.02.206h.6zm-.055-.539a.374.374 0 00-.17-.097.41.41 0 00-.163-.01.37.37 0 00-.195.091.348.348 0 00-.115.26h.6a.252.252 0 01-.083.185.232.232 0 01-.121.058.19.19 0 01-.076-.004.227.227 0 01-.103-.061l.426-.422zm-.278-3.665c-.021-.084-.057-.172-.07-.208a.242.242 0 01-.019-.08h-.6c0 .116.03.212.054.28.028.079.04.106.052.152l.583-.144zm-.089-.288a.36.36 0 00-.133-.285.359.359 0 00-.27-.075.385.385 0 00-.205.093.355.355 0 00-.122.267h.6a.245.245 0 01-.08.183.216.216 0 01-.117.053.242.242 0 01-.18-.053.24.24 0 01-.093-.183h.6zm-.724-.059c-.026.134-.118.524.203.784l.377-.467-.006-.006V2.05c-.001-.001-.004-.007-.005-.021a.653.653 0 01.02-.172l-.589-.117zm.178.761a.364.364 0 00.528-.004.426.426 0 00.1-.432l-.57.188a.174.174 0 01.044-.178.22.22 0 01.138-.062.236.236 0 01.187.067l-.427.421zM57.18 9.665c-.59-.066-1.173-.107-1.745-.152a27.983 27.983 0 01-1.717-.174l-.083.594a28.58 28.58 0 001.753.178c.579.045 1.148.086 1.725.15l.067-.596zm-3.46-.326c-.485-.07-1.005-.106-1.511-.225-.501-.118-.906-.302-1.15-.614l-.473.37c.372.474.94.7 1.485.828.54.127 1.139.173 1.562.235l.086-.594zm-2.898-.654v-.3h-.005a.289.289 0 00-.05.004.34.34 0 00-.222.144.333.333 0 00-.055.184h.6a.266.266 0 01-.149.24.26.26 0 01-.116.028h-.002v-.3zm-.286.192c.272.433.674.686 1.081.859.396.167.846.276 1.193.383l.176-.573c-.399-.123-.776-.21-1.134-.363-.347-.147-.626-.336-.808-.625l-.508.32zm2.279 1.244c1.405.406 2.804.47 4.248.405l-.028-.6c-1.41.065-2.735 0-4.054-.382l-.166.577zm4.294.399a.545.545 0 00.39-.327.4.4 0 00-.009-.329.376.376 0 00-.343-.2v.6a.194.194 0 01-.087-.023.24.24 0 01-.105-.106.202.202 0 01-.014-.163.061.061 0 01.015-.025.07.07 0 01.034-.015l.119.588zm-17.02-1.375c-.09-.408-.394-.695-.684-.878l-.321.507c.229.145.378.317.419.5l.585-.129zm-.56-.53c.525-1.592.894-3.305.793-4.998l-.599.036c.094 1.586-.25 3.218-.764 4.774l.57.188zm.793-4.995c-.033-.685-.14-1.538-.449-2.27-.31-.736-.84-1.39-1.733-1.583l-.126.587c.631.136 1.04.596 1.306 1.229.268.637.371 1.408.403 2.066l.6-.029zM38.144-.23c-.788-.186-1.694.031-2.519.334-.828.304-1.65.726-2.246.996l.247.547c.637-.288 1.404-.686 2.206-.98C36.637.371 37.4.21 38.007.353l.137-.584zM33.377 1.1c-1.83.842-3.354 2.185-4.81 3.493l.401.447c1.463-1.316 2.924-2.596 4.66-3.394l-.25-.545zm-4.47 3.45c-.994-.52-2.239-.277-2.747.83l.545.25c.335-.73 1.167-.945 1.924-.548l.278-.531zm-2.743.822c-.127.256-.161.538-.161.822h.6c0-.242.03-.418.099-.556l-.538-.266zm-.109.652c-1.343 1.966-.578 4.59 1.119 6.1l.399-.449c-1.546-1.375-2.144-3.67-1.022-5.312l-.496-.339zm1.125 6.105c.83.7 2.047 1.184 3.296 1.366 1.248.183 2.574.069 3.62-.477l-.278-.532c-.9.47-2.088.586-3.256.416-1.167-.17-2.27-.62-2.995-1.232l-.387.459zm6.732.92c1.32.2 2.641.239 4.004-.244l-.2-.566c-1.231.436-2.44.41-3.714.216l-.09.593zm4.006-.245c.225-.08.84-.304 1.331-.625.243-.158.488-.361.63-.611a.883.883 0 00.121-.44.872.872 0 00-.148-.474l-.504.326a.274.274 0 01.052.15.28.28 0 01-.043.142c-.07.125-.22.264-.436.405-.425.277-.978.48-1.207.563l.204.564zm1.895-2.198c-.024-.024-.024-.028-.071-.084a.832.832 0 00-.169-.15l-.335.497a.24.24 0 01.05.046l.038.045c.015.02.036.043.06.068l.427-.422zm-.194.225a1.77 1.77 0 00.465-.774c.08-.29.077-.596.003-.915l-.585.136c.056.239.053.441.003.619a1.176 1.176 0 01-.313.512l.427.422zM36.787 1.4c.441-.11.75-.08.974.016.224.096.401.274.55.53.15.258.261.58.356.942.096.364.167.735.251 1.108l.586-.132c-.079-.348-.157-.752-.256-1.129-.1-.38-.228-.764-.418-1.091-.192-.33-.457-.618-.833-.78-.376-.16-.825-.18-1.357-.045l.147.582zm2.13 2.593c.313 1.455.221 2.917-.128 4.359l.584.14c.364-1.508.467-3.063.131-4.625l-.587.126zm.287 4.156c-.633-.285-1.421-.386-1.851-.42l-.047.599c.414.032 1.117.128 1.652.368l.246-.547zm-1.836-.418c-.766-.099-1.54-.18-2.31-.263-.77-.082-1.537-.163-2.295-.261l-.077.595c.766.099 1.54.181 2.31.263.77.082 1.537.164 2.295.261l.077-.595zm-4.594-.523a14.28 14.28 0 00-.83-.1l-.06.596c.325.033.607.065.79.096l.1-.592zm-.591.33a.577.577 0 00.016-.456l-.57.188a.263.263 0 01.008.031c.001.006.001.006.001.002a.075.075 0 01.007-.03l.538.266zm-.019-.527c-.695-1.053-2.024-1.87-3.06-2.427l-.284.528c1.04.559 2.24 1.316 2.843 2.23l.501-.33zm-3.046-1.906c1.165-.707 2.196-1.438 3.364-2.094l-.294-.523c-1.166.655-2.276 1.433-3.381 2.104l.311.513zm3.368-2.096c1.263-.734 2.788-1.25 4.297-1.607l-.139-.584c-1.54.364-3.127.898-4.46 1.672l.302.519zm6.112 7.857c-.01.034-.046.096-.14.178-.092.08-.214.159-.353.233a4.449 4.449 0 01-.733.301l.175.575c.174-.053.518-.175.84-.347.161-.085.327-.189.465-.31a.998.998 0 00.323-.467l-.577-.163zm-1.217.71c-1.632.444-3.497.415-5.184.093l-.113.59c1.752.333 3.713.37 5.454-.104l-.157-.579zm-5.175.095c-.606-.136-1.55-.323-2.176-.716l-.319.509c.735.46 1.803.666 2.364.793l.131-.586zm-2.543-.245c.667.639 1.467.986 2.345 1.19l.136-.584c-.81-.188-1.5-.497-2.066-1.039l-.415.433zm2.396.599a7.506 7.506 0 01-3.242-.568l-.228.555a8.105 8.105 0 003.504.612l-.034-.599zm-3.24-.568c-.95-.396-1.757-1.186-2.206-2.112-.447-.924-.526-1.955-.074-2.854l-.537-.27c-.553 1.102-.438 2.334.072 3.386.508 1.05 1.42 1.948 2.513 2.404l.231-.554zM25.97 6.374c.036.617.284 1.25.517 1.722l.538-.266c-.22-.446-.427-.993-.456-1.49l-.599.034zm.523 1.734c.072.131.205.398.36.65.153.253.355.54.597.723l.363-.478c-.147-.112-.302-.316-.448-.556-.146-.24-.256-.464-.346-.628l-.526.289zm1.408 1.001a8.131 8.131 0 00-.113-.215 1.177 1.177 0 01-.066-.14l-.57.189c.025.076.07.162.104.23.041.077.076.14.107.202l.538-.266zm-.192-.386c-.231-.502-.467-1.015-.525-1.516l-.596.07c.071.613.355 1.216.577 1.697l.544-.251zm-.532-1.553c-.123-.496-.143-1.02-.008-1.402l-.566-.2c-.19.537-.145 1.193-.008 1.746l.582-.144zm-.01-1.395c.04-.106.089-.153.132-.177a.418.418 0 01.241-.035c.247.021.586.157.986.383.799.45 1.664 1.146 2.274 1.574l.345-.49c-.558-.393-1.493-1.139-2.324-1.607-.414-.233-.848-.425-1.23-.458a1.007 1.007 0 00-.584.11.906.906 0 00-.402.486l.561.214zm3.86 1.205c-.528-.097-1.056-.231-1.458-.423-.415-.198-.606-.414-.634-.632L28.34 6c.07.536.51.878.971 1.098.475.226 1.065.371 1.608.47l.108-.59zm-2.09-1.017a.322.322 0 00-.142-.267.34.34 0 00-.38 0 .322.322 0 00-.143.267h.6a.278.278 0 01-.122.23.26.26 0 01-.29 0 .279.279 0 01-.123-.23h.6zm-.665 0c0 .838.688 1.303 1.327 1.582.333.146.69.258 1.009.352.33.097.605.172.81.249l.21-.562c-.232-.087-.544-.172-.85-.262a8.095 8.095 0 01-.938-.326c-.617-.27-.968-.592-.968-1.033h-.6zm3.147 2.183c1.265.472 2.646.61 3.878.834l.107-.59c-1.298-.236-2.577-.36-3.776-.806l-.21.562zm3.887.835c.223.034.6.065.978.11.393.045.818.107 1.192.204.385.1.673.226.83.374a.375.375 0 01.12.194c.013.062.01.15-.044.279l.553.234c.091-.216.122-.43.078-.637a.97.97 0 00-.296-.507c-.272-.256-.684-.413-1.09-.518a9.651 9.651 0 00-1.274-.22c-.415-.048-.744-.074-.958-.106l-.089.593zm3.426.987a3.466 3.466 0 00-.852-.108v.6c.234 0 .469.03.705.09l.147-.582zm-.918.485c.262.059.507.175.623.269l.378-.467c-.208-.168-.547-.315-.87-.387l-.13.585zm.599.246c.048.049.077.09.094.122.017.033.014.042.014.028h.6c0-.214-.129-.417-.282-.572l-.426.422zm.408.45a.383.383 0 00.109-.016l.051-.016a.596.596 0 01.02-.007l-.003.001a.221.221 0 01-.048.005v-.6a.372.372 0 00-.109.016l-.051.016a.596.596 0 01-.015.005l-.005.002.003-.001.008-.002a.232.232 0 01.04-.003v.6zm-.006-.065a.258.258 0 01-.1-.104.276.276 0 01.006-.264c.022-.036.045-.052.035-.045a.587.587 0 01-.038.027l.335.498a.853.853 0 00.082-.06.435.435 0 00.102-.113.327.327 0 00.01-.32.364.364 0 00-.161-.155l-.271.536zm-4.946-8.27a.838.838 0 00-.468.07 1.98 1.98 0 00-.163.084c-.05.028-.09.05-.131.071l.27.536c.056-.028.11-.06.152-.083a1.56 1.56 0 01.114-.058.243.243 0 01.14-.027l.086-.594zm-.762.225c-.04.02-.082.038-.14.064a2.08 2.08 0 00-.185.09.816.816 0 00-.367.39l.552.235c.013-.03.039-.061.111-.102.037-.021.079-.04.131-.064.048-.021.111-.048.169-.077l-.271-.536zm-.666.496a.535.535 0 00.212.761l.27-.535c.02.01.03.027.034.04.002.007.006.032-.015.065l-.501-.33zm.212.761c.17.086.343.059.472-.016a.666.666 0 00.257-.283l-.538-.266a.116.116 0 01-.017.026c-.005.006-.007.006-.002.003a.116.116 0 01.099 0l-.271.536zm.71-.266c.066-.1.116-.175.19-.25l-.427-.422c-.12.122-.2.244-.264.341l.501.33zm.212-.275c.142-.179.219-.263.315-.295l-.192-.568c-.294.098-.476.343-.594.491l.47.372zm.354-.311a.47.47 0 00.101-.068.35.35 0 00.101-.151.314.314 0 00-.305-.415v.6a.286.286 0 01-.265-.373.25.25 0 01.07-.11.2.2 0 01.027-.019l.271.536zm-1.979.946a1.11 1.11 0 00-.305.116c-.04.021-.078.043-.108.061-.034.02-.06.034-.084.046l.27.536c.041-.02.08-.043.113-.062.035-.02.063-.037.093-.052a.522.522 0 01.14-.057l-.119-.588zm-.497.223c-.082.041-.22.126-.327.24a.598.598 0 00-.147.252.438.438 0 00.082.388l.47-.372a.16.16 0 01.028.136c-.007.026-.016.027.005.005a.742.742 0 01.16-.114l-.271-.535zm-.407.86a.407.407 0 00.456.169.467.467 0 00.29-.235l-.537-.266a.16.16 0 01.044-.056.122.122 0 01.043-.022.194.194 0 01.204.079l-.5.33zm.69.012c.134-.134.12-.3.12-.342h-.6v.032l.002-.012a.195.195 0 01.052-.1l.427.422zm.089-.209a.11.11 0 01.015-.024c.01-.012.024-.026.059-.062l-.427-.422c-.063.064-.128.128-.185.242l.538.266zm.074-.086a1 1 0 01.246-.205l-.27-.536c-.18.091-.31.226-.403.32l.427.421zm.11-.173a.355.355 0 00.15-.033.327.327 0 00.156-.15.307.307 0 00-.128-.407.365.365 0 00-.177-.043v.6c-.004 0-.015 0-.03-.003a.29.29 0 01-.215-.184.292.292 0 01.013-.23.273.273 0 01.128-.127.244.244 0 01.104-.023v.6zm1.956-.072a1.896 1.896 0 01-.392.424l.377.467c.18-.146.365-.332.516-.56l-.501-.33zm-.392.424c-.03.023-.061.045-.105.075-.04.027-.093.063-.143.105a.68.68 0 00-.25.438l.594.084c.003-.02.007-.033.042-.063.023-.02.05-.038.094-.068.04-.026.093-.062.145-.104l-.377-.467zm-.495.601a.466.466 0 00.204.494.465.465 0 00.53-.032l-.362-.478a.136.136 0 01.15 0c.06.038.073.101.066.133l-.588-.117zm.742.456c.21-.17.332-.38.426-.54l-.516-.306c-.1.17-.173.287-.287.38l.377.466zm.419-.527c.112-.171.281-.387.362-.674l-.577-.163c-.049.172-.14.283-.286.506l.5.33zm.358-.662c.041-.122.04-.383-.213-.468-.255-.086-.413.125-.454.248l.57.187a.206.206 0 01-.08.102.256.256 0 01-.227.031.24.24 0 01-.165-.288l.57.188zM33.026 6.95a.34.34 0 000-.31.333.333 0 00-.23-.17.353.353 0 00-.205.019.32.32 0 00-.199.295h.6a.28.28 0 01-.17.259.247.247 0 01-.145.014.267.267 0 01-.182-.139.261.261 0 01-.007-.234l.538.266zm-.584-.331a1.578 1.578 0 01-.158.216l.427.422c.09-.091.172-.218.232-.308l-.501-.33zm.055.427h-.3v-.009l.001-.01a.25.25 0 01.026-.097.272.272 0 01.241-.151v.6a.332.332 0 00.332-.323v-.01h-.3zm-.282-.132a.393.393 0 00.085.528.42.42 0 00.495.017l-.336-.498a.18.18 0 01.212.01c.029.022.06.061.072.118a.207.207 0 01-.028.155l-.5-.33zm.547.564a.443.443 0 00.21-.22.41.41 0 00-.011-.345l-.538.266a.19.19 0 01-.003-.156.158.158 0 01.072-.08l.27.535zm.23-.432c0 .007 0 .007 0 0a.447.447 0 01.033-.096l-.537-.266a.9.9 0 00-.096.362h.6zm3.717-3.225c-.084.155-.203.293-.354.497-.137.185-.292.416-.356.694l.585.133c.034-.148.123-.294.253-.47.117-.157.29-.363.4-.569l-.528-.285zm-.708 1.186a.425.425 0 00.017.268.38.38 0 00.196.2c.155.07.337.031.453-.087l-.426-.422a.193.193 0 01.218-.038c.047.021.09.06.112.114a.178.178 0 01.012.109l-.582-.144zm.62.419a.877.877 0 00.3-.354c.028-.056.052-.113.07-.16a2.36 2.36 0 01.056-.127l-.537-.266c-.03.06-.054.119-.073.166-.021.05-.036.087-.053.121a.282.282 0 01-.098.122l.336.498zm.426-.64a4.23 4.23 0 00.28-.708l-.578-.163a3.635 3.635 0 01-.24.604l.538.266zm.204-.578a.401.401 0 00.066-.086.329.329 0 00.042-.18c-.012-.215-.197-.28-.258-.293a.38.38 0 00-.341.104l.426.422a.225.225 0 01-.098.06.221.221 0 01-.106.002.286.286 0 01-.222-.26.271.271 0 01.033-.149.196.196 0 01.032-.042l.426.422zM35.435 6.54a1.169 1.169 0 00-.149.284c-.035.093-.05.138-.074.188l.538.266c.04-.083.075-.184.096-.239a.597.597 0 01.07-.142l-.481-.357zm-.239.51a.44.44 0 00.028.358.398.398 0 00.294.198.439.439 0 00.486-.38l-.592-.097a.14.14 0 01.055-.084.176.176 0 01.131-.034.202.202 0 01.148.101.166.166 0 01.02.126l-.57-.187zm.806.186c.018-.087.03-.202.039-.254a.47.47 0 01.033-.13l-.538-.267a1.041 1.041 0 00-.088.304c-.016.104-.019.153-.034.23l.588.117zm.072-.385a.34.34 0 00.035-.179.324.324 0 00-.092-.202.353.353 0 00-.252-.1.4.4 0 00-.358.215l.538.266a.216.216 0 01-.095.098.185.185 0 01-.085.02.248.248 0 01-.175-.077.276.276 0 01-.079-.17.26.26 0 01.025-.137l.538.266zm1.717-.948a.888.888 0 01-.095.224l.5.33c.09-.136.133-.27.165-.366l-.57-.188zm-.13.295l-.013.026c-.007.013-.03.053-.044.083a.488.488 0 00-.04.374l.57-.188a.16.16 0 01.005.08c-.002.013-.005.015.003 0a.632.632 0 01.014-.027c.005-.009.014-.025.02-.039a.765.765 0 00.055-.121l-.57-.188zm-.081.522a.427.427 0 00.288.225.415.415 0 00.389-.114l-.427-.422A.185.185 0 0138 6.36c.046.01.091.041.118.094l-.538.266zm.63.149a.545.545 0 00.212-.324c.012-.042.02-.085.025-.11a.502.502 0 01.01-.05l-.569-.187c-.014.044-.024.09-.03.118a.638.638 0 01-.016.076c-.005.019-.008.023-.006.02a.124.124 0 01.04-.04l.335.497zm.263-.577c0-.024.004-.059.013-.122.008-.051.02-.131.02-.206h-.6c0 .024-.005.059-.014.122-.007.051-.019.131-.019.206h.6zm-.054-.539a.374.374 0 00-.328-.105.39.39 0 00-.284.216l.538.266a.211.211 0 01-.155.11.226.226 0 01-.198-.065l.427-.422zm-.247-3.665c-.02-.084-.056-.172-.069-.208a.242.242 0 01-.02-.08h-.6c0 .116.03.212.054.28.028.079.041.106.053.152l.582-.144zm-.088-.288a.36.36 0 00-.133-.285.359.359 0 00-.27-.075.385.385 0 00-.206.093.355.355 0 00-.12.267h.6a.245.245 0 01-.082.183.216.216 0 01-.116.053.242.242 0 01-.181-.053.24.24 0 01-.092-.183h.6zm-.724-.059c-.016.08-.04.204-.034.33a.64.64 0 00.18.431l.426-.421-.001-.003a.121.121 0 01-.006-.034.833.833 0 01.023-.186l-.588-.117zm.146.761a.365.365 0 00.29.11.393.393 0 00.227-.1.477.477 0 00.158-.352h-.6c0-.04.015-.071.044-.097a.208.208 0 01.121-.05.236.236 0 01.186.067l-.426.422zm-1.57 7.164c-.59-.066-1.172-.107-1.745-.152a27.967 27.967 0 01-1.717-.174l-.083.594c.593.083 1.177.133 1.753.178.579.045 1.148.086 1.725.15l.067-.596zm-3.46-.326c-.485-.07-1.004-.106-1.511-.225-.5-.118-.905-.302-1.15-.614l-.473.37c.372.474.94.7 1.485.828.54.127 1.139.173 1.563.235l.085-.594zm-2.897-.654v-.3h-.005a.27.27 0 00-.05.004.34.34 0 00-.223.144.333.333 0 00-.055.184h.6a.267.267 0 01-.148.24.26.26 0 01-.117.028h-.002v-.3zm-.287.192c.272.433.674.686 1.082.859.395.167.845.276 1.192.383l.176-.573c-.399-.123-.776-.21-1.134-.363-.347-.147-.626-.336-.808-.625l-.508.32zm2.279 1.244c1.406.406 2.804.47 4.248.405l-.027-.6c-1.41.065-2.736 0-4.055-.382l-.166.577zm4.294.399a.545.545 0 00.39-.327.4.4 0 00-.009-.329.376.376 0 00-.343-.2v.6a.195.195 0 01-.087-.023.24.24 0 01-.105-.106.202.202 0 01-.014-.163.062.062 0 01.015-.025.071.071 0 01.034-.015l.119.588zM19.137 9.145c-.09-.408-.394-.695-.684-.878l-.32.507c.228.145.378.317.418.5l.586-.129zm-.56-.53c.525-1.592.894-3.305.793-4.998l-.599.036c.094 1.586-.25 3.218-.764 4.774l.57.188zm.793-4.995c-.033-.685-.14-1.538-.448-2.27-.31-.736-.841-1.39-1.734-1.583l-.126.587c.631.136 1.04.596 1.306 1.229.268.637.371 1.408.403 2.066l.6-.029zM17.193-.23c-.788-.186-1.694.031-2.519.334-.828.304-1.65.726-2.246.996l.248.547c.636-.288 1.403-.686 2.205-.98.805-.295 1.569-.456 2.175-.313l.137-.584zM12.427 1.1c-1.831.842-3.355 2.185-4.81 3.493l.4.447c1.464-1.316 2.924-2.596 4.66-3.394l-.25-.545zm-4.47 3.45c-.995-.52-2.24-.277-2.748.83l.545.25c.336-.73 1.167-.945 1.924-.548l.278-.531zm-2.744.822c-.127.256-.16.538-.16.822h.6c0-.242.03-.418.098-.556l-.538-.266zm-.109.652c-1.343 1.966-.578 4.59 1.119 6.1l.399-.449C5.076 10.3 4.478 8.004 5.6 6.362l-.496-.339zm1.125 6.105c.831.7 2.047 1.184 3.296 1.366 1.248.183 2.574.069 3.62-.477l-.278-.532c-.9.47-2.088.586-3.255.416-1.168-.17-2.27-.62-2.996-1.232l-.387.459zm6.732.92c1.32.2 2.641.239 4.004-.244l-.2-.566c-1.231.436-2.44.41-3.714.216l-.09.593zm4.006-.245c.225-.08.84-.304 1.331-.625.243-.158.489-.361.63-.611a.884.884 0 00.121-.44.871.871 0 00-.148-.474l-.504.326a.275.275 0 01.052.15.28.28 0 01-.043.142c-.07.125-.22.264-.436.405-.425.277-.977.48-1.206.563l.203.564zm1.895-2.198c-.024-.024-.023-.028-.071-.084a.83.83 0 00-.169-.15l-.335.497a.24.24 0 01.05.046l.038.045c.015.02.036.043.06.068l.427-.422zm-.194.225a1.77 1.77 0 00.465-.774c.08-.29.077-.596.003-.915l-.584.136c.055.239.052.441.003.619-.05.176-.15.346-.314.512l.427.422zM15.804 1.4c.441-.11.75-.08.974.016.224.096.401.274.55.53.15.258.261.58.356.942.096.364.167.735.25 1.108l.586-.132c-.078-.348-.157-.752-.256-1.129-.1-.38-.227-.764-.418-1.091-.192-.33-.456-.618-.832-.78-.376-.16-.826-.18-1.357-.045l.147.582zm2.13 2.593c.313 1.455.22 2.917-.128 4.359l.583.14c.365-1.508.468-3.063.132-4.625l-.587.126zm.287 4.156c-.633-.285-1.421-.386-1.851-.42l-.047.599c.413.032 1.117.128 1.652.368l.246-.547zm-1.836-.418c-.766-.099-1.54-.18-2.31-.263-.77-.082-1.537-.163-2.295-.261l-.077.595c.766.099 1.54.181 2.31.263.77.082 1.537.164 2.295.261l.077-.595zm-4.594-.523a14.276 14.276 0 00-.83-.1l-.06.596c.325.033.607.065.79.096l.1-.592zm-.592.33a.576.576 0 00.016-.456l-.57.188a.263.263 0 01.01.031v.002a.075.075 0 01.007-.03l.537.266zm-.018-.527c-.695-1.053-2.024-1.87-3.06-2.427l-.284.528c1.04.559 2.24 1.316 2.843 2.23l.5-.33zM8.135 5.105C9.3 4.398 10.33 3.667 11.499 3.01l-.294-.523c-1.167.655-2.276 1.433-3.382 2.104l.312.513zM11.5 3.01c1.297-.735 2.825-1.251 4.3-1.608l-.14-.584c-1.508.365-3.094.898-4.456 1.67l.296.522zm6.147 7.856c-.01.034-.046.096-.14.178-.092.08-.214.159-.353.233a4.442 4.442 0 01-.732.301l.174.575c.174-.053.518-.175.84-.347.161-.085.327-.189.465-.31a.998.998 0 00.323-.467l-.577-.163zm-1.217.71c-1.632.444-3.497.415-5.184.093l-.112.59c1.75.333 3.712.37 5.453-.104l-.157-.579zm-5.174.095c-.607-.136-1.55-.323-2.177-.716l-.319.509c.736.46 1.803.666 2.364.793l.132-.586zm-2.544-.245c.667.639 1.467.986 2.345 1.19l.136-.584c-.809-.188-1.5-.497-2.066-1.039l-.415.433zm2.396.599a7.506 7.506 0 01-3.242-.568l-.228.555a8.104 8.104 0 003.504.612l-.034-.599zm-3.24-.568c-.95-.396-1.757-1.186-2.205-2.112-.448-.924-.527-1.955-.075-2.854l-.536-.27c-.554 1.102-.439 2.334.07 3.386.51 1.05 1.422 1.948 2.515 2.404l.23-.554zM5.02 6.374c.036.617.284 1.25.517 1.722l.538-.266c-.22-.446-.427-.993-.456-1.49l-.599.034zm.523 1.734c.072.131.206.398.36.65.153.253.356.54.598.723l.362-.478c-.147-.112-.301-.316-.448-.556-.146-.24-.256-.464-.346-.628l-.526.289zm1.408 1.001a8.131 8.131 0 00-.113-.215 1.183 1.183 0 01-.066-.14l-.57.189c.025.076.07.162.105.23.04.077.075.14.106.202l.538-.266zm-.191-.386c-.232-.502-.468-1.015-.526-1.516l-.596.07c.071.613.355 1.216.577 1.697l.545-.251zM6.227 7.17c-.123-.496-.143-1.02-.008-1.402l-.566-.2c-.19.537-.145 1.193-.008 1.746l.582-.144zm-.01-1.395c.04-.106.089-.153.132-.177a.418.418 0 01.241-.035c.247.021.586.157.986.383.799.45 1.664 1.146 2.274 1.574l.345-.49c-.558-.394-1.493-1.14-2.325-1.608-.414-.233-.848-.425-1.23-.458a1.007 1.007 0 00-.584.11.906.906 0 00-.402.486l.561.214zm3.86 1.205c-.528-.097-1.056-.231-1.458-.423-.414-.198-.606-.414-.634-.632L7.39 6c.069.536.51.878.97 1.098.475.226 1.065.371 1.608.47l.108-.59zm-2.09-1.017a.321.321 0 00-.142-.267.34.34 0 00-.38 0 .321.321 0 00-.143.267h.6a.278.278 0 01-.122.23.26.26 0 01-.29 0 .278.278 0 01-.123-.23h.6zm-.665 0c0 .838.688 1.303 1.327 1.582.333.146.69.258 1.01.352.328.097.604.172.81.249l.21-.562c-.232-.087-.545-.172-.851-.262a8.091 8.091 0 01-.938-.326c-.617-.27-.968-.592-.968-1.033h-.6zm3.147 2.183c1.266.472 2.646.61 3.878.834l.107-.59c-1.297-.236-2.577-.36-3.776-.806l-.21.562zm3.887.835c.224.034.6.065.978.11a9.07 9.07 0 011.193.204c.384.1.672.226.828.374a.375.375 0 01.122.194c.012.062.01.15-.045.279l.553.234c.091-.216.122-.43.079-.637a.972.972 0 00-.297-.507c-.272-.256-.684-.413-1.09-.518a9.647 9.647 0 00-1.273-.22c-.416-.048-.745-.074-.959-.106l-.089.593zm3.426.987a3.466 3.466 0 00-.852-.108v.6c.234 0 .469.03.705.09l.147-.582zm-.918.485c.262.059.507.175.623.269l.378-.467c-.208-.168-.547-.315-.869-.387l-.131.585zm.599.246c.048.049.078.09.094.122.017.033.014.042.014.028h.6c0-.214-.129-.417-.281-.572l-.427.422zm.408.45a.383.383 0 00.109-.016.878.878 0 00.07-.022h-.002a.222.222 0 01-.048.005v-.6a.37.37 0 00-.109.016l-.051.016a.596.596 0 01-.015.005l-.005.002.003-.001.008-.002a.232.232 0 01.04-.003v.6zm-.006-.065a.262.262 0 01-.13-.175c-.031-.132.043-.221.046-.226.01-.013.018-.018 0-.002-.011.01-.035.031-.059.055l.427.422.034-.032c.01-.009.042-.037.069-.07a.333.333 0 00.067-.283.34.34 0 00-.183-.225l-.27.536zm-4.978-8.27a.837.837 0 00-.468.07c-.06.027-.116.058-.163.084-.05.028-.09.05-.131.071l.27.536c.056-.028.11-.06.152-.083a1.38 1.38 0 01.114-.058.243.243 0 01.14-.027l.086-.594zm-.762.225c-.04.02-.082.038-.141.064-.054.024-.12.054-.184.09a.817.817 0 00-.368.39l.553.235c.012-.03.038-.061.11-.102.038-.021.08-.04.132-.064.048-.021.11-.048.168-.077l-.27-.536zm-.667.496a.535.535 0 00.213.761l.27-.535c.02.01.03.027.034.04.002.007.006.032-.016.065l-.5-.33zm.213.761c.17.086.342.059.472-.016a.667.667 0 00.256-.283l-.538-.266a.12.12 0 01-.016.026l-.003.003a.116.116 0 01.099 0l-.27.536zm.71-.266c.066-.1.116-.175.19-.25l-.427-.422c-.12.122-.2.244-.264.341l.5.33zm.212-.275c.142-.179.219-.263.314-.295l-.191-.568c-.294.098-.476.343-.594.491l.47.372zm.354-.311a.473.473 0 00.101-.068.35.35 0 00.101-.151.314.314 0 00-.305-.415v.6a.286.286 0 01-.265-.373.25.25 0 01.07-.11.135.135 0 01.027-.019l.27.536zM11 4.39a1.11 1.11 0 00-.305.116c-.04.021-.078.043-.11.061a.956.956 0 01-.083.046l.27.536c.041-.02.08-.043.113-.062.035-.02.063-.037.093-.052a.523.523 0 01.14-.057L11 4.39zm-.498.223c-.081.041-.22.126-.327.24a.599.599 0 00-.147.252.438.438 0 00.082.388l.47-.372a.158.158 0 01.028.136c-.007.026-.015.027.005.005a.742.742 0 01.16-.114l-.27-.535zm-.407.86a.407.407 0 00.456.169.467.467 0 00.29-.235l-.537-.266a.162.162 0 01.044-.056.122.122 0 01.043-.022.194.194 0 01.205.079l-.5.33zm.69.012c.134-.134.12-.3.12-.342h-.6v.032l.002-.012a.199.199 0 01.052-.1l.427.422zm.089-.209a.104.104 0 01.015-.024c.01-.012.024-.026.06-.062l-.427-.422c-.064.064-.13.128-.186.242l.538.266zm.074-.086a.999.999 0 01.246-.205l-.27-.536c-.18.091-.31.226-.402.32l.426.421zm.111-.173c.1 0 .324-.07.324-.316s-.224-.317-.324-.317v.6c-.067 0-.276-.054-.276-.283 0-.23.209-.284.276-.284v.6zm1.923-.072c-.11.166-.249.308-.393.424l.378.467c.18-.146.365-.332.515-.56l-.5-.33zm-.393.424c-.029.023-.06.045-.104.075-.04.027-.093.063-.144.105a.68.68 0 00-.25.438l.595.084c.003-.02.007-.033.042-.063.023-.02.05-.038.094-.068.039-.026.092-.062.145-.104l-.378-.467zm-.495.601a.466.466 0 00.205.494.465.465 0 00.53-.032l-.362-.478a.136.136 0 01.15 0c.06.038.072.101.066.133l-.588-.117zm.743.456c.21-.17.332-.38.426-.54l-.516-.306c-.1.17-.173.287-.287.38l.377.466zm.419-.527c.112-.171.28-.387.362-.674l-.577-.163c-.049.172-.14.283-.287.506l.502.33zm.324-.59a.378.378 0 00.058-.294.34.34 0 00-.238-.25c-.207-.06-.394.074-.453.252l.57.187a.228.228 0 01-.283.137.26.26 0 01-.18-.19.225.225 0 01.025-.173l.5.33zm-1.538 1.64a.339.339 0 000-.31.333.333 0 00-.23-.17.353.353 0 00-.205.019.32.32 0 00-.2.295h.6a.28.28 0 01-.17.259.247.247 0 01-.144.014.267.267 0 01-.183-.139.261.261 0 01-.006-.234l.537.266zm-.585-.331c-.07.107-.118.176-.157.216l.426.422c.09-.091.173-.218.232-.308l-.5-.33zm.056.427h-.3v-.019L11.219 7a.271.271 0 01.264-.224v.601a.332.332 0 00.332-.323v-.008h-.3zm-.283-.132a.393.393 0 00.085.528.42.42 0 00.496.017l-.336-.498a.18.18 0 01.211.01.208.208 0 01.045.274l-.5-.331zm.548.564a.442.442 0 00.21-.22.41.41 0 00-.011-.345l-.538.266a.19.19 0 01-.003-.156.158.158 0 01.072-.08l.27.535zm.199-.299a.581.581 0 00.04-.112l.018-.077a.743.743 0 01.009-.043c.002-.01.002-.006-.002.003l-.538-.266a.581.581 0 00-.041.111c-.008.03-.013.06-.017.078a.846.846 0 01-.01.043c-.002.01-.002.006.003-.003l.538.266zm3.78-3.358c-.083.155-.203.293-.354.497-.137.185-.292.416-.355.694l.585.133c.034-.148.122-.294.252-.47.117-.157.29-.363.4-.569l-.528-.285zm-.708 1.186a.425.425 0 00.017.268.38.38 0 00.196.2c.155.07.337.031.454-.087l-.427-.422a.193.193 0 01.219-.038.22.22 0 01.111.114.177.177 0 01.012.109l-.582-.144zm.62.419a.878.878 0 00.3-.354c.029-.056.052-.113.07-.16.02-.048.038-.088.056-.127l-.537-.266a2.52 2.52 0 00-.073.166c-.021.05-.036.087-.053.121a.282.282 0 01-.097.122l.335.498zm.426-.64a4.23 4.23 0 00.28-.708l-.578-.163a3.635 3.635 0 01-.24.604l.538.266zm.26-.656a.34.34 0 000-.31.333.333 0 00-.23-.17.353.353 0 00-.205.019.32.32 0 00-.199.295h.6a.28.28 0 01-.17.259.247.247 0 01-.145.014.267.267 0 01-.182-.139.261.261 0 01-.007-.234l.538.266zm-1.872 2.41a1.169 1.169 0 00-.149.284c-.035.093-.05.138-.074.188l.538.266c.04-.083.075-.184.096-.239a.6.6 0 01.07-.142l-.481-.357zm-.239.51a.439.439 0 00.028.358.398.398 0 00.294.198.439.439 0 00.486-.38l-.592-.097a.14.14 0 01.055-.084.176.176 0 01.131-.034.202.202 0 01.148.101.166.166 0 01.02.126l-.57-.187zm.807.186c.017-.087.03-.202.038-.254a.47.47 0 01.034-.13l-.538-.267a1.038 1.038 0 00-.089.304c-.016.104-.019.153-.034.23l.589.117zm.103-.518a.346.346 0 00-.353-.349.387.387 0 00-.346.216l.538.266a.213.213 0 01-.192.118.254.254 0 01-.247-.25h.6zm1.685-.815a.892.892 0 01-.095.224l.5.33c.09-.136.133-.27.165-.366l-.57-.188zm-.13.295c0-.001-.001.005-.013.026-.006.013-.03.053-.044.083a.489.489 0 00-.04.374l.57-.188a.16.16 0 01.006.08c-.003.013-.005.015.002 0a.787.787 0 01.014-.027l.021-.039a.775.775 0 00.054-.121l-.57-.188zm-.081.522a.427.427 0 00.288.225.415.415 0 00.389-.114l-.427-.422a.185.185 0 01.17-.049c.046.01.091.041.118.094l-.538.266zm.631.149a.545.545 0 00.212-.324l.024-.11a.562.562 0 01.011-.05l-.57-.187a1.282 1.282 0 00-.045.194c-.006.019-.008.023-.006.02a.124.124 0 01.039-.04l.335.497zm.262-.577c0-.024.004-.059.013-.122.008-.051.02-.131.02-.206h-.6c0 .024-.005.059-.014.122-.007.051-.019.131-.019.206h.6zm-.054-.539a.373.373 0 00-.171-.097.411.411 0 00-.162-.01.369.369 0 00-.196.091.348.348 0 00-.114.26h.6a.252.252 0 01-.083.185.231.231 0 01-.122.058.19.19 0 01-.075-.004.227.227 0 01-.104-.061l.427-.422zm-.279-3.665c-.02-.084-.056-.172-.07-.208a.244.244 0 01-.018-.08h-.6c0 .116.029.212.053.28.028.079.041.106.053.152l.582-.144zm-.088-.288a.36.36 0 00-.133-.285.359.359 0 00-.27-.075.385.385 0 00-.206.093.355.355 0 00-.121.267h.6a.245.245 0 01-.081.183.215.215 0 01-.117.053.242.242 0 01-.18-.053.24.24 0 01-.093-.183h.6zm-.724-.059c-.016.08-.04.204-.034.33a.64.64 0 00.18.431l.426-.421-.002-.003a.119.119 0 01-.005-.034.821.821 0 01.023-.186l-.588-.117zm.145.761c.187.19.422.096.517.021a.417.417 0 00.144-.457l-.57.188a.183.183 0 01.055-.202.187.187 0 01.103-.039.23.23 0 01.178.067l-.427.422zm-1.537 7.164c-.59-.066-1.172-.107-1.745-.152a27.983 27.983 0 01-1.717-.174l-.083.594c.594.083 1.177.133 1.753.178.58.045 1.148.086 1.725.15l.067-.596zm-3.46-.326c-.485-.07-1.004-.106-1.511-.225-.5-.118-.905-.302-1.15-.614l-.472.37c.371.474.94.7 1.485.828.539.127 1.138.173 1.562.235l.086-.594zm-2.897-.654v-.3h-.005a.28.28 0 00-.05.004.34.34 0 00-.223.144.333.333 0 00-.055.184h.6a.267.267 0 01-.148.24.26.26 0 01-.114.028h-.003v-.3zm-.287.192c.273.433.675.686 1.082.859.395.167.845.276 1.192.383l.177-.573c-.4-.123-.777-.21-1.135-.363-.347-.147-.626-.336-.808-.625l-.508.32zm2.28 1.244c1.405.406 2.803.47 4.247.405l-.027-.6c-1.41.065-2.736 0-4.054-.382l-.167.577zm4.293.399a.518.518 0 00.384-.344.416.416 0 00-.009-.296.357.357 0 00-.337-.216v.6a.243.243 0 01-.213-.143.186.186 0 01-.011-.133.083.083 0 01.067-.056l.12.588zm24.897 6.3c3.263-.165 6.426-.692 9.6-1.217l-.097-.591c-3.181.525-6.31 1.046-9.534 1.21l.03.598zm9.598-1.216c.84-.13 1.723-.263 2.573-.428l-.114-.59c-.836.163-1.705.293-2.551.425l.092.593zm2.48-1.02c-.813.098-1.585.195-2.388.26l.048.599c.818-.067 1.604-.166 2.412-.264l-.072-.596zm-2.392.26c-7.412.688-14.89.82-22.34.59l-.019.6c7.469.23 14.973.098 22.415-.592l-.056-.597zm-22.4 1.185c4.204.726 8.507.99 12.713.791l-.029-.599a58.29 58.29 0 01-12.583-.783l-.102.591z" fill="#fff" mask="url(#a)"/></svg>