<svg width="65" height="65" fill="none" xmlns="http://www.w3.org/2000/svg"><path d="M56.505 16.772c4.621 0 8.368-3.754 8.368-8.386C64.873 3.755 61.126 0 56.505 0c-4.622 0-8.369 3.755-8.369 8.386 0 4.632 3.747 8.386 8.369 8.386z" fill="url(#paint0_linear_1_649)"/><path d="M56.505 16.772c4.621 0 8.368-3.754 8.368-8.386C64.873 3.755 61.126 0 56.505 0c-4.622 0-8.369 3.755-8.369 8.386 0 4.632 3.747 8.386 8.369 8.386z" fill="#F80"/><path d="M45.626 47.019h5.384v5.394h-5.384V47.02z" fill="url(#paint1_linear_1_649)"/><path d="M45.626 47.019h5.384v5.394h-5.384V47.02z" fill="#F80"/><path d="M35.827 17.677a5.69 5.69 0 017.567 0l1.5 1.334v-4.765C44.895 6.4 38.527.019 30.699.019c-6.857 0-12.594 4.897-13.912 11.384 2.156 3.281 5.933 9.694 7.55 16.49l11.491-10.216z" fill="url(#paint2_linear_1_649)"/><path d="M35.827 17.677a5.69 5.69 0 017.567 0l1.5 1.334v-4.765C44.895 6.4 38.527.019 30.699.019c-6.857 0-12.594 4.897-13.912 11.384 2.156 3.281 5.933 9.694 7.55 16.49l11.491-10.216z" fill="#F80"/><path d="M63.1 61.166h-2.626v-18.12l1.237 1.1a1.894 1.894 0 002.683-.16 1.907 1.907 0 00-.16-2.69l-5.572-4.953v-9.87a1.902 1.902 0 10-3.801-.001v6.492L40.87 20.527a1.898 1.898 0 00-2.522 0L14.987 41.294a1.907 1.907 0 00-.16 2.689 1.898 1.898 0 002.683.16l1.237-1.099v18.122h-6.134v-8.309a7.519 7.519 0 002.333-1.216v-3.36a5.703 5.703 0 01-2.963-1.77 5.729 5.729 0 01.482-8.066l8.578-7.626c-1.444-9.231-8.47-18.856-8.802-19.306a1.9 1.9 0 00-3.057 0c-.37.502-9.062 12.406-9.062 22.456 0 4.905.976 9.547 2.749 13.07 1.563 3.107 3.628 5.111 5.94 5.818v8.31h-6.91A1.9 1.9 0 000 63.07 1.94 1.94 0 001.9 65h61.2a1.94 1.94 0 001.9-1.929 1.903 1.903 0 00-1.9-1.904zM41.824 45.114c0-1.052.851-1.904 1.9-1.904h9.185c1.05 0 1.901.852 1.901 1.904v9.204c0 1.052-.85 1.905-1.9 1.905h-9.185c-1.05 0-1.9-.853-1.9-1.905v-9.204zM31.418 61.167V47.019h-3.802v14.148h-3.8V45.114c0-1.052.85-1.904 1.9-1.904h7.602c1.05 0 1.9.852 1.9 1.904v16.053h-3.8z" fill="url(#paint3_linear_1_649)"/><path d="M63.1 61.166h-2.626v-18.12l1.237 1.1a1.894 1.894 0 002.683-.16 1.907 1.907 0 00-.16-2.69l-5.572-4.953v-9.87a1.902 1.902 0 10-3.801-.001v6.492L40.87 20.527a1.898 1.898 0 00-2.522 0L14.987 41.294a1.907 1.907 0 00-.16 2.689 1.898 1.898 0 002.683.16l1.237-1.099v18.122h-6.134v-8.309a7.519 7.519 0 002.333-1.216v-3.36a5.703 5.703 0 01-2.963-1.77 5.729 5.729 0 01.482-8.066l8.578-7.626c-1.444-9.231-8.47-18.856-8.802-19.306a1.9 1.9 0 00-3.057 0c-.37.502-9.062 12.406-9.062 22.456 0 4.905.976 9.547 2.749 13.07 1.563 3.107 3.628 5.111 5.94 5.818v8.31h-6.91A1.9 1.9 0 000 63.07 1.94 1.94 0 001.9 65h61.2a1.94 1.94 0 001.9-1.929 1.903 1.903 0 00-1.9-1.904zM41.824 45.114c0-1.052.851-1.904 1.9-1.904h9.185c1.05 0 1.901.852 1.901 1.904v9.204c0 1.052-.85 1.905-1.9 1.905h-9.185c-1.05 0-1.9-.853-1.9-1.905v-9.204zM31.418 61.167V47.019h-3.802v14.148h-3.8V45.114c0-1.052.85-1.904 1.9-1.904h7.602c1.05 0 1.9.852 1.9 1.904v16.053h-3.8z" fill="#F80"/><defs><linearGradient id="paint0_linear_1_649" x1="3" y1="29" x2="65" y2="65" gradientUnits="userSpaceOnUse"><stop stop-color="#FFECDE"/><stop offset="1" stop-color="#fff"/></linearGradient><linearGradient id="paint1_linear_1_649" x1="3" y1="29" x2="65" y2="65" gradientUnits="userSpaceOnUse"><stop stop-color="#FFECDE"/><stop offset="1" stop-color="#fff"/></linearGradient><linearGradient id="paint2_linear_1_649" x1="3" y1="29" x2="65" y2="65" gradientUnits="userSpaceOnUse"><stop stop-color="#FFECDE"/><stop offset="1" stop-color="#fff"/></linearGradient><linearGradient id="paint3_linear_1_649" x1="3" y1="29" x2="65" y2="65" gradientUnits="userSpaceOnUse"><stop stop-color="#FFECDE"/><stop offset="1" stop-color="#fff"/></linearGradient></defs></svg>