<svg width="190" height="162" fill="none" xmlns="http://www.w3.org/2000/svg"><path d="M37.218 93.156c-.026 1.643-.344 3.113-.953 4.412s-1.462 2.31-2.56 3.032c-1.098.723-2.35 1.056-3.757.997-.852-.035-1.503-.308-1.951-.817-.47-.511-.692-1.075-.667-1.694.026-.618.27-1.11.734-1.474.443-.366.93-.538 1.463-.516.533.022.982.009 1.347-.04.344-.05.67-.197.979-.44.617-.465.968-1.7 1.05-3.704.046-1.087-.139-2.023-.555-2.809-.415-.786-1.039-1.196-1.87-1.23-.554-.024-1.106.402-1.655 1.276-.366.604-.957 1.956-1.77 4.058-.864 2.291-1.821 4.002-2.872 5.133-1.072 1.13-2.482 1.658-4.23 1.586-1.342-.056-2.499-.488-3.469-1.297-.97-.81-1.695-1.843-2.176-3.101a10.146 10.146 0 01-.633-4.03c.017-1.451.31-2.838.877-4.16.568-1.32 1.348-2.366 2.34-3.137.973-.792 2.056-1.163 3.25-1.114.64.027 1.184.284 1.633.773.428.487.63 1.04.604 1.658a2.31 2.31 0 01-.436 1.231c-.272.394-.603.637-.99.728-.518.106-.92.282-1.208.526-.287.223-.556.532-.807.927-.32.52-.554.991-.7 1.412-.145.421-.234 1.026-.267 1.815-.04.938.11 1.723.446 2.356.316.611.752.928 1.306.951.703.03 1.293-.287 1.769-.95.477-.686.944-1.648 1.401-2.89.911-2.395 1.608-3.99 2.089-4.78.802-1.313 1.63-2.228 2.484-2.748.855-.52 1.91-.753 3.168-.701 1.343.056 2.52.51 3.53 1.364 1.033.854 1.82 1.954 2.361 3.3a9.935 9.935 0 01.694 4.097z" fill="#FF041B"/><path d="M42.468 69.675c-.892.952-1.842 1.224-2.85.817 1.126 1.766 1.1 3.62-.076 5.56-.78 1.019-1.647 1.739-2.6 2.16a6.827 6.827 0 01-2.998.583 11.56 11.56 0 01-3.16-.551c-.38-.085-.898-.282-1.555-.594a103.08 103.08 0 01-2.047-.999 100.1 100.1 0 01-1.98-1.076c-.621-.342-1.082-.597-1.383-.765-.612-.362-.969-.817-1.07-1.364a2.29 2.29 0 01.25-1.555c.267-.49.661-.838 1.18-1.042.52-.204 1.091-.135 1.712.208l1.459.83c.391.228.897.513 1.518.855.61.315 1.212.616 1.81.903.597.288 1.075.47 1.436.546 1 .312 1.819.424 2.453.335.623-.117 1.145-.47 1.568-1.058.294-.387.46-.884.499-1.49.018-.613-.29-1.359-.925-2.236a2.538 2.538 0 01-.152-.476 354.04 354.04 0 00-7.816-3.122c-.554-.224-.943-.542-1.167-.954a2.209 2.209 0 01-.274-1.284c.049-.464.217-.879.504-1.246a2.027 2.027 0 011.073-.775c.436-.169.936-.151 1.497.053 2.944 1.142 6.91 2.744 11.899 4.805.554.223.954.627 1.202 1.21a2.24 2.24 0 01-.007 1.722z" fill="#009DB4"/><path d="M52.832 50.776c.5.465.731.978.693 1.54-.024.546-.234 1.028-.63 1.447a2.226 2.226 0 01-1.382.704c-.54.067-1.06-.133-1.56-.598a48.54 48.54 0 01-1.597-1.48 59.534 59.534 0 00-1.915-1.845 29.136 29.136 0 00-1.726-1.38c-.684-.514-1.276-.875-1.773-1.084a1.843 1.843 0 00-1.253-.075c-.462.106-.899.362-1.31.767a3.332 3.332 0 00-.928 1.4c-.18.495-.21.95-.09 1.365.152.247.261.414.327.5l.313.274c.563.491 1.574 1.36 3.033 2.608a437.657 437.657 0 013.346 2.882c.45.393.713.822.79 1.285.06.45-.01.885-.209 1.306-.215.407-.51.744-.886 1.01-.391.253-.814.38-1.268.38-.47-.014-.93-.218-1.379-.61l-1.229-1.075a108.44 108.44 0 00-1.876-1.598 63.501 63.501 0 00-2.162-1.805 97.852 97.852 0 00-2.136-1.739A27.59 27.59 0 0034.28 53.6c-.649-.426-1.008-.938-1.078-1.538-.087-.614.081-1.161.503-1.643.807-.824 1.667-.965 2.581-.42-.285-1.553.118-3 1.208-4.343 1.014-1.125 2.143-1.782 3.386-1.97 1.227-.203 2.479-.03 3.756.52.468.21.987.508 1.557.893a20.88 20.88 0 011.665 1.159c.542.417.998.787 1.367 1.11a62.621 62.621 0 012.109 2.013 48.434 48.434 0 001.5 1.396z" fill="#FFA701"/><path d="M69.334 39.27c.318.603.367 1.164.146 1.682-.203.507-.56.894-1.071 1.16a2.225 2.225 0 01-1.537.209c-.532-.116-.957-.475-1.276-1.08a47.768 47.768 0 01-1.02-1.923c-.397-.83-.797-1.62-1.2-2.372a29.162 29.162 0 00-1.174-1.873c-.477-.71-.917-1.246-1.318-1.607a1.842 1.842 0 00-1.158-.484c-.471-.051-.968.046-1.49.293a3.333 3.333 0 00-1.337 1.016c-.332.409-.51.829-.535 1.26.062.283.11.476.145.58l.205.361c.37.65 1.037 1.803 2.004 3.462a436.207 436.207 0 012.21 3.824c.295.52.402 1.01.321 1.473-.091.444-.3.832-.626 1.164a2.862 2.862 0 01-1.17.663c-.453.11-.893.09-1.322-.06-.439-.167-.806-.511-1.1-1.03l-.807-1.42c-.358-.63-.773-1.339-1.245-2.126a63.525 63.525 0 00-1.447-2.417 98.364 98.364 0 00-1.443-2.345 27.3 27.3 0 00-1.202-1.857c-.472-.615-.642-1.217-.511-1.807.12-.608.46-1.07 1.016-1.385 1.034-.513 1.892-.362 2.576.452.242-1.56 1.1-2.793 2.571-3.701 1.328-.729 2.61-.977 3.846-.746 1.225.213 2.35.789 3.374 1.729.372.353.764.805 1.176 1.356.42.523.816 1.07 1.19 1.643.375.572.683 1.072.925 1.498.477.883.92 1.748 1.328 2.595.416.819.734 1.423.956 1.813z" fill="#FF4CA6"/><path d="M78.641 43.607c-.415.575-.9.881-1.458.918a2.211 2.211 0 01-1.48-.444 2.292 2.292 0 01-.89-1.3c-.143-.538-.017-1.093.376-1.664a45.99 45.99 0 011.205-1.587c.447-.516.783-.99 1.008-1.422.31-.555.59-1.15.843-1.781a.705.705 0 01-.178-.26l-6.65-11.208c-.289-.51-.398-.99-.329-1.436.066-.468.254-.86.565-1.177a2.506 2.506 0 011.14-.698c.45-.147.885-.14 1.305.02.438.137.811.46 1.122.966l4.622 7.969c.247-1.369.552-4.31.915-8.823.048-.68.304-1.172.77-1.475a2.333 2.333 0 011.524-.377c.552.05 1.017.28 1.396.687.395.383.56.927.495 1.633a33.761 33.761 0 00-.326 4.062 21.789 21.789 0 01-.46 4.216l-.357 1.953c-.155.81-.312 1.489-.471 2.039l-.569 1.86a16.448 16.448 0 01-.74 1.991 24.679 24.679 0 01-.87 1.819 7.987 7.987 0 01-.81 1.255l-1.05 1.364c-.35.455-.566.755-.648.9z" fill="#756BD8"/><path d="M105.261 36.55a2.303 2.303 0 01-1.423-.95 2.191 2.191 0 01-.335-1.685c.124-.54.401-.98.829-1.32.454-.356.95-.515 1.489-.48.853-3.612 1.896-8.2 3.13-13.76a2.223 2.223 0 01-1.075-1.035 2.164 2.164 0 01-.177-1.518 2.084 2.084 0 011.006-1.377 2.242 2.242 0 011.703-.267l3.518.84a2.078 2.078 0 011.377 1.005c.316.532.404 1.1.266 1.703a2.05 2.05 0 01-.846 1.25 2.24 2.24 0 01-1.451.456 829.112 829.112 0 01-3.063 13.611c.501.203.872.54 1.114 1.011.263.476.345.976.246 1.501a2.24 2.24 0 01-.982 1.416 2.086 2.086 0 01-1.655.343l-3.671-.743z" fill="#FB5F17"/><path d="M119.507 41.21a10.839 10.839 0 01-2.329-1.507c-.687-.59-1.207-1.206-1.561-1.849-.247-.52-.405-1.128-.473-1.823l-.036-.443-.037-.586c-.017-.41.04-.75.17-1.02.24-.499.65-.835 1.229-1.007.608-.181 1.172-.147 1.691.102.654.313 1.035.85 1.143 1.612l.069.743.006.429c.005.286.138.575.401.866.426.394.822.678 1.187.854.27.129.62.261 1.052.397 1.121.277 1.802.214 2.044-.19l.056-.116c.11-.23.111-.503.001-.816-.139-.35-.573-.925-1.302-1.724l-1.034-1.099c-.591-.591-1.004-1.038-1.238-1.339-1.108-1.289-1.662-2.477-1.66-3.564-.011-.715.117-1.352.385-1.91a3.33 3.33 0 01.912-1.159c.838-.758 2.097-1.088 3.779-.992a8.538 8.538 0 013.119.822c.193.092.472.25.838.473 1.61.984 2.772 2.358 3.488 4.12.237.54.227 1.08-.032 1.618-.24.5-.64.864-1.2 1.092-.54.238-1.07.233-1.589-.016-.404-.194-.743-.522-1.018-.985l-.443-.851c-.216-.388-.387-.648-.513-.779a5.768 5.768 0 00-1.507-1.077c-.48-.23-.917-.38-1.31-.45-.296-.024-.486.05-.569.223-.055.116-.034.244.064.386.078.132.229.334.453.607.272.32.685.743 1.237 1.268.378.346.747.736 1.107 1.17.243.281.52.592.831.93.282.348.556.763.821 1.245a5.22 5.22 0 01.738 2.306c.07.79-.08 1.57-.449 2.34a4.8 4.8 0 01-.306.563c-.746 1.109-1.738 1.77-2.975 1.98-1.219.22-2.509.122-3.871-.294a10.9 10.9 0 01-1.369-.55z" fill="#2E3BC0"/><path d="M132.227 46.614c-.462.56-.99.838-1.584.837a2.285 2.285 0 01-1.553-.558 2.37 2.37 0 01-.879-1.371c-.101-.565.071-1.133.516-1.706.034.026 1.929-2.392 5.684-7.254l5.988-7.749c.367-.471.773-.75 1.218-.836.459-.104.898-.06 1.317.13.433.174.787.45 1.062.825.288.359.439.773.452 1.242.027.453-.144.915-.51 1.386a778.262 778.262 0 00-3.885 5.046l-1.965 2.526-2.162 2.778c-.72.926-1.41 1.795-2.068 2.607l-1.631 2.097z" fill="#6DC37A"/><path d="M139.151 55.668c-.479-.6-.882-1.343-1.208-2.229-.359-1.133-.446-2.25-.262-3.352.214-1.099.66-2.027 1.337-2.786.438-.512.898-.961 1.382-1.347a9.888 9.888 0 013.671-1.864c1.864-.504 3.654-.554 5.371-.15 1.716.406 3.127 1.3 4.232 2.683.4.5.766 1.095 1.099 1.784.206.463.331.978.374 1.544l.099.125.225.23c.333.417.476.903.429 1.46a2.177 2.177 0 01-.641 1.452l-1.587 1.552c-.707.618-1.924 1.658-3.652 3.118l-1.311 1.127a101.04 101.04 0 00-1.567 1.372c-.266.213-.53.396-.79.549a3.046 3.046 0 01-1.691.447c-.559-.017-1.034-.252-1.424-.706a2.273 2.273 0 01-.564-1.269c-.023-.473.188-.995.632-1.568a4.356 4.356 0 01-2.145-.581 7.583 7.583 0 01-2.009-1.59zm3.548-2.788c.399.5.971.89 1.714 1.17.19.067.435.117.735.151l.65.096.94-.054a1.1 1.1 0 01.53.15c1.401-1.117 2.551-2.103 3.452-2.958l-.024-.39-.005-.57-.03-.344c-.146-.32-.279-.555-.399-.705-.48-.6-1.179-.997-2.099-1.19-.907-.178-1.91-.101-3.01.23-.864.253-1.554.585-2.071.998-.901.718-1.173 1.59-.818 2.616.117.317.262.583.435.8z" fill="#B23600"/><path d="M153.301 77.252c-.647.218-1.209.176-1.685-.124-.469-.281-.794-.695-.975-1.243a2.222 2.222 0 01.037-1.55c.199-.506.622-.868 1.269-1.086.52-.193 1.207-.426 2.062-.698.882-.26 1.727-.528 2.534-.805.6-.223 1.279-.51 2.036-.86.778-.357 1.377-.705 1.797-1.043.336-.261.556-.616.662-1.065.126-.457.108-.962-.053-1.517a3.336 3.336 0 00-.79-1.481c-.352-.393-.738-.636-1.16-.73-.29.017-.488.034-.596.05l-.39.146c-.7.26-1.946.734-3.738 1.423-1.812.697-3.188 1.22-4.128 1.569-.56.208-1.062.235-1.506.082a2.294 2.294 0 01-1.051-.805 2.862 2.862 0 01-.469-1.259 2.282 2.282 0 01.269-1.295c.235-.406.633-.713 1.193-.921l1.53-.569c.68-.253 1.446-.549 2.298-.888.86-.32 1.733-.667 2.618-1.041a98.508 98.508 0 002.546-1.05 27.718 27.718 0 002.025-.889c.682-.367 1.304-.439 1.866-.215.581.216.984.624 1.207 1.224.342 1.102.057 1.925-.856 2.469 1.502.488 2.585 1.531 3.248 3.128.509 1.427.551 2.731.126 3.913-.405 1.175-1.153 2.193-2.244 3.053-.407.311-.916.626-1.526.943a20.84 20.84 0 01-1.812.913 28.67 28.67 0 01-1.627.673c-.948.33-1.872.627-2.775.895a49.12 49.12 0 00-1.942.653z" fill="#B437E5"/><path d="M152.982 89.954c-.038-1.215.244-2.398.848-3.548s1.502-2.108 2.694-2.871c1.193-.743 2.61-1.14 4.252-1.192 1.685-.053 3.252.238 4.702.875 1.451.637 2.611 1.55 3.481 2.74a7.11 7.11 0 011.411 4.085 8.706 8.706 0 01-.476 3.152c2.494-.1 3.901-.166 4.22-.198.703-.022 1.254.184 1.652.62.42.435.639.95.658 1.548a2.298 2.298 0 01-.527 1.553c-.37.46-.895.712-1.577.755-10.466.439-16.658.689-18.577.75-.768.024-1.371-.138-1.809-.487-.416-.328-.634-.812-.654-1.452-.019-.576.137-1.06.466-1.456.351-.374.888-.604 1.61-.691a5.48 5.48 0 01-1.686-1.675c-.426-.648-.655-1.484-.688-2.508zm4.28.665c.021.682.263 1.24.725 1.674.396.371 1.025.693 1.888.964.388.137.638.257.748.36 1.832-.1 3.175-.164 4.028-.191l.34-.363c.164-.219.358-.492.582-.82.345-.565.504-1.264.478-2.095-.023-.725-.256-1.348-.7-1.867-.442-.498-1.02-.886-1.734-1.162-.712-.255-1.495-.368-2.348-.341-1.194.037-2.174.41-2.942 1.117-.745.707-1.101 1.615-1.065 2.724z" fill="#0AB625"/></svg>