<svg width="196" height="135" fill="none" xmlns="http://www.w3.org/2000/svg"><path d="M187.078 55.975c-3.857-4.667-8.673-8.088-13.983-10.013-2.081-17.171-15.311-30.455-31.272-30.455-1.354 0-2.699.097-4.033.287C129.96 6.184 118.813.599 107.011.599 96.464.6 86.406 5.01 78.689 13.022 72.739 19.2 68.599 27.075 66.67 35.72 49.6 39.345 36.653 56.113 36.653 76.188c0 22.72 16.575 41.203 36.948 41.203h89.328c18.105 0 32.834-16.427 32.834-36.617-.001-9.219-3.084-18.025-8.685-24.799z" fill="#E9D4F5"/></svg>