<svg width="65" height="65" fill="none" xmlns="http://www.w3.org/2000/svg"><path d="M39.45 27.698c.52-.989 2.572-2.98 2.572-6.75 0-7.683-7.171-9.128-7.553-9.398l-.115-1.216A11.377 11.377 0 0022.98 0c-5.86 0-10.736 4.445-11.343 10.338l-.124 1.209c-.381.268-7.703 1.688-7.703 9.4 0 3.766 2.052 5.765 2.572 6.75C6.015 28.082 0 31.144 0 38.214c0 6.3 5.252 11.299 11.553 11.299h22.851c6.3 0 11.426-5.126 11.426-11.426 0-7.112-5.946-9.933-6.38-10.388z" fill="#0AB625"/><path d="M58.62 27.698c.52-.989 2.571-2.98 2.571-6.75 0-7.683-7.297-9.128-7.679-9.398l-.115-1.216A11.377 11.377 0 0042.022 0c-2.572 0-4.926.893-6.84 2.352 1.398 1.885 2.412 4.084 2.82 6.53 6.772 3.215 7.828 8.826 7.828 12.065 0 2.444-.634 4.38-1.344 5.827 3.459 3.124 5.153 6.892 5.153 11.312 0 4.572-2.066 8.631-5.265 11.426h9.073c6.3 0 11.553-5.126 11.553-11.426 0-7.112-5.947-9.933-6.38-10.388zm-8.981 33.493v-7.87h-7.617v7.87H26.787v-7.87H19.17v7.87h-7.617V65h45.703v-3.809h-7.617z" fill="#0AB625"/></svg>