<svg width="24" height="24" xmlns="http://www.w3.org/2000/svg"><path fill-rule="evenodd" clip-rule="evenodd" d="M17.355 22.232c-2.02-.506-6.156-1.933-9.905-5.682-3.749-3.749-5.176-7.884-5.682-9.905-.29-1.16.233-2.28 1.121-2.915l2.328-1.663a3 3 0 014.21.733l1.466 2.118a2 2 0 01-.481 2.766l-1.17.834c.178.677.728 2.066 2.45 3.79 1.724 1.723 3.113 2.273 3.79 2.45l.835-1.17a2 2 0 012.766-.481l2.117 1.466a3 3 0 01.733 4.21l-1.663 2.328c-.634.888-1.754 1.412-2.915 1.121zm-8.49-7.096c3.409 3.41 7.171 4.704 8.976 5.156.264.066.583-.036.802-.343l1.663-2.329a1 1 0 00-.245-1.403l-2.117-1.466-.896 1.255c-.366.512-1.043.914-1.831.744-.984-.212-2.803-.893-4.938-3.028S7.463 9.768 7.25 8.784c-.17-.789.232-1.466.745-1.832l1.254-.896L7.783 3.94a1 1 0 00-1.403-.245L4.052 5.357c-.307.22-.41.539-.344.802.452 1.805 1.747 5.568 5.156 8.977z"/></svg>