<svg width="65" height="65" fill="none" xmlns="http://www.w3.org/2000/svg"><path d="M37.446 15.844L20.308.483a1.898 1.898 0 00-2.53 0L.64 15.843c-1.305 1.158-.48 3.328 1.264 3.328h34.278c1.744 0 2.57-2.17 1.264-3.327zm-1.264 45.347h-1.905V22.98H3.81v38.212H1.904a1.903 1.903 0 100 3.809h3.81a1.903 1.903 0 001.903-1.904v-9.522h3.81v9.522a1.903 1.903 0 103.808 0V61.19h7.617v1.905a1.903 1.903 0 103.808 0v-9.522h3.81v9.522c0 1.052.85 1.904 1.904 1.904h3.808a1.903 1.903 0 100-3.809zM11.426 49.766H7.617v-3.809h3.809v3.809zm11.426 7.617h-7.617v-3.809h7.617v3.809zm0-7.617h-7.617v-3.809h7.617v3.809zm-3.809-7.744c-4.2 0-7.617-3.416-7.617-7.617 0-4.201 3.416-7.617 7.617-7.617 4.201 0 7.617 3.416 7.617 7.617 0 4.2-3.416 7.617-7.617 7.617zm11.426 7.744H26.66v-3.809h3.809v3.809zm30.722 7.617h-6.72a3.796 3.796 0 01-3.5-2.308L46.768 41.33a11.405 11.405 0 00-8.681-6.771v7.646c1.039.329 1.908 1.215 2.349 2.251l5.194 15.926a7.61 7.61 0 007 4.618h8.561c2.1 0 3.809-1.71 3.809-3.81s-1.709-3.808-3.809-3.808z" fill="#AA0DDA"/></svg>