<?xml version="1.0" encoding="utf-8"?><svg viewBox="0 0 130 52" xmlns="http://www.w3.org/2000/svg" xmlns:xlink="http://www.w3.org/1999/xlink"><style>:root>svg{display:none}:root>svg:target{display:block}</style><svg viewBox="0 0 53 52" id="construction" xmlns="http://www.w3.org/2000/svg"><g clip-path="url(#aa)"><path d="M50.977 27.523c.84 0 1.523-.682 1.523-1.523V14.625c0-.841-.682-1.523-1.523-1.523H28.023V3.25c0-.841-.682-1.523-1.523-1.523H10.25c-.841 0-1.523.682-1.523 1.523v9.852H2.023c-.84 0-1.523.682-1.523 1.523V26c0 .841.682 1.523 1.523 1.523h6.704v8.329H2.023c-.84 0-1.523.682-1.523 1.523V48.75c0 .841.682 1.523 1.523 1.523h48.954c.84 0 1.523-.682 1.523-1.523V37.375c0-.841-.682-1.523-1.523-1.523h-6.704v-8.329h6.704Zm-1.524-3.046H36.148v-8.329h13.305v8.329Zm-16.351 0H19.898v-8.329h13.204v8.329ZM11.773 4.773h13.204v8.329H11.773V4.773ZM3.547 24.477v-8.329h13.305v8.329H3.547Zm8.226 3.046h13.204v8.329H11.773v-8.329ZM3.547 38.898h13.305v8.329H3.547v-8.329Zm16.351 0h13.204v8.329H19.898v-8.329Zm29.555 0v8.329H36.148v-8.329h13.305Zm-8.226-3.046H28.023v-8.329h13.204v8.329Z"/></g><defs><clipPath id="aa"><path transform="translate(.5)" d="M0 0h52v52H0z"/></clipPath></defs></svg><svg viewBox="0 0 24 24" id="left-arrow" xmlns="http://www.w3.org/2000/svg"><path fill-rule="evenodd" clip-rule="evenodd" d="M9.207 17.207a1 1 0 0 1-1.414 0l-4.5-4.5a1 1 0 0 1 0-1.414l4.5-4.5a1 1 0 0 1 1.414 1.414L6.414 11H20a1 1 0 1 1 0 2H6.414l2.793 2.793a1 1 0 0 1 0 1.414Z"/></svg><svg viewBox="0 0 130 22" id="logo" xmlns="http://www.w3.org/2000/svg"><g clip-path="url(#ca)"><path d="M0 11.1C0 5 3.3 1.3 8.7 1.3c4.1 0 7.4 2.5 8 6.2.1.4-.2.7-.6.7h-2.6c-.3 0-.5-.2-.6-.5-.5-1.9-2.1-3.1-4.2-3.1C5.8 4.6 4 7.1 4 11.1s1.8 6.5 4.8 6.5c2.1 0 3.6-1.1 4.2-2.9.1-.3.3-.5.6-.5h2.6c.4 0 .7.4.6.7-.6 3.6-3.8 6-8 6-5.5 0-8.8-3.8-8.8-9.8Zm24.3 9.3h-2.9c-.3 0-.5-.2-.5-.5V2.6c0-.4.4-.8.8-.8h7c4.1 0 6.6 2.3 6.6 5.9 0 2.1-1 4-2.7 5-.4.2-.5.7-.3 1l3.1 5.9c.2.3-.1.7-.4.7h-3.3c-.2 0-.4-.1-.5-.3l-2.9-6c-.1-.3-.4-.4-.7-.4h-2.3c-.3 0-.5.2-.5.5V20c.1.2-.2.4-.5.4Zm.6-10.2c0 .3.2.5.5.5h3c2 0 3.1-1.1 3.1-2.9 0-1.8-1.2-2.9-3.1-2.9h-2.9c-.3 0-.5.2-.5.5v4.8h-.1Zm26.6 10.2h-11c-.4 0-.7-.3-.7-.7V2.5c0-.4.3-.7.7-.7h11c.4 0 .7.3.7.7v1.9c0 .4-.3.7-.7.7h-7.3c-.3 0-.5.2-.5.5V9c0 .3.2.5.5.5H51c.4 0 .7.3.7.7v1.7c0 .4-.3.7-.7.7h-6.8c-.3 0-.5.2-.5.5v3.8c0 .3.2.5.5.5h7.3c.4 0 .7.3.7.7V20c0 .1-.3.4-.7.4ZM67 15.9h-5.7c-.3 0-.5.2-.6.4L59.6 20c-.1.3-.3.4-.6.4h-2.6c-.4 0-.7-.4-.6-.8l6-17.4c.1-.2.3-.4.6-.4h3.7c.3 0 .5.2.6.4l6 17.4c.1.4-.2.8-.6.8h-2.9c-.3 0-.5-.2-.6-.4l-1.1-3.7c0-.2-.3-.4-.5-.4ZM62.1 13h4.1c.2 0 .3-.2.3-.4l-2.2-7h-.2l-2.2 7c-.1.2 0 .4.2.4ZM79 19.7V5.5c0-.3-.2-.5-.5-.5h-4.4c-.4 0-.8-.3-.8-.8V2.5c0-.4.3-.8.8-.8h13.6c.4 0 .8.3.8.8v1.7c0 .4-.3.8-.8.8h-4.4c-.3 0-.5.2-.5.5v14.3c0 .4-.3.7-.7.7h-2.5c-.3-.1-.6-.4-.6-.8Zm24.8.7h-11c-.4 0-.7-.3-.7-.7V2.5c0-.4.3-.7.7-.7h11c.4 0 .7.3.7.7v1.9c0 .4-.3.7-.7.7h-7.3c-.3 0-.5.2-.5.5V9c0 .3.2.5.5.5h6.8c.4 0 .7.3.7.7v1.7c0 .4-.3.7-.7.7h-6.8c-.3 0-.5.2-.5.5v3.8c0 .3.2.5.5.5h7.3c.4 0 .7.3.7.7V20c0 .1-.3.4-.7.4Zm13.9-10.7-6.2-8.1c-.4-.4-.9-.6-1.4-.6-.5 0-1 .2-1.4.6-.7.8-.7 2 0 2.8l4.9 6.6-4.9 6.6c-.7.8-.7 2 0 2.8.4.4.9.6 1.4.6.5 0 1-.2 1.4-.6l6.2-8.1c.7-.6.7-1.8 0-2.6Zm2.643 0 6.2-8.1c.4-.4.9-.6 1.4-.6.5 0 1 .2 1.4.6.7.8.7 2 0 2.8l-4.9 6.6 4.9 6.6c.7.8.7 2 0 2.8-.4.4-.9.6-1.4.6-.5 0-1-.2-1.4-.6l-6.2-8.1c-.7-.6-.7-1.8 0-2.6Z"/></g><defs><clipPath id="ca"><path d="M0 0h130v22H0z"/></clipPath></defs></svg><svg viewBox="0 0 53 52" id="painting" xmlns="http://www.w3.org/2000/svg"><path d="M43.36 4.57c0-2.52-2.05-4.57-4.57-4.57H8.32C5.8 0 3.75 2.05 3.75 4.57v9.14a4.575 4.575 0 0 0 4.57 4.571h30.47c2.52 0 4.57-2.05 4.57-4.57v-1.524h1.523c.84 0 1.523.684 1.523 1.524v6.094c0 .84-.683 1.523-1.523 1.523H26.602c-2.52 0-4.57 2.05-4.57 4.57v4.57h-1.524c-.842 0-1.524.683-1.524 1.524v6.011l-1.523 6.192C16.47 48.157 19.464 52 23.555 52c4.092 0 7.083-3.847 6.095-7.8l-1.525-6.197v-6.01c0-.842-.682-1.524-1.523-1.524h-1.524v-4.57c0-.84.684-1.524 1.524-1.524h18.28c2.52 0 4.571-2.05 4.571-4.57V13.71c0-2.52-2.05-4.57-4.57-4.57h-1.524V4.57ZM25.077 33.516v3.148H22.03v-3.148h3.047Zm-1.523 15.437a3.234 3.234 0 0 1-3.137-4.024l1.284-5.218h3.705l1.285 5.223a3.234 3.234 0 0 1-3.137 4.02ZM8.32 3.047h30.47c.839 0 1.523.683 1.523 1.523v1.524h-4.57c-1.481 0-3.375.554-5.567 1.196-2.961.868-6.317 1.85-9.668 1.85-3.267 0-5.57-.954-7.602-1.795-1.554-.643-3.02-1.251-4.586-1.251H6.797V4.57c0-.84.683-1.523 1.523-1.523ZM40.312 13.71c0 .84-.683 1.523-1.523 1.523H8.32c-.84 0-1.523-.683-1.523-1.523V9.14H8.32c.96 0 2.045.45 3.42 1.019 2.18.903 4.895 2.027 8.768 2.027 3.788 0 7.523-1.094 10.525-1.972 1.885-.553 3.666-1.074 4.71-1.074h4.57v4.57Z"/></svg><svg viewBox="0 0 53 52" id="plan" xmlns="http://www.w3.org/2000/svg"><g clip-path="url(#ea)"><path d="M46.406 3.148a6.097 6.097 0 0 0-5.276 3.047H2.023C1.183 6.195.5 6.877.5 7.72v39.61c0 .84.682 1.523 1.523 1.523h44.383a6.1 6.1 0 0 0 6.094-6.094V9.242a6.1 6.1 0 0 0-6.094-6.094Zm0 42.657H3.546V9.242h36.767v33.516a1.523 1.523 0 0 0 3.046 0 3.05 3.05 0 0 1 3.047-3.047 3.05 3.05 0 0 1 3.047 3.047 3.05 3.05 0 0 1-3.047 3.047Zm3.047-8.323a6.057 6.057 0 0 0-3.047-.818c-1.109 0-2.15.298-3.047.818V9.242a3.05 3.05 0 0 1 3.047-3.047 3.05 3.05 0 0 1 3.047 3.047v28.24Z"/><path d="M35.64 12.29H8.22c-.842 0-1.524.681-1.524 1.523v27.421c0 .842.682 1.524 1.524 1.524h15.234a1.523 1.523 0 0 0 1.524-1.524v-3.047a4.578 4.578 0 0 1 3.046-4.309v7.356c0 .842.683 1.524 1.524 1.524h6.094c.841 0 1.523-.682 1.523-1.524V13.812c0-.84-.682-1.523-1.523-1.523Zm-1.523 27.42H31.07v-7.616c0-.842-.682-1.524-1.523-1.524-4.2 0-7.617 3.417-7.617 7.617v1.524H9.742v-9.14h6.094v4.57a1.524 1.524 0 0 0 3.047 0v-6.094c0-.841-.682-1.524-1.524-1.524H9.742V15.336h9.14v6.094h-4.57a1.523 1.523 0 0 0 0 3.047H26.5a1.523 1.523 0 0 0 0-3.047h-4.57v-6.094h12.187V39.71Z"/></g><defs><clipPath id="ea"><path transform="translate(.5)" d="M0 0h52v52H0z"/></clipPath></defs></svg><svg viewBox="0 0 24 24" id="right-arrow" xmlns="http://www.w3.org/2000/svg"><path fill-rule="evenodd" clip-rule="evenodd" d="M14.793 6.793a1 1 0 0 1 1.414 0l4.5 4.5a1 1 0 0 1 0 1.414l-4.5 4.5a1 1 0 0 1-1.414-1.414L17.586 13H4a1 1 0 1 1 0-2h13.586l-2.793-2.793a1 1 0 0 1 0-1.414Z"/></svg></svg>