<svg width="2678" height="382" viewBox="0 0 2678 382" fill="none" xmlns="http://www.w3.org/2000/svg">
<path d="M2678 85.2655C2668.63 99.0007 2662.82 115.322 2662.02 133.071H2661.93C2647.47 133.071 2633.81 136.817 2622.03 143.506C2615.69 141.99 2609.26 140.831 2602.66 139.939C2580.52 137.263 2558.83 138.958 2538.48 144.398C2514.11 104.085 2472.06 74.9195 2421.54 68.6762C2341.73 58.8653 2268.53 109.882 2248.36 185.336C2244.7 184.445 2241.04 183.731 2237.2 183.285C2233.18 182.839 2229.26 182.572 2225.33 182.572C2210.78 172.047 2193.37 165.001 2174.27 162.682C2113.75 155.279 2058.58 198.269 2051.17 258.829C2051.17 259.186 2051.08 259.542 2051.08 259.899C2031.44 242.953 2006.89 231.358 1979.93 227.523C1945.75 186.585 1894.24 160.452 1836.66 160.452C1780.51 160.452 1730.26 185.247 1696.07 224.402C1670.71 205.672 1639.38 194.612 1605.46 194.612C1550.29 194.612 1502.09 223.866 1475.31 267.659C1469.33 266.588 1463.26 266.053 1457.01 266.053C1434.52 266.053 1413.63 273.01 1396.49 284.872C1365.87 251.069 1321.59 229.842 1272.41 229.842C1267.77 229.842 1263.21 230.021 1258.75 230.377C1238.57 202.639 1205.81 184.712 1168.95 184.712C1144.58 184.712 1122.08 192.561 1103.78 205.85C1087.45 153.228 1038.35 115.055 980.416 115.055C938.371 115.055 900.968 135.212 877.402 166.25C871.421 163.128 864.726 161.344 857.496 161.344C849.64 161.344 842.32 163.485 835.982 167.142C817.95 147.52 792.152 135.301 763.409 135.301C729.755 135.301 699.94 152.158 682.176 177.934C676.731 176.507 671.196 175.258 665.483 174.277C615.047 165.893 566.129 180.699 529.53 210.845C501.232 158.669 448.744 121.477 387.06 114.252C376.527 68.8545 335.732 34.9624 287.082 34.9624C264.408 34.9624 243.43 42.3652 226.47 54.7626C201.296 21.4947 161.483 0 116.582 0C67.4856 0 24.3698 25.7759 0 64.4842V382H2678V85.2655Z" fill="white"/>
</svg>
