<svg width="1920" height="429" viewBox="0 0 1920 429" fill="none" xmlns="http://www.w3.org/2000/svg">
<path d="M2823 95.6C2812.5 111 2806 129.3 2805.1 149.2H2805C2788.8 149.2 2773.5 153.4 2760.3 160.9C2753.2 159.2 2746 157.9 2738.6 156.9C2713.8 153.9 2689.5 155.8 2666.7 161.9C2639.4 116.7 2592.3 84 2535.7 77C2446.3 66 2364.3 123.2 2341.7 207.8C2337.6 206.8 2333.5 206 2329.2 205.5C2324.7 205 2320.3 204.7 2315.9 204.7C2299.6 192.9 2280.1 185 2258.7 182.4C2190.9 174.1 2129.1 222.3 2120.8 290.2C2120.8 290.6 2120.7 291 2120.7 291.4C2098.7 272.4 2071.2 259.4 2041 255.1C2002.7 209.2 1945 179.9 1880.5 179.9C1817.6 179.9 1761.3 207.7 1723 251.6C1694.6 230.6 1659.5 218.2 1621.5 218.2C1559.7 218.2 1505.7 251 1475.7 300.1C1469 298.9 1462.2 298.3 1455.2 298.3C1430 298.3 1406.6 306.1 1387.4 319.4C1353.1 281.5 1303.5 257.7 1248.4 257.7C1243.2 257.7 1238.1 257.9 1233.1 258.3C1210.5 227.2 1173.8 207.1 1132.5 207.1C1105.2 207.1 1080 215.9 1059.5 230.8C1041.2 171.8 986.2 129 921.3 129C874.2 129 832.3 151.6 805.9 186.4C799.2 182.9 791.7 180.9 783.6 180.9C774.8 180.9 766.6 183.3 759.5 187.4C739.3 165.4 710.4 151.7 678.2 151.7C640.5 151.7 607.1 170.6 587.2 199.5C581.1 197.9 574.9 196.5 568.5 195.4C512 186 457.2 202.6 416.2 236.4C384.5 177.9 325.7 136.2 256.6 128.1C244.8 77.2 199.1 39.2 144.6 39.2C119.2 39.2 95.7 47.5 76.7 61.4C48.5 24.1 3.90001 0 -46.4 0C-101.4 0 -149.7 28.9 -177 72.3V428.3H2823V95.6Z" fill="white"/>
</svg>
