<svg width="1920" height="428" viewBox="0 0 1920 428" fill="none" xmlns="http://www.w3.org/2000/svg">
<path d="M1920 95.533C1913.28 110.922 1909.12 129.209 1908.54 149.095H1908.48C1898.11 149.095 1888.32 153.293 1879.87 160.787C1875.33 159.088 1870.72 157.789 1865.98 156.79C1850.11 153.792 1834.56 155.691 1819.97 161.787C1802.5 116.618 1772.35 83.9412 1736.13 76.9461C1678.91 65.9538 1626.43 123.114 1611.97 207.654C1609.34 206.655 1606.72 205.856 1603.97 205.356C1601.09 204.856 1598.27 204.557 1595.46 204.557C1585.02 192.765 1572.54 184.87 1558.85 182.272C1515.46 173.978 1475.9 222.144 1470.59 289.997C1470.59 290.396 1470.53 290.796 1470.53 291.196C1456.45 272.209 1438.85 259.218 1419.52 254.921C1395.01 209.053 1358.08 179.774 1316.8 179.774C1276.54 179.774 1240.51 207.555 1216 251.424C1197.82 230.438 1175.36 218.047 1151.04 218.047C1111.49 218.047 1076.93 250.824 1057.73 299.89C1053.44 298.691 1049.09 298.091 1044.61 298.091C1028.48 298.091 1013.5 305.886 1001.22 319.176C979.264 281.303 947.52 257.52 912.256 257.52C908.928 257.52 905.664 257.719 902.464 258.119C888 227.041 864.512 206.955 838.08 206.955C820.608 206.955 804.48 215.749 791.36 230.638C779.648 171.68 744.448 128.91 702.912 128.91C672.768 128.91 645.952 151.494 629.056 186.269C624.768 182.772 619.968 180.773 614.784 180.773C609.152 180.773 603.904 183.172 599.36 187.269C586.432 165.284 567.936 151.594 547.328 151.594C523.2 151.594 501.824 170.481 489.088 199.36C485.184 197.761 481.216 196.362 477.12 195.263C440.96 185.87 405.888 202.458 379.648 236.234C359.36 177.775 321.728 136.105 277.504 128.01C269.952 77.1459 240.704 39.1725 205.824 39.1725C189.568 39.1725 174.528 47.4667 162.368 61.357C144.32 24.0831 115.776 0 83.584 0C48.384 0 17.472 28.8798 0 72.2494V428H1920V95.533Z" fill="white"/>
</svg>
