<svg width="116" height="126" viewBox="0 0 116 126" fill="none" xmlns="http://www.w3.org/2000/svg">
<path d="M106.046 105.984C108.032 108.823 118.274 120.432 114.38 124.657C112.442 126.72 108.025 124.317 106.023 123.615C101.038 122.017 96.0924 120.223 91.2049 118.134C81.4103 114.055 71.7905 109.093 63.0311 102.875C62.8748 103.15 62.3056 102.935 62.3832 102.543C65.5567 91.1418 71.2756 77.6961 84.254 75.4732C84.489 75.3159 84.8221 75.1779 85.097 75.3342C85.2932 75.373 85.3719 75.4906 85.4506 75.6081C92.2962 85.8314 99.1613 95.9567 106.046 105.984ZM112.552 123.072C115.568 120.712 108.609 112.607 106.858 110.12C104.321 106.458 101.803 102.698 99.1675 99.0161C94.1122 91.5936 89.0375 84.2691 83.9822 76.8466C71.6711 79.3035 67.1856 91.668 63.2457 102.305C70.9229 106.781 78.6196 111.158 86.6678 114.79C90.5938 116.586 94.5586 118.186 98.5622 119.59C101.31 120.643 110.026 125.019 112.552 123.072Z" fill="white"/>
<path d="M106.878 110.022C108.628 112.509 115.489 120.595 112.572 122.974C110.026 125.019 101.31 120.643 98.6603 119.609C94.6761 118.107 90.6132 116.488 86.7659 114.809C78.6196 111.158 71.021 106.8 63.3438 102.325C67.1856 91.668 71.6711 79.3035 84.0997 76.7679C89.155 84.1904 94.2103 91.613 99.285 98.9374C101.822 102.6 104.34 106.36 106.878 110.022Z" fill="#D46269"/>
<path d="M103.556 9.87219C103.811 10.1266 103.733 10.519 103.4 10.657C101.656 11.2293 99.5184 11.214 97.8497 10.3741C97.9284 10.4916 97.9089 10.5897 97.772 10.7665C96.9321 12.4352 95.9747 14.1826 95.1348 15.8513C94.959 16.2242 94.3511 16.2059 94.1344 15.7552C93.4446 14.0897 92.9898 12.2667 92.9274 10.5214C91.3007 11.015 89.4368 10.6462 87.9255 10.0413C87.5525 9.86553 87.6302 9.47314 87.8652 9.31577C89.216 8.15593 90.665 7.01551 92.1139 5.87508C91.4435 4.1114 91.1849 2.32726 91.3576 0.424581C91.3371 0.0127782 91.9645 -0.0669454 92.22 0.187487C93.7917 1.51788 95.2264 3.02506 96.798 4.35545C98.1499 3.70552 99.5999 3.07499 101.05 2.44447C101.285 2.2871 101.638 2.56094 101.58 2.85524C101.662 4.50245 101.234 6.1507 100.158 7.46687C101.434 8.22913 102.495 9.05066 103.556 9.87219ZM102.203 10.0122C101.221 9.3082 100.239 8.60418 99.2567 7.90016C99.0799 7.76324 99.04 7.44953 99.177 7.27275C99.1964 7.17465 99.1964 7.17465 99.3139 7.09596C100.234 6.05467 100.682 4.81823 100.738 3.50413C99.5233 3.97729 98.2102 4.43103 96.9952 4.90418C96.8583 5.08096 96.6427 5.14024 96.3678 4.9839C95.0711 3.80984 93.7549 2.73388 92.3406 1.6385C92.3632 3.07011 92.6013 4.44244 93.0356 5.85359C93.1736 6.18671 92.8211 6.42277 92.5268 6.36453C91.3915 7.4651 90.1776 8.44815 88.9443 9.5293C89.6115 9.76328 90.3176 9.80107 91.0237 9.83885C91.8473 9.79796 92.6117 9.54145 93.3372 9.48114C93.6315 9.53937 93.8675 9.8919 93.7112 10.1668C93.9493 11.5391 94.2856 12.9309 94.7393 14.2439C95.4229 12.8501 96.087 11.5544 96.8687 10.18C97.025 9.90509 97.3387 9.86523 97.633 9.92346C97.6524 9.82537 97.7894 9.64858 97.8875 9.66799C99.3201 10.1554 100.713 10.329 102.203 10.0122Z" fill="white"/>
<path d="M99.2567 7.90016C100.239 8.60418 101.221 9.3082 102.203 10.0122C100.713 10.329 99.4182 10.1748 97.868 9.76609C97.6719 9.72727 97.6524 9.82537 97.6136 10.0216C97.3387 9.86523 97.025 9.90509 96.8493 10.2781C96.087 11.5544 95.4035 12.9482 94.7199 14.342C94.2661 13.029 93.9299 11.6372 93.6918 10.2649C93.8675 9.8919 93.6315 9.53937 93.3372 9.48114C92.5136 9.52204 91.8667 9.69986 91.0431 9.74076C90.337 9.70297 89.6309 9.66518 88.9637 9.4312C90.1776 8.44815 91.4109 7.367 92.5462 6.26644C92.8405 6.32467 93.0949 6.0692 93.055 5.7555C92.6207 4.34434 92.3826 2.97201 92.36 1.5404C93.6568 2.71447 95.0711 3.80984 96.3872 4.8858C96.564 5.02273 96.8777 4.98286 96.9166 4.78667C98.2296 4.33293 99.4446 3.85978 100.66 3.38662C100.682 4.81823 100.234 6.05467 99.3139 7.09596C99.2945 7.19406 99.2945 7.19406 99.177 7.27275C99.04 7.44953 99.0799 7.76324 99.2567 7.90016Z" fill="#F9CB5F"/>
<path d="M80.7195 44.3959C86.4102 46.0317 92.0173 54.7867 86.1827 59.5446C79.9956 64.5386 73.4515 57.9428 70.9499 52.5547C70.8906 52.339 70.91 52.241 71.0275 52.1623C69.4427 53.9894 68.4475 56.4429 68.374 58.8749C68.1698 64.543 72.1398 68.6926 76.7147 71.3309C77.0877 71.5066 76.8731 72.0758 76.5594 72.1157C76.7362 72.2526 76.7954 72.4682 76.7372 72.7625C76.5032 73.4298 76.0536 74.1563 75.4467 74.6478C75.2117 74.8052 75.0747 74.982 74.8591 75.0413C74.899 75.355 74.6446 75.6105 74.2716 75.4347L74.1735 75.4153C73.9579 75.4746 73.7423 75.5338 73.5072 75.6912C73.2916 75.7505 73.2324 75.5349 73.3499 75.4562C73.4674 75.3775 73.4868 75.2794 73.6043 75.2007C66.6352 71.7829 62.4025 63.8095 63.936 56.0598C64.5572 52.9207 66.2575 49.9951 68.5279 47.794C63.5573 33.7621 71.331 18.1747 85.0481 12.7339C84.9101 12.4008 85.3607 12.1842 85.6162 12.4386C85.6162 12.4386 85.6162 12.4386 85.6949 12.5561C86.1455 12.3395 86.4408 12.9076 86.2651 13.2806C86.914 14.1226 87.5629 14.9645 88.1924 15.9046C88.2711 16.0221 88.2322 16.2183 88.2128 16.3164C88.7033 16.4135 88.8617 17.1584 88.313 17.3556C75.3571 21.0102 70.5364 32.4928 72.3077 45.1779C74.7958 43.9373 77.7173 43.598 80.7195 44.3959ZM76.1972 57.9764C81.0685 61.6927 89.1818 58.8129 86.814 51.7183C84.3082 44.2906 74.5209 43.781 69.4711 48.6942C61.2895 56.5555 65.8064 69.2743 74.4657 74.4537C75.0134 73.7466 75.5805 72.9414 75.932 72.1954C76.0689 72.0186 76.1864 71.9399 76.2845 71.9593C69.8856 69.266 65.3801 62.1561 67.8762 55.2085C69.7675 49.7722 76.4073 45.5814 81.5341 49.5521C81.7108 49.6891 81.5545 49.964 81.4564 49.9445C82.7726 51.0205 83.8149 52.45 83.5636 54.2352C83.3123 56.0204 81.5507 57.7106 79.6469 57.028C79.5488 57.0086 79.5488 57.0086 79.4702 56.8911C76.2728 56.5642 73.0314 53.884 72.9853 50.5109C73.0047 50.4128 73.0047 50.4128 73.0241 50.3147C72.3191 50.7868 71.6927 51.3764 71.0469 52.0642C71.2819 51.9068 71.5957 51.8669 71.753 52.102C72.9538 54.2764 74.2526 56.4703 76.1972 57.9764ZM80.0178 56.184C81.9205 56.3566 83.113 54.4518 82.6388 52.727C82.2044 51.3158 81.1039 50.1806 80.0432 49.3591C77.7471 48.5989 75.5317 48.976 73.6904 50.0388C73.7885 50.0582 73.9847 50.097 74.0439 50.3126C74.8738 53.3311 76.7612 55.6415 79.8022 56.2432C79.8216 56.1452 79.9197 56.1646 80.0178 56.184ZM87.7223 16.2194C86.9948 15.2599 86.4634 14.3392 85.932 13.4185C72.314 19.3886 66.3203 32.6779 69.5068 46.9683C70.2313 46.3981 70.9364 45.9259 71.7395 45.4732C66.8312 33.1867 75.8057 19.7737 87.7223 16.2194Z" fill="white"/>
<path d="M86.814 51.7183C89.2799 58.8323 81.1666 61.7121 76.1972 57.9764C74.2526 56.4703 72.9538 54.2764 71.8511 52.1214C71.6938 51.8863 71.2819 51.9068 71.145 52.0836C71.6927 51.3764 72.4172 50.8062 73.1222 50.3341C73.1028 50.4322 73.1028 50.4322 73.0834 50.5303C73.1295 53.9034 76.3515 56.6817 79.5682 56.9105C79.6663 56.9299 79.6469 57.028 79.745 57.0474C81.5507 57.7106 83.3123 56.0204 83.6617 54.2546C83.913 52.4694 82.8707 51.0399 81.5545 49.964C81.7701 49.9047 81.8089 49.7085 81.6321 49.5716C76.486 45.6989 69.8656 49.7916 67.9743 55.2279C65.4782 62.1755 70.1012 69.2067 76.3826 71.9788C76.1864 71.9399 76.0689 72.0186 76.0301 72.2148C75.6786 72.9608 75.1115 73.766 74.5638 74.4731C65.9045 69.2937 61.4857 56.5943 69.5692 48.7136C74.5404 43.6829 84.2295 44.1731 86.814 51.7183Z" fill="#80BDC4"/>
<path d="M87.6242 16.1999C75.7863 19.8718 66.8312 33.1867 71.7395 45.4732C70.9364 45.9259 70.2313 46.3981 69.5068 46.9683C66.3203 32.6779 72.314 19.3886 85.8339 13.3991C86.4634 14.3392 86.9948 15.2599 87.6242 16.1999Z" fill="#80BDC4"/>
<path d="M63.1213 79.7523C63.3574 80.1049 62.7698 80.4983 62.5338 80.1458C62.4551 80.0283 62.3764 79.9108 62.1996 79.7738C51.994 66.4391 39.2473 57.1887 23.4289 51.6119C23.3329 52.6123 23.1194 53.6914 23.0233 54.6918C37.1934 59.8404 49.7645 69.4638 59.5347 80.8775C60.2203 80.5035 60.9847 80.247 61.6703 79.873C61.8859 79.8137 61.984 79.8331 62.0821 79.8525C62.3376 80.1069 62.3386 80.6169 61.9074 80.7354C61.1237 81.09 60.2418 81.4252 59.4581 81.7798C59.3406 81.8585 59.2425 81.8391 59.125 81.9178C58.9093 81.977 58.6937 82.0363 58.5762 82.115C58.1256 82.3316 57.8497 81.6654 58.3003 81.4488C48.4514 69.9175 36.5109 61.7442 22.7699 55.4572C22.4961 55.8107 21.7307 55.5573 21.9453 54.9882C22.1977 53.7129 22.5287 52.5551 22.8791 51.2993C22.4275 51.006 22.7984 50.162 23.387 50.2784C39.3994 54.8742 54.0714 65.7288 63.1213 79.7523Z" fill="white"/>
<path d="M62.1996 79.7738L62.0627 79.9506C61.984 79.8331 61.7878 79.7943 61.6509 79.9711C60.9652 80.3451 60.2009 80.6016 59.5153 80.9756C49.7645 69.4638 37.1934 59.8404 23.0233 54.6918C23.2175 53.7108 23.3329 52.6123 23.4289 51.6119C39.2473 57.1887 51.994 66.4391 62.1996 79.7738Z" fill="#EB5C55"/>
<path d="M58.8902 91.8613C59.067 91.9983 58.9107 92.2731 58.7145 92.2343C58.6951 92.3324 58.6951 92.3324 58.6757 92.4305C57.5987 93.2368 56.8752 94.3169 56.2499 95.4164C55.9372 95.9662 55.1913 95.6147 55.2883 95.1242C49.8306 92.3112 44.5905 90.4588 38.5881 89.8827C44.144 92.715 50.5297 98.5659 45.8355 104.773C41.2783 110.803 32.5639 107.447 29.6494 101.57C28.1922 98.631 28.1073 95.4541 28.9839 92.5694C28.7683 92.6287 28.474 92.5704 28.2584 92.6297C22.1652 95.6034 18.0555 99.8872 15.5777 106.227C15.9313 106.501 15.5205 107.031 15.1475 106.855C14.0674 106.132 13.0067 105.31 12.0441 104.508C12.0441 104.508 11.946 104.489 11.9654 104.391C11.711 104.646 11.0437 104.412 11.2195 104.039C13.3191 94.9743 22.1108 88.1511 31.3871 88.1519C32.4437 86.9338 33.677 85.8526 35.2445 85.1434C42.8071 81.4411 53.0748 86.7349 58.8902 91.8613ZM55.6398 94.3782C56.2652 93.2787 57.2441 92.453 58.3609 91.9605C50.6826 86.9751 36.3715 79.9637 30.7271 91.4872C27.6414 97.8084 31.9763 107.841 40.1327 106.804C47.8578 105.887 47.1341 97.1804 42.5765 93.4242C40.7494 91.8394 38.5902 90.9025 36.431 89.9655C36.0397 90.3977 35.727 90.9475 35.4338 91.3992C38.8887 93.0003 42.9935 95.9533 43.6292 99.9528C44.0656 102.384 42.1886 105.172 39.7361 104.687C39.638 104.668 39.6186 104.766 39.5205 104.746C32.8488 102.916 30.9091 94.1736 35.7832 89.6334C35.7045 89.5159 35.6064 89.4965 35.6258 89.3984C35.4684 89.1634 35.5655 88.6729 35.9773 88.6524C42.8216 88.5797 50.0032 90.4086 55.6398 94.3782ZM40.01 104.334C42.3439 104.388 43.2399 101.405 42.589 99.5431C42.1945 98.4456 41.4863 97.388 40.6412 96.5072C39.0492 94.765 37.0851 93.357 34.9259 92.42C33.0326 96.8365 34.729 101.657 39.7739 103.981C39.8526 104.099 39.9313 104.216 40.01 104.334ZM29.0616 92.177C29.4713 91.1367 29.9791 90.1159 30.6637 89.232C21.88 90.3481 15.2627 95.9705 12.1024 104.214C12.1024 104.214 12.2004 104.233 12.2985 104.253C13.2019 104.839 14.1052 105.426 15.0085 106.012C16.7608 99.7329 21.829 94.2117 27.9631 92.0616C28.1787 92.0023 28.4536 92.1586 28.4147 92.3548C28.6497 92.1974 28.8654 92.1382 29.0616 92.177Z" fill="white"/>
<path d="M58.3415 92.0586C57.2246 92.5511 56.2457 93.3768 55.6204 94.4763C50.0032 90.4086 42.8216 88.5797 35.9579 88.7505C35.5461 88.771 35.449 89.2615 35.6064 89.4965C35.587 89.5946 35.6851 89.614 35.7638 89.7315C30.811 94.1542 32.8294 103.015 39.5011 104.844C39.5992 104.864 39.5992 104.864 39.7167 104.785C42.1692 105.271 44.0462 102.482 43.6098 100.051C42.9741 96.0514 38.7712 93.079 35.4143 91.4973C35.7076 91.0456 36.0203 90.4958 36.4116 90.0636C38.5708 91.0006 40.73 91.9375 42.5571 93.5224C47.0952 97.3766 47.8384 105.985 40.1133 106.902C31.9569 107.939 27.6219 97.9065 30.7077 91.5853C36.254 80.0424 50.5651 87.0538 58.3415 92.0586Z" fill="#DD8488"/>
<path d="M30.6831 89.1339C29.9985 90.0178 29.4907 91.0386 29.081 92.0789C28.8654 92.1382 28.6497 92.1974 28.4341 92.2567C28.3749 92.0411 28.1981 91.9042 27.9825 91.9635C21.8484 94.1136 16.7608 99.7329 15.0279 105.914C14.1246 105.328 13.2213 104.741 12.318 104.155C12.2199 104.135 12.2199 104.135 12.1218 104.116C15.184 95.853 21.8994 90.25 30.6831 89.1339Z" fill="#DD8488"/>
<path d="M19.4274 118.712C19.6829 118.966 19.3702 119.516 19.0565 119.556C16.88 119.737 14.5461 119.682 12.3879 119.255C12.3685 119.353 12.3685 119.353 12.3491 119.452C11.6471 121.453 10.2973 123.123 8.71147 124.44C8.45704 124.696 7.94714 124.697 7.73049 124.246C7.07952 122.384 6.85976 120.404 7.13049 118.521C5.26871 119.172 3.30779 119.293 1.32642 119.003C0.934032 118.926 0.638704 118.358 1.01064 118.023C2.53723 116.491 4.08324 114.86 5.78661 113.464C5.90412 113.385 5.90412 113.385 6.00222 113.405C5.33183 111.641 5.17135 109.876 5.34398 107.973C5.32353 107.562 5.95094 107.482 6.22582 107.638C7.73819 108.753 8.99612 110.123 10.1171 111.67C11.7623 110.569 13.4667 109.683 15.3091 109.13C15.7403 109.011 16.0938 109.285 15.9968 109.776C15.6668 111.443 15.4155 113.228 15.0854 114.896C16.7153 115.932 18.0908 117.224 19.4274 118.712ZM17.8384 118.499C16.6397 117.344 15.4217 116.288 13.988 115.291C13.7131 115.134 13.6927 114.722 13.9277 114.565C14.1208 113.074 14.4906 111.72 14.6837 110.229C13.2532 110.762 11.8226 111.294 10.4513 112.042C10.7466 112.61 9.94346 113.063 9.53062 112.574C8.56698 111.262 7.46642 110.126 6.26776 108.972C6.2116 110.286 6.44973 111.658 6.78596 113.05C6.82582 113.364 6.57139 113.619 6.2771 113.561C6.25769 113.659 6.23827 113.757 6.23827 113.757C5.1429 115.171 3.87074 116.449 2.59858 117.726C4.01077 117.802 5.46179 117.681 6.85353 117.345C7.16724 117.305 7.44212 117.461 7.48198 117.775C7.67818 117.814 7.75686 117.931 7.81614 118.147C7.79984 119.775 7.99915 121.343 8.39465 122.951C9.5493 121.752 10.4291 120.397 11.1515 118.807C11.3078 118.532 11.6215 118.492 11.8177 118.531C11.9352 118.452 12.0527 118.374 12.1508 118.393C14.2497 118.604 16.0737 118.66 17.8384 118.499Z" fill="white"/>
<path d="M14.0667 115.408C15.4023 116.386 16.7184 117.462 17.9171 118.617C16.1524 118.777 14.3478 118.624 12.5432 118.471C12.347 118.432 12.2295 118.51 12.2101 118.609C11.9352 118.452 11.7196 118.512 11.5439 118.884C10.8215 120.474 9.94169 121.829 8.78704 123.028C8.37213 121.519 8.17282 119.95 8.20853 118.224C8.24736 118.028 8.07057 117.891 7.87438 117.853C7.8151 117.637 7.55963 117.382 7.24593 117.422C5.85418 117.759 4.40317 117.879 2.99097 117.804C4.26313 116.526 5.43719 115.23 6.63067 113.835C6.65008 113.737 6.65008 113.737 6.66949 113.638C6.86568 113.677 7.21821 113.441 7.17835 113.128C6.84212 111.736 6.68268 110.481 6.66015 109.049C7.87822 110.106 8.86128 111.32 9.92302 112.651C10.3164 113.239 11.139 112.688 10.8437 112.12C12.215 111.372 13.665 110.741 15.0761 110.307C14.7849 111.778 14.5132 113.152 14.3201 114.643C13.7714 114.84 13.8112 115.154 14.0667 115.408Z" fill="#F9CB5F"/>
<path d="M21.5405 48.7917C22.0115 48.9869 21.8951 49.5755 21.4638 49.694C19.4651 50.5218 17.3489 51.4282 15.3696 52.1579L15.4483 52.2754C15.6885 54.6675 15.9481 56.9615 16.1883 59.3537C16.1894 59.8636 15.6407 60.0608 15.2871 59.787C13.5193 58.4177 12.2409 56.6357 11.5306 54.5583C9.53296 55.8959 7.10304 56.8422 4.77019 57.2981C4.33897 57.4166 3.90672 57.0253 4.10188 56.5542C5.09811 54.6106 6.29055 52.7058 7.64036 51.0361C7.64036 51.0361 7.65977 50.938 7.75787 50.9574C6.44066 49.3716 5.26037 47.6089 3.98199 45.8269C3.74593 45.4743 4.0586 44.9246 4.54909 45.0216C6.21675 45.3516 7.80573 45.5641 9.47339 45.8941C9.57149 45.9135 9.76768 45.9524 9.86578 45.9718C10.8814 43.9301 12.172 42.0447 13.6587 40.1982C13.9131 39.9428 14.4036 40.0398 14.4435 40.3535C15.0158 42.0978 15.5686 43.9402 15.5135 45.7642C15.4941 45.8623 15.4553 46.0585 15.3378 46.1371C15.4359 46.1566 15.534 46.176 15.6321 46.1954C17.6339 46.8973 19.5775 47.8936 21.5405 48.7917ZM15.0743 51.5897C16.7593 50.8018 18.3268 50.0926 20.0118 49.3047C18.4218 48.5823 16.7142 47.9386 15.2417 47.1375C14.8688 46.9618 14.9464 46.5694 15.1814 46.412C14.9658 46.4713 14.6909 46.315 14.6511 46.0013C14.4324 44.5308 14.3117 43.0798 13.8774 41.6687C12.5664 43.1422 11.5303 44.7721 10.4942 46.4019C10.4748 46.5 10.3573 46.5787 10.2592 46.5593C10.2991 46.873 10.0252 47.2266 9.63284 47.1489C8.25947 46.8772 6.86669 46.7035 5.49332 46.4317C6.41813 47.94 7.34295 49.4482 8.26777 50.9564C8.34645 51.0739 8.30763 51.2701 8.19012 51.3488C8.26881 51.4663 8.34749 51.5838 8.21057 51.7606C7.21329 53.1943 6.2947 54.7455 5.47421 56.3161C7.41468 55.7826 9.09967 54.9947 10.8235 54.0106C11.1566 53.8726 11.4315 54.029 11.5889 54.264C11.7064 54.1853 11.8832 54.3222 11.9618 54.4397C12.6711 56.0072 13.6347 57.3193 14.8334 58.4739C14.5942 56.5917 14.3744 54.6113 14.1353 52.7291C14.1148 52.3173 14.3498 52.1599 14.6441 52.2182C14.8393 51.7471 14.8587 51.649 15.0743 51.5897Z" fill="white"/>
<path d="M20.0118 49.3047C18.3462 49.9945 16.7593 50.8018 15.0743 51.5897C14.9568 51.6684 14.8393 51.7471 14.8005 51.9433C14.5062 51.8851 14.2517 52.1405 14.2916 52.4542C14.5114 54.4346 14.7505 56.3168 14.9897 58.199C13.791 57.0444 12.8274 55.7324 12.1182 54.1649C12.0589 53.9493 11.8627 53.9104 11.7452 53.9891C11.5878 53.7541 11.3129 53.5978 10.9798 53.7357C9.25601 54.7198 7.47291 55.4883 5.63054 56.0412C6.45103 54.4706 7.35021 53.0175 8.3669 51.4857C8.50382 51.3089 8.42514 51.1914 8.34645 51.0739C8.46396 50.9952 8.50279 50.799 8.4241 50.6815C7.49928 49.1733 6.57447 47.6651 5.64965 46.1569C7.02302 46.4286 8.39639 46.7004 9.78917 46.8741C10.1816 46.9517 10.3573 46.5787 10.4155 46.2844C10.5136 46.3039 10.5331 46.2058 10.6506 46.1271C11.5886 44.4778 12.7228 42.8673 14.0337 41.3938C14.4681 42.8049 14.5887 44.2559 14.8074 45.7264C14.8473 46.0401 15.1222 46.1964 15.3378 46.1371C14.9464 46.5694 14.8882 46.8637 15.2612 47.0394C16.7142 47.9386 18.4218 48.5823 20.0118 49.3047Z" fill="#F09C26"/>
</svg>
