<svg width="51" height="54" viewBox="0 0 51 54" fill="none" xmlns="http://www.w3.org/2000/svg">
<path d="M49.9133 44.4513C48.2133 42.7513 46.9133 40.7513 45.4133 38.8513C45.1133 38.4513 44.6133 38.5513 44.3133 38.7513C44.0133 38.4513 43.6133 38.2513 43.1133 38.6513C36.0133 43.8513 29.2133 43.6513 23.4133 37.4513C23.6133 37.3513 23.8133 37.3513 24.1133 37.2513C31.6133 35.0513 42.7133 25.3513 37.0133 16.7513C30.5133 6.95133 17.0133 15.9513 13.5133 23.7513C10.0133 18.6513 17.2133 8.55133 21.2133 6.05133C21.3133 5.95133 21.4133 5.85133 21.4133 5.75133C21.9133 5.45133 22.1133 4.85133 21.7133 4.15133C21.1133 3.45133 20.3133 2.75133 19.6133 2.15133C19.1133 1.65133 18.5133 0.951334 17.8133 0.951334C17.8133 0.951334 17.8133 0.951334 17.7133 0.951334C17.2133 0.651334 16.7133 1.25133 16.9133 1.75133C16.9133 1.75133 16.9133 1.75133 16.9133 1.85133C16.9133 2.55133 17.6133 3.15133 18.1133 3.65133C18.6133 4.25133 19.2133 4.85133 19.7133 5.35133C13.0133 8.15133 4.51326 24.6513 14.0133 27.3513C14.1133 27.3513 14.3133 27.3513 14.4133 27.3513C19.4133 30.8513 28.0133 28.6513 29.2133 21.8513C29.3133 21.0513 28.6133 20.4513 27.9133 20.5513C24.1133 18.4513 18.4133 22.7513 18.7133 26.9513C17.2133 26.7513 15.8133 26.1513 14.6133 25.1513C14.7133 25.0513 14.8133 24.9513 14.8133 24.8513C16.7133 21.1513 19.4133 18.0513 23.2133 16.3513C30.1133 13.1513 38.5133 17.5513 34.1133 26.0513C31.0133 31.9513 24.3133 35.5513 17.7133 35.4513C10.0133 35.3513 2.11326 29.5513 2.41326 21.2513C2.71326 12.8513 9.51326 5.25133 16.4133 1.15133C17.0133 0.851334 16.6133 -0.248666 15.9133 0.0513339C6.71326 3.65133 -2.48674 15.4513 0.613261 26.0513C2.31326 31.8513 7.01326 35.6513 12.4133 37.2513C15.8133 52.7513 38.9133 58.4513 49.8133 47.3513C50.1133 47.0513 50.1133 46.6513 49.9133 46.2513C50.3133 45.6513 50.5133 44.9513 49.9133 44.4513ZM23.6133 22.9513C24.7133 22.2513 25.8133 21.9513 27.0133 21.8513C25.7133 24.1513 24.2133 26.0513 21.4133 26.6513C21.3133 26.6513 21.1133 26.6513 21.0133 26.7513C21.6133 25.1513 22.1133 23.9513 23.6133 22.9513ZM27.9133 49.7513C21.5133 47.7513 17.4133 43.0513 14.0133 37.5513C16.5133 38.0513 19.1133 38.1513 21.6133 37.7513C26.2133 45.4513 38.1133 47.7513 44.2133 40.4513C45.0133 42.5513 46.4133 44.4513 47.9133 46.1513C41.6133 49.8513 35.4133 52.0513 27.9133 49.7513Z" fill="white"/>
<path d="M31.3133 17.1513C26.5133 11.9513 18.3133 20.1513 16.7133 24.4513C16.1133 26.0513 18.7133 26.7513 19.3133 25.1513C20.4133 22.2513 22.5133 19.8513 25.6133 18.9513C29.6133 17.7513 29.8133 21.4513 28.8133 24.2513C26.6133 30.2513 20.9133 31.4513 15.2133 29.7513C8.81326 27.8513 6.11326 23.5513 8.31326 17.0513C9.91326 12.3513 13.5133 9.55133 15.7133 5.35133C16.0133 4.85133 15.5133 3.95133 14.8133 4.25133C8.51326 6.85133 2.71326 18.6513 5.11326 25.2513C7.61326 31.9513 18.6133 34.8513 24.7133 32.5513C29.2133 30.7513 35.5133 21.6513 31.3133 17.1513Z" fill="#D46269"/>
<path d="M42.1133 45.2513C33.7133 46.8513 26.6133 44.5513 19.9133 39.5513C18.9133 38.8513 17.9133 40.3513 18.7133 41.1513C24.7133 47.5513 34.5133 49.8513 42.9133 47.7513C44.5133 47.3513 43.8133 44.9513 42.1133 45.2513Z" fill="#D46269"/>
</svg>
