<svg width="43" height="36" viewBox="0 0 43 36" fill="none" xmlns="http://www.w3.org/2000/svg">
<path d="M31.6842 33.0556C34.594 32.7315 37.5038 31.7593 40.4135 29.8148C40.7368 29.1667 41.3835 28.8426 42.0301 28.5185C42.3534 28.1944 42.6767 28.5185 42.6767 28.8426C42.6767 29.1667 43 29.4907 43 29.8148C43 30.1389 42.6767 30.463 42.6767 30.463C38.4737 33.7037 33.9474 35.9722 28.7744 34.6759C24.8947 34.0278 22.3083 31.4352 20.3684 27.8704C19.7218 27.2222 19.7218 26.5741 19.3985 25.9259C19.0752 25.2778 18.7519 24.9537 18.1053 24.9537C11.6391 24.6296 7.7594 18.4722 7.43609 12.3148V11.9907C7.7594 10.0463 7.11278 8.75 5.17293 7.77778C3.23308 6.80556 1.61654 5.18518 0.646617 2.91667C0.323308 2.26852 0 1.62037 0 0.648148C0 0.324074 0.323308 0 0.646617 0C0.969925 0 1.29323 0 1.61654 0.324074C1.93985 0.972222 2.26316 1.62037 2.58647 2.26852C3.55639 4.21296 5.17293 5.50926 7.11278 6.80556C7.43609 6.80556 8.08271 6.80556 8.40601 6.48148C9.05263 5.83333 9.37594 5.18518 10.0226 4.53704C10.6692 3.88889 11.3158 3.56481 12.2857 3.24074C13.5789 3.24074 14.5489 4.21296 14.5489 5.50926C14.5489 6.80556 13.9023 8.10185 12.9323 8.75C12.609 9.07407 11.9624 9.39815 11.3158 9.39815C9.37594 10.3704 9.37594 10.3704 9.37594 12.6389C9.69925 17.5 12.609 21.713 16.812 22.6852C17.1353 22.6852 17.1353 22.6852 17.4586 22.6852C18.4286 23.0093 18.7519 22.6852 19.0752 21.713C19.0752 21.0648 19.3985 20.4167 19.3985 19.4444C19.7218 17.1759 20.6917 14.9074 22.3083 12.963C22.9549 12.963 23.2782 12.3148 23.9248 11.9907C26.5113 10.3704 29.0977 11.6667 29.4211 14.5833C29.4211 15.5556 29.4211 16.5278 29.0977 17.1759C27.8045 20.0926 26.188 22.037 23.6015 23.3333C23.2782 23.6574 22.6316 23.9815 21.985 24.3056C21.3383 24.6296 21.3383 25.2778 21.3383 25.9259C22.6316 29.8148 26.8346 33.0556 31.6842 33.0556ZM21.3383 20.4167C21.3383 21.713 21.3383 22.037 21.6617 22.3611C21.985 22.3611 22.3083 22.3611 22.6316 22.037C24.8947 20.7407 26.188 19.1204 27.1579 16.8519C27.4812 16.2037 27.4812 15.5556 27.4812 14.9074C27.1579 13.287 26.188 12.963 24.8947 13.6111C22.6316 15.5556 21.6617 18.1481 21.3383 20.4167Z" fill="#DD8088"/>
</svg>
