<svg width="67" height="86" viewBox="0 0 67 86" fill="none" xmlns="http://www.w3.org/2000/svg">
<path d="M18.6214 4.63258C17.0545 3.485 15.5502 2.16176 14.224 0.782761C13.878 0.423023 13.2864 0.530328 13.0433 0.87956C12.0708 2.27649 11.156 3.73338 10.2413 5.19027C10.2537 4.60121 10.206 4.07 10.2185 3.48095C10.1807 2.4785 10.2758 0.771278 9.22536 0.281124C8.23261 -0.149077 7.3253 0.954376 6.66359 1.59078C5.28002 2.92145 3.77863 4.25002 2.39506 5.5807C2.03413 5.92783 2.07933 6.57684 2.54563 6.82087C4.00218 7.61291 5.45623 8.52276 6.91278 9.3148C4.85219 9.21913 2.8393 9.65466 0.82391 10.208C0.46796 10.3195 0.104538 10.7844 0.214882 11.14C0.824273 12.9776 1.55148 14.8174 2.22103 16.5971C2.44421 17.1904 3.32163 17.5007 3.69003 16.8001C4.74008 14.5207 6.19377 12.6609 8.05609 10.9852C10.8578 23.41 13.8375 35.7791 17.1731 48.0367C20.4461 60.47 23.5386 73.0768 28.2404 84.8284C28.2981 84.8884 28.2981 84.8884 28.3557 84.9483C28.2255 85.5353 28.9199 86.137 29.4613 85.6163C39.4496 75.8945 50.9122 68.9097 64.7017 66.1502C65.945 65.8778 65.5136 63.9844 64.2126 64.1969C59.2995 65.2289 54.4941 66.7343 49.8543 68.7729C42.0658 69.2233 34.137 70.7319 26.6646 72.9558C25.837 70.2893 25.0696 67.5649 24.242 64.8984C36.1115 63.7547 48.3444 62.1461 59.8953 59.3467C60.0131 59.3488 60.0733 59.291 60.1334 59.2331C61.6904 60.8519 63.2473 62.4708 64.8042 64.0896C65.6692 64.9889 67.1129 63.6004 66.2479 62.7011C56.3322 52.2707 46.1759 42.0719 35.7814 31.9866C30.6995 27.0638 25.5575 22.199 20.4154 17.3341C17.7579 14.8117 14.7166 10.9272 11.0389 9.27053C11.1568 9.27263 11.2169 9.21478 11.3347 9.21688C13.716 8.08078 15.9219 6.88263 18.5313 6.10417C19.1254 5.87905 19.2607 5.05647 18.6214 4.63258ZM3.08563 14.7269C2.69444 13.7181 2.30324 12.7094 1.91205 11.7006C3.33585 11.2546 4.697 10.9842 6.17597 10.7159C4.97286 11.873 3.94275 13.21 3.08563 14.7269ZM45.9841 70.6486C39.7853 73.9558 34.1556 78.2161 29.5663 83.4378C28.7487 80.3 27.8734 77.1023 26.938 73.9624C33.2749 72.4844 39.5443 71.4176 45.9841 70.6486ZM6.07237 4.46771C6.37315 4.17844 8.30559 1.97363 8.59889 2.03779C8.71671 2.03989 8.59676 4.92523 8.59178 5.16085C8.56936 6.22116 8.36896 7.33722 8.28639 8.45538C8.28389 8.57319 8.2839 8.57319 8.34156 8.63315C8.22374 8.63104 8.16359 8.6889 8.10343 8.74675C6.82735 7.78115 5.48862 6.99121 4.21005 6.14342C4.75144 5.62272 5.41315 4.98631 6.07237 4.46771ZM9.88354 10.9588C12.571 12.0675 15.1559 15.2368 17.0613 17.0975C17.2343 17.2774 17.4073 17.4572 17.5803 17.6371C15.6225 18.2504 13.4819 19.1551 11.9228 20.4237C11.3408 17.2901 10.5833 14.0945 9.88354 10.9588ZM12.3165 21.3146C13.3868 20.8623 14.3443 20.1722 15.4748 19.662C16.5452 19.2097 17.613 18.8752 18.7987 18.5428C20.6489 20.2257 22.439 21.9666 24.2892 23.6496C24.6352 24.0093 24.9812 24.369 25.3297 24.611C21.5922 25.7818 17.7896 27.2461 14.16 28.8903C13.563 26.4636 12.9686 23.9191 12.3165 21.3146ZM14.3732 29.9548C18.1758 28.4905 22.0336 27.2039 25.949 25.9774C26.127 25.9216 26.1871 25.8637 26.3074 25.748C29.4263 28.7501 32.6028 31.812 35.7216 34.8141C29.495 36.6476 23.2107 38.4213 17.0944 40.6104C16.1665 37.1171 15.2987 33.5659 14.3732 29.9548ZM18.7849 47.0637C18.2933 45.2282 17.8017 43.3926 17.3102 41.5571C23.8251 40.0233 30.2898 38.0761 36.6969 36.0689C36.7571 36.0111 36.8749 36.0132 36.8749 36.0132C37.1632 36.313 37.3939 36.5528 37.6822 36.8526C41.147 40.2143 44.6094 43.6939 48.014 47.1135C38.7942 48.3634 29.3715 50.8471 20.4803 53.2814C19.9937 51.2102 19.3893 49.137 18.7849 47.0637ZM23.7931 63.8297C22.8 60.6298 21.8069 57.43 20.8138 54.2302C30.2817 52.3955 39.9803 50.8006 49.3428 48.3747C52.5168 51.5545 55.6307 54.7921 58.8047 57.9719C47.0982 59.7667 35.4419 61.9749 23.7931 63.8297ZM10.4797 7.84628C10.001 8.19131 10.0487 8.72252 10.2769 9.08016C10.1014 9.0181 9.92589 8.95604 9.75041 8.89398C9.81056 8.83613 9.81057 8.83613 9.81306 8.71831C9.8757 8.54265 9.88068 8.30703 9.94333 8.13136C11.1037 6.20743 12.3819 4.28559 13.7755 2.48367C14.6404 3.38302 15.5655 4.22451 16.4907 5.066C14.4151 5.6772 12.2744 6.58187 10.4797 7.84628Z" fill="white"/>
</svg>
