<svg width="331" height="141" viewBox="0 0 331 141" fill="none" xmlns="http://www.w3.org/2000/svg">
<path d="M160.137 76.0183C160.416 73.0791 160.696 70.4198 161.395 67.7605C162.653 63.0018 164.051 58.2431 165.03 53.4843C165.31 52.2247 165.589 51.105 165.729 49.8453C165.869 49.4254 165.869 48.8656 166.149 48.4457C166.428 47.8858 166.848 47.6059 167.547 47.7459C168.386 48.0258 169.085 48.4457 169.784 48.8656C173.558 51.5249 177.333 54.1842 181.108 56.7035C183.066 58.1031 184.883 59.3628 187.12 60.3425C188.798 61.0423 188.938 61.8821 187.679 63.1418C185.862 64.9613 183.765 66.5009 181.807 68.0405C178.312 70.6998 174.817 73.2191 171.182 75.7384C169.224 77.138 167.127 78.3977 165.03 79.5174C164.331 79.9373 163.632 80.2172 162.933 80.3572C161.675 80.4971 160.976 80.0773 160.696 78.8176C160.277 77.9778 160.277 76.8581 160.137 76.0183Z" fill="#FA96A0"/>
<path d="M71.777 67.9004C73.1751 67.9004 73.7343 68.6002 73.5945 69.7199C72.3362 76.718 71.3576 83.8561 69.9595 90.8543C69.8197 91.834 69.54 92.6738 69.1206 93.5136C68.5614 94.4933 67.5827 94.6333 66.7438 94.0734C66.1846 93.6535 65.7652 93.2336 65.4855 92.8138C61.9903 88.195 58.2154 83.5762 54.9998 78.8175C54.3007 77.8377 53.6017 76.718 53.1823 75.5983C52.3434 73.7788 52.623 73.219 54.4405 72.6591C55.9785 72.2392 57.6562 71.8193 59.1941 71.3995C62.969 70.5597 66.604 69.7199 70.2391 68.4602C70.6585 68.1803 71.3576 68.0404 71.777 67.9004Z" fill="#FA96A0"/>
<path d="M114.837 32.6299C114.558 31.3702 114.837 29.8306 113.579 28.7109C113.299 28.431 113.439 28.1511 113.579 27.8711C113.859 27.5912 113.998 27.1713 114.138 26.8914C114.418 26.4715 114.837 26.4715 115.117 26.8914C115.536 27.5912 116.235 27.7312 116.934 27.5912C117.354 27.5912 117.494 27.3113 117.494 26.8914C117.494 26.1916 117.494 25.4918 116.515 25.2118C116.235 25.2118 116.095 25.0719 115.956 24.9319C115.676 24.652 115.536 24.3721 115.676 24.0921C116.655 23.3923 116.515 22.4126 116.375 21.2929C116.375 21.013 116.515 20.733 116.795 20.5931C117.214 20.4531 117.354 20.733 117.633 21.013C117.773 21.1529 117.773 21.2929 117.773 21.4328C117.913 21.9927 117.773 22.5525 118.332 22.9724C119.032 23.3923 119.731 23.1124 120.43 23.1124C120.849 23.1124 121.129 22.8325 121.129 22.4126C120.989 21.8527 120.849 21.2929 120.709 20.873C120.43 19.7533 120.43 19.7533 119.171 19.7533C118.752 19.7533 118.332 19.7533 118.053 19.6133C117.913 19.6133 117.633 19.3334 117.633 19.0535C117.633 18.9135 117.773 18.6336 117.913 18.4936C117.913 18.4936 118.053 18.4936 118.053 18.3537C118.612 18.0737 119.451 18.3537 119.591 17.6538C119.731 17.094 119.451 16.3942 119.451 15.8343C119.451 15.5544 119.451 15.4144 119.451 15.1345C119.451 14.8546 119.731 14.5747 120.15 14.5747C120.29 14.5747 120.709 14.7146 120.709 14.8546C120.989 15.4144 121.129 15.8343 121.268 16.3942C121.408 16.954 121.408 17.5139 121.968 17.7938C122.667 18.0737 123.505 18.0737 124.204 17.7938C124.484 17.6538 124.484 17.3739 124.484 17.234C124.344 16.5341 124.065 15.6944 123.925 14.9946C123.785 14.7146 123.925 14.2947 124.204 14.1548C124.624 14.0148 125.043 14.1548 125.183 14.5747C125.463 15.1345 125.742 15.6944 125.882 16.2542C126.162 17.094 126.441 17.6538 127.42 17.6538C127.7 17.6538 127.979 17.7938 128.259 17.9338C128.399 17.9338 128.539 18.2137 128.539 18.2137C128.539 18.4936 128.399 18.6336 128.399 18.7736L128.259 18.9135C127.84 19.0535 127.28 19.0535 127.001 19.4734C126.721 20.0332 127.14 20.5931 127.28 21.013C127.42 21.2929 127.42 21.5728 127.56 21.9927C127.7 22.4126 127.979 22.8325 128.539 22.8325C128.958 22.8325 129.377 22.8325 129.657 22.8325C130.356 22.8325 130.776 22.6925 131.055 21.8527C131.335 21.1529 131.754 21.1529 132.174 21.7128C132.453 22.1327 132.733 22.6925 133.152 22.9724C133.432 23.1124 133.432 23.5323 133.292 23.8122C132.733 25.0719 133.432 26.0516 133.851 27.1713C134.131 27.8711 134.83 27.5912 135.249 27.7312C135.389 27.8711 135.669 28.0111 135.669 28.1511C135.669 28.291 135.529 28.7109 135.389 28.7109C134.55 29.1308 133.851 29.8306 132.593 29.2708C131.754 28.9908 130.636 29.2708 129.517 29.2708C129.238 30.1105 129.797 30.9503 129.657 31.7901C129.657 32.07 129.377 32.3499 129.098 32.3499C128.958 32.3499 128.539 32.21 128.539 32.07C128.259 31.3702 127.979 30.6704 127.7 29.8306C127.56 29.4107 127.28 29.1308 126.861 29.1308C126.162 29.1308 125.323 29.1308 124.484 29.2708C124.764 30.3905 125.043 31.2302 125.183 32.07C125.603 33.6096 125.183 34.0295 123.645 34.1695C123.226 34.1695 122.806 34.1695 122.527 34.1695C121.828 34.1695 121.129 34.3094 120.989 35.1492C120.849 35.709 120.15 35.709 119.87 35.2892C119.731 35.1492 119.591 34.8693 119.451 34.7293C119.032 34.3094 117.773 34.0295 117.354 34.3094C116.934 34.5893 117.074 35.1492 117.074 35.5691C117.074 36.6888 117.074 36.6888 115.816 37.1087C114.278 37.6685 112.6 37.3886 110.923 37.3886C110.643 37.3886 110.363 37.1087 110.363 36.6888C110.363 36.4089 110.643 36.1289 110.923 36.1289C112.041 36.1289 113.299 36.1289 114.418 35.989C114.837 35.989 115.257 36.1289 115.257 35.5691C115.396 34.8693 114.977 34.1695 114.418 34.1695C113.719 34.1695 113.02 34.1695 112.321 34.1695C111.761 34.1695 111.202 34.3094 110.923 33.6096C110.783 33.1897 111.342 32.7698 112.181 32.6299C113.299 32.9098 114.138 33.0498 114.837 32.6299ZM122.247 32.9098C123.785 32.9098 123.925 32.7698 123.505 31.2302C123.366 30.8103 123.226 30.3905 123.086 29.9706C122.946 29.5507 122.667 29.4107 122.247 29.2708C119.591 29.1308 119.731 28.9908 120.29 31.5102C120.709 32.9098 120.849 32.9098 122.247 32.9098ZM124.065 19.3334C122.107 19.3334 122.107 19.3334 122.667 21.2929C122.806 21.5728 122.806 21.8527 122.946 22.1327C123.086 22.5525 123.366 22.8325 123.785 22.8325C126.022 22.8325 126.581 23.1124 125.742 20.4531C125.183 19.3334 125.183 19.3334 124.065 19.3334ZM132.313 27.5912C132.034 26.7514 131.894 25.9117 131.614 25.0719C131.475 24.512 131.055 24.0921 130.496 24.2321C129.937 24.3721 129.377 24.3721 128.958 24.3721C128.678 24.3721 128.399 24.652 128.399 24.9319C128.539 27.1713 128.958 27.5912 131.055 27.5912C131.475 27.7312 131.894 27.5912 132.313 27.5912ZM125.742 27.7312C126.022 27.7312 126.302 27.7312 126.721 27.7312C127.28 27.7312 127.42 27.4512 127.28 26.8914C127.14 26.4715 127.001 26.1916 127.001 25.7717C126.861 24.512 126.302 24.3721 125.183 24.512C124.904 24.512 124.764 24.512 124.484 24.512C123.785 24.652 123.505 24.792 123.645 25.6317C123.645 25.9117 123.785 26.0516 123.785 26.3315C124.204 27.5912 124.204 27.7312 125.742 27.7312ZM120.989 27.5912C121.268 27.5912 121.408 27.5912 121.688 27.5912C122.387 27.5912 122.527 27.4512 122.387 26.7514C122.247 26.3315 122.247 25.7717 122.107 25.3518C121.968 24.7919 121.548 24.3721 120.849 24.512C120.43 24.512 119.87 24.652 119.451 24.7919C119.171 24.9319 118.892 25.0719 118.892 25.4918C118.892 25.9117 119.032 26.4715 119.171 26.8914C119.311 27.4512 119.591 27.7312 120.15 27.5912C120.43 27.5912 120.709 27.5912 120.989 27.5912ZM118.053 32.9098C118.752 32.9098 119.032 32.6299 118.892 31.9301C118.752 31.3702 118.612 30.8103 118.472 30.3905C118.193 29.2708 118.053 29.1308 116.795 29.2708C116.095 29.2708 115.956 29.4107 115.956 30.1105C115.956 30.6704 116.095 31.2302 116.235 31.7901C116.515 32.7698 116.795 32.9098 118.053 32.9098Z" fill="white"/>
<path d="M99.0392 69.0202C98.3401 69.0202 97.6411 68.8803 96.8022 68.6003C95.9634 68.3204 95.2643 68.6003 94.8449 69.4401C94.4255 70 94.006 70.5598 93.5866 71.1197C93.1672 71.5396 92.4681 71.5396 92.1885 70.9797C91.7691 70.2799 91.4895 69.4401 90.7904 69.0202C90.5108 68.7403 90.6506 68.3204 90.7904 67.9005C91.7691 65.8011 93.7264 64.5414 95.9634 64.8213C96.6624 64.8213 97.5013 65.1013 98.2003 65.2412C99.0392 65.3812 99.8781 65.2412 100.577 64.5414C101.276 63.8416 101.975 63.2818 102.674 62.5819C104.072 61.3223 105.47 61.0424 107.148 61.8821C108.127 62.442 109.106 62.442 110.084 62.302C110.923 62.302 111.203 62.5819 111.063 63.4217C111.063 63.7016 110.923 63.8416 110.923 64.1215C110.643 66.081 110.224 66.3609 108.406 66.221C107.707 66.081 107.008 65.941 106.309 65.8011C105.191 65.5212 104.352 65.8011 103.653 66.6409C103.373 66.9208 103.094 67.2007 102.814 67.4806C101.835 68.6003 100.577 69.0202 99.0392 69.0202Z" fill="#FA96A0"/>
<path d="M101.277 77.8379C100.578 77.6979 99.5994 77.9779 98.6207 78.9576C97.9216 79.6574 97.2226 79.5175 96.6633 78.6777C95.6847 77.1381 95.6847 76.5782 96.943 75.3186C98.3411 73.9189 99.879 73.0792 101.976 73.639C103.374 74.0589 104.772 73.639 105.891 72.6593C106.59 72.0994 107.429 71.5396 108.128 70.9797C108.687 70.6998 109.106 70.8398 109.666 71.1197C110.085 71.3996 110.225 71.9595 109.945 72.3794C109.526 73.3591 109.106 74.3388 108.687 75.3186C108.407 75.8784 107.988 76.1584 107.429 76.1584C106.59 76.1584 105.891 76.5782 105.192 76.9981C104.213 77.9779 103.095 78.1178 101.277 77.8379Z" fill="#FA96A0"/>
<path d="M210.608 84.976C210.468 85.2559 210.328 85.5358 210.188 85.6758C209.909 86.0957 209.349 86.5156 208.93 86.5156C207.672 86.6555 206.973 87.2154 206.973 88.615C206.973 89.0349 206.553 89.4548 205.994 89.5948C205.435 89.7347 205.015 89.4548 204.596 88.8949C204.456 88.755 204.316 88.475 204.316 88.3351C204.037 87.7752 203.757 87.4953 203.058 87.6353C202.499 87.7752 201.939 87.7752 201.38 87.6353C200.541 87.4953 200.122 86.6555 200.541 85.8158C200.541 85.8158 200.541 85.6758 200.681 85.6758C201.66 84.6961 201.939 83.8563 201.38 82.4567C200.821 81.3369 201.8 80.4972 203.058 80.7771C203.338 80.9171 203.617 80.9171 203.897 81.057C204.456 81.4769 205.015 81.4769 205.575 80.9171C205.714 80.7771 205.854 80.6371 205.994 80.6371C207.252 79.7974 208.091 80.2172 208.231 81.7568C208.231 82.4567 208.371 82.8765 209.07 83.1565C209.489 83.4364 210.048 83.7163 210.328 84.1362C210.468 84.4161 210.608 84.6961 210.608 84.976Z" fill="white"/>
<path d="M33.7483 85.1159C33.3289 87.0754 32.6299 89.1748 31.6512 91.1343C31.2318 91.9741 30.3929 92.254 29.4142 91.8341C27.3171 90.9943 24.9403 87.6352 25.0801 85.3958C25.0801 83.2964 26.4782 82.3166 28.2957 83.1564C29.1346 83.4363 29.554 83.5763 30.1133 82.8765L30.2531 82.7365C31.0919 82.1767 31.9308 81.7568 32.7697 82.3166C33.7483 82.8765 33.7483 83.8562 33.7483 85.1159ZM27.3171 84.556C26.8976 84.696 26.7578 84.9759 26.7578 85.2558C26.618 86.0956 26.7578 86.7954 27.1773 87.4952C27.5967 88.335 28.1559 89.0348 28.855 89.7346C29.9735 90.8544 30.2531 90.7144 30.9521 89.1748C31.5114 87.9151 31.9308 86.5155 32.3502 85.2558C32.6299 84.4161 32.3502 83.8562 32.0706 83.8562C31.5114 83.8562 31.2318 84.2761 30.9521 84.556C30.8123 84.696 30.8123 84.9759 30.6725 85.1159C30.1133 86.0956 29.8337 86.2356 28.9948 85.3958C28.7152 85.1159 28.4355 84.836 28.1559 84.696C27.7365 84.556 27.4569 84.556 27.3171 84.556Z" fill="#373330"/>
<path d="M302.881 117.447C302.881 116.468 303.161 115.628 303.72 114.788C304 114.228 304.419 113.668 304.979 113.528C305.538 113.248 305.957 113.668 306.517 113.948C307.076 114.228 307.915 114.368 308.474 114.788C310.012 115.768 310.291 117.587 309.033 118.987C308.474 119.547 307.915 119.967 307.216 120.387C304.839 121.366 302.742 119.267 302.881 117.447Z" fill="#FA96A0"/>
<path d="M299.107 126.405C299.107 124.446 300.226 122.906 302.183 122.486C303.581 122.206 305.539 123.186 306.238 124.586C306.517 125.005 306.517 125.565 306.098 125.845C305.399 126.265 305.119 126.965 304.56 127.525C304.28 127.805 304.001 128.085 303.721 128.365C302.882 129.064 302.043 129.624 300.925 129.064C299.806 128.644 299.107 127.805 299.107 126.405Z" fill="#FA96A0"/>
<path d="M298.826 134.383C298.826 134.523 298.826 134.943 298.686 135.083C297.987 135.922 297.288 136.762 296.449 137.322C295.471 138.022 294.212 138.022 293.234 137.322C292.255 136.762 292.115 135.782 292.115 134.663C292.255 133.403 292.814 132.423 293.653 131.724C294.632 130.884 295.75 130.744 296.869 131.304C297.987 131.864 298.826 132.983 298.826 134.383Z" fill="#FA96A0"/>
<path d="M297.569 112.969C299.107 112.969 300.225 114.088 300.225 115.628C300.225 116.468 299.945 117.167 299.666 117.867C298.967 119.127 297.708 119.827 296.59 119.547C295.192 119.267 294.073 117.867 294.213 116.468C294.213 114.788 295.611 112.829 297.569 112.969Z" fill="#FA96A0"/>
<path d="M290.578 125.845C290.578 124.725 290.858 123.886 290.718 123.046C290.578 122.486 290.998 122.206 291.417 122.066C293.095 121.506 294.772 122.346 295.611 124.026C296.171 125.425 295.332 127.805 293.654 128.504C292.396 128.924 291.137 128.364 290.718 126.965C290.578 126.545 290.578 126.125 290.578 125.845Z" fill="#FA96A0"/>
<path d="M230.739 108.909C230.739 108.21 231.019 107.37 231.299 106.67C231.858 105.41 231.718 104.291 231.159 103.031C231.019 102.611 230.74 102.191 230.6 101.771C229.621 99.8119 229.481 97.7125 230.18 95.613C230.32 95.1931 230.32 94.9132 230.46 94.4933C231.019 92.9537 230.74 91.4141 229.761 90.1545C229.062 89.1747 228.922 88.4749 229.341 88.335C230.18 88.055 230.6 88.7549 231.019 89.3147C232.138 90.7143 232.557 92.2539 232.138 94.0734C231.998 94.7733 231.718 95.613 231.578 96.3128C231.159 97.8524 231.159 99.392 231.998 100.792C232.277 101.212 232.417 101.771 232.697 102.331C233.396 103.871 233.676 105.41 232.976 107.09C232.277 108.49 232.277 109.889 233.256 111.289C233.536 111.709 233.676 112.129 233.815 112.549C233.955 112.828 233.676 113.108 233.396 113.248C233.116 113.388 232.697 113.388 232.557 113.108C231.578 111.849 230.6 110.589 230.739 108.909Z" fill="#FA96A0"/>
<path d="M237.871 92.8137C237.871 93.5135 237.452 94.0733 237.032 94.7732C236.054 96.0328 236.193 97.2925 237.172 98.4122C237.312 98.5522 237.312 98.6921 237.452 98.8321C238.99 100.792 239.549 102.751 238.291 105.13C238.011 105.83 238.011 106.39 238.151 107.23C238.291 107.79 238.291 108.49 238.291 109.049C238.291 109.329 238.151 109.609 237.731 109.749C237.452 109.749 237.032 109.609 237.032 109.329C236.753 107.65 236.054 105.97 237.032 104.291C237.871 102.751 237.592 101.491 236.473 100.232C236.054 99.8118 235.774 99.252 235.494 98.6921C234.656 97.4325 234.656 96.0328 235.494 94.7732C235.494 94.7732 235.494 94.6332 235.634 94.6332C236.473 93.5135 236.753 92.3938 235.914 91.2741C235.634 90.9942 235.774 90.7142 236.054 90.4343C236.333 90.2944 236.613 90.2944 236.892 90.4343C237.592 90.8542 237.871 91.694 237.871 92.8137Z" fill="#FA96A0"/>
<path d="M243.043 100.792C243.043 100.092 242.903 99.532 242.624 99.1121C242.344 98.6922 242.065 98.2723 241.645 97.7125C241.086 96.8727 240.946 96.0329 241.226 95.0532C241.366 94.4933 241.366 93.7935 241.645 93.2337C241.645 93.0937 241.925 92.9537 242.065 92.8138C242.344 92.6738 242.624 92.9537 242.903 93.0937C243.183 93.5136 243.183 94.0735 243.043 94.4933C242.344 95.893 242.903 96.8727 243.742 97.8524C245.001 99.672 244.861 102.331 243.463 104.151C243.323 104.291 243.043 104.431 242.903 104.431C242.624 104.431 242.344 104.011 242.344 103.731C242.484 103.171 242.624 102.751 242.764 102.191C242.764 101.631 242.903 101.212 243.043 100.792Z" fill="#FA96A0"/>
<path d="M227.525 111.989C227.804 110.729 227.525 109.329 226.546 108.21C226.406 108.07 226.406 107.93 226.406 107.79C226.406 107.51 226.546 107.37 226.686 107.23C226.826 107.09 227.245 107.09 227.385 107.23C228.503 107.93 229.063 109.049 229.202 110.309C229.202 111.989 229.063 113.668 229.482 115.348C229.482 115.488 229.482 115.488 229.482 115.628C229.482 115.908 229.202 116.188 228.923 116.328C228.643 116.468 228.224 116.188 228.224 115.908C228.084 115.068 227.804 114.228 227.665 113.388C227.525 112.968 227.525 112.549 227.525 111.989Z" fill="#FA96A0"/>
<path d="M181.528 30.6703C181.388 33.3296 181.109 37.1086 180.829 41.0275C180.829 41.4474 180.829 41.8673 180.689 42.1473C180.689 42.5671 180.41 42.8471 179.99 42.987C179.571 43.127 179.291 42.5671 179.291 42.0073C179.291 41.1675 179.431 40.3277 179.431 39.488C179.711 35.569 179.99 31.5101 180.13 27.5911C180.27 25.0718 180.13 22.5525 179.85 20.1731C179.85 19.6133 179.711 19.0534 179.99 18.6335C180.13 18.4936 180.27 18.2136 180.549 18.2136C180.689 18.2136 181.109 18.3536 181.109 18.4935C181.248 18.9134 181.388 19.3333 181.388 19.8932C181.808 22.9724 181.668 26.1915 181.528 30.6703Z" fill="#FA96A0"/>
<path d="M175.935 31.0902C175.795 27.0312 175.655 23.3922 175.236 19.7532C175.236 19.3333 175.096 18.7734 175.096 18.3536C175.096 17.9337 175.236 17.5138 175.655 17.5138C176.075 17.3738 176.354 17.7937 176.494 18.2136C176.634 19.3333 176.774 20.313 176.913 21.4327C177.333 26.7513 177.473 32.2099 177.333 37.5285C177.333 38.6482 177.333 39.7679 177.053 40.7476C177.053 40.8876 176.774 41.1675 176.634 41.1675C176.214 41.3074 176.075 41.0275 175.935 40.7476C175.655 40.0478 175.795 39.348 175.795 38.6482C175.795 36.1288 175.935 33.4695 175.935 31.0902Z" fill="#FA96A0"/>
<path d="M171.74 28.9908C171.74 27.7312 171.74 25.6317 171.74 23.5323C171.74 22.9724 171.74 22.2726 171.74 21.7128C171.74 21.4328 171.88 21.1529 172.3 21.0129C172.719 21.0129 172.859 21.1529 172.999 21.4328C173.139 21.8527 173.139 22.4126 173.139 22.8325C173.278 27.1713 173.418 31.5101 173.558 35.989C173.558 36.8287 173.558 37.5285 173.418 38.3683C173.418 38.6482 173.139 38.9282 172.719 38.9282C172.3 38.9282 172.16 38.6482 172.16 38.3683C172.02 37.9484 172.02 37.3886 172.02 36.9687C172.02 34.5893 172.02 32.21 171.74 28.9908Z" fill="#FA96A0"/>
<path d="M167.965 29.5507C167.965 27.8711 167.965 26.1916 167.965 24.372C167.965 24.0921 167.965 23.8122 168.105 23.3923C168.105 23.2523 168.384 22.9724 168.664 22.9724C168.804 22.9724 168.944 22.9724 169.083 23.1124C169.223 23.2523 169.363 23.5323 169.503 23.6722C169.643 23.9522 169.643 24.2321 169.643 24.652C169.782 28.151 169.922 31.7901 170.062 35.2891C170.062 36.5488 169.782 37.1086 169.223 36.9687C168.245 36.6888 168.384 35.849 168.384 35.2891C168.384 33.3297 168.384 31.3702 168.384 29.4107C168.105 29.5507 168.105 29.5507 167.965 29.5507Z" fill="#FA96A0"/>
<path d="M165.868 28.4308C165.729 30.2503 165.589 32.0698 165.449 33.7494C165.449 34.0293 165.169 34.3092 164.89 34.3092C164.75 34.3092 164.47 34.1693 164.331 33.8894C164.191 33.6094 164.051 33.1895 164.051 32.7697C164.191 30.5303 164.331 28.4308 164.47 26.1914C164.47 26.0514 164.47 25.9115 164.61 25.7715C164.75 25.4916 165.03 25.2117 165.309 25.2117C165.589 25.2117 165.868 25.3516 166.008 25.7715C165.729 26.6113 165.729 27.4511 165.868 28.4308C165.729 28.4308 165.729 28.4308 165.868 28.4308Z" fill="#FA96A0"/>
<path d="M280.793 110.029C278.557 109.749 276.32 109.189 274.362 108.63C270.028 107.37 265.834 105.69 261.779 103.731C261.22 103.451 260.661 103.171 260.241 102.751C260.102 102.611 260.102 102.331 260.102 102.191C260.102 102.051 260.381 101.911 260.661 101.771C261.22 101.631 261.639 102.051 262.199 102.191C265.135 103.591 268.071 104.711 271.007 105.83C273.943 106.95 277.019 107.79 280.234 108.35C280.654 108.49 281.073 108.63 281.632 108.769C281.912 108.909 282.052 109.189 282.052 109.469C281.912 109.749 281.632 109.889 281.353 110.029C280.933 110.029 280.793 110.029 280.793 110.029Z" fill="#373330"/>
<path d="M277.297 113.808C275.2 113.388 273.243 112.828 271.285 112.129C267.65 110.729 264.155 109.049 260.799 107.23C260.38 106.95 259.961 106.67 259.681 106.39C259.541 106.25 259.541 105.97 259.681 105.83C259.821 105.69 260.1 105.55 260.24 105.55C260.939 105.55 261.359 105.97 261.918 106.25C264.574 107.51 267.091 108.769 269.747 109.889C271.984 110.869 274.221 111.709 276.598 112.129C276.878 112.129 277.157 112.269 277.437 112.408C277.996 112.548 278.276 112.968 278.136 113.388C277.996 113.668 277.577 113.808 277.297 113.808Z" fill="#373330"/>
<path d="M259.681 109.749C259.961 109.889 260.241 109.889 260.52 110.029C264.715 112.409 269.328 113.948 273.802 115.628C274.362 115.768 274.921 115.908 275.2 116.328C275.34 116.467 275.34 116.747 275.2 117.027C275.2 117.167 274.921 117.307 274.921 117.307C274.501 117.307 273.942 117.307 273.523 117.167C269.189 115.488 264.715 113.948 260.66 111.849C260.101 111.569 259.542 111.289 259.122 110.729C258.982 110.589 258.982 110.309 258.982 110.029C259.122 109.889 259.402 109.889 259.681 109.749Z" fill="#373330"/>
<path d="M259.123 114.228C259.403 114.088 259.683 114.228 259.962 114.368C260.661 114.788 261.5 115.208 262.199 115.628C264.716 116.887 267.372 118.147 270.168 118.847C270.728 118.987 271.427 118.987 271.846 119.547C271.986 119.687 271.986 119.967 271.986 120.107C271.986 120.386 271.846 120.526 271.566 120.526C271.287 120.526 270.867 120.526 270.588 120.526C266.673 119.547 262.898 118.007 259.403 115.908C259.123 115.768 258.844 115.488 258.564 115.208C258.424 115.068 258.564 114.788 258.564 114.508C258.704 114.368 258.984 114.228 259.123 114.228Z" fill="#373330"/>
<path d="M259.403 118.707C259.543 118.707 259.823 118.707 259.962 118.847C262.479 120.526 265.275 121.646 268.211 122.626C268.351 122.626 268.491 122.766 268.631 122.766C268.91 122.906 269.05 123.186 269.05 123.466C268.91 123.885 268.631 124.025 268.351 124.025C268.071 124.025 267.931 124.025 267.652 123.885C264.995 123.046 262.339 122.066 259.962 120.526C259.543 120.246 259.263 119.966 258.984 119.547C258.704 119.407 258.984 118.847 259.403 118.707Z" fill="#373330"/>
<path d="M266.393 126.405C266.253 126.545 266.253 126.825 265.973 126.825C265.694 126.965 265.414 126.965 265.134 126.965C262.897 126.405 260.8 125.565 258.843 124.445C258.703 124.305 258.424 124.165 258.284 124.025C258.004 123.746 257.864 123.466 258.004 123.186C258.144 122.906 258.424 122.766 258.843 122.906C258.983 122.906 259.123 122.906 259.262 123.046C261.22 124.165 263.317 124.865 265.554 125.565C265.973 125.705 266.393 125.845 266.393 126.405Z" fill="#373330"/>
<path d="M135.389 56.9833C135.668 56.4235 135.389 56.1436 134.969 55.8636C134.69 55.5837 134.55 55.1638 134.69 54.8839C134.829 54.604 135.249 54.464 135.528 54.604C135.948 54.7439 136.367 54.7439 136.787 54.464C137.206 54.1841 137.626 54.464 137.626 54.8839C137.626 55.5837 138.045 56.0036 138.464 56.4235C138.884 56.8434 138.604 57.4032 138.045 57.4032C137.346 57.4032 136.647 57.4032 136.228 58.103C136.088 58.243 135.808 58.243 135.528 58.243C135.249 58.103 135.109 57.8231 135.109 57.5432C135.389 57.2633 135.389 57.1233 135.389 56.9833Z" fill="#373330"/>
<path d="M134.691 49.1455C134.691 49.1455 134.411 48.8655 134.411 48.7256C134.411 48.3057 134.411 47.7458 134.272 47.3259C134.132 46.7661 133.013 46.3462 133.712 45.7863C134.272 45.2265 135.11 45.0865 135.949 44.8066C136.229 44.6666 136.648 45.0865 136.648 45.3665C136.648 46.0663 137.068 46.4862 137.487 46.9061C137.907 47.3259 137.767 47.8858 137.068 47.8858C136.229 47.8858 135.81 48.4456 135.39 49.0055C135.25 49.1455 135.11 49.2854 134.691 49.1455Z" fill="#373330"/>
<path d="M142.1 51.3849C141.82 51.105 141.541 50.965 141.541 50.8251C141.401 50.5452 141.401 50.2652 141.261 49.9853C141.121 49.5654 140.562 49.2855 140.702 48.7256C140.842 48.1658 141.401 48.3058 141.82 48.3058C142.52 48.1658 142.52 46.9061 143.498 47.326C144.197 47.7459 143.498 48.7256 144.057 49.2855C144.197 49.4255 144.337 49.7054 144.337 49.8453C144.337 49.9853 144.337 50.1253 144.197 50.2652C143.638 50.8251 142.659 50.6851 142.1 51.3849Z" fill="#373330"/>
<path d="M143.638 62.4418C143.358 62.4418 143.078 62.1619 143.078 62.0219C143.078 61.4621 142.799 61.0422 142.519 60.6223C142.1 60.0625 142.24 59.6426 142.799 59.6426C143.498 59.6426 143.917 59.0827 144.337 58.8028C144.756 58.5229 145.455 58.6628 145.315 59.2227C145.176 59.9225 145.595 60.3424 146.154 60.7623C146.574 61.0422 146.434 61.6021 146.015 61.742C145.176 61.742 144.477 62.1619 143.778 62.7218C143.778 62.4418 143.638 62.4418 143.638 62.4418Z" fill="#373330"/>
<path d="M129.797 53.7643C129.517 53.6244 129.238 53.7643 128.958 53.7643C127.979 54.0443 127.979 53.9043 127.7 53.2045C127.14 51.5249 127.14 51.5249 128.818 50.8251C129.657 50.4052 129.937 50.4052 129.937 51.385C129.937 52.0848 130.356 52.2248 130.776 52.6446C131.055 52.9246 131.055 53.2045 130.915 53.4844C130.776 53.6244 130.496 53.7643 130.356 53.7643C130.076 53.9043 129.937 53.7643 129.797 53.7643Z" fill="#373330"/>
<path d="M149.371 36.5488C150.21 37.2486 150.909 37.8084 151.748 38.5082C166.987 50.9649 183.485 61.7421 200.681 71.2595C216.34 79.9372 232.698 87.4952 249.335 94.0734C252.83 95.4731 256.186 96.8727 259.681 98.1324C263.176 99.2521 266.532 100.652 270.027 101.771C273.522 103.031 277.157 104.151 280.653 105.27C284.148 106.39 287.643 107.37 291.138 108.49C294.773 109.469 298.269 110.589 301.904 111.569C305.399 112.549 309.034 113.388 312.529 114.228C316.164 115.068 319.799 115.908 323.434 116.747C325.392 117.167 327.209 117.587 329.167 118.007C330.565 118.287 330.984 118.707 330.705 119.267C330.285 120.107 329.446 119.827 328.887 119.687C325.811 118.987 322.735 118.427 319.799 117.727C318.261 117.447 316.724 117.027 315.186 116.607C314.067 116.328 313.508 116.607 312.809 117.587C309.453 122.766 305.539 127.804 301.624 132.563C299.807 134.803 297.849 136.902 295.472 138.722C294.773 139.281 293.935 139.841 293.096 140.261C291.837 140.821 290.859 140.401 290.579 139.141C290.16 138.022 290.16 136.902 290.02 135.642C289.88 130.884 290.02 126.125 290.16 121.366C290.299 117.867 290.579 114.368 290.719 110.869C290.719 110.589 290.579 110.309 290.299 110.169C288.202 109.609 286.105 108.91 284.008 108.35C283.589 108.21 283.309 108.35 283.029 108.77C282.89 109.049 282.61 109.189 282.47 109.469C278.416 114.648 274.221 119.687 269.747 124.445C267.79 126.685 265.693 128.784 263.456 130.744C262.617 131.444 261.778 132.143 260.8 132.563C259.681 132.983 258.702 132.563 258.423 131.444C258.003 130.324 257.864 129.204 257.864 127.944C257.864 123.466 257.724 118.847 258.143 114.368C258.423 110.869 258.563 107.37 258.842 103.871C258.982 102.751 259.122 101.771 259.262 100.652C259.262 100.232 259.122 99.9519 258.702 99.8119C256.745 99.1121 254.788 98.2723 252.83 97.5725C252.411 97.4326 251.992 97.4325 251.572 97.8524C250.314 99.1121 248.916 100.372 247.657 101.631C243.183 105.97 238.57 110.309 233.676 114.088C232.698 114.928 231.579 115.628 230.461 116.467C229.901 116.887 229.202 117.307 228.643 117.447C226.686 118.147 225.567 117.447 225.567 115.488C225.567 113.668 225.567 111.849 225.707 110.169C226.406 104.011 227.245 97.7125 228.224 91.5541C228.364 90.4344 228.503 89.3147 228.643 88.335C228.643 87.7751 228.503 87.4952 227.944 87.2153C226.127 86.3755 224.449 85.6757 222.631 84.696C221.932 84.416 221.373 84.416 220.954 84.8359C218.996 86.3755 217.039 87.9151 215.082 89.5947C210.328 93.5136 205.435 97.2926 200.122 100.512C199.003 101.212 197.885 101.771 196.627 102.331C196.067 102.611 195.368 102.891 194.669 102.891C193.551 103.031 192.852 102.471 192.712 101.352C192.572 99.8119 192.712 98.2723 192.992 96.7327C194.25 89.8746 195.508 83.0164 196.767 76.2982C197.046 75.0385 197.186 73.7789 197.326 72.6592C197.466 72.0993 197.186 71.6794 196.627 71.2595C194.53 70.1398 192.572 68.8802 190.615 67.7605C190.056 67.4805 189.636 67.4805 189.077 67.9004C187.259 69.44 185.302 70.9796 183.345 72.3792C179.43 75.4584 175.515 78.2577 171.461 81.0569C169.643 82.3166 167.686 83.4363 165.589 84.556C164.47 85.1158 163.212 85.6757 161.954 85.9556C160.136 86.3755 158.878 85.3958 158.598 83.5763C158.459 82.7365 158.598 81.8967 158.738 81.0569C159.857 72.6592 161.674 64.2614 163.911 56.1436C164.331 54.7439 164.61 53.4843 165.03 52.0846C165.169 51.5248 165.03 51.1049 164.61 50.825C164.331 50.545 163.911 50.4051 163.631 50.1251C158.459 46.3462 153.565 42.5672 148.672 38.5082C148.252 38.2283 147.833 37.5285 147.274 37.6685C146.575 37.8084 145.876 38.2283 145.316 38.7882C145.037 39.0681 145.177 39.348 145.177 39.6279C146.155 43.4069 146.575 47.3259 147.134 51.1049C147.693 55.0238 148.252 58.8028 148.252 62.7218C148.252 64.1214 148.113 65.3811 147.833 66.6408C147.414 67.9004 146.575 68.4603 145.316 68.0404C144.478 67.7605 143.639 67.4805 142.94 67.0606C141.821 66.3608 140.703 65.661 139.584 64.9612C133.433 60.6224 127.281 56.4235 121.409 51.8047C120.85 51.3848 120.29 51.1049 119.452 51.5248C117.354 52.5045 115.117 53.3443 113.02 54.324C112.461 54.604 112.181 54.8839 112.181 55.5837C111.902 58.5229 111.622 61.4621 111.343 64.4013C110.643 69.9999 109.805 75.7383 108.546 81.1969C108.127 82.7365 107.707 84.1361 107.148 85.6757C107.008 86.0956 106.869 86.5155 106.589 86.9354C105.47 89.1748 104.492 89.3147 102.674 87.6352C101.975 86.9354 101.416 86.2355 100.857 85.5357C97.0819 80.777 93.7264 75.8783 90.6506 70.6997C89.5321 68.7402 88.2738 66.9207 87.1554 64.9612C86.7359 64.4014 86.4563 64.2614 85.7573 64.5413C82.5416 65.5211 79.326 66.5008 76.1104 67.4805C74.9919 67.7605 74.5725 68.4603 74.4327 69.44C74.153 71.9593 73.7336 74.3387 73.454 76.858C72.7549 81.7567 71.9161 86.5155 70.6578 91.2742C70.2383 92.6738 69.8189 94.0734 69.2597 95.4731C68.5606 96.8727 67.582 97.0127 66.4635 96.1729C65.9042 95.753 65.345 95.1932 64.9256 94.7733C63.8071 93.5136 62.6886 92.114 61.7099 90.7143C58.3545 85.9556 54.8592 81.1969 51.7834 76.2982C51.5038 75.7383 51.0844 75.3184 50.6649 74.7586C50.2455 74.1987 49.8261 74.1987 49.2668 74.1987C47.3095 74.6186 45.3521 75.0385 43.255 75.3184C42.1365 75.4584 41.8569 76.0183 41.7171 76.998C40.319 83.5762 38.5015 90.1545 36.5441 96.7327C35.8451 98.8322 35.146 101.072 34.3072 103.171C34.1673 103.731 33.8877 104.151 33.6081 104.711C32.6294 106.39 31.5109 106.53 30.2527 105.27C29.4138 104.571 28.7148 103.591 28.1555 102.751C27.1768 101.491 26.338 100.232 25.4991 98.9721C21.4446 92.9538 17.6698 86.9354 14.8735 80.2171C14.5939 79.5173 14.0347 79.5173 13.3356 79.5173C8.58209 79.9372 3.82855 80.2171 -0.924993 80.3571C-1.76385 80.3571 -2.4629 80.3571 -3.30176 80.3571C-3.72119 80.3571 -4.14062 80.2171 -4.14062 79.6573C-4.14062 79.2374 -3.72119 78.8175 -3.16195 78.8175C-2.88233 78.8175 -2.60271 78.8175 -2.18328 78.8175C5.36646 78.6775 12.7764 78.1177 20.1863 77.2779C42.8356 74.7586 65.0654 69.7199 86.7359 62.5818C106.589 56.0036 125.603 47.8858 143.918 37.6685C144.617 37.2486 145.316 37.1086 145.876 36.4088C145.456 35.709 144.617 35.1491 144.058 34.5893C142.241 32.9097 140.423 31.3701 138.605 29.6906C137.487 28.7109 137.487 28.5709 135.949 29.4107C133.572 30.6703 131.056 31.93 128.679 33.0497C125.184 34.5893 121.409 35.9889 117.774 37.3885C116.236 37.9484 114.558 38.5082 112.88 38.7882C112.461 38.7882 112.042 38.9281 111.762 38.9281C110.643 38.7882 109.944 38.0884 109.944 36.9687C109.944 36.2688 110.224 35.4291 110.364 34.7293C111.063 32.6298 111.902 30.6703 112.741 28.7109C115.117 23.3923 117.494 18.0737 120.29 12.8951C120.43 12.7551 120.43 12.4752 120.57 12.1953C120.85 11.7754 120.85 11.3555 120.43 10.9356C120.011 10.5157 119.731 10.0958 119.312 9.67592C115.956 5.89693 112.88 1.83801 109.805 -2.22091C109.385 -2.78076 109.106 -3.20065 108.686 -3.7605C108.407 -4.18039 108.546 -4.60028 108.966 -4.74024C109.385 -5.02017 109.805 -4.8802 110.084 -4.60028C110.364 -4.32035 110.643 -3.90046 110.923 -3.48058C117.075 4.91719 123.925 12.7551 131.196 20.1731C135.949 25.0718 140.982 29.5506 146.155 34.0294C146.575 34.4493 146.994 34.7292 147.414 35.0092C147.693 35.2891 147.973 35.2891 148.252 35.0092C148.532 34.8692 148.951 34.5893 149.231 34.4493C162.793 26.6114 175.515 17.6538 187.259 7.29656C191.454 3.65752 195.508 -0.121469 199.143 -4.32035C199.563 -4.8802 200.122 -5.30009 200.681 -5.71998C200.961 -5.85994 201.24 -5.85994 201.52 -5.71998C201.8 -5.44005 201.939 -5.16013 201.66 -4.8802C201.38 -4.32035 200.961 -3.90046 200.541 -3.48058C195.648 1.83801 190.335 6.7367 184.883 11.3555C183.904 12.1953 182.925 13.035 181.807 13.8748C181.108 14.2947 180.968 14.9945 181.108 15.6943C181.387 17.0939 181.527 18.4936 181.807 19.8932C182.925 25.2118 183.764 30.6703 184.323 36.1289C184.603 38.3683 184.603 40.4677 184.463 42.7071C184.463 43.127 184.463 43.6869 184.323 44.1068C184.044 45.2265 183.345 45.6463 182.226 45.5064C181.248 45.3664 180.269 44.8066 179.43 44.3867C174.117 41.4475 168.944 38.2283 163.911 34.7293C162.373 33.6096 160.695 32.4899 159.158 31.3701C158.598 30.9503 158.179 30.9503 157.62 31.3701C154.963 33.0497 152.307 34.5893 149.65 36.2688C149.65 35.9889 149.65 36.2688 149.371 36.5488ZM160.276 82.1766C160.276 82.3166 160.276 82.4565 160.276 82.5965C160.276 83.7162 160.835 84.1361 161.954 83.9961C162.793 83.8562 163.631 83.5763 164.331 83.1564C166.568 82.0367 168.665 80.777 170.762 79.3774C176.354 75.5984 181.807 71.3995 186.98 67.2006C187.259 66.9207 187.539 66.6408 187.819 66.3608C187.958 66.2209 187.958 65.9409 187.819 65.801C187.539 65.5211 187.12 65.3811 186.84 65.1012C180.409 61.1822 173.977 57.1233 167.826 52.6445C167.686 52.5045 167.406 52.3646 167.267 52.2246C166.847 51.9447 166.568 52.0846 166.288 52.5045C166.148 52.6445 166.148 52.9244 166.148 53.2043C164.331 59.7826 162.793 66.5008 161.534 73.219C161.115 76.2982 160.556 79.2374 160.276 82.1766ZM110.504 58.103C110.504 57.5432 110.643 56.9833 110.643 56.4235C110.643 55.5837 110.364 55.3038 109.525 55.5837C106.449 56.8434 103.234 57.9631 100.158 59.2227C96.5226 60.4824 93.0274 61.7421 89.3923 63.0017C88.5535 63.2817 88.4137 63.5616 88.8331 64.4013C89.9516 66.3608 91.2099 68.3203 92.3283 70.1398C95.4042 75.0385 98.7596 79.9372 102.395 84.556C102.954 85.2558 103.513 85.8156 104.072 86.5155C104.492 86.9354 104.911 86.7954 105.191 86.2355C105.75 84.9759 106.17 83.5762 106.589 82.3166C107.707 78.8175 108.267 75.1785 108.686 71.5395C109.525 67.0606 110.224 62.5818 110.504 58.103ZM259.401 118.847C259.401 119.687 259.401 120.806 259.401 122.066C259.401 123.326 259.401 124.585 259.401 125.845C259.401 126.965 259.401 128.084 259.541 129.064C259.821 131.024 260.1 131.164 261.778 129.904C263.736 128.364 265.413 126.545 267.091 124.725C271.425 119.967 275.619 114.928 279.674 110.029C280.233 109.329 280.653 108.63 281.212 107.93C281.491 107.65 281.352 107.37 280.932 107.23C280.373 106.95 279.814 106.81 279.115 106.67C273.662 104.851 268.349 103.031 262.897 101.212C260.52 100.372 260.38 100.512 260.1 103.031C259.961 103.871 259.961 104.571 259.961 105.41C259.961 106.25 259.821 107.09 259.821 107.93C259.961 111.429 259.681 114.928 259.401 118.847ZM40.1792 76.2982C40.1792 75.8783 39.8996 75.7383 39.6199 75.7383C39.4801 75.7383 39.3403 75.7383 39.2005 75.8783C32.6294 76.998 26.1982 77.9777 19.6271 78.5376C18.7882 78.6776 18.0892 78.6775 17.2503 78.8175C16.5513 78.9575 16.4115 79.2374 16.5513 79.7973C16.6911 80.3571 16.9707 80.777 17.2503 81.3368C20.7456 88.6149 25.0797 95.3331 29.6934 101.911C30.2527 102.611 30.8119 103.171 31.3711 103.871C31.6508 104.291 32.0702 104.151 32.3498 103.731C32.9091 102.471 33.3285 101.352 33.7479 100.092C36.2645 92.5339 38.2218 84.8359 40.0394 77.138C40.1792 76.7181 40.1792 76.4381 40.1792 76.2982ZM199.283 72.3792C198.724 72.9391 198.724 73.6389 198.584 74.1987C198.304 75.7383 198.025 77.2779 197.745 78.8175C196.627 84.9759 195.508 91.1342 194.39 97.1526C194.11 98.4123 193.97 99.672 194.39 100.792C195.648 100.932 196.766 100.092 197.885 99.672C198.444 99.392 199.003 99.1121 199.423 98.6922C204.316 95.613 208.93 92.114 213.404 88.4749C215.221 86.9354 217.039 85.5357 218.717 83.9961C218.996 83.7162 219.556 83.5763 219.556 82.8764C212.845 79.6573 205.994 76.0183 199.283 72.3792ZM146.854 62.3019C146.854 61.4621 146.714 60.7623 146.714 59.9225C146.295 54.324 145.316 48.7255 144.477 43.267C144.338 42.4272 144.198 41.5874 144.058 40.7477C143.778 39.488 143.639 39.488 142.52 40.0478C142.38 40.1878 142.241 40.1878 142.101 40.3278C136.089 43.5469 130.077 46.6261 123.925 49.4253C123.506 49.5653 123.226 49.7053 122.807 49.9852C122.388 50.1252 122.527 50.545 122.667 50.685C122.807 50.825 122.947 50.9649 123.226 51.1049C129.658 55.8636 136.229 60.4824 142.94 64.9612C143.639 65.3811 144.477 65.801 145.177 66.2209C146.015 66.6408 146.295 66.5008 146.575 65.661C146.854 64.5413 146.854 63.4216 146.854 62.3019ZM226.965 112.689H227.105C227.105 113.528 227.105 114.368 227.105 115.208C227.105 115.628 227.525 115.908 227.944 115.628C229.063 115.208 230.181 114.368 231.16 113.668C234.375 111.149 237.451 108.63 240.527 105.83C243.603 102.891 246.819 99.9519 249.894 97.0127C250.454 96.4528 250.454 96.3129 249.755 96.0329C249.475 95.893 249.195 95.753 248.916 95.613C243.463 93.3736 238.01 90.9943 232.558 88.7549C231.999 88.4749 231.579 88.335 231.02 88.195C230.601 88.0551 230.321 88.195 230.181 88.7549C230.181 88.8948 230.181 89.0348 230.181 89.1748C229.622 93.5136 228.923 97.9924 228.364 102.331C227.804 105.83 227.385 109.189 226.965 112.689ZM291.837 123.886C291.698 125.845 291.698 127.804 291.698 129.764C291.698 132.003 291.698 134.243 291.977 136.482C292.117 138.862 292.536 139.001 294.354 137.602C295.892 136.482 297.43 135.083 298.688 133.683C303.022 128.784 306.797 123.466 310.712 118.147C310.991 117.727 311.271 117.307 311.551 116.747C311.97 115.908 311.97 115.628 311.131 115.348C310.852 115.348 310.712 115.208 310.432 115.208C304.98 113.808 299.387 112.269 293.935 110.869C293.655 110.729 293.375 110.729 292.956 110.729C292.536 110.729 292.397 110.869 292.257 111.289C292.117 111.709 292.117 112.269 292.117 112.689C292.117 116.328 291.977 120.107 291.837 123.886ZM183.065 40.0478C183.065 38.7882 182.925 37.6685 182.925 36.5488C182.226 30.2504 181.108 24.0921 179.989 17.7938C179.849 17.3739 179.849 17.0939 179.71 16.6741C179.57 16.1142 179.29 15.9742 178.871 16.2542C178.591 16.5341 178.172 16.6741 177.892 16.954C172.579 21.0129 167.267 24.7919 161.674 28.4309C161.395 28.7109 160.975 28.8508 160.695 29.1307C160.136 29.5506 160.136 29.8306 160.695 30.2504C163.352 32.07 166.008 34.0294 168.804 35.849C172.44 38.3683 176.214 40.6077 180.269 42.7071C180.828 42.9871 181.527 43.267 182.226 43.5469C182.506 43.6869 182.925 43.4069 182.925 43.127C183.065 42.0073 183.065 40.8876 183.065 40.0478ZM135.949 27.0313C135.809 26.8913 135.669 26.6114 135.53 26.4715C131.196 22.4125 127.001 18.0737 122.947 13.5949C122.667 13.315 122.527 13.175 122.248 12.8951C122.108 12.7551 121.828 12.7551 121.688 13.035C121.409 13.4549 121.129 14.0148 120.85 14.4347C118.333 19.7532 115.816 25.2118 113.44 30.5304C112.88 31.93 112.321 33.3296 111.902 34.7293C111.762 35.2891 111.622 35.709 111.482 36.2688C111.343 36.8287 111.762 37.1086 112.321 37.1086C113.859 37.1086 115.397 36.5488 116.795 35.9889C123.226 33.6095 129.378 30.6703 135.39 27.4512C135.669 27.4512 135.809 27.1713 135.949 27.0313ZM52.2028 73.359C52.3427 74.3387 52.9019 74.8986 53.3213 75.4584C56.3971 80.3571 59.8924 85.1158 63.2478 89.8746C64.0867 90.9943 64.9256 92.114 65.9042 93.0937C66.1839 93.5136 66.6033 93.9335 67.0227 94.2134C67.4421 94.6333 67.7218 94.4933 68.0014 94.0734C68.4208 92.9538 68.8403 91.6941 69.2597 90.5744C70.518 85.6757 71.3568 80.777 72.0559 75.8783C72.3355 73.4989 72.7549 71.2595 73.0345 68.8802C73.1744 68.1803 72.8947 68.0404 72.1957 68.1803C68.0014 69.3 63.8071 70.4197 59.473 71.3995C57.0962 72.2393 54.7194 72.7991 52.2028 73.359Z" fill="white"/>
<path d="M70.2386 74.4787C70.0988 76.1582 69.959 78.2577 69.8192 80.4971C69.8192 80.777 69.6793 81.0569 69.5395 81.3368C69.3997 81.4768 69.1201 81.6168 68.9803 81.6168C68.8405 81.6168 68.5609 81.4768 68.4211 81.1969C68.2812 80.777 68.2812 80.4971 68.2812 80.0772C68.4211 77.5578 68.7007 74.8986 68.8405 72.3792C68.8405 72.0993 68.8405 71.9593 68.9803 71.6794C69.1201 71.3995 69.3997 71.2595 69.6794 71.2595C69.959 71.2595 70.0988 71.5394 70.0988 71.6794C70.2386 72.5192 70.2386 73.219 70.2386 74.4787Z" fill="white"/>
<path d="M67.3019 88.055C67.4417 87.0752 67.4417 85.9555 67.8612 84.9758C68.001 84.5559 68.2806 84.4159 68.7 84.5559C68.9796 84.6959 69.2593 84.9758 69.1194 85.2557C68.9796 86.3754 68.7 87.4951 68.5602 88.6148C68.4204 89.0347 68.2806 89.3146 67.7213 89.1747C67.3019 89.0347 67.1621 88.6148 67.1621 88.3349C67.1621 88.1949 67.1621 88.1949 67.3019 88.055Z" fill="white"/>
</svg>
