<svg width="82" height="110" viewBox="0 0 82 110" fill="none" xmlns="http://www.w3.org/2000/svg">
<path d="M61.9354 82.88C62.1987 82.792 62.2865 82.528 62.462 82.2641C62.6375 82.352 62.813 82.44 62.9886 82.528C64.305 83.2319 65.5337 81.2082 64.1295 80.5043C63.0763 79.9763 62.0232 79.4484 60.97 78.8325C60.3557 78.4805 59.7414 78.7445 59.4781 79.1844C59.3026 79.0964 59.127 79.0084 58.9515 78.9205C57.9861 78.4805 56.5819 79.4484 57.3718 80.5043C57.4595 80.6802 57.6351 80.8562 57.7228 80.9442C56.7575 80.2403 55.7043 79.5364 54.7389 78.8325C53.598 78.0406 52.4571 79.7124 53.3347 80.6802C54.5634 82.0001 55.7043 83.4079 56.8452 84.9037C54.3001 83.056 51.6672 81.2962 49.1221 79.4484C48.1568 78.7445 46.8403 80.0643 47.5424 81.0322C49.1221 83.2319 50.7896 85.4317 52.4571 87.4554C49.912 85.5197 47.2791 83.5839 44.734 81.7361C43.6809 80.9442 42.3645 82.704 43.3298 83.5839C45.5239 85.7836 47.6302 88.0714 49.6487 90.4471C44.9096 86.3116 40.1704 82.0881 35.519 77.9526C34.3781 76.9847 32.7984 78.4805 33.8515 79.6244C34.8169 80.6802 35.8701 81.7361 36.8354 82.88C35.2557 81.7361 33.676 80.5923 32.0963 79.6244C31.0431 78.9204 29.9022 80.4163 30.6043 81.2962C30.341 81.1202 30.0778 80.9442 29.9022 80.7682C28.7613 79.9763 27.7082 81.6481 28.498 82.616C30.6043 85.2557 32.7984 87.7194 35.0802 90.2711C32.0963 87.9834 29.0246 85.8716 25.7774 83.9359C24.7243 83.3199 23.6711 84.5518 24.1977 85.5197C22.618 84.1998 20.9505 82.792 19.3708 81.4721C18.4054 80.6802 16.7379 81.6481 17.5278 82.88C17.3523 82.792 17.2645 82.704 17.089 82.616C15.8603 81.9121 14.8949 83.4959 15.6848 84.4638C16.2113 85.1677 16.8257 85.7836 17.3523 86.4876C16.7379 86.7515 16.4746 87.6314 17.0012 88.3353C18.2299 89.9191 19.4585 91.415 20.775 92.9108C20.5117 92.7348 20.1606 92.5588 19.8974 92.3829C19.0197 91.8549 17.7911 92.9108 18.4054 93.8787C19.5463 95.5505 20.6872 97.1343 22.0036 98.6301C21.9159 98.8941 21.9159 99.158 22.1792 99.334C22.969 100.038 23.7589 100.742 24.5487 101.446C26.0407 103.03 27.7082 104.525 29.4634 105.845C29.5512 105.933 29.5512 105.933 29.639 106.021C30.5166 106.637 31.6575 105.229 30.7799 104.525C28.2348 102.326 25.9529 100.038 23.7589 97.4862C25.6019 98.8061 27.4449 100.126 29.2001 101.534C30.6043 102.766 32.0085 103.997 33.5005 105.141C34.2026 105.757 35.168 105.229 35.4313 104.613C36.3089 105.317 37.0987 106.021 37.9764 106.725C38.6784 107.253 39.5561 106.901 39.8194 106.285C40.2582 106.637 40.697 106.989 41.1358 107.253C42.1889 108.045 43.5054 106.285 42.54 105.405C37.9764 101.182 33.4127 96.9583 28.8491 92.7348C28.3225 92.2069 27.7959 91.6789 27.1816 91.239C34.1148 97.1343 40.8725 103.294 47.4547 109.629C48.5078 110.685 50.1753 109.013 49.1221 107.957C44.1197 102.854 39.1173 97.7502 34.2026 92.5588C39.6438 96.6063 44.734 101.094 49.8242 105.581C50.9651 106.549 52.5449 104.965 51.4917 103.909C46.8403 99.51 42.3645 94.8466 37.9764 90.0951C43.0666 94.4066 47.8057 99.158 52.5449 103.821C53.598 104.877 55.2655 103.206 54.2123 102.15C51.404 99.246 48.5078 96.3424 45.6994 93.4387C48.6833 96.1664 51.5795 99.0701 54.4756 101.71C55.6165 102.766 57.1963 101.182 56.1431 100.038C54.8267 98.6301 53.5103 97.2223 52.1938 95.8144C53.7735 97.2223 55.3533 98.6301 56.933 99.9499C57.8984 100.742 59.5658 99.686 58.776 98.5421C56.933 95.9024 55.09 93.2627 53.0714 90.799C55.8798 92.9108 58.6882 95.0225 61.5844 97.1343C62.6375 97.9262 63.9539 96.1664 62.9886 95.2865C59.8291 92.2949 56.933 89.1272 54.2123 85.8716C56.4942 87.4554 58.776 89.0392 61.0578 90.6231C62.0232 91.327 63.2518 90.0071 62.6375 89.0393C61.9354 87.8074 61.1456 86.6635 60.3557 85.5197C61.3211 86.1356 62.1987 86.8395 63.1641 87.4554C64.305 88.2473 65.3581 86.5755 64.5683 85.6077C63.4274 84.7278 62.6375 83.8479 61.9354 82.88Z" fill="#80BDC4"/>
<path d="M43.8564 14.0722C43.5931 13.1043 43.2421 12.2244 42.891 11.4325C43.1543 11.1685 43.3298 10.8166 43.1543 10.2886C43.1543 10.2006 43.0666 10.1126 43.0666 10.0247C42.6277 8.96878 42.1889 8.0009 41.6624 7.03301C42.3645 6.68105 42.8033 5.80116 42.1012 5.18523C41.2236 4.48131 40.5215 4.04137 39.3806 3.86539C38.5029 3.68941 37.6253 4.48131 37.9764 5.36121C37.362 5.71317 37.0987 6.59306 37.6253 7.20899C37.8886 7.56095 38.2396 7.9129 38.5029 8.26486C38.0641 7.82492 37.7131 7.47296 37.2743 7.03301C36.3966 6.15312 34.7292 7.29698 35.519 8.44084C36.2211 9.49672 36.8354 10.6406 37.4498 11.6965C37.011 11.1685 36.5722 10.6406 36.1334 10.1126C35.6068 9.40873 34.4659 10.0247 34.9047 10.8166C36.1334 12.8403 37.8008 14.3361 39.7316 15.744C40.4337 16.1839 41.3991 15.392 41.1358 14.6881C41.048 14.5121 40.9603 14.3361 40.9603 14.1602C41.3113 14.6001 41.7501 14.9521 42.1012 15.392C42.7155 16.0079 44.2075 15.128 43.8564 14.0722Z" fill="#EDCA66"/>
<path d="M73.52 62.2904C74.3099 52.5236 73.169 41.7889 67.0256 33.7818C61.8477 26.9186 53.247 22.6951 44.734 25.3348C45.1728 23.927 45.6994 22.6072 46.3138 21.1993C46.6648 20.4074 46.1382 19.7035 45.5239 19.4395C45.4361 19.1756 45.2606 18.9116 44.8218 18.8236C42.3645 18.3837 39.8194 18.2957 37.2743 18.3837C37.362 17.4158 37.6253 16.4479 37.8008 15.48C40.1704 16.0959 42.8033 15.48 44.2952 13.3683C45.1728 12.1364 45.3484 10.5526 44.734 9.23275C43.6809 7.03301 39.6438 4.21735 42.6277 1.84163C43.7687 0.961733 42.1889 -0.622079 41.048 0.257817C40.697 0.521785 40.4337 0.785754 40.2582 1.13771C37.5375 0.785754 34.5536 3.68941 33.5882 5.97714C32.3596 8.96878 33.2372 12.8403 35.9578 14.6881C36.0456 14.6881 36.0456 14.7761 36.1334 14.7761C35.8701 16.0079 35.7823 17.2398 35.9578 18.4716C33.7638 18.6476 31.5697 18.9116 29.4634 19.4395C28.9369 19.5275 28.9369 20.2314 29.2001 20.4954C28.6736 20.4074 27.9715 20.7594 27.9715 21.3753C28.147 22.8711 28.4103 24.3669 28.7613 25.9508C28.5858 25.8628 28.3225 25.8628 28.147 25.9508C11.6477 29.8223 0.238641 50.0599 7.96171 65.898C2.43269 65.546 -2.65751 72.6732 1.55507 77.3366C4.2757 80.3283 8.92709 80.3283 12.6131 78.5685C11.911 82.792 12.7886 87.0155 13.9295 91.151C15.0704 95.1105 16.2991 99.598 18.932 102.942C23.7589 109.101 32.1841 109.189 39.3805 109.453C46.0505 109.717 55.7043 111.741 60.7067 105.845C63.4274 102.59 64.5683 97.8382 65.8847 93.8787C67.5522 88.6873 68.8686 83.4079 69.834 78.0406C70.0973 76.8087 69.0441 76.0168 68.0788 76.0168C68.1665 75.8408 68.2543 75.6648 68.342 75.4889C70.7994 79.0084 77.9959 78.0406 80.541 74.8729C84.7536 69.5056 79.049 63.2583 73.52 62.2904ZM35.4313 9.84867C34.8169 7.03301 36.8354 3.51343 39.6438 2.63353C39.4683 3.24946 39.4683 3.95338 39.6438 4.5693C40.0826 6.85703 44.2952 10.2006 42.3645 12.4004C41.3113 13.6322 39.9071 13.7202 38.6784 13.2803C38.7662 12.9283 38.9417 12.5763 39.0295 12.2244C39.3805 11.3445 37.9764 10.7286 37.4498 11.6085C37.2743 11.8724 37.1865 12.1364 37.0987 12.3124C36.2211 11.6965 35.6068 10.8166 35.4313 9.84867ZM44.0319 20.8474C43.3298 22.5192 42.7155 24.279 42.1889 26.0387C40.5215 24.4549 38.3274 23.3111 36.3966 22.1672C35.6945 21.7273 34.9047 21.1113 34.0271 20.6714C37.2743 20.6714 40.6092 20.7594 44.0319 20.8474ZM29.7267 20.6714C29.9022 20.6714 30.0778 20.6714 30.2533 20.6714C30.2533 20.7594 30.2533 20.8474 30.2533 20.8474C30.341 22.8711 32.7106 23.927 34.1148 25.0709C36.1334 26.5667 38.2396 28.3265 40.6092 29.2064C40.8725 29.2944 41.048 29.2944 41.2236 29.2944C40.9603 30.3502 40.8725 31.4061 40.697 32.55H40.6092C38.3274 31.7581 36.1333 30.5262 33.8515 29.5583C33.2372 29.2944 32.7984 29.7343 32.6229 30.2622C31.833 27.0066 30.9554 23.751 29.7267 20.8474C29.8145 20.8474 29.7267 20.7594 29.7267 20.6714ZM40.4337 38.4453C38.4152 38.4453 36.3966 38.6212 34.3781 38.8852C33.9393 36.4215 33.5005 33.7818 32.9739 31.2301C33.0617 31.3181 33.0617 31.4061 33.1494 31.4061C35.0802 32.7259 37.2743 33.7818 39.1173 35.1897C39.6438 35.5416 40.0826 35.6296 40.5215 35.6296C40.4337 36.5975 40.4337 37.4774 40.4337 38.4453ZM60.5312 99.246C58.8637 103.558 56.4064 106.197 51.5795 106.549C48.069 106.813 44.4707 106.461 40.9603 106.285C33.8515 106.021 24.8998 106.637 20.5995 99.686C16.8257 93.6147 15.4215 85.1677 14.4561 78.2165C14.4561 77.9526 14.2806 77.7766 14.1051 77.6886C14.7194 77.2486 15.246 76.8087 15.6848 76.3688C16.6502 79.4484 19.6341 81.7361 23.0568 82.1761C27.6204 82.792 32.7106 79.8883 34.7292 75.7528C36.0456 79.7123 40.1704 82.352 44.4707 82.528C49.561 82.616 54.4756 79.0964 56.4064 74.345C57.1963 76.9847 59.5658 79.1844 62.2865 79.3604C63.6907 79.4484 65.2704 78.8325 66.4113 77.8646C65.0948 85.1677 63.1641 92.3828 60.5312 99.246ZM78.0836 73.0251C76.1529 75.5768 70.6239 75.8408 69.0441 72.8492C68.7809 72.4092 68.2543 72.3212 67.8155 72.5852C67.1134 72.2332 66.148 72.4092 65.9725 73.2891C65.5337 75.3129 64.3927 77.0727 62.0232 76.7207C59.7414 76.3688 58.6005 74.081 57.8106 72.1452C57.6351 71.7053 57.1963 71.5293 56.8452 71.6173C56.3186 70.9134 55.09 70.6494 54.6512 71.7053C52.8082 75.5768 50.2631 79.3604 45.5239 79.8003C40.9603 80.2403 37.5375 77.3366 35.6068 73.3771C35.3435 72.8492 34.5536 73.0251 34.3781 73.5531C33.9393 73.3771 33.5005 73.3771 33.0617 73.8171C30.7799 76.3688 28.6736 79.0964 24.9876 79.5364C21.3893 79.8883 18.2299 77.6886 17.1767 74.433C17.7033 73.2891 16.2113 71.8813 15.246 72.9372C12.7009 75.7528 9.3659 77.9526 5.41661 76.6327C2.60822 75.6648 1.99388 72.4972 3.92465 70.2975C5.24108 68.7137 7.17185 68.4497 8.92709 67.5698C9.01485 67.4818 9.10262 67.3938 9.19038 67.3058C9.54143 67.1299 9.71695 66.8659 9.62919 66.4259C8.13723 57.9789 7.5229 49.7959 11.7355 41.9649C15.4215 35.1897 21.6526 30.7022 28.9369 28.5025C29.1124 28.4145 29.2879 28.3265 29.3757 28.2385C30.341 31.934 31.5697 35.7176 32.7984 39.1492C31.0431 39.4132 29.3757 39.8531 27.7082 40.381C27.1816 40.557 27.2694 41.4369 27.8837 41.4369C34.3781 40.821 40.6092 40.293 47.1914 40.909C48.5078 40.997 48.5078 38.9732 47.1914 38.8852C45.4361 38.7092 43.6809 38.6213 41.9256 38.5333C42.3645 34.6617 42.9788 30.9662 44.1197 27.3586C44.2075 27.4466 44.383 27.4466 44.5585 27.4466C53.5102 26.7427 61.0578 29.9983 65.8847 37.7414C70.5361 45.2205 70.9749 53.9314 70.8872 62.4664C69.7462 63.2583 70.0095 65.458 71.7648 65.458C75.0997 65.3701 81.0676 69.0656 78.0836 73.0251Z" fill="white"/>
</svg>
