<svg width="72" height="65" viewBox="0 0 72 65" fill="none" xmlns="http://www.w3.org/2000/svg">
<path d="M36.1989 55.6672C33.7502 56.2606 30.6913 56.4754 28.0016 56.0741C25.8016 55.5541 24.9427 56.2888 23.2249 57.7583C20.3994 61.0758 16.7226 63.02 12.3151 64.0882C8.88696 64.919 5.82805 65.1337 2.40755 63.8564C1.79729 63.4777 1.06649 62.6017 0.456232 62.223C0.335701 61.7257 0.215169 61.2283 0.0946376 60.731C-0.0258939 60.2336 0.953566 59.9963 0.953566 59.9963C1.4433 59.8776 2.05356 60.2563 2.54329 60.1376C7.30484 62.6696 11.5919 61.1041 15.7584 59.0412C17.2276 58.6851 18.4557 57.3344 19.3146 56.5997C21.5222 55.0115 21.5222 55.0115 19.4504 52.8808C18.1093 51.6261 17.1375 49.7554 16.6553 47.766C16.4143 46.7713 16.6629 45.6579 17.0321 45.0419C18.0192 42.6964 19.9781 42.2217 21.8089 43.3577C24.1294 44.375 25.1013 46.2457 26.1937 48.6138C26.4347 49.6085 26.6758 50.6032 26.9168 51.5979C27.1579 52.5926 27.7682 52.9713 28.3784 53.35C36.5681 55.0512 46.2498 50.072 49.5801 42.4196C50.5672 40.0741 50.4467 39.5768 47.757 39.1755C43.4775 38.6329 39.3262 36.4796 36.4031 32.9755C34.4518 31.3422 32.9902 29.5901 32.3875 27.1034C31.5438 23.6219 33.8795 20.423 37.3076 19.5922C38.7768 19.2362 40.3665 19.3775 42.0768 20.0161C47.2075 21.9321 50.6204 25.3175 52.436 30.6697C52.6771 31.6644 52.9181 32.6591 53.1592 33.6538C53.4003 34.6485 54.0105 35.0272 54.99 34.7898C56.9489 34.3151 58.7873 33.343 60.5051 31.8735C66.0279 26.8492 68.2507 21.0449 68.0325 13.7259C67.799 10.6231 66.7066 8.25499 65.004 5.50824C64.7629 4.51354 64.0321 3.63752 63.791 2.64281C63.6705 2.14546 63.6705 2.14546 64.0397 1.52943C64.4089 0.913389 64.8986 0.794706 65.5089 1.17337C66.1192 1.55204 66.7294 1.93071 67.4602 2.80673C70.5039 6.80816 72.0784 11.1657 71.694 15.9979C71.0457 26.1597 66.2462 34.1682 56.2029 37.6552C54.7337 38.0113 53.8748 38.746 53.2569 40.4754C50.6573 49.0039 44.5243 53.6496 36.1989 55.6672ZM49.7387 32.3765C48.1642 28.019 45.3615 25.0123 41.3308 23.3563C39.0103 22.339 37.5411 22.695 36.3129 24.0458C35.0848 25.3965 35.567 27.386 37.0285 29.138C39.9517 32.6421 43.4927 34.4167 47.7722 34.9593C48.2619 34.8406 48.7516 34.722 49.3619 35.1006C49.8516 34.9819 50.2208 34.3659 50.59 33.7499C50.1003 33.8685 49.9798 33.3712 49.7387 32.3765ZM19.9629 46.4379C20.0834 46.9352 19.5937 47.0539 19.7142 47.5512C20.1964 49.5407 20.9272 50.4167 22.0271 50.6767L22.5169 50.558C23.1347 48.8286 21.9142 48.0712 21.1834 47.1952C21.0629 46.6978 21.0629 46.6978 19.9629 46.4379C20.4526 46.3192 20.5732 46.8165 19.9629 46.4379Z" fill="#FFAD12"/>
</svg>
