<svg width="29" height="26" viewBox="0 0 29 26" fill="none" xmlns="http://www.w3.org/2000/svg">
<path d="M14.5323 22.3314C13.55 22.5694 12.3229 22.6556 11.2439 22.4946C10.3614 22.286 10.0168 22.5807 9.32768 23.1702C8.19423 24.5011 6.71926 25.281 4.95113 25.7095C3.57591 26.0428 2.34881 26.1289 0.976645 25.6165C0.731833 25.4646 0.43867 25.1132 0.193859 24.9613C0.145506 24.7618 0.0971541 24.5623 0.0488019 24.3628C0.000449704 24.1632 0.393368 24.068 0.393368 24.068C0.589827 24.0204 0.834638 24.1723 1.0311 24.1247C2.94124 25.1404 4.66101 24.5124 6.33244 23.6849C6.92182 23.542 7.41449 23.0002 7.75906 22.7054C8.64465 22.0683 8.64465 22.0683 7.81351 21.2136C7.27554 20.7103 6.88567 19.9598 6.69226 19.1617C6.59555 18.7627 6.69531 18.3161 6.84342 18.0689C7.23938 17.128 8.02522 16.9376 8.75966 17.3933C9.69055 17.8014 10.0804 18.5519 10.5186 19.5018C10.6153 19.9009 10.712 20.2999 10.8087 20.6989C10.9055 21.098 11.1503 21.2499 11.3951 21.4018C14.6804 22.0842 18.5643 20.0868 19.9003 17.017C20.2963 16.0761 20.2479 15.8766 19.1689 15.7156C17.4522 15.4979 15.7869 14.6341 14.6142 13.2284C13.8314 12.5732 13.2451 11.8703 13.0034 10.8728C12.6649 9.47613 13.6019 8.19288 14.9771 7.8596C15.5665 7.71677 16.2042 7.77345 16.8903 8.02965C18.9485 8.79826 20.3176 10.1563 21.046 12.3034C21.1427 12.7024 21.2394 13.1015 21.3361 13.5005C21.4328 13.8995 21.6776 14.0515 22.0705 13.9562C22.8564 13.7658 23.5938 13.3758 24.283 12.7863C26.4985 10.7708 27.3902 8.44234 27.3026 5.50626C27.209 4.26155 26.7707 3.31158 26.0877 2.2097C25.991 1.81066 25.6978 1.45924 25.6011 1.0602C25.5528 0.860688 25.5528 0.860688 25.7009 0.613559C25.849 0.366431 26.0455 0.31882 26.2903 0.470726C26.5351 0.622633 26.7799 0.774538 27.0731 1.12596C28.2941 2.73117 28.9257 4.47921 28.7715 6.4177C28.5114 10.4942 26.586 13.7069 22.5571 15.1057C21.9677 15.2486 21.6231 15.5433 21.3753 16.2371C20.3324 19.6583 17.8721 21.522 14.5323 22.3314ZM19.9639 12.9881C19.3323 11.2401 18.208 10.0339 16.591 9.36959C15.6601 8.96148 15.0707 9.10432 14.5781 9.64618C14.0854 10.1881 14.2788 10.9861 14.8651 11.689C16.0378 13.0947 17.4583 13.8066 19.175 14.0242C19.3715 13.9766 19.568 13.929 19.8128 14.0809C20.0092 14.0333 20.1573 13.7862 20.3054 13.5391C20.109 13.5867 20.0606 13.3871 19.9639 12.9881ZM8.01912 18.6289C8.06747 18.8285 7.87101 18.8761 7.91937 19.0756C8.11278 19.8737 8.40594 20.2251 8.84721 20.3294L9.04367 20.2818C9.29153 19.588 8.80191 19.2842 8.50874 18.9328C8.46039 18.7332 8.46039 18.7332 8.01912 18.6289C8.21558 18.5813 8.26393 18.7809 8.01912 18.6289Z" fill="#FFAD12"/>
</svg>
