<svg width="173" height="85" viewBox="0 0 173 85" fill="none" xmlns="http://www.w3.org/2000/svg">
<path d="M8.18504 36.6055C13.2859 36.6055 18.9988 33.7467 21.0391 30.0712C24.3037 24.3537 22.4674 18.432 22.2633 18.0236C21.4472 16.39 14.7141 3.52565 8.18504 3.52565C6.34874 3.52565 4.71647 4.54663 3.49227 6.5886C-0.180326 12.3061 2.4721 18.8404 6.96083 23.1285C4.9205 23.9453 2.67614 25.3747 1.65597 27.4166C0.839837 28.846 0.635813 30.4796 1.04388 31.9089C1.86001 34.9719 4.51244 36.6055 8.18504 36.6055ZM20.6311 19.0446C20.6311 19.0446 22.2633 24.1495 19.4069 29.2544C17.7746 32.1131 12.4697 34.7677 8.18504 34.7677C6.14471 34.7677 3.6963 34.1551 2.88017 31.7048C2.67613 30.6838 2.67614 29.6628 3.28824 28.846C4.30841 27.0082 6.7568 25.5789 8.5931 24.9663C9.61327 25.5789 11.2455 26.5998 12.4697 26.5998C13.4899 26.5998 14.306 25.9873 14.306 24.9663C14.306 24.3537 14.102 23.7411 13.6939 23.3327C12.8778 22.3117 11.0415 22.1075 9.00116 22.7201C5.94066 19.8614 1.45195 13.7355 5.12454 8.01797C5.94068 6.5886 6.96084 5.97601 8.18504 5.97601C12.6738 5.77181 18.5907 15.1648 20.6311 19.0446Z" fill="#F09044"/>
<path d="M37.1578 41.0978C39.4021 41.0978 41.2384 40.0768 42.4626 38.239C43.2788 36.8097 43.4828 35.3803 43.2788 33.7467C42.6667 31.5006 41.0344 29.4586 39.4021 28.0292C44.707 25.1705 49.1957 19.453 47.3594 13.1229C46.3393 9.44735 43.8909 8.63056 42.0546 8.63056C35.7295 8.63056 26.548 18.2278 26.14 18.6362C25.9359 19.0446 22.2633 24.1495 23.8956 30.4796C24.9158 35.7887 31.8529 41.0978 37.1578 41.0978ZM37.1578 29.0502C38.79 30.0712 40.6263 32.1131 41.2384 34.1551C41.4425 35.1761 41.2384 36.1971 40.8304 37.0139C40.0142 38.239 38.79 38.8516 37.1578 38.8516C32.669 38.8516 26.7521 34.1551 25.7319 30.0712C24.3037 24.5579 27.5682 19.8614 27.5682 19.8614C30.0166 17.411 37.3618 10.4683 42.0546 10.4683C43.0747 10.4683 44.503 10.8767 45.3191 13.5313C47.1554 20.0656 41.2384 24.7621 37.5658 26.5998C34.7094 24.9663 32.0569 25.3747 31.8529 27.4166C31.6489 28.2334 32.0569 28.6418 32.261 28.846C32.8731 30.0712 34.7094 30.0712 37.1578 29.0502Z" fill="#F09044"/>
<path d="M24.0996 17.0026C24.7117 17.0026 25.1198 16.5942 25.1198 15.9816C25.9359 6.1802 34.5053 2.91306 34.7094 2.70887C35.3215 2.50467 35.5255 1.89208 35.3214 1.48369C35.1174 0.871099 34.5053 0.666903 34.0973 0.871099C33.6892 1.0753 27.3642 3.52565 24.5077 10.2641C23.6916 6.1802 21.8553 1.0753 18.1827 0.0543134C17.5706 -0.149883 17.1625 0.25851 16.9585 0.666903C16.7544 1.0753 16.9585 1.89208 17.5706 2.09628C21.6512 3.32146 23.0795 12.5103 23.2835 15.9816C23.2835 16.39 23.6916 17.0026 24.0996 17.0026Z" fill="#F09044"/>
<path d="M51.4401 85V82.958C49.3997 82.958 47.3594 82.5496 45.5231 82.3455L45.115 84.3874C47.3594 84.5916 49.3997 84.7958 51.4401 85ZM57.7651 85C58.5812 85 59.3974 85 60.2135 84.7958C61.6417 84.5916 62.8659 84.5916 64.0901 84.3874L63.8861 82.3455C62.6619 82.5496 61.4377 82.5497 60.2135 82.7538C59.3974 82.7538 58.5812 82.958 57.9691 82.958L57.7651 85ZM171.208 84.3874L172.84 83.1622L172.432 82.7538L170.8 83.979L171.208 84.3874ZM70.0071 83.1622C72.0474 82.5496 74.0878 81.937 75.9241 81.3245L75.1079 79.4867C73.4757 80.0993 71.4353 80.7119 69.395 81.3245L70.0071 83.1622ZM39.1981 82.5496L39.8102 80.7119C37.9739 80.0993 36.1376 79.2825 34.5053 78.2615L33.4851 80.0993C35.3214 80.9161 37.1577 81.9371 39.1981 82.5496ZM166.719 79.6909L168.147 78.2615C166.719 76.8321 164.883 75.607 163.25 74.3818L162.026 76.0154C163.862 77.0363 165.291 78.2615 166.719 79.6909ZM81.637 78.2615C83.4733 77.0363 85.1056 75.4028 86.3298 73.7692L84.6975 72.544C83.6773 73.9734 82.2491 75.4028 80.6168 76.628L81.637 78.2615ZM28.5884 76.0154L30.0166 74.586C28.5884 73.1566 27.3641 71.7272 26.344 70.0937L24.7117 71.1146C25.7319 72.9524 26.9561 74.586 28.5884 76.0154ZM156.925 72.9524L157.945 71.1146C156.109 70.0937 154.273 69.2769 152.232 68.4601L151.416 70.2979C153.253 71.1147 155.293 71.9314 156.925 72.9524ZM94.287 70.7063C95.3072 70.7063 96.5314 70.7063 97.7556 70.5021L97.5516 68.4601C95.3072 68.6643 93.4709 68.6643 91.6346 68.4601L91.4306 70.5021C92.4507 70.5021 93.4709 70.7063 94.287 70.7063ZM103.877 69.6853C105.713 69.2769 107.957 69.0727 109.998 68.4601L109.59 66.4181C107.549 66.8265 105.509 67.2349 103.673 67.6433L103.877 69.6853ZM85.3096 69.4811L85.9217 67.4391C83.8814 66.8265 82.0451 66.0097 80.8209 64.9888L79.5967 66.6223C81.0249 67.8475 82.8612 68.8685 85.3096 69.4811ZM145.703 68.4601L146.316 66.4181C144.275 65.8055 142.235 65.3971 140.195 64.9888L139.786 67.0307C141.827 67.4391 143.867 67.8475 145.703 68.4601ZM88.9822 68.0517C89.3903 66.6223 89.5943 65.3971 89.5943 63.9678C89.5943 63.151 89.5943 62.3342 89.3903 61.7216L87.3499 61.9258C87.3499 62.5384 87.5539 63.3552 87.5539 63.9678C87.5539 65.1929 87.3499 66.4181 87.1459 67.6433L88.9822 68.0517ZM115.915 67.2349C117.955 66.8265 119.995 66.6223 121.832 66.4181L121.628 64.3762C119.587 64.5804 117.547 64.7846 115.507 65.193L115.915 67.2349ZM133.869 66.2139L134.074 64.172C132.237 63.9678 130.401 63.9678 128.565 63.9678H127.953V66.0097H128.565C130.401 66.0097 132.237 66.2139 133.869 66.2139ZM21.8553 65.3972L23.6916 64.5804C23.0795 62.7426 22.4674 60.9048 22.0593 58.8629L20.019 59.2713C20.427 61.5174 21.0391 63.5594 21.8553 65.3972ZM75.72 61.109L77.7604 60.7006C77.5563 60.2922 77.5563 59.6797 77.5563 59.2713C77.5563 58.0461 77.7604 56.8209 78.3725 55.5957L76.5362 54.7789C75.72 56.4125 75.516 57.8419 75.516 59.4755C75.516 59.8839 75.516 60.4964 75.72 61.109ZM85.5136 56.4125L87.3499 55.3915C85.9217 52.9412 84.0854 51.3076 82.4531 50.8992L81.841 52.9412C83.0652 53.1454 84.4935 54.3705 85.5136 56.4125ZM19.4069 53.1454H21.4472C21.4472 52.3286 21.4472 51.716 21.4472 51.1034C21.4472 48.653 21.6512 47.2237 21.6512 47.2237L19.6109 47.0195C19.6109 47.0195 19.4069 48.653 19.4069 51.3076C19.2028 51.716 19.4069 52.3286 19.4069 53.1454Z" fill="#F09044"/>
</svg>
