<svg width="13" height="19" viewBox="0 0 13 19" fill="none" xmlns="http://www.w3.org/2000/svg">
<path d="M12.75 2.525C12.65 2.125 12.35 1.925 12.05 1.825C10.45 1.225 8.85 0.625 7.25 0.025C7.15 0.025 7.05 0.025 6.95 0.025C6.55 -0.075 6.05 0.125 6.15 0.625C6.65 5.825 4.85 10.725 0.45 13.725C-0.15 14.125 -0.15 14.825 0.45 15.225C1.65 16.125 2.95 17.025 4.25 17.925C4.45 18.125 4.75 18.325 5.15 18.125C10.55 15.125 13.65 8.625 12.75 2.525ZM9.95 8.925C8.95 11.825 7.25 14.225 5.05 16.325C4.15 15.725 3.25 15.125 2.35 14.525C6.25 11.425 8.45 6.425 7.65 1.425C8.85 2.025 10.35 2.725 10.75 3.825C11.15 5.125 10.35 7.725 9.95 8.925Z" fill="white"/>
<path d="M9.85 4.225C9.55 3.925 8.95 3.725 8.55 3.925C6.55 4.625 7.55 6.625 7.15 8.225C6.85 9.225 6.45 10.125 5.75 10.925C5.45 11.325 5.05 11.625 4.65 11.925C4.35 12.025 4.15 12.125 3.95 12.225C3.85 12.225 3.85 12.225 3.75 12.225C3.35 12.325 3.15 12.525 3.05 12.925C2.95 13.125 3.05 13.425 3.25 13.625C4.55 15.025 6.95 12.825 7.85 11.725C8.45 10.925 9.05 10.025 9.35 9.025C9.55 8.525 9.65 7.925 9.75 7.425C9.75 7.225 9.75 6.925 9.75 6.625C10.55 6.025 10.45 4.925 9.85 4.225Z" fill="#80BDC4"/>
</svg>
