<svg width="14" height="17" viewBox="0 0 14 17" fill="none" xmlns="http://www.w3.org/2000/svg">
<path d="M9.35406 0.929516C9.25406 0.329516 8.55405 -0.270484 7.75405 0.129516C2.55405 2.62952 -0.445945 9.12952 0.0540549 14.7295C0.0540549 15.0295 0.254055 15.2295 0.354055 15.3295C0.254055 15.7295 0.454055 16.2295 0.954055 16.3295C2.65405 16.7295 4.25406 16.8295 6.05405 16.6295C6.65405 16.5295 6.95405 16.2295 7.05405 15.6295C7.25405 13.5295 8.05406 11.5295 9.15406 9.72952C10.1541 8.22952 12.0541 7.22952 12.8541 5.72952C14.2541 3.32952 11.3541 1.92952 9.35406 0.929516ZM10.4541 5.22952C10.0541 6.22952 8.35405 7.32952 7.65405 8.22952C6.25405 10.2295 5.65406 12.3295 5.35405 14.6295C4.15405 14.7295 2.95405 14.6295 1.65405 14.4295C2.05405 9.32952 4.35405 5.62952 8.45405 2.42952C9.45405 3.12952 10.8541 4.12952 10.4541 5.22952Z" fill="white"/>
<path d="M7.25405 3.62952C4.55405 6.22952 2.45406 10.5295 2.45406 14.2295C2.45406 15.1295 3.85405 15.6295 4.25405 14.7295C4.95405 13.1295 5.45405 11.3295 6.25405 9.72952C7.05405 8.12952 8.25406 6.72952 9.25406 5.22952C10.1541 3.92952 8.25406 2.52952 7.25405 3.62952Z" fill="#D46269"/>
</svg>
