<svg width="41" height="71" viewBox="0 0 41 71" fill="none" xmlns="http://www.w3.org/2000/svg">
<path d="M40.3753 15.4048C41.0753 10.7048 38.8753 6.40478 35.3753 3.50478C35.4753 3.40478 35.4753 3.40478 35.5753 3.30478C36.2753 2.40478 35.6753 0.804777 34.3753 1.20478C33.8753 1.40478 33.4753 1.60478 33.0753 1.90478C31.2753 0.904777 29.2753 0.204777 27.2753 0.00477666C26.2753 -0.0952233 26.1753 1.40478 27.0753 1.70478C28.4753 2.10478 29.8753 2.70478 31.0753 3.30478C30.4753 3.70478 29.7753 4.10478 29.0753 4.40478C28.1753 4.10478 27.1753 5.30478 27.9753 6.20478C30.2753 8.80478 30.6753 12.1048 29.2753 14.7048C25.1753 10.5048 18.2753 9.30478 14.2753 14.5048C9.77526 20.4048 15.0753 28.1048 21.7753 28.7048C24.0753 28.9048 26.7753 28.4048 29.3753 27.3048C29.2753 31.3048 30.0753 35.7048 27.7753 39.2048C27.5753 39.5048 27.2753 39.8048 26.9753 40.1048C25.2753 32.3048 14.0753 29.7048 7.77526 33.4048C1.07526 37.3048 1.37526 46.2048 7.67526 50.4048C11.7753 53.1048 16.8753 53.4048 21.4753 52.0048C17.8753 60.0048 9.27526 62.3048 1.27526 62.4048C0.475258 62.4048 0.0752578 63.1048 0.175258 63.9048C0.375258 65.4048 0.575258 66.8048 0.875258 68.3048C0.875258 68.4048 0.875258 68.4048 0.975258 68.5048C0.775258 69.2048 1.07526 70.0048 1.87526 70.1048C14.7753 72.4048 32.3753 63.3048 29.2753 48.2048C29.6753 47.9048 29.9753 47.6048 30.3753 47.3048C36.7753 41.5048 38.8753 31.8048 35.1753 24.0048C37.8753 21.5048 39.9753 18.5048 40.3753 15.4048ZM3.17526 67.5048C3.17526 66.8048 2.97526 66.2048 2.87526 65.5048C2.77526 65.2048 2.77526 65.0048 2.67526 64.7048C11.5753 64.4048 20.4753 61.2048 24.0753 52.3048C24.2753 51.8048 24.1753 51.4048 23.8753 51.2048C25.2753 50.6048 26.6753 49.9048 27.8753 49.1048C25.5753 61.7048 15.7753 68.3048 3.17526 67.5048ZM19.8753 49.8048C14.5753 51.0048 4.17526 48.9048 5.17526 41.3048C6.47526 31.0048 22.0753 32.6048 25.2753 40.7048C25.3753 40.9048 25.4753 41.1048 25.6753 41.2048C24.2753 42.2048 22.3753 43.1048 20.5753 43.6048C20.7753 43.4048 20.8753 43.0048 20.8753 42.6048C20.2753 38.7048 15.5753 37.1048 12.7753 39.2048C12.3753 38.8048 11.6753 38.8048 11.3753 39.3048C10.1753 41.6048 11.1753 44.0048 13.2753 45.5048C16.5753 47.7048 20.6753 46.2048 23.8753 44.7048C31.2753 41.5048 32.7753 34.2048 30.5753 26.8048C30.5753 26.8048 30.5753 26.8048 30.5753 26.7048C31.6753 26.2048 32.6753 25.5048 33.6753 24.8048C36.1753 35.8048 31.6753 47.2048 19.8753 49.8048ZM19.2753 43.9048C15.9753 44.6048 13.0753 44.0048 12.8753 40.6048C15.1753 39.7048 17.6753 40.6048 18.6753 43.2048C18.7753 43.6048 18.9753 43.8048 19.2753 43.9048ZM30.5753 23.8048C25.9753 26.7048 17.0753 27.9048 15.2753 21.0048C14.3753 17.6048 16.5753 14.4048 19.7753 13.5048C23.0753 12.6048 25.7753 14.1048 27.9753 16.2048C27.3753 16.8048 26.7753 17.4048 25.9753 17.8048C25.1753 16.4048 23.3753 16.0048 21.8753 16.4048C21.4753 16.5048 21.0753 17.0048 21.0753 17.5048C21.0753 18.3048 21.0753 19.1048 21.0753 19.9048C21.0753 20.5048 21.5753 21.0048 22.1753 21.0048C23.7753 21.1048 25.2753 20.6048 26.4753 19.6048C26.5753 19.6048 26.7753 19.6048 26.8753 19.5048C32.0753 16.9048 33.6753 10.5048 30.4753 5.90478C31.0753 5.70478 31.7753 5.40478 32.3753 5.20478C32.6753 5.10478 32.9753 4.90478 33.2753 4.80478C34.7753 6.00478 36.0753 7.60478 36.9753 9.50478C39.6753 15.5048 35.4753 20.6048 30.5753 23.8048Z" fill="white"/>
<path d="M31.9753 28.0048C31.5753 27.0048 29.8753 27.7048 30.1753 28.8048C32.6753 37.6048 27.4753 46.2048 18.2753 47.7048C15.8753 48.1048 13.4753 48.2048 11.2753 46.8048C7.57526 44.4048 7.57526 39.5048 11.7753 37.8048C16.3753 36.0048 20.8753 38.3048 24.0753 41.5048C25.2753 42.7048 26.8753 40.9048 25.8753 39.7048C21.8753 34.9048 14.4753 32.6048 8.97526 36.2048C4.07526 39.3048 4.37526 45.8048 9.27526 48.9048C14.6753 52.4048 22.7753 50.2048 27.4753 46.5048C32.8753 42.0048 34.8753 34.5048 31.9753 28.0048Z" fill="#80BDC4"/>
<path d="M35.2753 9.40478C34.7753 8.30478 33.1753 8.70478 33.3753 9.90478C34.5753 15.1048 32.4753 20.6048 26.9753 22.1048C24.5753 22.8048 20.7753 22.6048 19.4753 20.0048C18.1753 17.5048 20.4753 15.3048 22.7753 15.1048C23.2753 15.0048 25.0753 15.1048 25.9753 15.5048C26.0753 16.0048 26.3753 16.3048 26.8753 16.5048C27.3753 16.7048 27.8753 16.7048 28.3753 16.3048C28.7753 16.0048 29.1753 15.4048 28.9753 14.8048C27.5753 11.3048 20.9753 12.0048 18.5753 13.9048C15.4753 16.3048 15.7753 20.8048 18.6753 23.2048C22.3753 26.3048 28.0753 25.3048 31.6753 22.5048C35.6753 19.4048 37.1753 14.0048 35.2753 9.40478Z" fill="#80BDC4"/>
</svg>
