<svg width="87" height="49" viewBox="0 0 87 49" fill="none" xmlns="http://www.w3.org/2000/svg">
<path d="M63.6815 12.6529C63.5804 12.1483 62.9734 12.1483 62.67 12.4006C59.1296 15.2266 55.5892 18.1032 52.0488 20.9292C47.7497 15.0752 43.5012 9.22129 39.2022 3.36734C38.8987 2.96361 38.2918 3.01408 38.1401 3.51873C36.117 9.9278 34.1445 16.3873 32.1214 22.7964C27.7212 21.1815 23.321 19.5162 18.9207 17.9013C18.3644 17.6994 18.0609 18.3555 18.2632 18.7592C20.6909 23.8562 23.321 28.8522 26.4062 33.596C26.5579 33.8483 26.8108 33.8987 27.0131 33.7978C27.0637 33.7978 27.1142 33.8483 27.2154 33.8483C37.786 33.4446 48.3061 33.1418 58.9273 33.3941C59.1296 33.3941 59.2813 33.2932 59.3825 33.1922C59.5848 33.0913 59.6859 32.9399 59.7365 32.6876C59.9894 25.7739 64.7942 19.7685 63.6815 12.6529ZM58.4721 32.1829C48.1038 31.7792 37.5331 31.8297 27.1648 32.839C24.636 28.4485 22.1577 24.1085 19.9323 19.5666C24.0796 21.0806 28.1764 22.645 32.3237 24.159C32.6272 24.2599 32.9812 24.0076 33.0823 23.7553C35.0549 17.4976 36.9768 11.2399 38.9493 4.98222C43.0966 10.6848 47.2945 16.3873 51.4419 22.0899C51.6947 22.4432 52.0488 22.4936 52.4028 22.1908C55.8421 19.4657 59.2307 16.6901 62.67 13.965C63.1252 20.2732 58.9778 25.9757 58.4721 32.1829Z" fill="white"/>
<path d="M15.2286 31.4764C12.6492 31.2241 10.0192 31.0727 7.38915 30.8708C6.07415 30.7699 4.75914 30.669 3.49471 30.568C2.83721 30.5176 1.72451 30.2148 1.06701 30.4167C0.460081 30.6185 0.106041 30.8204 0.00488703 31.5774C-0.0456901 32.082 0.30835 32.4857 0.510659 32.9399C1.21874 34.5548 1.77509 35.5641 1.82566 37.3808C1.82566 37.5322 1.87624 37.6332 1.9774 37.7341C1.9774 37.936 2.23028 38.1883 2.48317 38.0369C6.78223 36.1697 10.9801 34.252 15.3803 32.6371C15.9873 32.3343 15.8355 31.5269 15.2286 31.4764ZM1.5222 31.9306C1.72451 31.2241 3.24182 31.6783 3.9499 31.7792C6.88338 31.9811 9.81685 32.2334 12.7503 32.4353C9.41224 33.7978 6.12472 35.2613 2.93836 36.9771C2.93836 35.8164 2.73605 34.8071 2.33144 33.7474C2.07855 33.1922 1.37047 32.4857 1.5222 31.9306Z" fill="white"/>
<path d="M22.6129 8.61571C21.8036 5.89059 21.045 3.11501 20.2357 0.389892C20.1346 -0.0138293 19.6288 -0.11476 19.3254 0.137566C17.6563 1.60106 15.8861 2.55989 13.9642 3.51873C13.4584 3.77106 13.8124 4.67943 14.3688 4.47757C16.8977 5.99152 19.4265 7.50548 21.8036 9.22129C22.2588 9.47362 22.7646 9.01943 22.6129 8.61571ZM19.3759 1.50013C19.9829 3.51873 20.5898 5.5878 21.1967 7.60641C19.1736 6.44571 17.2011 5.28501 15.178 4.17478C16.6953 3.51873 18.1115 2.55989 19.3759 1.50013Z" fill="white"/>
<path d="M58.0675 2.96361C56.6007 2.20664 55.134 1.39919 53.5661 0.793613C53.2121 0.642218 53.0097 0.945008 52.9592 1.19733C52.8074 1.14687 52.5545 1.19733 52.5545 1.39919C51.9982 3.72059 51.8465 6.19338 51.7453 8.61571C51.7453 9.0699 52.3017 9.27176 52.6051 8.96897C54.4765 7.25315 56.2973 5.48687 58.2192 3.82152C58.4215 3.61966 58.3709 3.11501 58.0675 2.96361ZM53.1109 1.65152L53.1615 1.70199C54.3247 2.4085 55.5892 2.96361 56.8536 3.5692C55.488 4.88129 54.1224 6.14292 52.7569 7.45501C52.8074 5.53734 52.9592 3.61966 53.1109 1.65152Z" fill="white"/>
<path d="M83.8112 14.6715C83.4066 13.4099 83.1031 12.1483 82.9514 10.8362C82.9008 10.3315 82.2939 10.1801 81.9904 10.4325C81.8893 10.3315 81.7881 10.2811 81.6364 10.3315C78.5512 11.9969 75.6683 14.0155 72.7348 15.8827C72.2291 16.2359 72.5325 17.0434 73.1395 16.892C76.4775 16.135 79.8156 15.6304 83.2549 15.378C83.6089 15.3276 83.9124 15.0248 83.8112 14.6715ZM81.8387 10.7857C81.9904 11.9969 82.1928 13.1576 82.5468 14.2678C80.2202 14.4697 77.9443 14.7725 75.6177 15.1762C77.742 13.8136 79.8662 12.4006 81.8387 10.7857Z" fill="white"/>
<path d="M86.3907 31.325C85.2274 30.568 82.2939 31.0222 80.9283 30.9718C78.2983 30.9213 75.6683 30.9718 73.0889 31.1232C72.6843 31.1232 72.3808 31.6783 72.7348 31.9811C76.3764 34.8071 80.0179 37.6332 83.9124 40.0555C84.1147 40.1564 84.317 40.005 84.317 39.8032C84.5193 39.7527 84.671 39.6518 84.7216 39.4499C85.1262 38.1883 85.5814 36.9267 85.9861 35.6146C86.2895 34.7567 87.0482 33.3436 86.9976 32.4353C86.9976 31.8297 86.8964 31.6278 86.3907 31.325ZM85.4803 33.8987C84.8734 35.665 84.317 37.3808 83.7101 39.1471V39.1976C80.6755 36.7248 77.5397 34.4539 74.505 32.082C77.3374 31.9811 80.1191 31.9306 82.9514 32.082C83.6089 32.1325 84.2664 32.082 84.9239 32.1829C86.4412 32.4857 85.8343 32.839 85.4803 33.8987Z" fill="white"/>
<path d="M11.5365 15.378C8.80531 13.7127 6.07415 12.1483 3.2924 10.5838C3.03952 10.4325 2.68548 10.4829 2.53374 10.7857C1.67393 12.2492 1.06701 13.8136 0.712967 15.479C0.611813 15.8827 0.915276 16.135 1.21874 16.135C1.21874 16.1855 1.21874 16.1855 1.21874 16.2359C1.21874 16.2864 1.26932 16.3369 1.26932 16.4378C1.37047 16.6901 1.82566 16.6901 1.82566 16.3873C1.82566 16.3873 10.4238 16.3369 11.1824 16.3873C11.7894 16.3369 11.9411 15.6304 11.5365 15.378ZM4.75914 15.4285C3.9499 15.4285 2.68548 15.2266 1.87624 15.5799C2.1797 14.2173 2.6349 13.0062 3.2924 11.795C5.36607 12.9557 7.38915 14.1669 9.46282 15.3276C7.84435 15.378 6.27645 15.4285 4.75914 15.4285Z" fill="white"/>
<path d="M82.5974 48.3822C80.0179 47.5243 77.5397 46.5655 75.0614 45.3543C74.8085 45.2534 74.6062 45.6067 74.8591 45.7581C77.2362 47.0701 79.8156 48.1804 82.4456 48.9878C82.8503 49.0888 83.002 48.5336 82.5974 48.3822Z" fill="white"/>
<path d="M6.93396 48.1299C5.56837 48.1804 4.30395 48.1299 2.98894 47.8776C2.58432 47.8271 2.43259 48.3822 2.83721 48.4832C4.20279 48.7355 5.61895 48.8364 6.98453 48.6346C7.23742 48.6346 7.288 48.1299 6.93396 48.1299Z" fill="white"/>
<path d="M10.272 23.5534C9.00762 22.9983 7.79377 22.3927 6.57992 21.6862C6.27645 21.4843 5.97299 21.989 6.27645 22.1908C7.4903 22.8973 8.80531 23.5029 10.1203 23.9571C10.4238 24.058 10.5249 23.6543 10.272 23.5534Z" fill="white"/>
<path d="M26.3556 10.2306C25.8498 9.42315 25.5969 8.51478 25.6981 7.55594C25.7487 7.20269 25.1923 7.20269 25.1417 7.55594C25.0406 8.61571 25.344 9.67548 26.0015 10.4829C26.1533 10.6848 26.4567 10.4325 26.3556 10.2306Z" fill="white"/>
<path d="M64.3896 3.77106C63.7827 4.32617 63.2263 4.93175 62.6194 5.53734C62.3665 5.78966 62.7711 6.14292 63.024 5.94106C63.6309 5.33548 64.2379 4.78036 64.7942 4.17478C64.9965 3.92245 64.6425 3.5692 64.3896 3.77106Z" fill="white"/>
<path d="M77.6408 19.3648C76.6293 19.718 75.6177 20.0208 74.6062 20.3741C74.2521 20.475 74.4039 21.0806 74.7579 20.9797L77.7925 19.9704C78.1972 19.819 78.0454 19.2134 77.6408 19.3648Z" fill="white"/>
<path d="M29.7442 23.9571C27.9235 23.2506 26.0015 22.645 24.1302 22.0899C23.9279 22.0394 23.8773 22.3422 24.029 22.3927C25.8498 23.1497 27.7212 23.8057 29.5925 24.3608C29.896 24.5122 29.9971 24.058 29.7442 23.9571Z" fill="white"/>
<path d="M28.9856 24.815C27.7212 24.3608 26.4567 23.9571 25.1923 23.5534C24.9394 23.4525 24.8383 23.8562 25.0912 23.9066C26.3556 24.3608 27.62 24.815 28.8844 25.2187C29.1373 25.3197 29.2385 24.916 28.9856 24.815Z" fill="white"/>
<path d="M84.3676 33.4446C82.4456 33.1418 80.4226 33.0913 78.4501 33.1922C78.2983 33.1922 78.2983 33.3941 78.4501 33.3941C80.372 33.5455 82.3445 33.8483 84.2664 33.8987C84.5699 33.8987 84.671 33.495 84.3676 33.4446Z" fill="white"/>
<path d="M84.0641 34.0501C83.1537 33.9997 82.1928 34.1006 81.2824 34.1006C81.0295 34.1006 81.0295 34.5043 81.2824 34.5043C82.1928 34.5548 83.1537 34.6053 84.0641 34.5548C84.3676 34.5548 84.3676 34.0501 84.0641 34.0501Z" fill="white"/>
<path d="M58.3709 18.4564C57.3088 19.4657 56.3478 20.3741 55.134 21.232C54.8811 21.3834 55.134 21.7871 55.3363 21.6357C56.5501 20.8787 57.764 19.9704 58.6744 18.8601C58.8767 18.5573 58.5732 18.2546 58.3709 18.4564Z" fill="white"/>
<path d="M59.5848 19.2134C58.725 19.9704 57.9157 20.7273 57.0559 21.4843C56.8536 21.6357 57.1571 21.888 57.3088 21.7366C58.1686 21.0301 59.0284 20.2732 59.8882 19.5162C60.1917 19.3648 59.8377 19.0115 59.5848 19.2134Z" fill="white"/>
</svg>
