<svg width="55" height="57" viewBox="0 0 55 57" fill="none" xmlns="http://www.w3.org/2000/svg">
<path d="M54.139 3.47992C54.0719 3.37841 54.0048 3.31074 53.9042 3.20922C53.3006 1.95726 52.328 0.874482 50.953 0.265419C49.2762 -0.478992 47.0963 0.502277 45.6207 1.24669C44.8493 1.65273 44.078 2.05877 43.3402 2.49865C42.6695 -1.59561 37.2365 0.806808 35.2243 2.29563C33.3463 3.68294 31.7365 5.57781 30.2945 7.43883C28.8524 9.36753 28.1817 11.4654 27.1756 13.5971C26.6054 13.2588 25.8676 13.1234 25.1634 13.1573C23.889 13.2249 23.017 13.9355 22.4134 14.9506C22.4804 14.6799 22.5811 14.4092 22.6481 14.1385C22.6817 13.9017 22.7487 13.5971 22.6817 13.3941C22.6817 12.0406 22.0445 10.5857 21.6085 9.40137C20.5018 6.52524 17.6512 4.15666 15.3036 2.39714C13.9622 1.38204 11.8493 -0.377482 10.0719 0.434603C8.89813 0.975993 8.76398 2.70167 9.33411 3.88596C8.32801 3.68294 7.28837 3.6491 6.31581 3.75061C2.99569 4.08898 0.379837 6.45756 0.0444712 9.87509C-0.324431 13.631 1.62069 15.5597 5.17557 16.0334C7.65728 16.3718 10.139 16.6763 12.5872 16.947C14.0292 17.1162 15.4713 17.1162 16.8798 17.4545C17.2823 17.5561 17.6847 17.6576 18.0872 17.7929H4.16947C2.99569 17.7929 2.05667 18.7403 2.05667 19.9246V53.8968C2.05667 55.0811 2.99569 56.0286 4.16947 56.0286H46.9957C48.1695 56.0286 49.1085 55.0811 49.1085 53.8968V19.9585C49.1085 18.7742 48.1695 17.8267 46.9957 17.8267H29.5902C30.2609 17.6576 30.9652 17.5561 31.6695 17.4884C33.2457 17.3869 34.8219 17.5222 36.3981 17.5899C39.1146 17.7591 41.9987 17.3869 44.6481 16.9132C48.7396 16.1687 52.6634 14.6799 54.139 10.3826C54.3067 9.90892 54.4408 9.36753 54.5414 8.85998C55.2457 7.1343 55.1786 4.86723 54.139 3.47992Z" fill="white"/>
<path d="M24.4256 14.0032C25.5323 13.6648 27.0079 14.1047 27.4775 15.2213C27.7458 15.8304 27.511 16.8793 27.075 17.4545C27.0415 17.4545 27.0415 17.4884 27.0415 17.5222C27.0415 17.5561 27.0079 17.5561 27.0079 17.5899C25.8342 17.5899 24.6604 17.6237 23.5201 17.8267H22.1451V17.7929C22.1451 17.4207 22.0781 17.0485 22.0445 16.7101C22.1451 16.3718 22.3464 16.0334 22.4805 15.7627C22.9165 14.8491 23.4531 14.3077 24.4256 14.0032Z" fill="#FFD200"/>
<path d="M22.0445 30.5494C23.386 31.9029 24.4927 33.2902 25.0293 35.1512C25.5994 37.0799 24.8616 39.3808 24.0567 41.1403C22.5811 44.3548 18.9256 46.6219 15.7397 48.0431C16.3098 46.9603 17.0811 45.979 17.4165 44.7947C18.0201 42.7983 17.9195 40.9712 17.7183 38.9071C17.6848 38.6364 17.4165 38.6026 17.2488 38.8056C16.1756 40.0237 14.9348 40.8358 13.5598 41.6479C13.2244 41.8509 12.889 42.0201 12.5201 42.1554C12.7884 41.9524 13.0567 41.7832 13.325 41.5802C13.8616 41.1742 14.3647 40.7343 14.8342 40.2267C16.075 38.8733 16.9805 36.0648 15.572 34.5083C14.6665 33.4932 13.3586 33.4932 12.2854 32.7488C10.1055 31.1246 12.1512 27.6733 13.1909 26.0491C14.3647 24.2219 15.8067 22.6316 17.4836 21.2781C18.4226 20.5337 19.3281 20.1277 20.3006 19.7893C19.1604 20.8044 18.2549 22.124 17.5842 23.4098C17.1482 24.2558 16.1086 28.0455 18.0201 28.1132C18.0537 28.1132 18.0537 28.0793 18.0537 28.0455C16.8128 27.7748 17.3829 25.0678 17.5506 24.6618C17.9531 23.6129 18.6909 22.6654 19.3616 21.7857C20.4683 20.3983 21.7762 19.6201 23.2519 18.8419C23.3189 18.808 23.386 18.7742 23.4531 18.7403H23.822C22.0781 20.06 20.7031 21.4135 19.8982 23.6467C19.1269 26.0153 20.3342 28.8914 22.0445 30.5494Z" fill="#FFD200"/>
<path d="M16.5445 16.7101C14.6329 16.3379 12.6543 16.3041 10.7427 16.0334C9.09941 15.8304 7.45612 15.5935 5.81283 15.3567C4.136 15.1536 2.42563 14.7476 1.41953 13.2588C1.35246 13.1573 1.28539 13.0558 1.25185 12.9542C0.312827 9.29986 5.61161 9.50288 8.32807 10.5518C10.9104 11.5331 13.1909 13.3603 15.3037 15.086C16.0415 15.695 16.8128 16.3041 17.5506 16.9132C17.2488 16.8455 16.9134 16.744 16.5445 16.7101Z" fill="#FFD200"/>
<path d="M15.8067 14.4769C13.4592 12.5144 10.9104 10.7548 8.02624 9.67206C6.04758 8.96149 3.36466 8.79231 1.62075 10.1796C0.983559 10.6872 0.782339 11.2962 0.815876 11.9391C-0.0225389 8.85998 2.55978 5.30711 5.44392 4.66421C6.886 4.35968 8.59636 4.35968 10.2061 4.79956C10.2732 4.83339 10.3403 4.86723 10.3738 4.86723C10.4409 4.90107 10.4744 4.90107 10.5415 4.90107C11.9836 5.34095 13.2915 6.08536 14.1299 7.23581C14.197 7.33732 14.3311 7.20197 14.264 7.1343C13.5598 5.81466 12.386 4.93491 11.0445 4.35968C11.0445 4.32584 11.0445 4.25817 11.0445 4.22433C10.9775 3.98747 9.93783 1.51738 11.2122 1.82191C11.7823 1.95726 12.3189 2.32947 12.822 2.634C14.197 3.47992 15.4714 4.46119 16.7122 5.47629C18.6238 7.03279 22.1116 10.4503 22.3128 13.5295C22.2793 13.6987 22.2793 13.9355 22.2793 14.0709C22.2122 14.5446 22.011 14.9845 22.0445 15.4582C22.0445 15.492 22.0781 15.5258 22.1116 15.5597C22.0445 15.695 21.9775 15.8642 21.9104 16.0334C21.5415 14.5784 20.7701 13.2588 19.697 12.1083C19.6634 12.0745 19.5628 12.1422 19.5964 12.2098C20.7701 13.5633 21.3738 15.0521 21.7092 16.7101C21.6421 17.0823 21.6086 17.4545 21.7427 17.7929H20.2671C20.0659 17.7252 19.8311 17.6576 19.6299 17.5561C18.0537 16.5748 16.3098 14.8829 15.8067 14.4769Z" fill="#FFD200"/>
<path d="M45.4195 18.7403C46.4927 18.7403 47.3647 19.6539 47.3647 20.7706V53.2539C47.3647 54.3706 46.4927 55.2842 45.4195 55.2842H5.77929C4.70612 55.2842 3.83417 54.3706 3.83417 53.2539V20.7706C3.83417 19.6539 4.70612 18.7403 5.77929 18.7403H20.1329C20.4012 18.8757 20.6695 19.011 20.9378 19.0787C20.2671 19.1464 19.5964 19.2817 18.8586 19.5863C17.4836 20.1953 16.2092 21.1766 15.1025 22.1917C13.0567 24.1204 11.0781 26.7597 10.3403 29.5343C9.77014 31.7337 10.7092 33.6624 12.7214 34.5422C13.3586 34.8129 13.9622 34.8467 14.5323 35.2527C15.3037 35.7941 15.2701 37.0461 15.1695 37.8582C14.9683 39.8207 13.3921 41.1742 11.8829 42.2231C11.7823 42.2908 11.7488 42.5277 11.9165 42.5277C13.7275 42.4938 15.8067 40.9373 17.1817 39.5839C17.3159 41.1403 17.3494 42.5953 16.9805 44.1857C16.5781 45.8437 15.3708 47.0618 14.7671 48.5845C14.6665 48.8551 14.8342 49.1597 15.1695 49.0243C20.6025 46.8588 26.3037 42.4938 26.0354 35.9971C25.9012 32.7826 22.9165 31.2938 21.2397 28.9929C19.8647 27.098 19.7305 24.7633 20.6695 22.6316C21.4744 20.8382 22.8829 19.8231 24.3921 18.7403H26.1025C29.9256 19.1125 30.4622 23.9512 30.6299 27.2334C30.8311 31.057 28.5171 34.3391 27.5781 37.9258C26.3372 42.5615 27.1086 50.953 32.7092 52.5095C32.9439 52.5772 33.1451 52.2727 32.9775 52.1035C31.636 50.6485 31.7701 47.6709 31.8372 45.8098C31.9043 43.5766 32.7427 41.9863 33.6147 40.1929C35.1238 42.3246 38.0079 42.2908 40.4561 42.9675C40.7915 43.069 41.0933 42.5277 40.7579 42.3585C37.136 40.5651 39.886 36.2678 40.6573 33.4932C41.3281 31.1246 41.4287 28.0793 40.2884 25.8461C38.5445 22.3271 35.5262 19.9585 32.0049 18.7403H45.4195Z" fill="#FFD200"/>
<path d="M33.8159 24.8987C34.1177 23.3083 33.2793 21.3796 32.139 20.263C31.6695 19.7893 31.0659 19.2479 30.4287 18.7742H30.7976C35.7275 20.4999 39.9195 24.1542 40.2549 29.805C40.4561 33.0195 38.8128 35.7941 38.1756 38.8394C37.9073 40.1591 38.2427 41.2419 39.0476 42.0539C37.0689 41.6817 35.0903 41.3095 33.8494 39.6854C33.95 39.4823 34.0506 39.2793 34.1512 39.0425C34.1848 38.9748 34.1848 38.8733 34.1512 38.8056C33.514 39.3132 32.8769 39.8884 32.3403 40.4974C31.5354 41.9524 31.2336 43.7119 31.133 45.3699C31.0323 47.231 31.0994 50.0394 32.1055 51.8328C28.7183 50.344 27.7458 45.9452 27.6116 42.5615C27.4439 38.3319 29.6238 35.0497 30.8982 31.2261C32.1055 27.6056 31.6025 19.9923 27.3769 18.7742H29.322C31.6025 20.1277 33.8494 22.4624 33.5811 24.9325C33.5476 25.0678 33.7823 25.034 33.8159 24.8987Z" fill="#FFD200"/>
<path d="M28.5171 17.3869C28.8525 16.4394 29.5232 15.6612 30.1939 14.9168C31.3677 13.631 32.072 11.973 33.7823 11.2624C33.8159 11.2286 33.8159 11.1609 33.7823 11.1609C31.9043 11.6008 30.9988 13.4618 29.7244 14.7138C29.4226 15.0183 28.8525 15.5258 28.3829 16.1349C28.4165 15.9996 28.4165 15.898 28.4165 15.8304C28.4836 14.8491 28.0476 14.1385 27.3433 13.6987C28.0476 12.4805 28.5506 11.1947 29.322 10.0104C30.261 8.55545 31.4348 7.23581 32.6086 5.98385C34.822 3.6491 39.7183 -0.614339 42.5354 3.0062C42.5354 3.0062 42.5689 3.0062 42.5689 3.04004C41.4622 3.78445 40.4226 4.66421 39.5171 5.71315C39.4836 5.74699 39.5171 5.81466 39.5842 5.78083C41.1939 4.49503 42.8708 3.44608 44.7823 2.634C46.6604 1.85575 49.0415 0.840645 50.886 2.12645C50.9195 2.16028 50.9531 2.16028 50.9866 2.19412C49.6451 2.26179 48.3037 2.87086 47.4653 3.71678C46.1573 5.03642 45.1512 6.59291 44.0445 8.08173C42.7031 9.90892 41.0933 11.3639 39.2488 12.6497C37.2366 14.0709 35.0567 15.2213 32.7092 15.9996C31.3006 16.4733 29.8921 16.7778 28.5171 17.3869Z" fill="#FFD200"/>
<path d="M51.5232 13.1911C50.2488 14.8153 48.1025 15.4582 46.2244 15.9319C43.9439 16.4733 41.697 16.8455 39.3494 16.9808C36.5994 17.15 33.8829 16.8116 31.2336 17.0485C32.7762 16.6086 34.3525 16.2026 35.8616 15.5258C38.3769 14.4092 40.8586 12.8189 42.7701 10.8564C44.9836 8.55545 46.4592 5.00258 49.2762 3.37841C50.1482 2.87086 51.2884 2.93853 52.2275 3.34457C54.2732 6.18687 53.5019 10.6533 51.5232 13.1911Z" fill="#FFD200"/>
</svg>
