<svg width="196" height="135" viewBox="0 0 196 135" fill="none" xmlns="http://www.w3.org/2000/svg">
<path d="M187.078 55.9755C183.221 51.3077 178.405 47.8867 173.095 45.9623C171.014 28.7907 157.784 15.5071 141.823 15.5071C140.469 15.5071 139.124 15.6037 137.79 15.7939C129.96 6.18462 118.813 0.599121 107.011 0.599121C96.4636 0.599121 86.4057 5.00951 78.6889 13.0224C72.739 19.1988 68.5999 27.0747 66.6714 35.7193C49.599 39.3453 36.6534 56.1133 36.6534 76.1876C36.6534 98.9084 53.2281 117.391 73.6007 117.391H74.518H162.929C181.034 117.391 195.763 100.964 195.763 80.7738C195.762 71.5553 192.679 62.7489 187.078 55.9755Z" fill="#E9D4F5"/>
</svg>
