<svg width="190" height="162" viewBox="0 0 190 162" fill="none" xmlns="http://www.w3.org/2000/svg">
<path d="M37.2175 93.1557C37.1918 94.7987 36.8744 96.2694 36.2652 97.5679C35.656 98.8665 34.8026 99.8772 33.7049 100.6C32.6072 101.323 31.3549 101.656 29.9481 101.597C29.0955 101.562 28.445 101.289 27.9965 100.78C27.5266 100.269 27.3046 99.7046 27.3303 99.0865C27.356 98.4684 27.6007 97.9768 28.0643 97.6117C28.5066 97.2457 28.9941 97.0738 29.527 97.0959C30.0599 97.1181 30.5088 97.1047 30.8738 97.0558C31.2175 97.006 31.5439 96.8594 31.853 96.616C32.4702 96.1506 32.8205 94.9161 32.9039 92.9125C32.9492 91.8254 32.764 90.8889 32.3483 90.103C31.9326 89.317 31.3091 88.9068 30.4779 88.8723C29.9237 88.8493 29.3722 89.2748 28.8233 90.1487C28.4566 90.7527 27.8665 92.1054 27.053 94.2068C26.189 96.4982 25.2316 98.2093 24.181 99.34C23.1091 100.47 21.6993 100.998 19.9514 100.926C18.6086 100.87 17.4522 100.438 16.4824 99.6288C15.5125 98.8199 14.7869 97.7862 14.3055 96.5278C13.8249 95.2481 13.614 93.9048 13.6725 92.4981C13.6902 91.0469 13.9828 89.6605 14.5503 88.3389C15.1177 87.0173 15.8979 85.9715 16.8908 85.2013C17.8633 84.409 18.9463 84.0376 20.1399 84.0872C20.7794 84.1137 21.3238 84.3712 21.7732 84.8596C22.2013 85.3471 22.4025 85.9 22.3768 86.5181C22.359 86.9444 22.2138 87.3547 21.9412 87.7491C21.6686 88.1434 21.3382 88.3859 20.9501 88.4766C20.4332 88.5832 20.0309 88.7587 19.7431 89.003C19.4563 89.2259 19.1872 89.535 18.9359 89.9303C18.6153 90.4507 18.3822 90.9215 18.2365 91.3425C18.0909 91.7634 18.0017 92.3683 17.9688 93.1569C17.9298 94.0948 18.0786 94.8803 18.4152 95.5135C18.7314 96.1244 19.1666 96.4414 19.7208 96.4645C20.4242 96.4937 21.0139 96.1765 21.4899 95.5131C21.9668 94.8283 22.4339 93.8655 22.8912 92.6247C23.8024 90.2285 24.4986 88.6346 24.9799 87.8433C25.7818 86.5314 26.61 85.6157 27.4643 85.096C28.3187 84.5763 29.3746 84.3426 30.6322 84.3948C31.9751 84.4506 33.1518 84.9052 34.1626 85.7585C35.1946 86.6127 35.9815 87.713 36.5233 89.0593C37.0447 90.3834 37.2761 91.7489 37.2175 93.1557Z" fill="#FF041B"/>
<path d="M42.4678 69.6754C41.5764 70.6269 40.6263 70.8989 39.6175 70.4915C40.7438 72.2578 40.7186 74.1112 39.542 76.0518C38.7613 77.071 37.8946 77.7908 36.9419 78.2114C35.9893 78.6319 34.9899 78.8265 33.9439 78.7952C32.8979 78.764 31.8446 78.5802 30.784 78.2439C30.4039 78.1594 29.8856 77.9616 29.2291 77.6505C28.5725 77.3393 27.8903 77.0063 27.1824 76.6514C26.4627 76.2688 25.8024 75.9101 25.2014 75.5753C24.5806 75.2326 24.12 74.9776 23.8195 74.8102C23.2068 74.4477 22.85 73.9931 22.7491 73.4462C22.6482 72.8993 22.7315 72.3807 22.9989 71.8905C23.2664 71.4003 23.66 71.0532 24.1799 70.849C24.6998 70.6448 25.2702 70.7141 25.8909 71.0568L27.3498 71.8875C27.7412 72.1146 28.2473 72.3995 28.8681 72.7422C29.4771 73.0571 30.0802 73.3582 30.6774 73.6454C31.2746 73.9326 31.7533 74.1144 32.1136 74.1909C33.1149 74.5032 33.9327 74.6149 34.5671 74.526C35.1897 74.4093 35.7121 74.0566 36.1345 73.4679C36.4293 73.0808 36.5957 72.5843 36.6337 71.9785C36.652 71.3646 36.3439 70.619 35.7094 69.7416C35.6387 69.575 35.5878 69.4164 35.5567 69.2658C32.6569 68.0718 30.0517 67.0312 27.7411 66.1441C27.1872 65.9204 26.7981 65.6023 26.5739 65.1896C26.3497 64.777 26.2582 64.3489 26.2996 63.9055C26.349 63.4423 26.5171 63.027 26.8038 62.6596C27.0708 62.2843 27.4284 62.0261 27.8768 61.8851C28.3133 61.7162 28.8125 61.7338 29.3744 61.9377C32.318 63.0804 36.2842 64.682 41.2728 66.7426C41.8267 66.9663 42.2273 67.3696 42.4746 67.9526C42.7021 68.5277 42.6999 69.102 42.4678 69.6754Z" fill="#009DB4"/>
<path d="M52.8324 50.7756C53.3323 51.2409 53.5631 51.7544 53.5249 52.316C53.5008 52.8616 53.2909 53.344 52.8953 53.7633C52.5137 54.1664 52.0529 54.4011 51.5127 54.4674C50.9726 54.5336 50.4526 54.334 49.9526 53.8687C49.535 53.5037 49.003 53.0102 48.3565 52.3885C47.708 51.7366 47.0696 51.1219 46.4411 50.5442C45.9593 50.123 45.3841 49.6627 44.7155 49.1633C44.0308 48.6498 43.4395 48.2888 42.9416 48.0802C42.5521 47.9098 42.1344 47.8847 41.6887 48.0051C41.2268 48.1114 40.7901 48.3672 40.3784 48.7724C39.9366 49.1795 39.6273 49.6459 39.4506 50.1714C39.2718 50.6669 39.2416 51.1222 39.3601 51.5374C39.5126 51.7841 39.6221 51.9506 39.6883 52.0368C39.7525 52.093 39.857 52.1843 40.0015 52.3106C40.5637 52.802 41.5746 53.6715 43.0342 54.919C44.5099 56.1806 45.6252 57.1414 46.3801 57.8012C46.8298 58.1944 47.0928 58.6226 47.1691 59.0859C47.2292 59.5352 47.1599 59.9705 46.9611 60.3917C46.7462 60.7989 46.451 61.1359 46.0755 61.4027C45.6839 61.6554 45.2612 61.7818 44.8074 61.7818C44.3376 61.7678 43.8778 61.5643 43.428 61.1711C43.155 60.9325 42.7454 60.5744 42.1993 60.0971C41.6532 59.6197 41.0278 59.0872 40.3231 58.4995C39.6324 57.8958 38.9116 57.2941 38.1607 56.6944C37.4078 56.0646 36.6961 55.485 36.0255 54.9555C35.3529 54.3959 34.7707 53.9436 34.2788 53.5986C33.6302 53.1734 33.2709 52.6609 33.2007 52.0612C33.1144 51.4474 33.2821 50.8998 33.7038 50.4184C34.5111 49.594 35.3715 49.4535 36.2851 49.9971C36.0001 48.4446 36.4029 46.9974 37.4933 45.6554C38.5075 44.5301 39.636 43.8732 40.8789 43.6846C42.1058 43.4819 43.3577 43.6554 44.6347 44.2049C45.1025 44.4155 45.6216 44.7134 46.1918 45.0984C46.76 45.4535 47.3151 45.8395 47.8572 46.2567C48.3993 46.6739 48.8551 47.044 49.2245 47.3669C49.9653 48.0428 50.668 48.7137 51.3326 49.3796C51.9951 50.0154 52.4951 50.4808 52.8324 50.7756Z" fill="#FFA701"/>
<path d="M69.3337 39.2695C69.6524 39.8735 69.7012 40.4344 69.4801 40.9522C69.2775 41.4594 68.9205 41.8457 68.4089 42.1113C67.9158 42.3663 67.4034 42.4361 66.8716 42.3207C66.3399 42.2053 65.9146 41.8456 65.596 41.2415C65.322 40.7592 64.9822 40.1181 64.5767 39.318C64.1792 38.4888 63.779 37.698 63.376 36.9456C63.0598 36.3891 62.6684 35.765 62.2017 35.0732C61.7245 34.3628 61.2852 33.8271 60.8838 33.4661C60.5722 33.1768 60.1862 33.0156 59.7257 32.9824C59.2546 32.9307 58.758 33.0283 58.2359 33.2753C57.6846 33.5143 57.239 33.8527 56.899 34.2908C56.567 34.6997 56.3885 35.1197 56.3635 35.5507C56.4263 35.834 56.4747 36.0272 56.5089 36.1305C56.551 36.2047 56.6195 36.3252 56.7144 36.4922C57.0832 37.1414 57.7512 38.2954 58.7182 39.9542C59.6958 41.6316 60.4322 42.9062 60.9275 43.7779C61.2226 44.2973 61.3298 44.7883 61.2492 45.2509C61.158 45.695 60.9491 46.0832 60.6226 46.4154C60.2856 46.7291 59.8959 46.9501 59.4535 47.0783C59.0005 47.1879 58.5598 47.168 58.1314 47.0186C57.6924 46.8506 57.3254 46.5069 57.0303 45.9875C56.8511 45.6722 56.5824 45.1992 56.2241 44.5686C55.8658 43.9379 55.4508 43.2291 54.9791 42.442C54.5259 41.6444 54.0436 40.8388 53.5323 40.0252C53.0289 39.1825 52.5479 38.4007 52.0893 37.6798C51.6386 36.9298 51.2379 36.311 50.8872 35.8232C50.415 35.208 50.2446 34.6057 50.3759 34.0163C50.4966 33.4083 50.8354 32.9465 51.3921 32.6309C52.4259 32.1183 53.2845 32.2692 53.9679 33.0833C54.2103 31.5235 55.0674 30.2897 56.539 29.3818C57.8671 28.6533 59.149 28.4047 60.3846 28.636C61.6097 28.8489 62.7345 29.425 63.759 30.3646C64.1313 30.7176 64.5232 31.1698 64.9347 31.7212C65.3542 32.2436 65.7511 32.7911 66.1254 33.3636C66.4998 33.9361 66.8081 34.4356 67.0505 34.8623C67.5273 35.7446 67.9697 36.6096 68.3777 37.4572C68.7937 38.2759 69.1124 38.8799 69.3337 39.2695Z" fill="#FF4CA6"/>
<path d="M78.641 43.6069C78.2261 44.1819 77.7402 44.488 77.183 44.5252C76.6469 44.5586 76.1533 44.4106 75.7023 44.0813C75.2513 43.752 74.9546 43.3185 74.8123 42.7806C74.6699 42.2428 74.7957 41.6884 75.1895 41.1172C75.5701 40.5918 75.9716 40.0626 76.3941 39.5296C76.8415 39.0136 77.1773 38.5399 77.4016 38.1083C77.7115 37.5525 77.9927 36.9587 78.2452 36.3267C78.1668 36.2543 78.1075 36.1676 78.0672 36.0666L71.4176 24.8591C71.1284 24.3482 71.0186 23.8695 71.0883 23.4229C71.1541 22.9554 71.3422 22.563 71.6526 22.2457C71.9801 21.9036 72.3603 21.6711 72.7932 21.5483C73.2433 21.4006 73.6784 21.4074 74.0985 21.5689C74.5358 21.7055 74.9095 22.0273 75.2197 22.5343L79.8418 30.5027C80.0889 29.1342 80.3939 26.1935 80.7566 21.6805C80.8048 20.9992 81.0614 20.5075 81.5264 20.2052C81.9914 19.903 82.4997 19.7771 83.0513 19.8277C83.6029 19.8782 84.068 20.1073 84.4467 20.515C84.8425 20.8978 85.0077 21.4423 84.9424 22.1483C84.7599 23.3965 84.651 24.7504 84.6159 26.21C84.5979 27.6449 84.4443 29.0504 84.1552 30.4265L83.7986 32.379C83.6438 33.1883 83.4868 33.8678 83.3277 34.4176L82.759 36.2788C82.543 36.9909 82.2963 37.6543 82.0189 38.2692C81.7455 38.905 81.4557 39.5113 81.1497 40.088C80.9425 40.4948 80.6724 40.9131 80.3394 41.343L79.2888 42.7071C78.9387 43.1618 78.7227 43.4617 78.641 43.6069Z" fill="#756BD8"/>
<path d="M105.261 36.5507C104.658 36.4124 104.184 36.0956 103.838 35.6005C103.497 35.0845 103.385 34.5226 103.503 33.9149C103.627 33.3744 103.904 32.9343 104.332 32.5948C104.786 32.2392 105.282 32.0795 105.821 32.1155C106.674 28.5026 107.717 23.9158 108.951 18.355C108.476 18.1366 108.118 17.7917 107.876 17.3204C107.634 16.849 107.575 16.3431 107.699 15.8025C107.838 15.1996 108.173 14.7402 108.705 14.4246C109.238 14.1089 109.805 14.0202 110.408 14.1585L113.926 14.998C114.529 15.1363 114.988 15.4714 115.303 16.0034C115.619 16.5354 115.707 17.1029 115.569 17.7058C115.449 18.2256 115.167 18.6425 114.723 18.9564C114.3 19.2752 113.816 19.4269 113.272 19.4116C112.078 24.894 111.057 29.4313 110.209 33.0234C110.71 33.2258 111.081 33.5627 111.323 34.034C111.586 34.5101 111.668 35.0104 111.569 35.535C111.431 36.1379 111.103 36.61 110.587 36.9513C110.092 37.2973 109.54 37.4115 108.932 37.294L105.261 36.5507Z" fill="#FB5F17"/>
<path d="M119.507 41.21C118.661 40.8042 117.885 40.3019 117.178 39.703C116.491 39.1133 115.971 38.497 115.617 37.8542C115.37 37.3336 115.212 36.7257 115.144 36.0305L115.108 35.5876L115.071 35.0016C115.054 34.5917 115.111 34.2521 115.241 33.9829C115.481 33.483 115.891 33.1472 116.47 32.9755C117.078 32.7939 117.642 32.8276 118.161 33.0766C118.815 33.3902 119.196 33.9276 119.304 34.689L119.373 35.4318L119.379 35.861C119.384 36.1471 119.517 36.4358 119.78 36.7272C120.206 37.1208 120.602 37.4053 120.967 37.5805C121.237 37.7096 121.587 37.8422 122.019 37.9782C123.14 38.2555 123.821 38.1919 124.063 37.7873L124.119 37.6719C124.229 37.4412 124.23 37.1693 124.12 36.8564C123.981 36.5057 123.547 35.931 122.818 35.1321L121.784 34.0331C121.193 33.4418 120.78 32.9955 120.546 32.6941C119.438 31.4055 118.884 30.2175 118.886 29.13C118.875 28.4148 119.003 27.7784 119.271 27.2208C119.493 26.7593 119.797 26.3727 120.183 26.0612C121.021 25.3034 122.28 24.9728 123.962 25.0692C125.06 25.1466 126.1 25.4205 127.081 25.8909C127.274 25.9831 127.553 26.1407 127.919 26.3636C129.529 27.3483 130.691 28.7219 131.407 30.4844C131.644 31.0242 131.634 31.5633 131.375 32.1017C131.135 32.6016 130.735 32.9659 130.175 33.1944C129.635 33.4322 129.105 33.4266 128.586 33.1776C128.182 32.9839 127.843 32.6556 127.568 32.1927L127.125 31.3415C126.909 30.9539 126.738 30.6944 126.612 30.563C126.127 30.094 125.625 29.735 125.105 29.4859C124.625 29.2554 124.188 29.1051 123.795 29.0352C123.499 29.0115 123.309 29.0861 123.226 29.2592C123.171 29.3746 123.192 29.503 123.29 29.6445C123.368 29.7767 123.519 29.9793 123.743 30.2523C124.015 30.5721 124.428 30.9946 124.98 31.5197C125.358 31.8665 125.727 32.2563 126.087 32.6891C126.33 32.9713 126.607 33.2815 126.918 33.6198C127.2 33.9681 127.474 34.3833 127.739 34.8655C128.171 35.5929 128.417 36.3615 128.477 37.1713C128.547 37.9618 128.397 38.7417 128.028 39.5108C127.908 39.7608 127.806 39.9485 127.722 40.0738C126.976 41.183 125.984 41.8431 124.747 42.0542C123.528 42.2745 122.238 42.1764 120.876 41.7599C120.425 41.6147 119.969 41.4314 119.507 41.21Z" fill="#2E3BC0"/>
<path d="M132.227 46.6137C131.765 47.1731 131.237 47.452 130.643 47.4505C130.067 47.462 129.549 47.2763 129.09 46.8931C128.635 46.5399 128.342 46.0829 128.211 45.5219C128.11 44.9572 128.282 44.3886 128.727 43.8161C128.761 43.8422 130.656 41.4241 134.411 36.5616L140.399 28.8132C140.766 28.3417 141.172 28.0629 141.617 27.9766C142.076 27.8735 142.515 27.9172 142.934 28.1077C143.367 28.2814 143.721 28.5561 143.996 28.9318C144.284 29.2907 144.435 29.7049 144.448 30.1743C144.475 30.6268 144.304 31.0888 143.938 31.5603C142.89 32.9073 141.595 34.5893 140.053 36.6061C139.463 37.3638 138.808 38.2058 138.088 39.1319C137.381 40.0411 136.66 40.9672 135.926 41.9102C135.206 42.8363 134.516 43.7053 133.858 44.5173C133.216 45.3424 132.672 46.0412 132.227 46.6137Z" fill="#6DC37A"/>
<path d="M139.151 55.6681C138.672 55.0682 138.269 54.3252 137.943 53.439C137.584 52.3064 137.497 51.1891 137.681 50.0871C137.895 48.9884 138.341 48.0598 139.018 47.3013C139.456 46.789 139.916 46.3399 140.4 45.9542C141.517 45.0629 142.741 44.4415 144.071 44.09C145.935 43.5858 147.725 43.5361 149.442 43.9409C151.158 44.3457 152.569 45.2397 153.674 46.6228C154.074 47.1227 154.44 47.7175 154.773 48.4072C154.979 48.8703 155.104 49.3849 155.147 49.9511L155.246 50.076L155.471 50.306C155.804 50.7227 155.947 51.209 155.9 51.7651C155.866 52.3378 155.652 52.8221 155.259 53.2179L153.672 54.7696C152.965 55.3883 151.748 56.4276 150.02 57.8876L148.709 59.015C147.901 59.7135 147.379 60.1708 147.142 60.387C146.876 60.5998 146.612 60.7827 146.352 60.9356C145.815 61.2547 145.251 61.4039 144.661 61.3833C144.102 61.3661 143.627 61.1308 143.237 60.6775C142.914 60.3075 142.726 59.8844 142.673 59.4082C142.65 58.9353 142.861 58.4127 143.305 57.8404C142.531 57.8296 141.816 57.6357 141.16 57.2587C140.374 56.8216 139.704 56.2914 139.151 55.6681ZM142.699 52.8797C143.098 53.3796 143.67 53.7699 144.413 54.0504C144.603 54.1172 144.848 54.1674 145.148 54.201L145.798 54.2966L146.738 54.2427C146.934 54.2496 147.111 54.2997 147.268 54.3931C148.669 53.2758 149.819 52.2896 150.72 51.4348L150.696 51.0452L150.691 50.4757L150.661 50.131C150.515 49.8112 150.382 49.5763 150.262 49.4263C149.782 48.8264 149.083 48.4294 148.163 48.2353C147.256 48.0578 146.253 48.135 145.153 48.4668C144.289 48.7189 143.599 49.0512 143.082 49.4635C142.181 50.1819 141.909 51.054 142.264 52.08C142.381 52.3965 142.526 52.6631 142.699 52.8797Z" fill="#B23600"/>
<path d="M153.301 77.252C152.654 77.4699 152.092 77.4284 151.616 77.1275C151.147 76.8466 150.822 76.4325 150.641 75.8853C150.467 75.3581 150.48 74.8414 150.678 74.3352C150.877 73.829 151.3 73.467 151.947 73.2491C152.467 73.0559 153.154 72.8232 154.009 72.551C154.891 72.2914 155.736 72.0229 156.543 71.7456C157.143 71.5226 157.822 71.2362 158.579 70.8864C159.357 70.5291 159.956 70.1813 160.376 69.843C160.712 69.5818 160.932 69.2267 161.038 68.7777C161.164 68.3212 161.146 67.8156 160.985 67.261C160.837 66.6789 160.573 66.1852 160.195 65.7797C159.843 65.3868 159.457 65.1436 159.035 65.05C158.745 65.0667 158.547 65.0836 158.439 65.1008C158.359 65.1305 158.229 65.1788 158.049 65.2457C157.349 65.5058 156.103 65.9804 154.311 66.6693C152.499 67.3656 151.123 67.8885 150.183 68.2378C149.623 68.4459 149.121 68.4732 148.677 68.3197C148.253 68.1587 147.902 67.8906 147.626 67.5154C147.37 67.1328 147.213 66.7129 147.157 66.256C147.12 65.7915 147.21 65.3599 147.426 64.9611C147.661 64.5549 148.059 64.2477 148.619 64.0396C148.959 63.9133 149.469 63.7237 150.149 63.471C150.829 63.2183 151.595 62.9222 152.447 62.5826C153.307 62.263 154.18 61.9159 155.065 61.5415C155.977 61.1796 156.826 60.83 157.611 60.4927C158.423 60.168 159.098 59.8716 159.636 59.6035C160.318 59.236 160.94 59.1641 161.502 59.3879C162.083 59.6042 162.486 60.0122 162.709 60.612C163.051 61.7138 162.766 62.5368 161.853 63.0809C163.355 63.5694 164.438 64.6122 165.101 66.2092C165.61 67.636 165.652 68.9404 165.227 70.1225C164.822 71.2971 164.074 72.3147 162.983 73.1754C162.576 73.4863 162.067 73.8006 161.457 74.1184C160.874 74.4488 160.27 74.7529 159.645 75.0307C159.02 75.3086 158.478 75.5329 158.018 75.7039C157.07 76.0332 156.146 76.3314 155.243 76.5985C154.369 76.8781 153.721 77.096 153.301 77.252Z" fill="#B437E5"/>
<path d="M152.982 89.9542C152.944 88.7388 153.226 87.5559 153.83 86.4055C154.434 85.2551 155.332 84.2981 156.524 83.5346C157.717 82.7924 159.134 82.3952 160.776 82.343C162.461 82.2896 164.028 82.5813 165.478 83.2183C166.929 83.8552 168.089 84.7682 168.959 85.9572C169.851 87.1668 170.322 88.5286 170.37 90.0425C170.404 91.1299 170.246 92.1808 169.894 93.1952C172.388 93.0946 173.795 93.0286 174.114 92.9972C174.817 92.9748 175.368 93.1814 175.766 93.617C176.186 94.0519 176.405 94.5679 176.424 95.1649C176.442 95.7407 176.266 96.2585 175.897 96.7184C175.527 97.1784 175.002 97.4299 174.32 97.4729C163.854 97.9119 157.662 98.1618 155.743 98.2228C154.975 98.2471 154.372 98.0849 153.934 97.7359C153.518 97.4076 153.3 96.9236 153.28 96.284C153.261 95.7082 153.417 95.2231 153.746 94.8284C154.097 94.4544 154.634 94.224 155.356 94.137C154.659 93.6895 154.097 93.1311 153.67 92.4616C153.244 91.8135 153.015 90.9777 152.982 89.9542ZM157.262 90.6187C157.283 91.3011 157.525 91.859 157.987 92.2926C158.383 92.6642 159.012 92.9857 159.875 93.2571C160.263 93.3942 160.513 93.5144 160.623 93.6176C162.455 93.5167 163.798 93.4528 164.651 93.4257C164.692 93.3817 164.805 93.2607 164.991 93.0627C165.155 92.844 165.349 92.5711 165.573 92.2438C165.918 91.6779 166.077 90.9792 166.051 90.1476C166.028 89.4226 165.795 88.8004 165.351 88.2808C164.909 87.7826 164.331 87.3955 163.617 87.1193C162.905 86.8644 162.122 86.7505 161.269 86.7776C160.075 86.8155 159.095 87.1882 158.327 87.8955C157.582 88.6022 157.226 89.51 157.262 90.6187Z" fill="#0AB625"/>
</svg>
