<svg width="24" height="24" viewBox="0 0 24 24" fill="none" xmlns="http://www.w3.org/2000/svg">
<path fill-rule="evenodd" clip-rule="evenodd" d="M17.355 22.2322C15.3349 21.7261 11.1994 20.2993 7.45025 16.5501C3.70113 12.801 2.27429 8.66553 1.76816 6.64544C1.4773 5.48453 2.00106 4.36428 2.88918 3.72991L5.21743 2.06687C6.57971 1.09382 8.47481 1.42401 9.42772 2.80045L10.8935 4.9177C11.5157 5.81644 11.3011 7.04824 10.4116 7.68359L9.24283 8.51843C9.41972 9.19504 9.96988 10.5845 11.6929 12.3075C13.4159 14.0305 14.8054 14.5807 15.482 14.7576L16.3168 13.5888C16.9522 12.6993 18.184 12.4847 19.0827 13.1069L21.2 14.5727C22.5764 15.5256 22.9066 17.4207 21.9335 18.783L20.2705 21.1112C19.6361 21.9993 18.5159 22.5231 17.355 22.2322ZM8.86446 15.1359C12.2738 18.5453 16.0363 19.84 17.841 20.2922C18.1048 20.3583 18.4237 20.2558 18.643 19.9487L20.3061 17.6205C20.6304 17.1664 20.5203 16.5347 20.0615 16.2171L17.9443 14.7513L17.0484 16.0055C16.6823 16.5181 16.0052 16.9201 15.2168 16.75C14.2328 16.5377 12.4138 15.8568 10.2787 13.7217C8.14359 11.5866 7.46268 9.76764 7.25036 8.78364C7.08026 7.99524 7.4823 7.31815 7.99487 6.95202L9.24913 6.05612L7.78334 3.93886C7.4657 3.48005 6.834 3.36999 6.37991 3.69434L4.05166 5.35738C3.74462 5.57669 3.64211 5.89559 3.7082 6.15937C4.16037 7.96412 5.45508 11.7266 8.86446 15.1359Z" fill="#232323"/>
</svg>
