<svg width="125" height="140" viewBox="0 0 125 140" fill="none" xmlns="http://www.w3.org/2000/svg">
<path d="M100.71 110.928C100.531 110.658 100.455 110.392 100.483 110.129C100.517 109.876 100.619 109.65 100.789 109.451C100.966 109.261 101.18 109.127 101.429 109.048C101.679 108.969 101.927 108.963 102.173 109.03C102.426 109.108 102.645 109.286 102.831 109.567C103.331 110.344 104.272 111.743 105.654 113.764C107.029 115.775 108.021 117.262 108.631 118.226C108.853 118.583 108.911 118.911 108.807 119.21C108.7 119.526 108.508 119.768 108.231 119.937C107.944 120.112 107.641 120.176 107.322 120.129C106.993 120.088 106.715 119.897 106.49 119.557C106.006 118.784 105.375 117.82 104.597 116.666C102.585 118.084 101.05 119.145 99.9891 119.847C100.718 120.948 101.339 121.896 101.853 122.693C102.068 123.04 102.127 123.368 102.029 123.677C101.922 123.993 101.73 124.236 101.453 124.405C101.173 124.59 100.873 124.659 100.554 124.612C100.231 124.581 99.9571 124.395 99.7318 124.055C99.3111 123.398 97.4011 120.503 94.0017 115.371C93.8162 115.091 93.7371 114.819 93.7646 114.557C93.7986 114.304 93.9008 114.078 94.0711 113.879C94.2481 113.689 94.4582 113.55 94.7014 113.461C94.9513 113.382 95.1992 113.376 95.4453 113.443C95.698 113.521 95.9172 113.699 96.1027 113.98L98.5975 117.746C99.6446 117.067 101.17 116.013 103.175 114.585C102.068 112.957 101.247 111.738 100.71 110.928Z" fill="#80BDC4"/>
<path d="M88.2818 116.369C88.6863 116.217 89.1539 116.131 89.6848 116.111C90.3534 116.117 90.9665 116.265 91.5241 116.555C92.0747 116.861 92.494 117.262 92.7821 117.756C92.9802 118.079 93.1403 118.403 93.2626 118.729C93.545 119.482 93.6646 120.245 93.6212 121.017C93.5666 122.101 93.2817 123.067 92.7664 123.914C92.2511 124.761 91.5272 125.359 90.5947 125.709C90.2577 125.836 89.8757 125.928 89.4487 125.986C89.165 126.015 88.8679 125.992 88.5575 125.916L88.4733 125.948L88.3111 126.028C88.0302 126.133 87.7451 126.125 87.4557 126.003C87.1551 125.885 86.9332 125.686 86.7899 125.407L86.2356 124.288C86.0276 123.802 85.6834 122.97 85.2028 121.792L84.8276 120.895C84.5944 120.341 84.4405 119.982 84.366 119.818C84.2986 119.638 84.2466 119.466 84.21 119.3C84.1327 118.957 84.1509 118.63 84.2646 118.318C84.3713 118.022 84.5798 117.809 84.8902 117.68C85.1444 117.571 85.4035 117.545 85.6676 117.599C85.9246 117.67 86.1676 117.873 86.3966 118.21C86.537 117.799 86.7652 117.45 87.0811 117.165C87.4518 116.821 87.8521 116.555 88.2818 116.369ZM89.1566 118.751C88.8195 118.878 88.5113 119.115 88.2318 119.463C88.163 119.553 88.0935 119.675 88.0233 119.83L87.8591 120.161L87.7244 120.673C87.6865 120.777 87.6289 120.862 87.5516 120.93C87.9058 121.874 88.2332 122.661 88.5339 123.291L88.7466 123.346L89.0521 123.443L89.2418 123.487C89.4384 123.465 89.5873 123.434 89.6884 123.396C90.0928 123.245 90.427 122.94 90.691 122.482C90.9437 122.028 91.077 121.478 91.091 120.832C91.1063 120.327 91.0486 119.9 90.918 119.551C90.6903 118.945 90.271 118.647 89.6601 118.658C89.4704 118.665 89.3026 118.696 89.1566 118.751Z" fill="#E51D82"/>
<path d="M79.2659 116.606C79.2136 116.202 79.3018 115.878 79.5305 115.635C79.7473 115.394 80.0225 115.253 80.3562 115.212C80.6762 115.161 80.9776 115.222 81.2604 115.396C81.5295 115.56 81.6961 115.843 81.7603 116.246C82.0511 118.302 82.5879 121.789 83.3707 126.707C83.4254 127.05 83.3531 127.36 83.1538 127.634C82.9446 127.923 82.6681 128.094 82.3245 128.149C81.8741 128.221 81.4934 128.081 81.1823 127.729C80.0156 128.644 78.81 128.933 77.5657 128.597C76.471 128.285 75.5905 127.562 74.9241 126.429C74.6396 125.94 74.4334 125.407 74.3054 124.832C74.1774 124.257 74.1452 123.673 74.2087 123.08C74.2622 122.5 74.435 121.944 74.7269 121.412C75.0088 120.893 75.4225 120.438 75.9679 120.048C76.9059 119.376 77.7968 119.094 78.6403 119.203C78.9873 119.245 79.3377 119.347 79.6916 119.51C79.5601 118.607 79.4182 117.639 79.2659 116.606ZM78.2943 121.609C78.1071 121.578 77.8113 121.704 77.4067 121.988C76.9823 122.298 76.7383 122.75 76.6748 123.343C76.6131 123.949 76.7409 124.56 77.0579 125.178C77.4111 125.717 77.8042 126.05 78.2373 126.175C78.6823 126.299 79.088 126.252 79.4546 126.036C79.8211 125.82 80.1659 125.352 80.4887 124.632L80.1633 122.588C79.8565 122.187 79.539 121.909 79.2106 121.755C78.8842 121.613 78.5787 121.564 78.2943 121.609Z" fill="#1B2AF0"/>
<path d="M69.6059 117.529C69.6368 117.122 69.7888 116.822 70.0619 116.631C70.3231 116.439 70.6212 116.356 70.9563 116.384C71.28 116.399 71.5627 116.52 71.8044 116.748C72.0347 116.962 72.1404 117.274 72.1215 117.681C71.9895 119.753 71.8082 123.277 71.5776 128.251C71.5615 128.599 71.428 128.887 71.1772 129.116C70.9138 129.356 70.6083 129.468 70.2607 129.452C69.8051 129.431 69.4607 129.216 69.2273 128.809C67.8993 129.468 66.6602 129.507 65.5099 128.925C64.5013 128.398 63.7855 127.512 63.3627 126.267C63.1833 125.73 63.0893 125.167 63.0806 124.578C63.0718 123.989 63.1587 123.41 63.3412 122.842C63.5111 122.286 63.793 121.776 64.1869 121.314C64.5681 120.863 65.0654 120.502 65.6786 120.23C66.7334 119.762 67.6628 119.667 68.4668 119.944C68.798 120.056 69.1205 120.227 69.4341 120.458C69.4883 119.547 69.5456 118.571 69.6059 117.529ZM67.6401 122.231C67.4631 122.162 67.1478 122.226 66.6943 122.421C66.2157 122.639 65.8851 123.032 65.7026 123.6C65.5196 124.181 65.5207 124.805 65.7059 125.475C65.9424 126.074 66.26 126.479 66.6586 126.69C67.0693 126.901 67.476 126.938 67.8788 126.801C68.2816 126.663 68.7141 126.275 69.1762 125.635L69.272 123.568C69.0528 123.113 68.7981 122.777 68.5078 122.559C68.217 122.353 67.9278 122.244 67.6401 122.231Z" fill="#1B2AF0"/>
<path d="M61.3223 115.855C61.6634 115.648 61.9823 115.596 62.279 115.699C62.564 115.799 62.7872 115.984 62.9485 116.254C63.1098 116.523 63.1682 116.813 63.1239 117.123C63.0795 117.432 62.8927 117.692 62.5633 117.902C62.2508 118.09 61.9267 118.276 61.5908 118.46C61.2458 118.629 60.9679 118.8 60.757 118.975C60.4745 119.195 60.1984 119.44 59.9289 119.712C59.9536 119.767 59.9653 119.825 59.964 119.886L60.9475 127.149C60.9851 127.477 60.9369 127.749 60.8027 127.965C60.666 128.193 60.4824 128.355 60.252 128.451C60.0073 128.557 59.7593 128.594 59.5081 128.562C59.2426 128.54 59.0188 128.441 58.8366 128.265C58.6401 128.099 58.5172 127.85 58.4678 127.519L57.8234 122.379C57.3949 123.033 56.5913 124.489 55.4126 126.747C55.2381 127.09 54.9973 127.288 54.6901 127.342C54.3829 127.397 54.092 127.351 53.8174 127.204C53.5428 127.056 53.3522 126.836 53.2456 126.542C53.1246 126.256 53.1586 125.938 53.3474 125.587C53.716 124.98 54.0696 124.303 54.4083 123.555C54.7326 122.816 55.1207 122.121 55.5726 121.472L56.1859 120.539C56.4438 120.154 56.6743 119.836 56.8774 119.586L57.5805 118.747C57.8488 118.426 58.1222 118.136 58.4008 117.879C58.6821 117.609 58.9652 117.359 59.2504 117.127C59.447 116.962 59.6787 116.805 59.9456 116.655L60.7892 116.179C61.0704 116.02 61.2481 115.912 61.3223 115.855Z" fill="#E51D82"/>
<path d="M41.5956 111.214C42.1644 111.348 42.6587 111.578 43.0784 111.901C43.4981 112.225 43.864 112.6 44.176 113.027C44.5018 113.476 44.7356 113.98 44.8774 114.54C45.009 115.093 45.051 115.653 45.0031 116.22C44.9489 116.797 44.7906 117.336 44.5283 117.838C44.1888 118.461 43.7061 119.007 43.0803 119.476C42.4379 119.95 41.7573 120.27 41.0385 120.439C40.5185 120.563 39.9967 120.601 39.473 120.552C38.9659 120.5 38.4482 120.341 37.9199 120.076C37.3916 119.811 36.9452 119.406 36.5807 118.861C36.3782 118.576 36.2056 118.21 36.0629 117.764C36.0555 117.731 36.0284 117.628 35.9814 117.456L35.853 117.054C35.7398 116.74 35.7306 116.464 35.8253 116.226C35.9201 115.987 36.0743 115.801 36.2878 115.667C36.4912 115.526 36.7208 115.444 36.9766 115.422C37.2325 115.4 37.475 115.455 37.7042 115.587C37.9168 115.722 38.0797 115.946 38.193 116.26C38.2068 116.283 38.2961 116.568 38.4608 117.113C38.5179 117.292 38.5672 117.416 38.6086 117.485C39.0136 118.055 39.6068 118.241 40.3881 118.041C40.7922 117.942 41.1746 117.766 41.5353 117.512C41.886 117.252 42.1427 116.96 42.3056 116.637C42.4657 116.34 42.5412 115.976 42.5319 115.543C42.5163 115.121 42.3832 114.738 42.1329 114.393C41.8623 114.036 41.5958 113.796 41.3335 113.671C41.0546 113.551 40.7909 113.518 40.5424 113.573C40.4596 113.592 40.3312 113.66 40.1573 113.776C39.6484 114.107 39.3824 114.279 39.3594 114.293C39.0732 114.452 38.803 114.508 38.549 114.46C38.2885 114.422 38.0732 114.314 37.9029 114.134C37.7225 113.948 37.5964 113.733 37.5246 113.488C37.4528 113.243 37.4592 112.998 37.5439 112.754C37.6221 112.519 37.7992 112.319 38.0753 112.153C38.1508 112.102 38.2608 112.029 38.4053 111.936C38.5396 111.837 38.6496 111.765 38.7352 111.72C39.142 111.438 39.5276 111.257 39.892 111.176C40.4617 111.04 41.0296 111.053 41.5956 111.214Z" fill="#D46269"/>
<path d="M37.8866 108.264C38.1335 108.492 38.2762 108.771 38.3149 109.1C38.3536 109.43 38.2386 109.74 37.97 110.031C37.213 110.851 36.0708 112.124 34.5433 113.85C33.0158 115.575 31.7759 116.954 30.8236 117.985C30.555 118.276 30.2548 118.416 29.9231 118.404C29.5915 118.391 29.3022 118.271 29.0553 118.043C28.8084 117.815 28.6656 117.537 28.627 117.207C28.5883 116.877 28.7033 116.567 28.9719 116.276C29.9323 115.236 30.6157 114.487 31.022 114.029C30.7236 113.998 30.4326 113.942 30.149 113.86C29.7367 113.74 29.3497 113.514 28.9882 113.18C28.4768 112.708 28.1359 112.148 27.9657 111.501C27.7866 110.846 27.8216 110.233 28.0705 109.663C28.2577 109.248 28.5745 108.781 29.0208 108.262C29.1503 108.104 29.4023 107.822 29.7767 107.416L30.2529 106.901L32.3712 104.765C32.6242 104.509 32.8996 104.387 33.1973 104.401C33.4951 104.414 33.7586 104.527 33.9879 104.739C34.2347 104.967 34.3731 105.241 34.403 105.563C34.4328 105.884 34.3131 106.182 34.0438 106.456L31.9743 108.539L31.3018 109.241L30.8145 109.795C30.5472 110.12 30.3943 110.33 30.3556 110.425C30.1996 110.771 30.3068 111.115 30.6771 111.457C30.9505 111.709 31.2679 111.896 31.6294 112.017C32.0248 112.137 32.3748 112.183 32.6794 112.154C34.215 110.419 35.3613 109.142 36.1183 108.322C36.3869 108.031 36.687 107.892 37.0187 107.904C37.3504 107.916 37.6397 108.036 37.8866 108.264Z" fill="#756BD8"/>
<path d="M31.3424 103.623C29.4047 105.272 27.5575 106.776 25.8007 108.135C25.5341 108.34 25.2733 108.439 25.0182 108.432C24.7556 108.415 24.5254 108.325 24.3279 108.162C24.1211 108.006 23.9697 107.804 23.8739 107.556C23.7688 107.316 23.7452 107.071 23.803 106.821C23.8531 106.561 24.0115 106.329 24.2781 106.124C26.0534 104.75 27.8637 103.276 29.7089 101.704C30.0234 101.444 30.3441 101.342 30.6711 101.399C30.9813 101.454 31.248 101.607 31.4714 101.858C31.6779 102.108 31.7866 102.4 31.7976 102.733C31.8009 103.057 31.6492 103.354 31.3424 103.623ZM21.1685 109.256C21.1913 108.925 21.3014 108.663 21.4988 108.469C21.687 108.282 21.9156 108.163 22.1847 108.112C22.4445 108.068 22.7064 108.093 22.9703 108.186C23.2173 108.278 23.4195 108.438 23.5769 108.666C23.7266 108.884 23.7855 109.163 23.7534 109.501C23.7214 109.839 23.6067 110.105 23.4093 110.299C23.2118 110.493 22.9832 110.612 22.7234 110.656C22.4559 110.69 22.1987 110.662 21.9517 110.57C21.6954 110.486 21.4924 110.335 21.3427 110.116C21.1853 109.888 21.1273 109.601 21.1685 109.256Z" fill="#D22A8A"/>
<path d="M27.1236 97.719C27.4672 97.4986 27.7977 97.4398 28.1151 97.5427C28.4258 97.6356 28.6709 97.8241 28.8506 98.1082C29.0335 98.3757 29.1118 98.671 29.0856 98.9942C29.0427 99.3142 28.8529 99.5894 28.5161 99.8196C28.5025 99.7998 27.0726 100.77 24.2263 102.73L19.6894 105.854C19.4121 106.043 19.1467 106.123 18.8934 106.093C18.6302 106.069 18.4027 105.97 18.211 105.796C18.0093 105.629 17.8671 105.421 17.7843 105.172C17.6916 104.93 17.6821 104.682 17.7557 104.428C17.8194 104.181 17.9899 103.963 18.2673 103.773C19.0598 103.232 20.0421 102.553 21.2142 101.737C21.66 101.432 22.1553 101.094 22.7002 100.721C23.2351 100.355 23.78 99.9829 24.3347 99.6037C24.8796 99.2312 25.3981 98.884 25.8903 98.5621C26.3757 98.2303 26.7868 97.9492 27.1236 97.719Z" fill="#756BD8"/>
<path d="M25.3435 92.193C25.6424 92.8082 25.769 93.4805 25.7231 94.2099C25.6772 94.9393 25.4358 95.6369 24.9989 96.3028C24.5567 96.9579 23.9201 97.4874 23.089 97.8912C22.2363 98.3054 21.3645 98.5156 20.4735 98.5215C19.5825 98.5275 18.7771 98.3251 18.0572 97.9144C17.3214 97.4982 16.7672 96.9069 16.3949 96.1405C16.1275 95.5901 15.9676 95.014 15.9154 94.4123C14.6579 95.0366 13.9507 95.3935 13.7941 95.483C13.4379 95.6561 13.1076 95.6764 12.8032 95.5442C12.488 95.4172 12.257 95.2025 12.1101 94.9003C11.9685 94.6089 11.9398 94.3026 12.024 93.9816C12.1081 93.6605 12.3203 93.4107 12.6604 93.2321C17.9338 90.6033 21.0562 89.0529 22.0276 88.5809C22.4162 88.3921 22.763 88.337 23.068 88.4156C23.357 88.4887 23.5801 88.6871 23.7375 89.0109C23.879 89.3024 23.9107 89.5872 23.8324 89.8653C23.738 90.138 23.5153 90.3796 23.164 90.5903C23.6248 90.66 24.0416 90.8177 24.4145 91.0634C24.7821 91.2984 25.0918 91.6749 25.3435 92.193ZM22.9936 92.8344C22.8258 92.489 22.5735 92.2581 22.2367 92.1415C21.948 92.0417 21.5511 92.021 21.0459 92.0797C20.8149 92.0985 20.6593 92.0941 20.5791 92.0663C19.6614 92.5389 18.9866 92.8801 18.5549 93.0899C18.5438 93.1219 18.5133 93.2101 18.4633 93.3545C18.4294 93.5044 18.3925 93.6891 18.3524 93.9087C18.3052 94.2785 18.3839 94.6738 18.5885 95.0948C18.7668 95.4618 19.0294 95.7277 19.3764 95.8927C19.7181 96.0468 20.1038 96.1129 20.5334 96.091C20.9577 96.0583 21.3858 95.937 21.8175 95.7272C22.4219 95.4336 22.8399 95.017 23.0715 94.4776C23.2922 93.9434 23.2663 93.3957 22.9936 92.8344Z" fill="#0AB625"/>
<path d="M22.1801 86.2673C22.019 86.5758 21.777 86.7764 21.4541 86.8692C20.3156 87.2088 19.4177 87.4731 18.7603 87.662C18.6285 87.7248 18.4958 87.7629 18.3624 87.7763C17.0855 88.1557 15.928 88.4945 14.89 88.7928C14.4402 88.922 14.0668 88.9044 13.7699 88.74C13.4581 88.5674 13.2542 88.3139 13.1581 87.9794C13.0885 87.7372 13.0947 87.4982 13.1768 87.2624C13.244 87.0183 13.4316 86.8021 13.7395 86.6137C13.3532 86.2253 12.8661 85.6162 12.278 84.7863C12.0484 84.4652 11.9779 84.1546 12.0665 83.8545C12.1435 83.5577 12.3129 83.3217 12.5747 83.1466C12.8217 82.9632 13.0985 82.8837 13.4051 82.908C13.7084 82.9207 13.9749 83.0876 14.2045 83.4087C14.8784 84.3637 15.5019 85.1647 16.0748 85.8116C16.4571 85.7517 16.9836 85.6067 17.6541 85.3766C18.3774 85.1563 19.4005 84.8498 20.7236 84.4572C21.0811 84.3544 21.41 84.391 21.7102 84.5669C21.9957 84.7346 22.1905 84.9783 22.2948 85.2979C22.3992 85.6175 22.3609 85.9407 22.1801 86.2673Z" fill="#E51D82"/>
<path d="M20.3375 75.1562C20.4373 76.111 20.3217 76.9677 19.9907 77.7262C19.6597 78.4846 19.174 79.0904 18.5336 79.5434C17.892 79.9844 17.1594 80.248 16.3359 80.334C15.2975 80.4425 14.3765 80.3457 13.5727 80.0436C12.7809 79.7402 12.1268 79.2535 11.6104 78.5836C11.094 77.9136 10.7884 77.1251 10.6937 76.218C10.5964 75.2871 10.7038 74.4675 11.0159 73.7592C11.3293 73.0629 11.7967 72.5133 12.4182 72.1106C13.0278 71.7091 13.7324 71.4665 14.532 71.383C14.9378 71.3406 15.2678 71.4389 15.522 71.6777C15.7762 71.9166 15.9443 72.255 16.0262 72.6928C16.2033 73.5792 16.328 74.3686 16.4003 75.0608C16.4689 75.7172 16.5245 76.4233 16.5673 77.1789L16.6148 77.8074C17.1922 77.6747 17.628 77.3999 17.9223 76.9831C18.2034 76.5555 18.2908 75.9492 18.1847 75.1639C18.1353 74.8071 18.0636 74.5251 17.9696 74.3177C17.8636 74.1116 17.7243 73.9331 17.5517 73.7822C17.354 73.6219 17.1873 73.4704 17.0517 73.3277C16.9043 73.1863 16.8162 72.9783 16.7875 72.7038C16.7551 72.3935 16.8357 72.1257 17.0293 71.9003C17.2098 71.6643 17.4372 71.5319 17.7118 71.5033C18.0937 71.4634 18.4776 71.6163 18.8637 71.9621C19.2497 72.3078 19.5759 72.7744 19.8424 73.3619C20.1076 73.9375 20.2727 74.5356 20.3375 75.1562ZM14.785 77.9623C14.807 77.2482 14.7611 76.4627 14.6474 75.6059C14.5495 74.7836 14.4328 74.1865 14.2974 73.8145C13.7867 73.892 13.3912 74.0902 13.1108 74.4091C12.8291 74.716 12.7323 75.2328 12.8203 75.9596C12.8958 76.5671 13.0848 77.048 13.3873 77.4025C13.6898 77.757 14.1557 77.9436 14.785 77.9623Z" fill="#002AFF"/>
<path d="M19.3441 61.3657C19.7251 61.4147 19.9991 61.5738 20.1659 61.8431C20.3339 62.1004 20.3964 62.3898 20.3533 62.7111C20.3113 63.0205 20.1778 63.2789 19.9528 63.4862C19.7278 63.6935 19.4248 63.7727 19.0437 63.7238C18.7332 63.6938 18.3282 63.6425 17.8289 63.5701C17.3187 63.4846 16.8253 63.4128 16.3487 63.3547C15.9904 63.32 15.5766 63.2981 15.1073 63.2889C14.6261 63.2785 14.2375 63.3073 13.9416 63.3751C13.7077 63.4248 13.5087 63.5502 13.3446 63.7514C13.1685 63.9514 13.053 64.2114 12.9979 64.5316C12.9297 64.8626 12.9415 65.1772 13.0332 65.4754C13.1141 65.7605 13.2498 65.9786 13.4401 66.1296C13.5908 66.1924 13.6954 66.2327 13.754 66.2504C13.8017 66.255 13.8794 66.2625 13.9869 66.2729C14.4049 66.3133 15.152 66.3795 16.2282 66.4716C17.3162 66.5647 18.141 66.6384 18.7024 66.6927C19.0368 66.7251 19.2975 66.8347 19.4843 67.0215C19.6593 67.2072 19.7705 67.4289 19.8179 67.6867C19.8533 67.9433 19.8291 68.1941 19.7451 68.4392C19.6492 68.6831 19.4976 68.8794 19.2903 69.0282C19.0711 69.1757 18.7943 69.2334 18.4598 69.201C18.2568 69.1814 17.9522 69.1519 17.5461 69.1127C17.14 69.0734 16.6795 69.0349 16.1648 68.9972C15.6512 68.9475 15.1245 68.9086 14.5847 68.8806C14.0341 68.8394 13.5187 68.8076 13.0387 68.7853C12.5478 68.7499 12.1334 68.7339 11.7955 68.7374C11.3597 68.7556 11.0274 68.639 10.7985 68.3878C10.5577 68.1355 10.4546 67.8302 10.4892 67.4718C10.5874 66.8303 10.9344 66.4841 11.53 66.4332C10.8904 65.8168 10.5994 65.0231 10.6572 64.0521C10.7511 63.2052 11.051 62.535 11.5569 62.0414C12.0508 61.5466 12.6796 61.2156 13.4432 61.0483C13.726 60.9913 14.0608 60.9573 14.4477 60.9465C14.8237 60.9226 15.204 60.9172 15.5885 60.9303C15.9731 60.9433 16.3027 60.9631 16.5774 60.9897C17.1376 61.0559 17.6788 61.1324 18.2009 61.219C18.7122 61.2926 19.0932 61.3415 19.3441 61.3657Z" fill="#F91717"/>
<path d="M25.0954 47.9259C24.8612 48.399 24.5731 48.8322 24.2312 49.2253C23.8946 49.6077 23.5442 49.8962 23.1801 50.0908C22.8854 50.2261 22.5423 50.3107 22.1507 50.3444L21.9012 50.3615L21.5712 50.3789C21.3405 50.3852 21.1498 50.3511 20.9993 50.2765C20.7197 50.1381 20.5336 49.9054 20.4411 49.5784C20.3431 49.2353 20.366 48.9186 20.5098 48.6282C20.6908 48.2626 20.9958 48.0521 21.425 47.9967L21.8434 47.9629L22.0849 47.9619C22.2459 47.9613 22.4093 47.8882 22.5751 47.7426C22.7995 47.5056 22.9624 47.2849 23.0635 47.0806C23.138 46.93 23.2151 46.7339 23.2946 46.492C23.4585 45.8635 23.4275 45.4799 23.2015 45.3413L23.137 45.3093C23.008 45.2454 22.855 45.2434 22.6781 45.3031C22.4799 45.379 22.1535 45.6191 21.6989 46.0234L21.0733 46.5974C20.7365 46.9261 20.4825 47.1552 20.3112 47.2847C19.5785 47.8994 18.9061 48.2026 18.2943 48.1943C17.8918 48.1958 17.5346 48.1194 17.2228 47.965C16.9647 47.8373 16.7493 47.6637 16.5767 47.4444C16.1562 46.9684 15.979 46.258 16.045 45.3132C16.0963 44.6959 16.2576 44.113 16.5292 43.5645C16.5824 43.4569 16.673 43.301 16.801 43.0965C17.3663 42.1981 18.1473 41.5537 19.1439 41.1633C19.4493 41.0333 19.7526 41.0428 20.0537 41.1919C20.3333 41.3303 20.5355 41.5576 20.6601 41.8738C20.7901 42.1791 20.7833 42.477 20.6395 42.7674C20.5277 42.9932 20.3406 43.1818 20.0783 43.3331L19.5962 43.5765C19.3767 43.6954 19.2295 43.7899 19.1546 43.86C18.8874 44.1294 18.6818 44.4093 18.5381 44.6996C18.405 44.9685 18.3174 45.213 18.2753 45.4332C18.2599 45.5996 18.3006 45.7068 18.3974 45.7547C18.4619 45.7867 18.5343 45.7756 18.6146 45.7217C18.6895 45.6784 18.8046 45.5948 18.9597 45.4707C19.1416 45.3198 19.3822 45.0907 19.6815 44.7837C19.8792 44.5736 20.1012 44.3688 20.3472 44.1692C20.5077 44.0344 20.6842 43.8808 20.8767 43.7083C21.0746 43.5519 21.3102 43.4007 21.5833 43.2547C21.9956 43.0169 22.4297 42.8837 22.8858 42.8551C23.3311 42.8211 23.7688 42.9106 24.199 43.1236C24.3388 43.1928 24.4437 43.2514 24.5136 43.2995C25.1325 43.7263 25.497 44.2884 25.607 44.9856C25.7225 45.6721 25.6582 46.3968 25.4144 47.1598C25.3295 47.4124 25.2232 47.6677 25.0954 47.9259Z" fill="#80BDC4"/>
<path d="M29.2951 40.7308C29.1582 40.9279 28.9607 41.0756 28.7025 41.1739C28.5878 41.255 28.4666 41.3243 28.339 41.3817L27.8503 41.6122C27.3498 41.849 26.9326 41.9975 26.5986 42.0578C26.2654 42.0748 25.9816 42.0311 25.7472 41.9268C25.503 41.8156 25.1705 41.6213 24.7496 41.3436L24.4539 41.1383C24.1613 40.9497 23.4925 40.4926 22.4477 39.7671C22.0239 39.4728 21.707 39.2454 21.497 39.085L21.3019 39.3659C21.1308 39.6123 20.8964 39.771 20.5988 39.8419C20.2982 39.8961 20.0148 39.8308 19.7487 39.646C19.4727 39.4544 19.311 39.2033 19.2636 38.8928C19.2064 38.5755 19.2634 38.2936 19.4345 38.0472L19.6193 37.7811L18.9938 37.3248L18.5355 37.0066C18.2269 36.7777 18.0573 36.5065 18.0266 36.193C17.9929 35.8628 18.0685 35.5647 18.2533 35.2985C18.4449 35.0225 18.7062 34.8461 19.0373 34.7691C19.3751 34.6823 19.7067 34.7519 20.0319 34.9777L21.0168 35.7055L21.3966 35.1584C21.643 34.8036 21.9215 34.6025 22.232 34.5551C22.5424 34.5077 22.8406 34.5833 23.1264 34.7818C23.4024 34.9734 23.574 35.2313 23.641 35.5555C23.6983 35.8728 23.6003 36.2138 23.347 36.5785L22.9672 37.1255C23.3713 37.4062 23.6685 37.6199 23.8588 37.7666C24.0589 37.9202 24.3512 38.1305 24.7356 38.3974C25.3664 38.8354 25.9272 39.1956 26.4178 39.4779C26.4846 39.4658 26.5214 39.4549 26.5283 39.445L26.7344 39.369L26.8757 39.2918L27.042 39.2101L27.1833 39.1329C27.3854 39.0102 27.5802 38.919 27.7677 38.8593C28.1869 38.6975 28.5689 38.7364 28.9139 38.9759C29.1899 39.1676 29.3728 39.4407 29.4626 39.7952C29.5426 40.143 29.4867 40.4548 29.2951 40.7308Z" fill="#FF8800"/>
<path d="M35.7525 33.5163C35.0865 33.823 34.5341 33.7632 34.0951 33.3368C34.3071 34.4963 33.901 35.4569 32.8767 36.2185C32.2541 36.584 31.6501 36.7753 31.0648 36.7922C30.4795 36.8092 29.9178 36.6986 29.3797 36.4603C28.8416 36.222 28.3321 35.9027 27.851 35.5024C27.671 35.3777 27.443 35.1646 27.1671 34.8631C26.8911 34.5616 26.6065 34.2433 26.3131 33.9081C26.0194 33.556 25.7516 33.2289 25.5096 32.9269C25.259 32.6166 25.0732 32.3859 24.9522 32.2349C24.7099 31.9159 24.6205 31.6033 24.6839 31.2968C24.7474 30.9904 24.9007 30.7378 25.1439 30.5391C25.3871 30.3404 25.6658 30.243 25.9798 30.2469C26.2938 30.2509 26.5762 30.408 26.8268 30.7183L27.4104 31.4609C27.5661 31.6623 27.7692 31.9182 28.0198 32.2285C28.2702 32.5219 28.5204 32.8068 28.7705 33.0832C29.0207 33.3596 29.2314 33.556 29.4028 33.6723C29.8581 34.0475 30.2603 34.2793 30.6095 34.3676C30.9585 34.4389 31.3053 34.3659 31.6501 34.1488C31.8857 34.0096 32.0776 33.7861 32.2259 33.4785C32.3656 33.1625 32.3632 32.7085 32.2189 32.1166C32.2174 32.0147 32.2245 31.9213 32.2402 31.8362C30.9833 30.5985 29.8472 29.5033 28.832 28.5507C28.5909 28.3166 28.4558 28.0682 28.4265 27.8055C28.3972 27.5429 28.4404 27.3004 28.556 27.0781C28.6799 26.8472 28.8555 26.6664 29.0827 26.5358C29.3013 26.3968 29.5423 26.3382 29.8057 26.3598C30.0689 26.3645 30.3251 26.4796 30.5745 26.7051C31.8652 27.9253 33.591 29.6017 35.752 31.7342C35.993 31.9684 36.1161 32.2636 36.1213 32.6199C36.1179 32.9679 35.9949 33.2667 35.7525 33.5163Z" fill="#019D4F"/>
<path d="M41.0002 29.2701C40.4369 29.6581 39.7913 29.8844 39.0633 29.9488C38.3353 30.0132 37.6093 29.8795 36.8853 29.5477C36.1711 29.2091 35.5519 28.6594 35.0276 27.8985C34.4898 27.1179 34.1509 26.2876 34.0109 25.4077C33.871 24.5277 33.9499 23.701 34.2476 22.9276C34.5484 22.1374 35.0496 21.5006 35.7512 21.0172C36.2551 20.67 36.8006 20.4253 37.3876 20.2832C36.5811 19.1339 36.1219 18.4885 36.0099 18.3471C35.7852 18.021 35.7154 17.6975 35.8003 17.3767C35.8785 17.046 36.0559 16.7853 36.3326 16.5946C36.5994 16.4108 36.8978 16.3363 37.2279 16.3712C37.5579 16.4061 37.8368 16.5783 38.0646 16.8877C41.4569 21.7055 43.4595 24.5591 44.0722 25.4484C44.3173 25.8042 44.424 26.1387 44.3921 26.4521C44.3634 26.7488 44.2008 26.9992 43.9044 27.2035C43.6375 27.3873 43.3607 27.4615 43.0739 27.4259C42.7902 27.3737 42.5178 27.1898 42.2567 26.8742C42.2571 27.3402 42.1639 27.776 41.9771 28.1816C41.8001 28.5804 41.4745 28.9433 41.0002 29.2701ZM40.0124 27.0434C40.3287 26.8255 40.519 26.5413 40.5836 26.1908C40.6389 25.8904 40.5995 25.4949 40.4656 25.0043C40.4122 24.7788 40.3932 24.6243 40.4085 24.5409C39.8032 23.7047 39.3644 23.0889 39.0921 22.6937C39.0587 22.6875 38.9669 22.6706 38.8167 22.643C38.6634 22.632 38.4752 22.6232 38.2521 22.6166C37.8795 22.6257 37.5004 22.763 37.115 23.0285C36.7791 23.26 36.5556 23.5596 36.4448 23.9275C36.3438 24.2885 36.3365 24.6797 36.4228 25.1011C36.519 25.5157 36.7033 25.9207 36.9756 26.3159C37.3569 26.8693 37.8316 27.2199 38.3997 27.3676C38.961 27.5055 39.4986 27.3974 40.0124 27.0434Z" fill="#002AFF"/>
<path d="M45.8802 24.5788C44.7277 22.3105 43.695 20.164 42.782 18.1391C42.6448 17.8321 42.6094 17.5555 42.6757 17.3091C42.7528 17.0575 42.8938 16.8546 43.099 16.7006C43.2988 16.5357 43.5303 16.4355 43.7936 16.4C44.0515 16.3536 44.2955 16.3877 44.5253 16.5022C44.766 16.6114 44.9549 16.8194 45.0921 17.1264C46.0156 19.1728 47.0272 21.2763 48.1269 23.4368C48.3066 23.8031 48.3308 24.1387 48.1997 24.4436C48.0741 24.7324 47.863 24.9562 47.5667 25.1149C47.2758 25.2576 46.9669 25.2955 46.64 25.2286C46.3239 25.1564 46.0707 24.9398 45.8802 24.5788ZM42.7703 13.3733C43.0861 13.4724 43.3156 13.6405 43.4587 13.8777C43.5965 14.1042 43.659 14.3542 43.6462 14.6278C43.628 14.8907 43.5429 15.1396 43.3909 15.3745C43.2443 15.5934 43.0418 15.7529 42.7835 15.8529C42.5359 15.9476 42.2515 15.94 41.9303 15.8302C41.6092 15.7204 41.377 15.5469 41.234 15.3097C41.0909 15.0725 41.0284 14.8224 41.0465 14.5596C41.0754 14.2915 41.1631 14.048 41.3097 13.8291C41.451 13.5994 41.6454 13.4372 41.893 13.3425C42.1514 13.2425 42.4438 13.2528 42.7703 13.3733Z" fill="#B843E8"/>
<path d="M53.3859 22.7696C52.3294 22.8938 51.4059 22.6857 50.6153 22.1451C49.8132 21.6082 49.2068 20.8952 48.796 20.0062C48.5443 19.4568 48.3766 18.8742 48.2927 18.2584C48.2203 17.639 48.2388 17.0282 48.3483 16.4261C48.4693 15.8203 48.6922 15.2574 49.017 14.7375C49.2066 14.4248 49.487 14.1396 49.8581 13.8821C49.8696 13.8785 49.9786 13.8057 50.1852 13.6639C50.2693 13.6118 50.3305 13.567 50.3689 13.5295C50.6486 13.3013 50.9723 13.2102 51.3398 13.2562C52.469 13.0835 53.2457 13.03 53.6699 13.0956C54.2647 13.1823 54.8045 13.4315 55.2892 13.8432C55.7817 14.2399 56.1822 14.7228 56.4905 15.2918C56.8102 15.8572 57.0047 16.4249 57.0739 16.995C57.1962 17.5733 57.2426 18.1507 57.213 18.7272C57.1872 19.3151 57.0493 19.9074 56.7995 20.5041C56.5496 21.1007 56.1872 21.5823 55.7124 21.9486C55.1342 22.3859 54.3587 22.6595 53.3859 22.7696ZM53.0847 20.2955C53.6054 20.2295 53.9768 20.1105 54.1989 19.9385C54.4096 19.7702 54.551 19.5233 54.6231 19.1978C54.7067 18.8686 54.7299 18.5083 54.6927 18.117C54.6633 17.7106 54.5843 17.3264 54.4557 16.9644C54.3349 16.5872 54.1773 16.2723 53.983 16.0196C53.7886 15.7668 53.5721 15.622 53.3334 15.585C53.0719 15.5554 52.8003 15.5731 52.5188 15.6381C52.2449 15.688 51.9295 15.7261 51.5725 15.7523C51.3965 15.8716 51.3028 15.9332 51.2914 15.9368L51.1419 16.0603C50.9098 16.4371 50.7849 16.8929 50.7673 17.4278C50.7496 17.9627 50.8575 18.4763 51.0908 18.9686C51.5309 19.949 52.1956 20.3913 53.0847 20.2955Z" fill="#E51D82"/>
</svg>
